<svg width="160" height="160" viewBox="0 0 160 160" fill="none" xmlns="http://www.w3.org/2000/svg">
<path d="M81.3438 8.375C82 8.375 82.5104 8.28385 82.875 8.10156C83.4479 7.8151 83.7344 7.29948 83.7344 6.55469C83.7344 5.80469 83.4297 5.29948 82.8203 5.03906C82.4766 4.89323 81.9661 4.82031 81.2891 4.82031H78.5156V8.375H81.3438ZM81.8672 13.6719C82.8203 13.6719 83.5 13.3958 83.9062 12.8438C84.1615 12.4948 84.2891 12.0729 84.2891 11.5781C84.2891 10.7448 83.9167 10.1771 83.1719 9.875C82.776 9.71354 82.2526 9.63281 81.6016 9.63281H78.5156V13.6719H81.8672ZM76.9922 3.52344H81.9219C83.2656 3.52344 84.2214 3.92448 84.7891 4.72656C85.1224 5.20052 85.2891 5.7474 85.2891 6.36719C85.2891 7.09115 85.0833 7.6849 84.6719 8.14844C84.4583 8.39323 84.151 8.61719 83.75 8.82031C84.3385 9.04427 84.7786 9.29688 85.0703 9.57812C85.5859 10.0781 85.8438 10.7682 85.8438 11.6484C85.8438 12.388 85.612 13.0573 85.1484 13.6562C84.4557 14.5521 83.3542 15 81.8438 15H76.9922V3.52344Z" fill="#00038F"/>
<path d="M94.3688 8.08375L93.1747 13.5086C93.0829 13.9257 93.074 14.281 93.1481 14.5747C93.2848 15.1167 93.6863 15.4611 94.3526 15.6077C95.3089 15.8182 96.054 15.5342 96.588 14.7558C96.877 14.3395 97.1093 13.732 97.2851 12.9334L98.1685 8.92009L99.5418 9.22238L97.7432 17.394L96.4461 17.1085L96.7267 15.9063C96.4804 16.1774 96.2015 16.3907 95.89 16.5461C95.272 16.858 94.5892 16.9317 93.8414 16.7671C92.6766 16.5108 91.9687 15.947 91.7179 15.0758C91.5808 14.6083 91.5889 14.0261 91.7423 13.3293L92.9649 7.77475L94.3688 8.08375Z" fill="#00038F"/>
<path d="M113.238 14.6434L114.649 15.2962C114.244 15.7 113.331 16.6261 111.909 18.0744C110.842 19.1647 109.963 20.0489 109.27 20.7271C107.636 22.324 106.569 23.2652 106.07 23.5506C105.571 23.8361 104.952 23.8083 104.215 23.4671C104.035 23.384 103.899 23.3124 103.806 23.2523C103.718 23.1944 103.612 23.1137 103.488 23.0103L104.026 21.8474C104.22 22.0117 104.363 22.1238 104.456 22.184C104.548 22.2441 104.633 22.2916 104.708 22.3266C104.944 22.4359 105.136 22.4756 105.282 22.4455C105.43 22.4224 105.568 22.3716 105.696 22.2931C105.737 22.2662 105.912 22.1118 106.221 21.8298C106.529 21.5478 106.756 21.337 106.901 21.1975L107.708 12.0848L109.154 12.754L108.329 19.8783L113.238 14.6434Z" fill="#00038F"/>
<path d="M135.65 27.7256L136.839 29.1248L133.506 39.5617L140.592 33.5429L141.548 34.6683L132.801 42.0982L131.673 40.7704L134.944 30.2731L127.865 36.2867L126.904 35.1554L135.65 27.7256Z" fill="#00038F"/>
<path d="M138.18 49.6299C138.617 50.4536 139.226 50.8526 140.008 50.8269C140.798 50.8035 141.574 50.5892 142.338 50.1843C143.028 49.8183 143.531 49.4102 143.847 48.96C144.342 48.2493 144.363 47.4659 143.909 46.61C143.507 45.8507 142.924 45.4522 142.162 45.4145C141.399 45.3768 140.608 45.575 139.789 46.0093C139.002 46.4265 138.438 46.9467 138.096 47.5699C137.754 48.1931 137.782 48.8798 138.18 49.6299ZM145.011 46.07C145.516 47.0225 145.626 47.9961 145.34 48.9908C145.054 49.9855 144.294 50.8098 143.061 51.4636C141.869 52.0955 140.73 52.3277 139.645 52.1601C138.56 51.9926 137.694 51.2992 137.048 50.0797C136.509 49.0628 136.423 48.0734 136.792 47.1117C137.165 46.1476 137.931 45.3581 139.091 44.7433C140.333 44.0846 141.49 43.8753 142.56 44.1154C143.631 44.3555 144.448 45.007 145.011 46.07Z" fill="#00038F"/>
<path d="M149.465 57.2562L143.542 60.5709L150.332 60.3802L150.754 61.9008L144.877 65.2352L151.651 65.1302L152.027 66.4852L143.315 66.3825L142.924 64.9749L148.709 61.6011L142.027 61.7455L141.636 60.3378L149.053 55.7732L149.465 57.2562Z" fill="#00038F"/>
<path d="M149.172 92.489C148.679 92.4081 148.296 92.1792 148.026 91.8023C147.754 91.4306 147.659 90.998 147.74 90.5046C147.821 90.0112 148.05 89.6291 148.426 89.3584C148.802 89.0928 149.237 89.0005 149.731 89.0814C150.224 89.1623 150.604 89.3882 150.87 89.7591C151.136 90.1351 151.228 90.5698 151.147 91.0632C151.067 91.5567 150.841 91.9366 150.47 92.203C150.098 92.4746 149.665 92.5699 149.172 92.489Z" fill="#00038F"/>
<path d="M138.058 121.087C137.69 121.63 137.479 122.104 137.425 122.508C137.34 123.143 137.606 123.67 138.223 124.087C138.844 124.508 139.433 124.54 139.99 124.181C140.304 123.979 140.651 123.597 141.031 123.037L142.587 120.741L139.645 118.746L138.058 121.087ZM133.38 118.548C132.845 119.337 132.692 120.054 132.921 120.7C133.067 121.107 133.344 121.45 133.754 121.728C134.443 122.195 135.122 122.206 135.79 121.759C136.146 121.522 136.507 121.134 136.872 120.595L138.604 118.041L135.261 115.774L133.38 118.548ZM144.515 120.208L141.749 124.288C140.995 125.401 140.127 125.967 139.144 125.986C138.565 125.996 138.019 125.827 137.506 125.479C136.906 125.073 136.53 124.57 136.378 123.969C136.295 123.655 136.282 123.275 136.339 122.829C135.823 123.19 135.367 123.413 134.971 123.497C134.267 123.643 133.552 123.469 132.823 122.975C132.211 122.56 131.787 121.992 131.551 121.273C131.199 120.197 131.446 119.033 132.294 117.783L135.016 113.768L144.515 120.208Z" fill="#00038F"/>
<path d="M130.989 132.027L127.169 127.994C126.876 127.684 126.587 127.477 126.302 127.374C125.777 127.183 125.266 127.322 124.771 127.791C124.06 128.464 123.877 129.24 124.222 130.119C124.404 130.592 124.776 131.125 125.339 131.719L128.165 134.702L127.144 135.67L121.39 129.595L122.354 128.682L123.191 129.589C123.105 129.232 123.085 128.882 123.132 128.537C123.22 127.85 123.542 127.244 124.098 126.717C124.964 125.897 125.828 125.628 126.69 125.909C127.154 126.058 127.631 126.391 128.122 126.909L132.033 131.038L130.989 132.027Z" fill="#00038F"/>
<path d="M114.968 143.961L113.636 144.762C113.529 144.201 113.275 142.925 112.875 140.935C112.571 139.44 112.333 138.216 112.16 137.262C111.755 135.014 111.575 133.603 111.619 133.029C111.663 132.456 112.033 131.959 112.729 131.541C112.899 131.439 113.034 131.366 113.136 131.323C113.233 131.283 113.36 131.24 113.515 131.195L114.176 132.293C113.931 132.361 113.758 132.417 113.656 132.46C113.554 132.503 113.468 132.546 113.396 132.589C113.173 132.723 113.033 132.859 112.976 132.997C112.912 133.133 112.876 133.276 112.869 133.426C112.868 133.475 112.898 133.706 112.959 134.12C113.019 134.533 113.066 134.839 113.1 135.037L120.19 140.819L118.824 141.641L113.391 136.959L114.968 143.961Z" fill="#00038F"/>
<path d="M91.5637 155.176L89.7385 155.374L82.9704 146.759L83.9756 156.001L82.5077 156.161L81.2668 144.752L82.9988 144.563L89.8515 153.162L88.8471 143.927L90.3228 143.767L91.5637 155.176Z" fill="#00038F"/>
<path d="M72.0182 144.971C71.0913 144.871 70.419 145.151 70.0013 145.813C69.5778 146.479 69.3193 147.242 69.2258 148.102C69.1413 148.879 69.1969 149.524 69.3925 150.038C69.7026 150.847 70.3393 151.304 71.3023 151.408C72.1567 151.501 72.8135 151.243 73.2728 150.633C73.7321 150.022 74.0118 149.256 74.1121 148.335C74.2084 147.449 74.0945 146.69 73.7703 146.058C73.4462 145.425 72.8621 145.063 72.0182 144.971ZM71.1309 152.624C70.0591 152.507 69.1918 152.051 68.5291 151.256C67.8664 150.461 67.6105 149.37 67.7614 147.982C67.9073 146.641 68.354 145.568 69.1016 144.764C69.8492 143.96 70.909 143.633 72.2811 143.782C73.4254 143.906 74.2922 144.391 74.8814 145.236C75.47 146.086 75.6934 147.163 75.5515 148.468C75.3994 149.866 74.9236 150.94 74.1242 151.692C73.3247 152.443 72.327 152.754 71.1309 152.624Z" fill="#00038F"/>
<path d="M59.3698 150.041L59.9501 143.279L56.2974 149.006L54.8018 148.502L55.34 141.767L51.6257 147.432L50.2931 146.983L55.2672 139.83L56.6517 140.296L56.1977 146.977L59.8278 141.366L61.2123 141.833L60.8283 150.533L59.3698 150.041Z" fill="#00038F"/>
<path d="M30.3636 130.024C30.7075 129.661 31.1113 129.473 31.5752 129.46C32.0353 129.444 32.4468 129.608 32.8098 129.952C33.1728 130.296 33.3606 130.7 33.3732 131.164C33.382 131.624 33.2144 132.035 32.8706 132.398C32.5267 132.761 32.1266 132.949 31.6701 132.961C31.2098 132.97 30.7981 132.803 30.4351 132.459C30.0721 132.115 29.8844 131.715 29.8721 131.258C29.8559 130.798 30.0198 130.387 30.3636 130.024Z" fill="#00038F"/>
<path d="M12.936 104.77C12.6931 104.16 12.4195 103.719 12.1152 103.448C11.6371 103.022 11.052 102.947 10.3601 103.222C9.6634 103.5 9.30684 103.97 9.29047 104.633C9.28223 105.006 9.40342 105.507 9.65403 106.136L10.6806 108.713L13.9828 107.397L12.936 104.77ZM17.663 102.323C17.3102 101.437 16.8022 100.908 16.1389 100.735C15.7203 100.627 15.2811 100.665 14.8215 100.848C14.0473 101.156 13.6578 101.712 13.6528 102.516C13.6493 102.944 13.7681 103.46 14.0091 104.064L15.1513 106.931L18.9035 105.436L17.663 102.323ZM10.0397 110.608L8.21503 106.028C7.71766 104.78 7.73648 103.744 8.27147 102.919C8.58838 102.434 9.03473 102.077 9.6105 101.848C10.283 101.58 10.9108 101.551 11.4937 101.762C11.8001 101.869 12.1219 102.072 12.4591 102.369C12.4493 101.74 12.521 101.237 12.6744 100.862C12.948 100.198 13.4937 99.7033 14.3114 99.3775C14.9984 99.1038 15.7059 99.0714 16.4339 99.2803C17.5225 99.5922 18.3464 100.45 18.9054 101.853L20.7012 106.36L10.0397 110.608Z" fill="#00038F"/>
<path d="M7.85422 92.7833L13.3357 91.8846C13.7572 91.8155 14.0906 91.6923 14.336 91.5148C14.7889 91.1872 14.9602 90.6868 14.8498 90.0135C14.6914 89.0472 14.1518 88.4601 13.2311 88.2521C12.7373 88.1378 12.087 88.1468 11.28 88.2791L7.22479 88.9439L6.99729 87.5562L15.2543 86.2025L15.4691 87.5131L14.2485 87.6974C14.5915 87.8259 14.8928 88.0061 15.1525 88.238C15.671 88.6966 15.9922 89.3037 16.1161 90.0592C16.3091 91.2362 16.0473 92.1025 15.3309 92.658C14.9473 92.9584 14.4035 93.1663 13.6994 93.2817L8.08678 94.2018L7.85422 92.7833Z" fill="#00038F"/>
<path d="M18.3591 77.6202C18.3468 77.8472 18.3169 78.0485 18.2695 78.2242C18.2258 78.4001 18.1851 78.5212 18.1474 78.5874L16.9857 78.1831C17.0866 77.8623 17.1324 77.5765 17.1233 77.3256C17.1141 77.0747 17.0145 76.8474 16.8245 76.6437C16.6385 76.4363 16.3286 76.2393 15.8949 76.0527L15.2276 75.7661L6.29306 78.5137L6.37181 77.0613L13.4466 75.0323L13.4515 74.9415L6.6376 72.1594L6.71635 70.707L16.5011 74.9475C16.9422 75.1384 17.3036 75.3647 17.5853 75.6265C17.8707 75.8886 18.0765 76.1862 18.2026 76.5192C18.3289 76.8485 18.3811 77.2155 18.3591 77.6202Z" fill="#00038F"/>
<path d="M10.8167 47.1576L11.6767 45.5355L22.6059 44.7686L14.3919 40.4139L15.0836 39.1094L25.2233 44.4851L24.4072 46.0243L13.4447 46.8708L21.6517 51.2218L20.9564 52.5333L10.8167 47.1576Z" fill="#00038F"/>
<path d="M30.2307 36.71C30.8342 35.9994 30.9793 35.2856 30.666 34.5684C30.3521 33.8438 29.8656 33.2017 29.2067 32.642C28.6112 32.1362 28.046 31.8201 27.511 31.6937C26.6673 31.4964 25.9318 31.7668 25.3046 32.5052C24.7483 33.1602 24.5938 33.8489 24.841 34.5715C25.0883 35.2941 25.5652 35.9555 26.2718 36.5556C26.9506 37.1322 27.6427 37.4639 28.3481 37.5505C29.0536 37.6372 29.6811 37.357 30.2307 36.71ZM24.3951 31.6813C25.0931 30.8596 25.957 30.3976 26.987 30.2953C28.017 30.193 29.0639 30.5936 30.1277 31.4973C31.1559 32.3706 31.7929 33.3422 32.0389 34.4123C32.2849 35.4823 31.9612 36.5432 31.0676 37.5952C30.3224 38.4724 29.435 38.9179 28.4051 38.9315C27.3714 38.9418 26.3543 38.5221 25.354 37.6724C24.2822 36.762 23.6597 35.7651 23.4865 34.6818C23.3134 33.5985 23.6162 32.5983 24.3951 31.6813Z" fill="#00038F"/>
<path d="M33.1324 23.3928L38.4039 27.6682L35.7135 21.4308L36.9698 20.4757L42.2426 24.7011L39.638 18.4475L40.7575 17.5965L43.8868 25.728L42.7237 26.6121L37.4485 22.4868L40.0555 28.6403L38.8925 29.5244L31.9071 24.3242L33.1324 23.3928Z" fill="#00038F"/>
<path d="M65.9698 10.6268C66.0772 11.1151 66.006 11.5548 65.7561 11.9458C65.5113 12.3356 65.1447 12.5843 64.6564 12.6918C64.1681 12.7993 63.7284 12.728 63.3374 12.4781C62.9515 12.2271 62.7048 11.8574 62.5974 11.3691C62.4899 10.8808 62.5591 10.4442 62.8051 10.0595C63.0561 9.67356 63.4258 9.42687 63.9141 9.31939C64.4024 9.21191 64.8389 9.28114 65.2237 9.5271C65.6136 9.77193 65.8623 10.1385 65.9698 10.6268Z" fill="#00038F"/>
<path d="M74.0966 71.9766L88.2999 71.9764M88.2999 71.9764L88.2999 85.9777M88.2999 71.9764L71.8008 88.4756" stroke="#00038F" stroke-width="2" stroke-linecap="round" stroke-linejoin="round"/>
</svg>
