<svg width="32" height="32" viewBox="0 0 32 32" fill="none" xmlns="http://www.w3.org/2000/svg">
<path d="M12.2759 21.9397C12.2759 23.8141 10.7938 25.3337 8.96552 25.3337C7.13726 25.3337 5.65517 23.8141 5.65517 21.9397M12.2759 21.9397C12.2759 20.0653 10.7938 18.5458 8.96552 18.5458C7.13726 18.5458 5.65517 20.0653 5.65517 21.9397M12.2759 21.9397H19.7241M5.65517 21.9397H4V7.66699C4 7.11471 4.44772 6.66699 5 6.66699H19.7241V21.9397M27.1724 21.9397C27.1724 23.8141 25.6903 25.3337 23.8621 25.3337C22.0338 25.3337 20.5517 23.8141 20.5517 21.9397M27.1724 21.9397C27.1724 20.0653 25.6903 18.5458 23.8621 18.5458C22.0338 18.5458 20.5517 20.0653 20.5517 21.9397M27.1724 21.9397H28V15.1518L23.8621 10.9094H19.7241V21.9397M20.5517 21.9397H19.7241" stroke="#00038F" stroke-width="1.7" stroke-linecap="round" stroke-linejoin="round"/>
</svg>
