<svg width="14" height="8" viewBox="0 0 14 8" fill="none" xmlns="http://www.w3.org/2000/svg">
<path d="M6.58809 5.16094L11.4881 0.285937C11.6714 0.102604 11.9006 0.00677072 12.1756 -0.00156251C12.4506 -0.00989574 12.6881 0.0859375 12.8881 0.285937C13.0714 0.469271 13.1631 0.702604 13.1631 0.985938C13.1631 1.26927 13.0714 1.5026 12.8881 1.68594L7.28809 7.28594C7.08809 7.48594 6.85475 7.58594 6.58809 7.58594C6.32142 7.58594 6.08809 7.48594 5.88809 7.28594L0.288085 1.68594C0.104752 1.50261 0.00891821 1.27344 0.00058498 0.998439C-0.00774825 0.723438 0.0880855 0.485939 0.288085 0.285938C0.471419 0.102605 0.704751 0.0109383 0.988085 0.0109383C1.27142 0.0109383 1.50475 0.102605 1.68808 0.285938L6.58809 5.16094Z" fill="#00038F"/>
</svg>
