<svg width="396" height="229" viewBox="0 0 396 229" fill="none" xmlns="http://www.w3.org/2000/svg">
<g clip-path="url(#clip0_705_7202)">
<rect width="395" height="229" transform="translate(0.5)" fill="white"/>
<g clip-path="url(#clip1_705_7202)">
<path fill-rule="evenodd" clip-rule="evenodd" d="M155.766 145.071L156.379 144.301C157.293 145.177 158.169 145.616 159.384 145.616C160.561 145.616 161.338 144.952 161.338 144.036V144.009C161.338 143.146 160.899 142.655 159.058 142.244C157.043 141.778 156.117 141.088 156.117 139.562V139.537C156.117 138.075 157.33 137 158.997 137C160.273 137 161.188 137.385 162.075 138.142L161.5 138.952C160.687 138.248 159.872 137.943 158.971 137.943C157.831 137.943 157.105 138.606 157.105 139.443V139.469C157.105 140.346 157.556 140.837 159.485 141.275C161.437 141.727 162.34 142.482 162.34 143.903V143.93C162.34 145.522 161.087 146.558 159.347 146.558C157.957 146.558 156.817 146.067 155.766 145.071Z" fill="#5C84A2"/>
<path fill-rule="evenodd" clip-rule="evenodd" d="M169.259 143.17V143.144C169.259 141.742 168.246 140.591 166.917 140.591C165.551 140.591 164.612 141.742 164.612 143.119V143.144C164.612 144.547 165.611 145.685 166.942 145.685C168.307 145.685 169.259 144.547 169.259 143.17ZM163.648 143.17V143.144C163.648 141.299 165.039 139.73 166.942 139.73C168.832 139.73 170.223 141.274 170.223 143.119V143.144C170.223 144.991 168.819 146.557 166.917 146.557C165.026 146.557 163.648 145.016 163.648 143.17Z" fill="#5C84A2"/>
<path fill-rule="evenodd" clip-rule="evenodd" d="M172.852 146.558H174.166V137H172.852V146.558Z" fill="#5C84A2"/>
<path fill-rule="evenodd" clip-rule="evenodd" d="M175.477 139.73H176.558L178.77 145.352L180.995 139.73H182.051L179.189 146.557H178.325L175.477 139.73Z" fill="#5C84A2"/>
<path fill-rule="evenodd" clip-rule="evenodd" d="M188.9 142.752C188.778 141.564 188.053 140.552 186.682 140.552C185.485 140.552 184.572 141.488 184.423 142.752H188.9ZM186.87 145.71C187.825 145.71 188.496 145.345 189.062 144.788L189.707 145.332C189.008 146.065 188.16 146.557 186.843 146.557C184.934 146.557 183.375 145.18 183.375 143.144C183.375 141.248 184.786 139.73 186.709 139.73C188.765 139.73 189.949 141.274 189.949 143.195C189.949 143.283 189.949 143.385 189.935 143.536H184.423C184.572 144.914 185.646 145.71 186.87 145.71Z" fill="#5C84A2"/>
<path fill-rule="evenodd" clip-rule="evenodd" d="M199.325 137.996H196.516V137H203.09V137.996H200.282V146.558H199.325V137.996Z" fill="#5C84A2"/>
<path fill-rule="evenodd" clip-rule="evenodd" d="M208.704 143.17V143.144C208.704 141.742 207.692 140.591 206.362 140.591C204.997 140.591 204.057 141.742 204.057 143.119V143.144C204.057 144.547 205.057 145.685 206.387 145.685C207.753 145.685 208.704 144.547 208.704 143.17ZM203.094 143.17V143.144C203.094 141.299 204.484 139.73 206.387 139.73C208.277 139.73 209.668 141.274 209.668 143.119V143.144C209.668 144.991 208.265 146.557 206.362 146.557C204.472 146.557 203.094 145.016 203.094 143.17Z" fill="#5C84A2"/>
<path fill-rule="evenodd" clip-rule="evenodd" d="M216.627 143.088V143.062C216.627 141.528 215.481 140.496 214.271 140.496C213.012 140.496 211.979 141.45 211.979 143.062V143.088C211.979 144.662 213.037 145.668 214.271 145.668C215.481 145.668 216.627 144.623 216.627 143.088ZM210.984 143.101V143.075C210.984 140.895 212.533 139.605 214.095 139.605C215.304 139.605 216.085 140.276 216.589 141.025V137H217.559V146.415H216.589V145.074C216.06 145.874 215.292 146.558 214.095 146.558C212.533 146.558 210.984 145.294 210.984 143.101Z" fill="#5C84A2"/>
<path fill-rule="evenodd" clip-rule="evenodd" d="M225.679 143.997V143.387C225.129 143.245 224.407 143.106 223.496 143.106C222.109 143.106 221.314 143.64 221.314 144.43V144.455C221.314 145.283 222.182 145.768 223.193 145.768C224.566 145.768 225.679 145.041 225.679 143.997ZM220.188 144.507V144.482C220.188 143.068 221.487 142.329 223.381 142.329C224.334 142.329 224.999 142.443 225.664 142.609V142.406C225.664 141.234 224.854 140.623 223.453 140.623C222.571 140.623 221.877 140.813 221.184 141.094L220.853 140.292C221.675 139.961 222.47 139.73 223.568 139.73C224.622 139.73 225.447 139.985 225.982 140.457C226.501 140.915 226.762 141.552 226.762 142.393V146.417H225.664V145.436C225.144 146.022 224.291 146.557 222.976 146.557C221.574 146.557 220.188 145.857 220.188 144.507Z" fill="#5C84A2"/>
<path fill-rule="evenodd" clip-rule="evenodd" d="M228.356 148.922L228.684 148.065C229 148.248 229.289 148.333 229.705 148.333C230.286 148.333 230.652 147.995 231.043 146.969L228.078 139.73H229.151L231.522 145.789L233.617 139.73H234.652L231.914 147.237C231.359 148.74 230.728 149.288 229.743 149.288C229.201 149.288 228.797 149.162 228.356 148.922Z" fill="#5C84A2"/>
<path fill-rule="evenodd" clip-rule="evenodd" d="M243.852 145.071L244.465 144.301C245.379 145.177 246.256 145.616 247.47 145.616C248.648 145.616 249.424 144.952 249.424 144.036V144.009C249.424 143.146 248.986 142.655 247.145 142.244C245.128 141.778 244.202 141.088 244.202 139.562V139.537C244.202 138.075 245.417 137 247.082 137C248.36 137 249.273 137.385 250.162 138.142L249.587 138.952C248.772 138.248 247.959 137.943 247.057 137.943C245.918 137.943 245.191 138.606 245.191 139.443V139.469C245.191 140.346 245.642 140.837 247.571 141.275C249.524 141.727 250.426 142.482 250.426 143.903V143.93C250.426 145.522 249.174 146.558 247.433 146.558C246.043 146.558 244.903 146.067 243.852 145.071Z" fill="#5C84A2"/>
<path fill-rule="evenodd" clip-rule="evenodd" d="M251.75 137H252.87V140.968C253.365 140.235 254.149 139.644 255.444 139.644C257.262 139.644 258.324 140.745 258.324 142.355V146.558H257.204V142.605C257.204 141.347 256.448 140.562 255.124 140.562C253.829 140.562 252.87 141.412 252.87 142.683V146.558H251.75V137Z" fill="#5C84A2"/>
<path fill-rule="evenodd" clip-rule="evenodd" d="M265.124 143.997V143.387C264.575 143.245 263.853 143.106 262.941 143.106C261.554 143.106 260.759 143.64 260.759 144.43V144.455C260.759 145.283 261.628 145.768 262.638 145.768C264.011 145.768 265.124 145.041 265.124 143.997ZM259.633 144.507V144.482C259.633 143.068 260.933 142.329 262.826 142.329C263.78 142.329 264.444 142.443 265.109 142.609V142.406C265.109 141.234 264.299 140.623 262.899 140.623C262.017 140.623 261.324 140.813 260.63 141.094L260.298 140.292C261.121 139.961 261.916 139.73 263.013 139.73C264.069 139.73 264.892 139.985 265.427 140.457C265.947 140.915 266.207 141.552 266.207 142.393V146.417H265.109V145.436C264.589 146.022 263.736 146.557 262.421 146.557C261.02 146.557 259.633 145.857 259.633 144.507Z" fill="#5C84A2"/>
<path fill-rule="evenodd" clip-rule="evenodd" d="M274.408 143.496V143.468C274.408 141.773 273.35 140.69 272.116 140.69C270.906 140.69 269.761 141.815 269.761 143.454V143.481C269.761 145.149 270.906 146.261 272.116 146.261C273.375 146.261 274.408 145.232 274.408 143.496ZM268.828 139.884H269.798V141.329C270.327 140.467 271.095 139.73 272.292 139.73C273.853 139.73 275.402 141.093 275.402 143.454V143.481C275.402 145.829 273.866 147.219 272.292 147.219C271.083 147.219 270.302 146.497 269.798 145.691V149.288H268.828V139.884Z" fill="#5C84A2"/>
<path fill-rule="evenodd" clip-rule="evenodd" d="M282.245 142.752C282.123 141.564 281.397 140.552 280.027 140.552C278.83 140.552 277.915 141.488 277.768 142.752H282.245ZM280.213 145.71C281.169 145.71 281.841 145.345 282.406 144.788L283.051 145.332C282.351 146.065 281.505 146.557 280.188 146.557C278.278 146.557 276.719 145.18 276.719 143.144C276.719 141.248 278.131 139.73 280.052 139.73C282.109 139.73 283.293 141.274 283.293 143.195C283.293 143.283 283.293 143.385 283.28 143.536H277.768C277.915 144.914 278.991 145.71 280.213 145.71Z" fill="#5C84A2"/>
<path fill-rule="evenodd" clip-rule="evenodd" d="M292.684 137.996H289.875V137H296.449V137.996H293.641V146.558H292.684V137.996Z" fill="#5C84A2"/>
<path fill-rule="evenodd" clip-rule="evenodd" d="M302.064 143.17V143.144C302.064 141.742 301.051 140.591 299.722 140.591C298.356 140.591 297.417 141.742 297.417 143.119V143.144C297.417 144.547 298.417 145.685 299.746 145.685C301.113 145.685 302.064 144.547 302.064 143.17ZM296.453 143.17V143.144C296.453 141.299 297.844 139.73 299.746 139.73C301.637 139.73 303.027 141.274 303.027 143.119V143.144C303.027 144.991 301.625 146.557 299.722 146.557C297.831 146.557 296.453 145.016 296.453 143.17Z" fill="#5C84A2"/>
<path fill-rule="evenodd" clip-rule="evenodd" d="M305.656 139.873H306.689V140.998C307.146 140.339 307.763 139.73 308.93 139.73C310.058 139.73 310.781 140.313 311.157 141.063C311.653 140.326 312.391 139.73 313.599 139.73C315.196 139.73 316.175 140.765 316.175 142.421V146.557H315.142V142.654C315.142 141.359 314.472 140.637 313.345 140.637C312.298 140.637 311.426 141.386 311.426 142.704V146.557H310.406V142.627C310.406 141.373 309.722 140.637 308.622 140.637C307.521 140.637 306.689 141.514 306.689 142.743V146.557H305.656V139.873Z" fill="#5C84A2"/>
<path fill-rule="evenodd" clip-rule="evenodd" d="M324.408 143.17V143.144C324.408 141.742 323.395 140.591 322.066 140.591C320.7 140.591 319.76 141.742 319.76 143.119V143.144C319.76 144.547 320.761 145.685 322.09 145.685C323.456 145.685 324.408 144.547 324.408 143.17ZM318.797 143.17V143.144C318.797 141.299 320.187 139.73 322.09 139.73C323.98 139.73 325.371 141.274 325.371 143.119V143.144C325.371 144.991 323.969 146.557 322.066 146.557C320.175 146.557 318.797 145.016 318.797 143.17Z" fill="#5C84A2"/>
<path fill-rule="evenodd" clip-rule="evenodd" d="M100.848 70.4443C100.848 72.8995 102.765 74.8896 105.128 74.8896C107.493 74.8896 109.408 72.8995 109.408 70.4443C109.408 67.9891 107.493 66 105.128 66C102.765 66 100.848 67.9891 100.848 70.4443ZM100.848 146.21C100.848 148.665 102.765 150.655 105.128 150.655C107.493 150.655 109.408 148.665 109.408 146.21C109.408 143.755 107.493 141.765 105.128 141.765C102.765 141.765 100.848 143.755 100.848 146.21ZM70.6246 70.4443C70.6246 72.8995 72.5419 74.8896 74.9052 74.8896C77.2694 74.8896 79.1848 72.8995 79.1848 70.4443C79.1848 67.9891 77.2694 66 74.9052 66C72.5419 66 70.6246 67.9891 70.6246 70.4443ZM70.6246 146.21C70.6246 148.665 72.5419 150.655 74.9052 150.655C77.2694 150.655 79.1848 148.665 79.1848 146.21C79.1848 143.755 77.2694 141.765 74.9052 141.765C72.5419 141.765 70.6246 143.755 70.6246 146.21ZM126.496 119.575C124.132 119.575 122.216 121.566 122.216 124.02C122.216 126.475 124.132 128.465 126.496 128.465C128.861 128.465 130.777 126.475 130.777 124.02C130.777 121.566 128.861 119.575 126.496 119.575ZM53.5374 119.575C51.1742 119.575 49.2578 121.566 49.2578 124.02C49.2578 126.475 51.1742 128.465 53.5374 128.465C55.9007 128.465 57.8171 126.475 57.8171 124.02C57.8171 121.566 55.9007 119.575 53.5374 119.575ZM126.496 88.1898C124.132 88.1898 122.216 90.1799 122.216 92.6341C122.216 95.0883 124.132 97.0794 126.496 97.0794C128.861 97.0794 130.777 95.0883 130.777 92.6341C130.777 90.1799 128.861 88.1898 126.496 88.1898ZM57.8171 92.6341C57.8171 95.0883 55.9007 97.0794 53.5374 97.0794C51.1742 97.0794 49.2578 95.0883 49.2578 92.6341C49.2578 90.1799 51.1742 88.1898 53.5374 88.1898C55.9007 88.1898 57.8171 90.1799 57.8171 92.6341Z" fill="#18476B"/>
<path fill-rule="evenodd" clip-rule="evenodd" d="M63.8032 104.77C62.3323 104.122 60.6345 104.836 60.011 106.364C59.3875 107.892 60.0768 109.655 61.5477 110.301C63.0186 110.949 64.7163 110.235 65.3399 108.708C65.9634 107.179 65.275 105.415 63.8032 104.77ZM117.184 104.77C115.712 104.122 114.013 104.836 113.39 106.364C112.768 107.892 113.455 109.655 114.926 110.301C116.397 110.949 118.095 110.235 118.718 108.708C119.342 107.179 118.655 105.415 117.184 104.77ZM105.592 86.6084C104.979 88.1399 105.677 89.8989 107.153 90.5362C108.628 91.1735 110.321 90.4475 110.935 88.9159C111.548 87.3833 110.85 85.6244 109.375 84.9871C107.899 84.3498 106.205 85.0758 105.592 86.6084ZM86.7121 134.189C86.0886 135.717 86.7759 137.481 88.2468 138.128C89.7187 138.775 91.4164 138.061 92.039 136.533C92.6625 135.005 91.9751 133.242 90.5042 132.595C89.0324 131.947 87.3346 132.661 86.7121 134.189ZM86.7121 78.7579C86.0886 80.2854 86.7759 82.0484 88.2468 82.6959C89.7187 83.3434 91.4164 82.6296 92.039 81.1012C92.6625 79.5737 91.9751 77.8097 90.5042 77.1622C89.0324 76.5157 87.3346 77.2295 86.7121 78.7579ZM67.7956 126.064C67.1819 127.595 67.881 129.354 69.3559 129.99C70.8317 130.628 72.5245 129.902 73.1382 128.37C73.7519 126.837 73.0528 125.08 71.5769 124.442C70.1021 123.806 68.4093 124.531 67.7956 126.064ZM109.293 124.222C107.819 123.582 106.124 124.305 105.508 125.835C104.892 127.367 105.587 129.126 107.062 129.766C108.536 130.405 110.231 129.682 110.847 128.152C111.463 126.62 110.768 124.861 109.293 124.222ZM73.2216 89.1423C72.606 90.6738 70.9122 91.3958 69.4374 90.7574C67.9635 90.1171 67.2673 88.3571 67.883 86.8266C68.4996 85.2951 70.1934 84.5721 71.6683 85.2125C73.1421 85.8528 73.8383 87.6128 73.2216 89.1423Z" fill="#5C84A2"/>
<path fill-rule="evenodd" clip-rule="evenodd" d="M92.9479 95.5557C92.9479 96.7977 93.9177 97.8039 95.1127 97.8039C96.3086 97.8039 97.2775 96.7977 97.2775 95.5557C97.2775 94.3148 96.3086 93.3086 95.1127 93.3086C93.9177 93.3086 92.9479 94.3148 92.9479 95.5557ZM92.9479 121.1C92.9479 122.341 93.9177 123.347 95.1127 123.347C96.3086 123.347 97.2775 122.341 97.2775 121.1C97.2775 119.858 96.3086 118.852 95.1127 118.852C93.9177 118.852 92.9479 119.858 92.9479 121.1ZM82.7591 95.5557C82.7591 96.7977 83.728 97.8039 84.9229 97.8039C86.1188 97.8039 87.0877 96.7977 87.0877 95.5557C87.0877 94.3148 86.1188 93.3086 84.9229 93.3086C83.728 93.3086 82.7591 94.3148 82.7591 95.5557ZM82.7591 121.1C82.7591 122.341 83.728 123.347 84.9229 123.347C86.1188 123.347 87.0877 122.341 87.0877 121.1C87.0877 119.858 86.1188 118.852 84.9229 118.852C83.728 118.852 82.7591 119.858 82.7591 121.1ZM102.316 111.37C101.121 111.37 100.151 112.378 100.151 113.618C100.151 114.859 101.121 115.867 102.316 115.867C103.512 115.867 104.481 114.859 104.481 113.618C104.481 112.378 103.512 111.37 102.316 111.37ZM77.7195 111.37C76.5246 111.37 75.5547 112.378 75.5547 113.618C75.5547 114.859 76.5246 115.867 77.7195 115.867C78.9144 115.867 79.8843 114.859 79.8843 113.618C79.8843 112.378 78.9144 111.37 77.7195 111.37ZM102.316 100.789C101.121 100.789 100.151 101.797 100.151 103.037C100.151 104.278 101.121 105.286 102.316 105.286C103.512 105.286 104.481 104.278 104.481 103.037C104.481 101.797 103.512 100.789 102.316 100.789ZM79.8843 103.037C79.8843 104.278 78.9144 105.286 77.7195 105.286C76.5246 105.286 75.5547 104.278 75.5547 103.037C75.5547 101.797 76.5246 100.789 77.7195 100.789C78.9144 100.789 79.8843 101.797 79.8843 103.037Z" fill="#95C3DD"/>
<path fill-rule="evenodd" clip-rule="evenodd" d="M248.821 117.411C247.39 119.252 245.186 120.436 242.711 120.436C238.394 120.436 234.894 116.849 234.894 112.424C234.894 107.998 238.394 104.411 242.711 104.411C245.186 104.411 247.39 105.595 248.821 107.436L253.058 103.832C250.616 100.745 246.89 98.7695 242.711 98.7695C235.354 98.7695 229.391 104.883 229.391 112.424C229.391 119.965 235.354 126.077 242.711 126.077C246.89 126.077 250.616 124.102 253.058 121.015L248.821 117.411Z" fill="#0F181E"/>
<path fill-rule="evenodd" clip-rule="evenodd" d="M166.275 120.31C162.021 120.31 158.573 116.657 158.573 112.152C158.573 107.646 162.021 103.993 166.275 103.993C170.528 103.993 173.976 107.646 173.976 112.152C173.976 116.657 170.528 120.31 166.275 120.31ZM166.275 98.2239C163.38 98.2239 160.713 99.2266 158.541 100.906V91.9434H153.125V112.007H153.135C153.135 112.056 153.128 112.103 153.128 112.152C153.128 119.843 159.014 126.078 166.275 126.078C173.536 126.078 179.422 119.843 179.422 112.152C179.422 104.459 173.536 98.2239 166.275 98.2239Z" fill="#0F181E"/>
<path fill-rule="evenodd" clip-rule="evenodd" d="M197.835 104.425C202.088 104.425 205.535 108.006 205.535 112.424C205.535 116.84 202.088 120.422 197.835 120.422C193.581 120.422 190.133 116.84 190.133 112.424C190.133 108.006 193.581 104.425 197.835 104.425ZM197.835 126.077C200.728 126.077 203.397 125.094 205.568 123.448V125.877H210.984V112.565H210.974C210.975 112.516 210.981 112.471 210.981 112.424C210.981 104.883 205.095 98.7695 197.835 98.7695C190.574 98.7695 184.688 104.883 184.688 112.424C184.688 119.964 190.574 126.077 197.835 126.077Z" fill="#0F181E"/>
<path fill-rule="evenodd" clip-rule="evenodd" d="M217.562 126.078H224.137V91.9434H217.562V126.078Z" fill="#0F181E"/>
<path fill-rule="evenodd" clip-rule="evenodd" d="M350.17 126.077V110.434C350.17 106.246 348.231 104.472 344.709 104.472C341.27 104.472 339.298 106.307 339.298 110.434V126.077H333.853V110.434C333.853 106.307 331.861 104.472 328.39 104.472C324.868 104.472 322.928 106.246 322.928 110.434V126.077H317.484V110.434C317.484 99.7966 324.795 98.7695 327.889 98.7695C331.548 98.7695 334.711 100.003 336.499 102.927H336.536C338.273 100.007 341.731 98.7695 345.438 98.7695C348.533 98.7695 355.614 99.7966 355.614 110.434V126.077H350.17Z" fill="#0F181E"/>
<path fill-rule="evenodd" clip-rule="evenodd" d="M270.811 98.3376C268.629 98.3376 266.545 98.8093 264.862 99.837V91.9434H259.633V126.078H264.862V125.871L264.905 110.236C264.905 106.046 266.816 104.073 270.147 104.073C273.559 104.073 275.438 105.983 275.438 110.236L275.394 126.078H280.67V110.188C280.67 99.3849 273.808 98.3376 270.811 98.3376Z" fill="#0F181E"/>
<path fill-rule="evenodd" clip-rule="evenodd" d="M300.336 104.419C303.665 104.419 306.569 106.628 307.64 109.688L300.287 109.67L293.139 109.69C294.199 106.624 297.006 104.419 300.336 104.419ZM305.567 118.334C304.211 119.624 302.526 120.4 300.311 120.417C297.293 120.439 294.137 118.303 293.141 115.154L300.311 115.135L313.286 115.118C313.453 114.24 313.541 113.33 313.539 112.4C313.519 104.868 307.659 98.7695 300.311 98.7695C292.962 98.7695 287.242 104.915 287.242 112.442C287.242 120.163 293.368 126.047 300.247 126.077C306.898 126.107 310.229 121.905 312.354 118.334H305.567Z" fill="#0F181E"/>
<path fill-rule="evenodd" clip-rule="evenodd" d="M235.961 146.559H237.276V145.193H235.961V146.559Z" fill="#5C84A2"/>
<path fill-rule="evenodd" clip-rule="evenodd" d="M328 139.849H329.055V141.602C329.574 140.486 330.602 139.68 331.944 139.733V140.81H331.862C330.315 140.81 329.055 141.86 329.055 143.884V146.557H328V139.849Z" fill="#5C84A2"/>
<path fill-rule="evenodd" clip-rule="evenodd" d="M333.266 139.849H334.32V141.602C334.84 140.486 335.867 139.68 337.21 139.733V140.81H337.128C335.58 140.81 334.32 141.86 334.32 143.884V146.557H333.266V139.849Z" fill="#5C84A2"/>
<path fill-rule="evenodd" clip-rule="evenodd" d="M344.126 143.17V143.144C344.126 141.742 343.113 140.591 341.785 140.591C340.418 140.591 339.48 141.742 339.48 143.119V143.144C339.48 144.547 340.479 145.685 341.809 145.685C343.175 145.685 344.126 144.547 344.126 143.17ZM338.516 143.17V143.144C338.516 141.299 339.906 139.73 341.809 139.73C343.7 139.73 345.09 141.274 345.09 143.119V143.144C345.09 144.991 343.688 146.557 341.785 146.557C339.895 146.557 338.516 145.016 338.516 143.17Z" fill="#5C84A2"/>
<path fill-rule="evenodd" clip-rule="evenodd" d="M346.406 139.755H347.516L349.358 145.173L351.239 139.73H352.105L354.001 145.173L355.841 139.755H356.925L354.461 146.557H353.553L351.672 141.231L349.776 146.557H348.857L346.406 139.755Z" fill="#5C84A2"/>
<path fill-rule="evenodd" clip-rule="evenodd" d="M356.922 146.559H358.237V145.193H356.922V146.559Z" fill="#5C84A2"/>
<path fill-rule="evenodd" clip-rule="evenodd" d="M360.482 101.368H360.761C361.09 101.368 361.356 101.253 361.356 100.97C361.356 100.723 361.184 100.556 360.808 100.556C360.653 100.556 360.544 100.574 360.482 100.589V101.368ZM360.465 102.908H359.873V100.193C360.107 100.143 360.435 100.11 360.855 100.11C361.339 100.11 361.558 100.193 361.746 100.31C361.885 100.424 361.995 100.639 361.995 100.904C361.995 101.203 361.776 101.435 361.465 101.532V101.567C361.714 101.667 361.855 101.865 361.931 102.229C362.011 102.642 362.057 102.808 362.12 102.908H361.48C361.403 102.808 361.356 102.56 361.277 102.245C361.231 101.946 361.075 101.815 360.747 101.815H360.465V102.908ZM358.89 101.482C358.89 102.692 359.732 103.652 360.887 103.652C362.011 103.652 362.838 102.692 362.838 101.501C362.838 100.291 362.011 99.3153 360.872 99.3153C359.732 99.3153 358.89 100.291 358.89 101.482ZM363.494 101.482C363.494 103.025 362.354 104.231 360.872 104.231C359.404 104.231 358.234 103.025 358.234 101.482C358.234 99.977 359.404 98.7695 360.872 98.7695C362.354 98.7695 363.494 99.977 363.494 101.482Z" fill="#0F181E"/>
</g>
</g>
<defs>
<clipPath id="clip0_705_7202">
<rect width="395" height="229" fill="white" transform="translate(0.5)"/>
</clipPath>
<clipPath id="clip1_705_7202">
<rect width="330" height="96" fill="white" transform="translate(33.5 66)"/>
</clipPath>
</defs>
</svg>
