<svg width="49" height="31" viewBox="0 0 49 31" fill="none" xmlns="http://www.w3.org/2000/svg">
<path d="M0 0.765625C0 0.344531 0.344531 0 0.765625 0H48.2344C48.6555 0 49 0.344531 49 0.765625V29.8594C49 30.2805 48.6555 30.625 48.2344 30.625H0.765625C0.344531 30.625 0 30.2805 0 29.8594V0.765625Z" fill="#D9D9D9"/>
<mask id="mask0_2734_2100" style="mask-type:luminance" maskUnits="userSpaceOnUse" x="0" y="0" width="49" height="31">
<path d="M0 0.765625C0 0.344531 0.344531 0 0.765625 0H48.2344C48.6555 0 49 0.344531 49 0.765625V29.8594C49 30.2805 48.6555 30.625 48.2344 30.625H0.765625C0.344531 30.625 0 30.2805 0 29.8594V0.765625Z" fill="white"/>
</mask>
<g mask="url(#mask0_2734_2100)">
<path d="M0 0.765625C0 0.344531 0.344531 0 0.765625 0H48.2344C48.6555 0 49 0.344531 49 0.765625V29.8594C49 30.2805 48.6555 30.625 48.2344 30.625H0.765625C0.344531 30.625 0 30.2805 0 29.8594V0.765625Z" fill="#F5F5F5"/>
</g>
<mask id="mask1_2734_2100" style="mask-type:luminance" maskUnits="userSpaceOnUse" x="2" y="4" width="45" height="7">
<path d="M2.02881 4.48047C2.02881 4.25078 2.18193 4.09766 2.41162 4.09766H46.5499C46.7796 4.09766 46.9327 4.25078 46.9327 4.48047V9.83984C46.9327 10.0695 46.7796 10.2227 46.5499 10.2227H2.41162C2.18193 10.2227 2.02881 10.0695 2.02881 9.83984V4.48047Z" fill="white"/>
</mask>
<g mask="url(#mask1_2734_2100)">
<path d="M48.8468 2.18359H0.114746V12.1367H48.8468V2.18359Z" fill="#00038F"/>
</g>
<path d="M42.8751 14.2783H7.15869V24.9971H42.8751V14.2783Z" fill="white"/>
<mask id="mask2_2734_2100" style="mask-type:luminance" maskUnits="userSpaceOnUse" x="7" y="14" width="36" height="11">
<path d="M42.8751 14.2773H7.15869V24.9961H42.8751V14.2773Z" fill="white"/>
</mask>
<g mask="url(#mask2_2734_2100)">
<path d="M42.8751 14.2773H7.15869V24.9961H42.8751V14.2773Z" fill="white" stroke="#D0021B" stroke-width="2" stroke-miterlimit="10"/>
</g>
<mask id="mask3_2734_2100" style="mask-type:luminance" maskUnits="userSpaceOnUse" x="10" y="17" width="30" height="6">
<path d="M38.0899 19.6398C38.4728 19.6398 38.7407 19.3719 38.7407 18.9125C38.7407 18.4531 38.4728 18.1852 38.0899 18.1852C37.7071 18.1852 37.4392 18.4531 37.4392 18.9125C37.4392 19.3719 37.7071 19.6398 38.0899 19.6398ZM37.1712 22.4727L38.2431 20.3672C38.1282 20.4055 37.9751 20.4438 37.8603 20.4438C37.1712 20.4438 36.5204 19.8695 36.5204 18.9508C36.5204 17.9555 37.2095 17.3813 38.0899 17.3813C38.9704 17.3813 39.6595 17.9555 39.6595 18.9508C39.6595 19.3336 39.5829 19.6398 39.2767 20.2523L38.1665 22.5109H37.1712V22.4727ZM33.9173 19.4484C34.3001 19.4484 34.5298 19.1805 34.5298 18.7977C34.5298 18.4148 34.2618 18.1469 33.9173 18.1469C33.5345 18.1469 33.2665 18.4148 33.2665 18.7977C33.2665 19.1805 33.5345 19.4484 33.9173 19.4484ZM33.9173 21.6688C34.3001 21.6688 34.6063 21.3625 34.6063 20.9797C34.6063 20.5969 34.3001 20.2906 33.9173 20.2906C33.5345 20.2906 33.2282 20.5969 33.2282 20.9797C33.1899 21.3625 33.4962 21.6688 33.9173 21.6688ZM33.9173 22.5109C32.9985 22.5109 32.2712 21.975 32.2712 20.9797C32.2712 20.3672 32.6157 20.0227 32.922 19.8313C32.654 19.6398 32.3478 19.3336 32.3478 18.7594C32.3478 17.8789 33.0751 17.3047 33.9173 17.3047C34.7595 17.3047 35.4868 17.8789 35.4868 18.7594C35.4868 19.2953 35.1806 19.6398 34.9126 19.8313C35.1806 20.0227 35.5634 20.3672 35.5634 20.9797C35.5251 21.975 34.7978 22.5109 33.9173 22.5109ZM29.7446 19.6398C30.1274 19.6398 30.3954 19.3719 30.3954 18.9125C30.3954 18.4531 30.1274 18.1852 29.7446 18.1852C29.3618 18.1852 29.0938 18.4531 29.0938 18.9125C29.0938 19.3719 29.3235 19.6398 29.7446 19.6398ZM28.8259 22.4727L29.8978 20.3672C29.7829 20.4055 29.6298 20.4438 29.5149 20.4438C28.8259 20.4438 28.1751 19.8695 28.1751 18.9508C28.1751 17.9555 28.8642 17.3813 29.7446 17.3813C30.6251 17.3813 31.3142 17.9555 31.3142 18.9508C31.3142 19.3336 31.2376 19.6398 30.9313 20.2523L29.8212 22.5109H28.8259V22.4727ZM24.0407 17.3813H23.3899L23.4282 18.2617L22.6626 17.7641L22.3181 18.3383L23.122 18.7594L22.3181 19.1805L22.6626 19.7547L23.4282 19.257L23.3899 20.1375H24.0407L24.0024 19.257L24.7681 19.7547L25.1126 19.1805L24.3087 18.7594L25.1126 18.3383L24.7681 17.7641L24.0024 18.2617L24.0407 17.3813ZM20.136 17.3813H19.4853L19.5235 18.2617L18.7579 17.7641L18.4134 18.3383L19.2173 18.7594L18.4134 19.1805L18.7579 19.7547L19.5235 19.257L19.4853 20.1375H20.136L20.0978 19.257L20.8634 19.7547L21.2079 19.1805L20.404 18.7594L21.2079 18.3383L20.8634 17.7641L20.0978 18.2617L20.136 17.3813ZM16.2313 17.3813H15.5806L15.6188 18.2617L14.8532 17.7641L14.547 18.3383L15.3126 18.7594L14.547 19.1805L14.8915 19.7547L15.6571 19.257L15.6188 20.1375H16.2696L16.2313 19.257L16.997 19.7547L17.3415 19.1805L16.4993 18.7594L17.3032 18.3383L16.9587 17.7641L16.1931 18.2617L16.2313 17.3813ZM12.3267 17.3813H11.6759L11.7142 18.2617L10.9485 17.7641L10.604 18.3383L11.4079 18.7594L10.604 19.1805L10.9485 19.7547L11.7142 19.257L11.6759 20.1375H12.3267L12.2884 19.257L13.054 19.7547L13.3985 19.1805L12.5946 18.7594L13.3985 18.3383L13.054 17.7641L12.2884 18.2617L12.3267 17.3813Z" fill="white"/>
</mask>
<g mask="url(#mask3_2734_2100)">
<path d="M41.6121 15.4287H8.72852V24.4248H41.6121V15.4287Z" fill="black"/>
</g>
</svg>
