<svg width="40" height="41" viewBox="0 0 40 41" fill="none" xmlns="http://www.w3.org/2000/svg">
<g clip-path="url(#clip0_2978_27145)">
<path d="M20 40.5C8.97195 40.5 0 31.528 0 20.5C0 9.47195 8.97195 0.5 20 0.5C31.028 0.5 40 9.47195 40 20.5C40 31.528 31.028 40.5 20 40.5Z" fill="#F9BE4B"/>
<path d="M20 36.15C11.3709 36.15 4.35 29.1291 4.35 20.5C4.35 11.8709 11.3709 4.85 20 4.85C28.6291 4.85 35.65 11.8709 35.65 20.5C35.65 29.1291 28.6291 36.15 20 36.15Z" stroke="black" stroke-width="0.7"/>
<path d="M20.516 32.3709C13.6857 32.3709 8.12891 26.8141 8.12891 19.9838C8.12891 13.1535 13.6857 7.59668 20.516 7.59668C27.3463 7.59668 32.9031 13.1535 32.9031 19.9838C32.9031 26.8141 27.3463 32.3709 20.516 32.3709Z" fill="white"/>
<path d="M19.9999 33.4354C12.8682 33.4354 7.06445 27.6317 7.06445 20.4999C7.06445 13.3682 12.8682 7.56445 19.9999 7.56445C27.1317 7.56445 32.9354 13.3682 32.9354 20.4999C32.9354 27.6317 27.1317 33.4354 19.9999 33.4354Z" stroke="#B61310" stroke-width="2"/>
<path d="M1.99609 21.4932C2.54838 21.4932 2.99609 21.0454 2.99609 20.4932C2.99609 19.9409 2.54838 19.4932 1.99609 19.4932C1.44381 19.4932 0.996094 19.9409 0.996094 20.4932C0.996094 21.0454 1.44381 21.4932 1.99609 21.4932Z" fill="#B61310"/>
<path d="M37.9961 21.4932C38.5484 21.4932 38.9961 21.0454 38.9961 20.4932C38.9961 19.9409 38.5484 19.4932 37.9961 19.4932C37.4438 19.4932 36.9961 19.9409 36.9961 20.4932C36.9961 21.0454 37.4438 21.4932 37.9961 21.4932Z" fill="#B61310"/>
<path d="M24.3997 26.2503C23.8617 26.2503 23.35 26.1501 22.8647 25.9496C22.39 25.7492 21.968 25.4432 21.5988 25.0318C21.2295 24.6204 20.9394 24.0981 20.7284 23.4652C20.528 22.8216 20.4277 22.062 20.4277 21.1864C20.4277 20.4163 20.5069 19.7411 20.6651 19.1608C20.8339 18.5806 21.0554 18.09 21.3297 17.6891C21.6146 17.2882 21.9311 16.9665 22.2792 16.7238C22.6379 16.4706 23.0072 16.2913 23.387 16.1858C23.7773 16.0697 24.1624 16.0117 24.5422 16.0117C25.3123 16.0117 25.9664 16.1752 26.5044 16.5023C27.0425 16.8293 27.4592 17.3041 27.7546 17.9265L26.5202 19.0342L26.4095 19.1292L26.2987 19.0026C26.2987 18.9182 26.2882 18.8338 26.2671 18.7494C26.246 18.665 26.1879 18.5542 26.093 18.4171C25.8925 18.185 25.6763 18.032 25.4442 17.9582C25.2121 17.8738 24.9747 17.8316 24.7321 17.8316C24.5 17.8316 24.2626 17.9001 24.0199 18.0373C23.7773 18.1639 23.5505 18.3643 23.3395 18.6386C23.139 18.9024 22.9755 19.24 22.8489 19.6514C22.7223 20.0628 22.659 20.5481 22.659 21.1073C22.659 21.6453 22.7012 22.1201 22.7856 22.5315C22.8806 22.9429 23.0072 23.2911 23.1654 23.5759C23.3342 23.8502 23.5294 24.0612 23.7509 24.2089C23.983 24.3461 24.2362 24.4146 24.5105 24.4146C24.7637 24.4146 24.9853 24.3883 25.1751 24.3355C25.365 24.2828 25.5391 24.1825 25.6974 24.0348C25.8556 23.8871 26.0086 23.6814 26.1563 23.4177L27.6755 24.5729C27.2746 25.2164 26.8051 25.6595 26.2671 25.9022C25.729 26.1343 25.1066 26.2503 24.3997 26.2503Z" fill="#583636" fill-opacity="0.1"/>
<path d="M16.4857 26.2503C15.9476 26.2503 15.436 26.1501 14.9507 25.9496C14.4759 25.7492 14.0539 25.4432 13.6847 25.0318C13.3155 24.6204 13.0253 24.0981 12.8143 23.4652C12.6139 22.8216 12.5137 22.062 12.5137 21.1864C12.5137 20.4163 12.5928 19.7411 12.751 19.1608C12.9198 18.5806 13.1414 18.09 13.4157 17.6891C13.7005 17.2882 14.017 16.9665 14.3652 16.7238C14.7239 16.4706 15.0931 16.2913 15.4729 16.1858C15.8632 16.0697 16.2483 16.0117 16.6281 16.0117C17.3982 16.0117 18.0523 16.1752 18.5904 16.5023C19.1284 16.8293 19.5451 17.3041 19.8405 17.9265L18.6062 19.0342L18.4954 19.1292L18.3846 19.0026C18.3846 18.9182 18.3741 18.8338 18.353 18.7494C18.3319 18.665 18.2739 18.5542 18.1789 18.4171C17.9785 18.185 17.7622 18.032 17.5301 17.9582C17.298 17.8738 17.0606 17.8316 16.818 17.8316C16.5859 17.8316 16.3485 17.9001 16.1059 18.0373C15.8632 18.1639 15.6364 18.3643 15.4254 18.6386C15.225 18.9024 15.0614 19.24 14.9349 19.6514C14.8083 20.0628 14.745 20.5481 14.745 21.1073C14.745 21.6453 14.7872 22.1201 14.8716 22.5315C14.9665 22.9429 15.0931 23.2911 15.2513 23.5759C15.4201 23.8502 15.6153 24.0612 15.8369 24.2089C16.069 24.3461 16.3222 24.4146 16.5964 24.4146C16.8496 24.4146 17.0712 24.3883 17.2611 24.3355C17.451 24.2828 17.6251 24.1825 17.7833 24.0348C17.9415 23.8871 18.0945 23.6814 18.2422 23.4177L19.7614 24.5729C19.3605 25.2164 18.891 25.6595 18.353 25.9022C17.8149 26.1343 17.1925 26.2503 16.4857 26.2503Z" fill="#583636" fill-opacity="0.1"/>
<path d="M23.8861 25.7386C23.348 25.7386 22.8364 25.6384 22.3511 25.4379C21.8763 25.2375 21.4543 24.9315 21.0851 24.5201C20.7158 24.1086 20.4257 23.5864 20.2147 22.9534C20.0143 22.3099 19.9141 21.5503 19.9141 20.6747C19.9141 19.9045 19.9932 19.2294 20.1514 18.6491C20.3202 18.0689 20.5418 17.5783 20.8161 17.1774C21.1009 16.7765 21.4174 16.4548 21.7656 16.2121C22.1242 15.9589 22.4935 15.7796 22.8733 15.6741C23.2636 15.558 23.6487 15.5 24.0285 15.5C24.7986 15.5 25.4527 15.6635 25.9908 15.9906C26.5288 16.3176 26.9455 16.7924 27.2409 17.4148L26.0066 18.5225L25.8958 18.6175L25.785 18.4909C25.785 18.4065 25.7745 18.3221 25.7534 18.2377C25.7323 18.1533 25.6743 18.0425 25.5793 17.9054C25.3789 17.6733 25.1626 17.5203 24.9305 17.4464C24.6984 17.362 24.461 17.3198 24.2184 17.3198C23.9863 17.3198 23.7489 17.3884 23.5063 17.5256C23.2636 17.6522 23.0368 17.8526 22.8258 18.1269C22.6254 18.3906 22.4618 18.7282 22.3352 19.1397C22.2086 19.5511 22.1453 20.0364 22.1453 20.5956C22.1453 21.1336 22.1875 21.6083 22.2719 22.0198C22.3669 22.4312 22.4935 22.7794 22.6517 23.0642C22.8205 23.3385 23.0157 23.5495 23.2373 23.6972C23.4693 23.8343 23.7225 23.9029 23.9968 23.9029C24.25 23.9029 24.4716 23.8765 24.6615 23.8238C24.8514 23.771 25.0254 23.6708 25.1837 23.5231C25.3419 23.3754 25.4949 23.1697 25.6426 22.906L27.1618 24.0612C26.7609 24.7047 26.2914 25.1478 25.7534 25.3904C25.2153 25.6225 24.5929 25.7386 23.8861 25.7386Z" fill="black"/>
<path d="M15.972 25.7386C15.434 25.7386 14.9223 25.6384 14.437 25.4379C13.9623 25.2375 13.5403 24.9315 13.171 24.5201C12.8018 24.1086 12.5117 23.5864 12.3007 22.9534C12.1002 22.3099 12 21.5503 12 20.6747C12 19.9045 12.0791 19.2294 12.2374 18.6491C12.4062 18.0689 12.6277 17.5783 12.902 17.1774C13.1869 16.7765 13.5033 16.4548 13.8515 16.2121C14.2102 15.9589 14.5794 15.7796 14.9592 15.6741C15.3496 15.558 15.7346 15.5 16.1144 15.5C16.8846 15.5 17.5386 15.6635 18.0767 15.9906C18.6147 16.3176 19.0314 16.7924 19.3268 17.4148L18.0925 18.5225L17.9817 18.6175L17.871 18.4909C17.871 18.4065 17.8604 18.3221 17.8393 18.2377C17.8182 18.1533 17.7602 18.0425 17.6652 17.9054C17.4648 17.6733 17.2485 17.5203 17.0164 17.4464C16.7843 17.362 16.547 17.3198 16.3043 17.3198C16.0722 17.3198 15.8349 17.3884 15.5922 17.5256C15.3496 17.6522 15.1227 17.8526 14.9117 18.1269C14.7113 18.3906 14.5478 18.7282 14.4212 19.1397C14.2946 19.5511 14.2313 20.0364 14.2313 20.5956C14.2313 21.1336 14.2735 21.6083 14.3579 22.0198C14.4528 22.4312 14.5794 22.7794 14.7377 23.0642C14.9065 23.3385 15.1016 23.5495 15.3232 23.6972C15.5553 23.8343 15.8085 23.9029 16.0828 23.9029C16.336 23.9029 16.5575 23.8765 16.7474 23.8238C16.9373 23.771 17.1114 23.6708 17.2696 23.5231C17.4279 23.3754 17.5808 23.1697 17.7285 22.906L19.2477 24.0612C18.8468 24.7047 18.3774 25.1478 17.8393 25.3904C17.3013 25.6225 16.6788 25.7386 15.972 25.7386Z" fill="black"/>
</g>
<defs>
<clipPath id="clip0_2978_27145">
<rect width="40" height="40" fill="white" transform="translate(0 0.5)"/>
</clipPath>
</defs>
</svg>
