<svg width="50" height="50" viewBox="0 0 50 50" fill="none" xmlns="http://www.w3.org/2000/svg">
<rect width="50" height="50" rx="25" fill="#EFF0FF"/>
<path d="M22.2069 29.4545C22.2069 30.8604 21.0953 32 19.7241 32C18.3529 32 17.2414 30.8604 17.2414 29.4545M22.2069 29.4545C22.2069 28.0487 21.0953 26.9091 19.7241 26.9091C18.3529 26.9091 17.2414 28.0487 17.2414 29.4545M22.2069 29.4545H27.7931M17.2414 29.4545H16V19C16 18.4477 16.4477 18 17 18H27.7931V29.4545M33.3793 29.4545C33.3793 30.8604 32.2677 32 30.8966 32C29.5254 32 28.4138 30.8604 28.4138 29.4545M33.3793 29.4545C33.3793 28.0487 32.2677 26.9091 30.8966 26.9091C29.5254 26.9091 28.4138 28.0487 28.4138 29.4545M33.3793 29.4545H34V24.3636L30.8966 21.1818H27.7931V29.4545M28.4138 29.4545H27.7931" stroke="#00038F" stroke-width="2" stroke-linecap="round" stroke-linejoin="round"/>
</svg>
