<svg width="25" height="26" viewBox="0 0 25 26" fill="none" xmlns="http://www.w3.org/2000/svg">
<path d="M12.9297 2.67778C16.1338 2.67778 16.5134 2.69003 17.7787 2.74776C18.9487 2.80111 19.5841 2.9966 20.007 3.16094C20.5671 3.37862 20.9668 3.63866 21.3867 4.05855C21.8067 4.47849 22.0667 4.87824 22.2844 5.43837C22.4487 5.86122 22.6442 6.49661 22.6976 7.6666C22.7553 8.93195 22.7676 9.3115 22.7676 12.5156C22.7676 15.7198 22.7553 16.0993 22.6976 17.3647C22.6442 18.5346 22.4487 19.17 22.2844 19.5929C22.0667 20.153 21.8067 20.5528 21.3868 20.9727C20.9668 21.3926 20.5671 21.6526 20.007 21.8703C19.5841 22.0347 18.9487 22.2301 17.7787 22.2835C16.5136 22.3412 16.1341 22.3535 12.9297 22.3535C9.72535 22.3535 9.3459 22.3412 8.08069 22.2835C6.91069 22.2301 6.2753 22.0347 5.85245 21.8703C5.29232 21.6526 4.89257 21.3926 4.47268 20.9727C4.05278 20.5528 3.7927 20.153 3.57501 19.5929C3.41067 19.17 3.21518 18.5346 3.16183 17.3647C3.1041 16.0993 3.09186 15.7198 3.09186 12.5156C3.09186 9.3115 3.1041 8.93195 3.16183 7.6666C3.21518 6.49661 3.41067 5.86122 3.57501 5.43837C3.7927 4.87824 4.05274 4.47849 4.47268 4.0586C4.89257 3.63866 5.29232 3.37862 5.85245 3.16094C6.2753 2.9966 6.91069 2.80111 8.08069 2.74776C9.34604 2.69003 9.72558 2.67778 12.9297 2.67778ZM12.9297 0.515625C9.67072 0.515625 9.26206 0.529439 7.98213 0.587838C6.70487 0.646095 5.83254 0.848968 5.06925 1.14559C4.28014 1.45225 3.61093 1.86257 2.94376 2.52969C2.27665 3.19685 1.86632 3.86606 1.5597 4.65517C1.26304 5.41846 1.06016 6.29078 1.00191 7.56804C0.943502 8.84797 0.929688 9.25662 0.929688 12.5156C0.929688 15.7746 0.943502 16.1833 1.00191 17.4632C1.06016 18.7405 1.26304 19.6128 1.5597 20.3761C1.86632 21.1652 2.27665 21.8344 2.94376 22.5016C3.61093 23.1687 4.28014 23.579 5.06925 23.8856C5.83254 24.1823 6.70487 24.3852 7.98213 24.4434C9.26206 24.5018 9.67072 24.5156 12.9297 24.5156C16.1887 24.5156 16.5974 24.5018 17.8773 24.4434C19.1546 24.3852 20.0269 24.1823 20.7902 23.8856C21.5793 23.579 22.2485 23.1687 22.9157 22.5016C23.5828 21.8344 23.9931 21.1652 24.2998 20.3761C24.5964 19.6128 24.7993 18.7405 24.8575 17.4632C24.9159 16.1833 24.9297 15.7746 24.9297 12.5156C24.9297 9.25662 24.9159 8.84797 24.8575 7.56804C24.7993 6.29078 24.5964 5.41846 24.2998 4.65517C23.9931 3.86606 23.5828 3.19685 22.9157 2.52969C22.2485 1.86257 21.5793 1.45225 20.7902 1.14559C20.0269 0.848968 19.1546 0.646095 17.8773 0.587838C16.5974 0.529439 16.1887 0.515625 12.9297 0.515625Z" fill="#01024A"/>
<path d="M12.9356 6.35938C9.53232 6.35938 6.77344 9.11824 6.77344 12.5215C6.77344 15.9248 9.53232 18.6837 12.9356 18.6837C16.3389 18.6837 19.0978 15.9248 19.0978 12.5215C19.0978 9.11824 16.3389 6.35938 12.9356 6.35938ZM12.9356 16.5215C10.7264 16.5215 8.93561 14.7307 8.93561 12.5215C8.93561 10.3124 10.7264 8.52153 12.9356 8.52153C15.1447 8.52153 16.9356 10.3124 16.9356 12.5215C16.9356 14.7307 15.1447 16.5215 12.9356 16.5215Z" fill="#01024A"/>
<path d="M20.7863 6.1119C20.7863 6.90716 20.1416 7.55189 19.3463 7.55189C18.551 7.55189 17.9062 6.90716 17.9062 6.1119C17.9062 5.3166 18.551 4.67188 19.3463 4.67188C20.1416 4.67188 20.7863 5.3166 20.7863 6.1119Z" fill="#01024A"/>
</svg>
