<svg width="32" height="32" viewBox="0 0 32 32" fill="none" xmlns="http://www.w3.org/2000/svg">
<path d="M5.25781 23.1997L9.44981 25.6203L9.92406 24.7986L5.73206 22.3789L5.25781 23.1997Z" fill="#00038F"/>
<path d="M14.3545 17.9473H13.4062V22.7876H14.3545V17.9473Z" fill="#00038F"/>
<path d="M5.25781 17.5373L5.73206 18.3581L9.92406 15.9379L9.44981 15.1172L5.25781 17.5373Z" fill="#00038F"/>
<path d="M17.8828 23.1997L22.0751 25.6203L22.5493 24.7986L18.3568 22.3789L17.8828 23.1997Z" fill="#00038F"/>
<path d="M26.9798 17.9473H26.0312V22.7876H26.9798V17.9473Z" fill="#00038F"/>
<path d="M17.8828 17.5373L18.3568 18.3581L22.5493 15.9379L22.0751 15.1172L17.8828 17.5373Z" fill="#00038F"/>
<path d="M29.2511 23.8289V16.361L22.7834 12.6263V8.24219H21.8351V12.6263L15.9999 15.996L9.69056 12.3531L3.22312 16.0873L0.47425 14.4995L0 15.3207L2.74894 16.908V23.8289L0 25.4157L0.47425 26.2374L3.22269 24.6502L9.69056 28.3839L15.9999 24.7414L22.3094 28.3839L28.7774 24.6502L31.5257 26.2374L32 25.4157L29.2511 23.8289ZM15.3677 23.6459L9.69056 26.9233L4.0135 23.6459V17.0905L9.69031 13.8126L15.3677 17.0905V23.6459ZM27.9865 23.6459L22.3094 26.9233L16.6323 23.6459V17.0905L22.3094 13.8126L27.9865 17.0905V23.6459Z" fill="#00038F"/>
<path d="M20.6934 7.6308H21.5616C21.6024 7.6308 21.6298 7.60342 21.6298 7.56236V6.08811C21.6298 6.06023 21.6435 6.04705 21.6706 6.04705H23.1879C23.2153 6.04705 23.229 6.06023 23.229 6.08811V7.56236C23.229 7.60342 23.2564 7.6308 23.2974 7.6308H24.1653C24.2064 7.6308 24.2335 7.60342 24.2335 7.56236V3.68423C24.2335 3.64311 24.2064 3.61523 24.1653 3.61523H23.2974C23.2564 3.61523 23.229 3.64311 23.229 3.68423V5.1108C23.229 5.13817 23.2153 5.15186 23.1879 5.15186H21.6706C21.6435 5.15186 21.6298 5.13817 21.6298 5.1108V3.68423C21.6298 3.64311 21.6024 3.61523 21.5616 3.61523H20.6934C20.6521 3.61523 20.625 3.64311 20.625 3.68423V7.56242C20.625 7.60348 20.6521 7.6308 20.6934 7.6308Z" fill="#00038F"/>
</svg>
