<svg width="40" height="40" viewBox="0 0 40 40" fill="none" xmlns="http://www.w3.org/2000/svg">
<g clip-path="url(#clip0_625_5011)">
<path d="M37.2403 6.55078H2.75754C1.42444 6.55078 0.34375 7.63147 0.34375 8.96457V31.0335C0.34375 32.3666 1.42444 33.4473 2.75754 33.4473H37.2403C38.5734 33.4473 39.6541 32.3666 39.6541 31.0335V8.96457C39.6541 7.63147 38.5734 6.55078 37.2403 6.55078Z" fill="white" stroke="#F3F3F3"/>
<path fill-rule="evenodd" clip-rule="evenodd" d="M14.6556 27.5114V28.5299V29.5485H14.2092V29.3012C14.0676 29.4846 13.8527 29.5997 13.5607 29.5997C12.985 29.5997 12.5337 29.1524 12.5337 28.5299C12.5337 27.908 12.985 27.4602 13.5607 27.4602C13.8527 27.4602 14.0676 27.5753 14.2092 27.7587V27.5114H14.6556ZM13.6163 27.8778C13.2298 27.8778 12.9934 28.1719 12.9934 28.5299C12.9934 28.888 13.2298 29.1821 13.6163 29.1821C13.9855 29.1821 14.2347 28.9007 14.2347 28.5299C14.2347 28.1592 13.9855 27.8778 13.6163 27.8778ZM29.741 28.5299C29.741 28.1719 29.9775 27.8778 30.3639 27.8778C30.7336 27.8778 30.9824 28.1592 30.9824 28.5299C30.9824 28.9007 30.7336 29.1821 30.3639 29.1821C29.9775 29.1821 29.741 28.888 29.741 28.5299ZM31.4038 26.6934V28.5299V29.5485H30.9569V29.3012C30.8152 29.4846 30.6004 29.5997 30.3084 29.5997C29.7327 29.5997 29.2814 29.1524 29.2814 28.5299C29.2814 27.908 29.7327 27.4602 30.3084 27.4602C30.6004 27.4602 30.8152 27.5753 30.9569 27.7587V26.6934H31.4038ZM20.1969 27.8568C20.4845 27.8568 20.6693 28.0358 20.7165 28.3509H19.6512C19.6988 28.0568 19.8787 27.8568 20.1969 27.8568ZM19.1831 28.5299C19.1831 27.8948 19.6039 27.4602 20.2057 27.4602C20.781 27.4602 21.1762 27.8948 21.1806 28.5299C21.1806 28.5894 21.1762 28.6451 21.1718 28.7002H19.6472C19.7116 29.067 19.9736 29.1992 20.2612 29.1992C20.4672 29.1992 20.6865 29.1221 20.8586 28.9861L21.0774 29.3143C20.8281 29.5231 20.5449 29.5997 20.2357 29.5997C19.6212 29.5997 19.1831 29.1778 19.1831 28.5299ZM25.5961 28.5299C25.5961 28.1719 25.8325 27.8778 26.219 27.8778C26.5881 27.8778 26.8374 28.1592 26.8374 28.5299C26.8374 28.9007 26.5881 29.1821 26.219 29.1821C25.8325 29.1821 25.5961 28.888 25.5961 28.5299ZM27.2583 27.5114V28.5299V29.5485H26.8118V29.3012C26.6698 29.4846 26.4554 29.5997 26.1634 29.5997C25.5876 29.5997 25.1363 29.1524 25.1363 28.5299C25.1363 27.908 25.5876 27.4602 26.1634 27.4602C26.4554 27.4602 26.6698 27.5753 26.8118 27.7587V27.5114H27.2583ZM23.0749 28.5299C23.0749 29.148 23.5085 29.5997 24.1703 29.5997C24.4795 29.5997 24.6855 29.5314 24.9087 29.3567L24.6943 28.9987C24.5267 29.1183 24.3507 29.1821 24.157 29.1821C23.8005 29.1778 23.5385 28.9221 23.5385 28.5299C23.5385 28.1378 23.8005 27.8821 24.157 27.8778C24.3507 27.8778 24.5267 27.9416 24.6943 28.0612L24.9087 27.7031C24.6855 27.5285 24.4795 27.4602 24.1703 27.4602C23.5085 27.4602 23.0749 27.9119 23.0749 28.5299ZM28.2892 27.7587C28.4052 27.5797 28.5729 27.4602 28.8305 27.4602C28.9209 27.4602 29.0498 27.4773 29.1486 27.5158L29.011 27.9334C28.9165 27.8948 28.8221 27.8821 28.7317 27.8821C28.4396 27.8821 28.2936 28.0694 28.2936 28.4065V29.5485H27.8467V27.5114H28.2892V27.7587ZM16.8636 27.6734C16.6487 27.5329 16.3527 27.4602 16.0263 27.4602C15.5061 27.4602 15.1713 27.7075 15.1713 28.1124C15.1713 28.4446 15.4206 28.6494 15.8798 28.7134L16.0907 28.7431C16.3355 28.7773 16.4511 28.8412 16.4511 28.9563C16.4511 29.1138 16.2878 29.2036 15.983 29.2036C15.6738 29.2036 15.4506 29.1056 15.3001 28.9904L15.0897 29.3353C15.3345 29.5143 15.6438 29.5997 15.9786 29.5997C16.5715 29.5997 16.9152 29.3226 16.9152 28.9348C16.9152 28.5767 16.6447 28.3894 16.1978 28.3256L15.9874 28.2953C15.7943 28.2699 15.6394 28.2319 15.6394 28.0953C15.6394 27.946 15.7854 27.8568 16.0302 27.8568C16.2923 27.8568 16.5459 27.9548 16.6703 28.0314L16.8636 27.6734ZM22.0828 27.7587C22.1983 27.5797 22.366 27.4602 22.6236 27.4602C22.7141 27.4602 22.8429 27.4773 22.9416 27.5158L22.804 27.9334C22.7096 27.8948 22.6152 27.8821 22.5247 27.8821C22.2327 27.8821 22.0867 28.0694 22.0867 28.4065V29.5485H21.6403V27.5114H22.0828V27.7587ZM18.8138 27.5114H18.0838V26.8934H17.6325V27.5114H17.2161V27.9163H17.6325V28.8456C17.6325 29.3183 17.8173 29.5997 18.3454 29.5997C18.539 29.5997 18.7623 29.5402 18.9038 29.4421L18.775 29.0626C18.6418 29.1392 18.4958 29.1778 18.3798 29.1778C18.1565 29.1778 18.0838 29.0412 18.0838 28.8367V27.9163H18.8138V27.5114ZM12.1389 28.2699V29.5485H11.6876V28.4148C11.6876 28.0694 11.5416 27.8778 11.2367 27.8778C10.9403 27.8778 10.7343 28.0656 10.7343 28.4192V29.5485H10.283V28.4148C10.283 28.0694 10.133 27.8778 9.83654 27.8778C9.53123 27.8778 9.33364 28.0656 9.33364 28.4192V29.5485H8.88281V27.5114H9.32971V27.7626C9.49736 27.5241 9.71171 27.4602 9.93095 27.4602C10.2446 27.4602 10.4678 27.5968 10.6094 27.8226C10.7987 27.5368 11.0691 27.4558 11.3312 27.4602C11.8296 27.4646 12.1389 27.7885 12.1389 28.2699Z" fill="#231F20"/>
<path d="M23.4769 24.0486H16.7109V11.9844H23.4769V24.0486Z" fill="#FF5F00"/>
<path d="M17.1434 18.0183C17.1434 15.571 18.2982 13.391 20.0966 11.9862C18.7815 10.9589 17.1217 10.3457 15.3179 10.3457C11.0476 10.3457 7.58594 13.7808 7.58594 18.0183C7.58594 22.2559 11.0476 25.691 15.3179 25.691C17.1217 25.691 18.7815 25.0778 20.0966 24.0505C18.2982 22.6456 17.1434 20.4656 17.1434 18.0183Z" fill="#EB001B"/>
<path d="M32.605 18.0183C32.605 22.2559 29.1433 25.691 24.873 25.691C23.0691 25.691 21.4094 25.0778 20.0938 24.0505C21.8926 22.6456 23.0475 20.4656 23.0475 18.0183C23.0475 15.571 21.8926 13.391 20.0938 11.9862C21.4094 10.9589 23.0691 10.3457 24.873 10.3457C29.1433 10.3457 32.605 13.7808 32.605 18.0183Z" fill="#F79E1B"/>
</g>
<defs>
<clipPath id="clip0_625_5011">
<rect width="40" height="40" fill="white"/>
</clipPath>
</defs>
</svg>
