<svg width="199" height="67" viewBox="0 0 199 67" fill="none" xmlns="http://www.w3.org/2000/svg">
<path fill-rule="evenodd" clip-rule="evenodd" d="M182.941 57.2793C183.044 57.2545 183.121 57.3658 183.056 57.4523L180.191 61.2342C177.094 65.3251 171.62 67.0307 166.634 65.4611L141.768 57.6624C141.665 57.6253 141.652 57.4894 141.755 57.4523C143.978 56.6366 145.7 54.7704 145.88 51.8659C145.893 50.6918 145.751 49.3694 145.52 47.8245C144.878 43.5111 146.651 39.0494 148.45 35.8855C153.089 27.9015 163.125 14.2322 163.228 14.1209C163.357 13.9726 163.472 13.8243 163.832 13.7131C164.308 13.5771 164.976 13.849 165.156 14.3928C165.233 14.6647 167.212 20.9556 169.563 28.47C169.589 28.5441 169.538 28.6059 169.473 28.6183C158.281 29.9778 151.059 36.7136 151.226 45.5751C151.367 52.7187 157.291 57.9837 164.899 57.8478C170.926 57.7366 173.843 55.6355 173.791 53.3367C173.766 51.6929 172.442 50.5188 169.795 50.5682C164.359 50.6671 160.941 48.3436 160.876 45.0931C160.799 40.8045 164.398 37.2079 171.645 35.4776C171.709 35.4653 171.774 35.49 171.787 35.5518C174.614 44.5369 177.351 53.2502 177.749 54.4366C178.417 56.4636 180.641 57.65 182.941 57.2793ZM133.916 40.8045C133.338 41.7808 132.85 42.7449 132.451 43.6594C132.4 43.783 132.207 43.7459 132.207 43.61L132.233 19.7197C132.233 14.7142 135.587 10.2772 140.534 8.73233L162.945 1.76174C163.061 1.7123 163.164 1.84825 163.087 1.94713C155.338 12.094 135.458 38.1843 133.916 40.8045ZM198.451 34.2788C198.528 34.2541 198.593 34.3159 198.593 34.39C198.349 36.3181 197.616 38.1967 196.382 39.8404L186.77 52.5333C186.706 52.6199 186.577 52.5828 186.565 52.4839C186.539 52.2944 186.496 52.109 186.436 51.9277C186.231 51.2727 183.763 43.61 180.782 34.2664C180.756 34.2046 180.808 34.1305 180.872 34.1305C185.267 33.8091 190.034 33.9327 197.436 34.3282C197.847 34.353 198.181 34.3282 198.451 34.2788ZM170.219 1.35388C170.077 0.921313 169.898 0.550537 169.679 0.216838C169.628 0.130324 169.692 0.0190912 169.795 0.0190912C173.804 -0.203374 177.762 1.52691 180.204 4.76502L196.395 26.2577C197.629 27.9014 198.349 29.78 198.593 31.6957C198.606 31.7946 198.49 31.8688 198.387 31.8317C197.835 31.5598 197.025 31.2879 195.856 30.9789C190.214 29.4711 185.035 28.6677 178.996 28.4329C178.944 28.4205 178.893 28.3835 178.867 28.334C175.475 17.7422 171.864 6.49531 170.219 1.35388Z" fill="white"/>
<path fill-rule="evenodd" clip-rule="evenodd" d="M13.4545 21.3876V31.3738H11L10.7173 29.1244C9.88203 30.4221 8.28857 31.794 5.53856 31.794C2.6729 31.794 0 30.1997 0 27.2582C0 23.847 3.18692 22.7718 6.69511 22.7718C9.02105 22.7718 10.2932 22.6482 10.2932 21.2145C10.2932 19.8921 8.99535 19.0887 6.82361 19.0887C4.20211 19.0887 2.19744 20.2011 1.07944 21.2145H1.01519L1.10514 18.4461C2.35164 17.4326 4.80609 16.3574 7.08062 16.3574C10.229 16.3574 13.4545 17.618 13.4545 21.3876ZM10.5246 25.5032V23.9706C9.81778 24.8605 8.37852 25.0459 6.50235 25.0459C4.52338 25.0459 3.14837 25.7256 3.14837 27.1964C3.14837 28.6424 4.71613 29.3469 6.24534 29.3469C8.76404 29.3469 10.5246 27.6537 10.5246 25.5032ZM20.3423 11.7227V31.3738H17.1554V11.7227H20.3423ZM35.4674 16.8764L28.3867 28.6671H35.3646V31.3738H23.3108L23.2465 31.2749L30.3272 19.4842H23.8891V16.7899H35.4288L35.4674 16.8764ZM36.9323 24.0571C36.9323 19.7314 40.2606 16.3574 44.8482 16.3574C47.534 16.3574 49.2174 17.2719 50.1812 17.9517V20.7449H50.1169C49.0889 19.8797 47.3669 19.0517 45.1952 19.0517C42.3295 19.0517 40.1964 20.8067 40.1964 24.0571C40.1964 27.2829 42.3295 29.1244 45.1952 29.1244C47.534 29.1244 49.1917 28.1728 50.2454 27.2458H50.3097V30.0761C49.3459 30.8423 47.7139 31.8187 44.8225 31.8187C40.2606 31.8187 36.9323 28.5682 36.9323 24.0571ZM67.4651 22.7965V31.3614H64.2782V23.5628C64.2782 20.0651 62.7104 19.0269 60.77 19.0269C58.8167 19.0269 57.0048 20.4606 57.0048 23.847V31.3614H53.8179V11.7227H57.0048V19.0269C57.8015 17.6427 59.305 16.4192 61.5924 16.4192C65.2934 16.4192 67.4651 18.8663 67.4651 22.7965ZM75.4453 25.0088C74.5457 25.0088 73.8133 25.1324 73.8133 26.0223C73.8133 27.5301 75.6894 29.0873 78.5937 29.0873C81.5364 29.0873 83.5154 27.9874 84.4021 27.0357H84.4663L84.4406 29.7053C83.5154 30.5334 81.4079 31.8187 78.4137 31.8187C73.6848 31.8187 70.395 28.7289 70.395 24.0942C70.395 19.7314 73.6848 16.3203 78.1824 16.3203C81.9476 16.3203 84.5306 18.6809 85.0446 22.0055V25.0088H75.4453ZM75.895 22.7718H81.9219C81.9219 20.646 80.3927 18.9899 77.9254 18.9899C75.1883 18.9899 73.749 20.8314 73.5563 23.4392C74.0446 23.0808 74.7385 22.7718 75.895 22.7718ZM110.399 22.7965V31.3614H107.212V23.5628C107.212 20.0651 105.965 19.0269 104.153 19.0269C102.457 19.0269 100.902 20.4606 100.902 23.847V31.3614H97.7152V23.5628C97.7152 20.0651 96.4687 19.0269 94.6439 19.0269C92.9605 19.0269 91.3927 20.4606 91.3927 23.847V31.3614H88.2058V16.7776H90.686L90.9815 19.1753C91.6112 17.8528 93.089 16.4192 95.5049 16.4192C97.8308 16.4192 99.5014 17.6427 100.26 19.4224C100.864 17.9764 102.367 16.4192 104.976 16.4192C108.432 16.4192 110.399 18.8663 110.399 22.7965ZM43.576 38.8387H46.0305V51.2968C46.0305 56.6113 42.9078 59.2438 38.3716 59.2438C35.7629 59.2438 33.3085 58.5146 31.6765 57.2169V54.4237H31.7407C33.3342 55.7461 35.7629 56.5742 38.1146 56.5742C40.9288 56.5742 42.8436 54.9181 42.8436 51.8777V50.7159C41.8541 52.0631 40.0936 53.1754 37.6391 53.1754C33.8739 53.1754 30.687 50.407 30.687 45.8093C30.687 41.3477 33.9767 38.4432 37.8704 38.4432C40.4534 38.4432 42.3295 39.6915 43.2291 41.3229L43.576 38.8387ZM42.9978 45.7723C42.9978 43.3869 41.4043 41.0758 38.5258 41.0758C35.3389 41.0758 33.9639 43.3251 33.9639 45.7723C33.9639 48.2565 35.4417 50.5305 38.5643 50.5305C41.4043 50.5305 42.9978 48.2565 42.9978 45.7723ZM59.2922 38.9253V41.6072C58.8167 41.4218 57.93 41.1376 57.0048 41.1376C55.18 41.1376 53.1754 42.5836 53.1754 46.3531V53.4226H49.9884V38.8387H52.4686L52.8155 41.6072C53.5866 39.8769 54.923 38.505 57.2233 38.505C58.0585 38.505 58.9195 38.7522 59.2922 38.9253Z" fill="#E6E6E6"/>
<path fill-rule="evenodd" clip-rule="evenodd" d="M60.0254 46.1217C60.0254 41.7959 63.3537 38.4219 67.877 38.4219C72.349 38.4219 75.6901 41.7959 75.6901 46.1217C75.6901 50.6328 72.3105 53.8832 67.877 53.8832C63.3537 53.8832 60.0254 50.6328 60.0254 46.1217ZM72.439 46.1217C72.439 43.415 70.807 41.1162 67.877 41.1162C64.9471 41.1162 63.2894 43.415 63.2894 46.1217C63.2894 48.853 64.9728 51.1889 67.877 51.1889C70.807 51.1889 72.439 48.853 72.439 46.1217ZM88.8362 38.8421H92.0231V53.4259H89.5687L89.2474 50.9417C88.4892 52.3507 86.8315 53.7967 84.2743 53.7967C80.7275 53.7967 78.5944 51.3372 78.5944 47.407V38.8421H81.7813V46.6407C81.7813 50.1384 83.2205 51.1889 85.1353 51.1889C87.0114 51.1889 88.8362 49.7429 88.8362 46.3688V38.8421ZM111.299 45.961C111.299 50.5339 108.228 53.8214 104.154 53.8214C101.879 53.8214 100.157 52.7709 99.168 51.4238V58.9381H95.9811V38.8421H98.4741L98.7825 41.4128C99.7077 39.7937 101.725 38.4342 104.27 38.4342C108.292 38.4342 111.299 41.5982 111.299 45.961ZM108.035 46.1464C108.035 43.415 106.416 41.0791 103.511 41.0791C100.672 41.0791 99.0395 43.4768 99.0395 46.0846C99.0395 48.7542 100.672 51.1519 103.511 51.1519C106.441 51.1519 108.035 48.8407 108.035 46.1464Z" fill="#E6E6E6"/>
</svg>
