<svg width="244" height="72" viewBox="0 0 244 72" fill="none" xmlns="http://www.w3.org/2000/svg">
<g clip-path="url(#clip0_4919_29225)">
<path fill-rule="evenodd" clip-rule="evenodd" d="M90.4023 58.8127L90.8559 58.2437C91.5314 58.8915 92.1797 59.2157 93.0779 59.2157C93.9482 59.2157 94.5223 58.7246 94.5223 58.0473V58.0278C94.5223 57.3895 94.1982 57.0262 92.8369 56.7222C91.3469 56.3778 90.6618 55.8672 90.6618 54.7386V54.7198C90.6618 53.6388 91.5593 52.8438 92.7912 52.8438C93.7351 52.8438 94.4113 53.1283 95.0678 53.6886L94.6422 54.2873C94.0408 53.7666 93.4389 53.5413 92.7722 53.5413C91.9298 53.5413 91.3925 54.0316 91.3925 54.6505V54.67C91.3925 55.3184 91.7262 55.6817 93.1522 56.0052C94.5959 56.3395 95.2632 56.8984 95.2632 57.9491V57.9693C95.2632 59.1464 94.3371 59.9125 93.0507 59.9125C92.0224 59.9125 91.18 59.5493 90.4023 58.8127Z" fill="white"/>
<path fill-rule="evenodd" clip-rule="evenodd" d="M100.379 57.4032V57.3839C100.379 56.3469 99.63 55.4955 98.647 55.4955C97.6374 55.4955 96.9429 56.3469 96.9429 57.3654V57.3839C96.9429 58.4217 97.6818 59.2634 98.6656 59.2634C99.6751 59.2634 100.379 58.4217 100.379 57.4032ZM96.2305 57.4032V57.3839C96.2305 56.0195 97.2586 54.8594 98.6656 54.8594C100.063 54.8594 101.091 56.001 101.091 57.3654V57.3839C101.091 58.7497 100.054 59.9085 98.647 59.9085C97.2493 59.9085 96.2305 58.7683 96.2305 57.4032Z" fill="white"/>
<path fill-rule="evenodd" clip-rule="evenodd" d="M103.035 59.9125H104.007V52.8438H103.035V59.9125Z" fill="white"/>
<path fill-rule="evenodd" clip-rule="evenodd" d="M104.977 54.8594H105.776L107.411 59.0168L109.057 54.8594H109.837L107.721 59.9085H107.082L104.977 54.8594Z" fill="white"/>
<path fill-rule="evenodd" clip-rule="evenodd" d="M114.902 57.0944C114.812 56.2155 114.276 55.4673 113.261 55.4673C112.377 55.4673 111.701 56.1591 111.591 57.0944H114.902ZM113.4 59.282C114.107 59.282 114.603 59.0117 115.021 58.5998L115.498 59.0021C114.981 59.544 114.355 59.9085 113.381 59.9085C111.969 59.9085 110.816 58.89 110.816 57.3839C110.816 55.9817 111.86 54.8594 113.281 54.8594C114.802 54.8594 115.677 56.001 115.677 57.4218C115.677 57.4871 115.677 57.562 115.667 57.6741H111.591C111.701 58.6933 112.496 59.282 113.4 59.282Z" fill="white"/>
<path fill-rule="evenodd" clip-rule="evenodd" d="M122.613 53.5806H120.535V52.8438H125.396V53.5806H123.32V59.9125H122.613V53.5806Z" fill="white"/>
<path fill-rule="evenodd" clip-rule="evenodd" d="M129.547 57.4032V57.3839C129.547 56.3469 128.798 55.4955 127.815 55.4955C126.805 55.4955 126.111 56.3469 126.111 57.3654V57.3839C126.111 58.4217 126.85 59.2634 127.834 59.2634C128.843 59.2634 129.547 58.4217 129.547 57.4032ZM125.398 57.4032V57.3839C125.398 56.0195 126.427 54.8594 127.834 54.8594C129.231 54.8594 130.259 56.001 130.259 57.3654V57.3839C130.259 58.7497 129.222 59.9085 127.815 59.9085C126.417 59.9085 125.398 58.7683 125.398 57.4032Z" fill="white"/>
<path fill-rule="evenodd" clip-rule="evenodd" d="M135.402 57.346V57.3271C135.402 56.1926 134.555 55.4292 133.661 55.4292C132.73 55.4292 131.966 56.135 131.966 57.3271V57.346C131.966 58.5107 132.748 59.2544 133.661 59.2544C134.555 59.2544 135.402 58.4819 135.402 57.346ZM131.23 57.3558V57.3369C131.23 55.7246 132.376 54.7704 133.53 54.7704C134.424 54.7704 135.002 55.2664 135.374 55.8207V52.8438H136.091V59.8073H135.374V58.8152C134.983 59.4067 134.415 59.9125 133.53 59.9125C132.376 59.9125 131.23 58.978 131.23 57.3558Z" fill="white"/>
<path fill-rule="evenodd" clip-rule="evenodd" d="M142.095 58.0151V57.5634C141.689 57.4588 141.155 57.3555 140.481 57.3555C139.456 57.3555 138.868 57.7511 138.868 58.3351V58.3539C138.868 58.9663 139.51 59.3245 140.257 59.3245C141.273 59.3245 142.095 58.7869 142.095 58.0151ZM138.035 58.392V58.3733C138.035 57.3278 138.996 56.7812 140.396 56.7812C141.101 56.7812 141.592 56.8657 142.084 56.9883V56.838C142.084 55.9713 141.486 55.5196 140.45 55.5196C139.798 55.5196 139.285 55.6602 138.772 55.8681L138.527 55.2744C139.135 55.0298 139.723 54.8594 140.535 54.8594C141.314 54.8594 141.924 55.0478 142.319 55.397C142.704 55.7358 142.896 56.2069 142.896 56.8283V59.8046H142.084V59.0792C141.7 59.5122 141.069 59.9085 140.097 59.9085C139.061 59.9085 138.035 59.3903 138.035 58.392Z" fill="white"/>
<path fill-rule="evenodd" clip-rule="evenodd" d="M144.076 61.6575L144.319 61.0236C144.552 61.159 144.767 61.2217 145.074 61.2217C145.504 61.2217 145.774 60.9716 146.063 60.2131L143.871 54.8594H144.664L146.418 59.34L147.966 54.8594H148.732L146.707 60.4112C146.297 61.5229 145.83 61.9281 145.102 61.9281C144.701 61.9281 144.403 61.8349 144.076 61.6575Z" fill="white"/>
<path fill-rule="evenodd" clip-rule="evenodd" d="M155.535 58.8127L155.989 58.2437C156.664 58.8915 157.313 59.2157 158.21 59.2157C159.082 59.2157 159.655 58.7246 159.655 58.0473V58.0278C159.655 57.3895 159.332 57.0262 157.97 56.7222C156.479 56.3778 155.794 55.8672 155.794 54.7386V54.7198C155.794 53.6388 156.692 52.8438 157.924 52.8438C158.868 52.8438 159.544 53.1283 160.201 53.6886L159.776 54.2873C159.173 53.7666 158.572 53.5413 157.905 53.5413C157.063 53.5413 156.525 54.0316 156.525 54.6505V54.67C156.525 55.3184 156.859 55.6817 158.285 56.0052C159.729 56.3395 160.396 56.8984 160.396 57.9491V57.9693C160.396 59.1464 159.47 59.9125 158.183 59.9125C157.155 59.9125 156.312 59.5493 155.535 58.8127Z" fill="white"/>
<path fill-rule="evenodd" clip-rule="evenodd" d="M161.375 52.8438H162.203V55.7781C162.569 55.2361 163.149 54.7995 164.106 54.7995C165.451 54.7995 166.236 55.6136 166.236 56.8044V59.9125H165.408V56.9889C165.408 56.0587 164.849 55.4782 163.87 55.4782C162.913 55.4782 162.203 56.1071 162.203 57.0466V59.9125H161.375V52.8438Z" fill="white"/>
<path fill-rule="evenodd" clip-rule="evenodd" d="M171.263 58.0151V57.5634C170.857 57.4588 170.323 57.3555 169.649 57.3555C168.624 57.3555 168.036 57.7511 168.036 58.3351V58.3539C168.036 58.9663 168.678 59.3245 169.425 59.3245C170.441 59.3245 171.263 58.7869 171.263 58.0151ZM167.203 58.392V58.3733C167.203 57.3278 168.164 56.7812 169.564 56.7812C170.269 56.7812 170.76 56.8657 171.252 56.9883V56.838C171.252 55.9713 170.654 55.5196 169.618 55.5196C168.966 55.5196 168.453 55.6602 167.94 55.8681L167.695 55.2744C168.303 55.0298 168.891 54.8594 169.703 54.8594C170.483 54.8594 171.092 55.0478 171.487 55.397C171.871 55.7358 172.064 56.2069 172.064 56.8283V59.8046H171.252V59.0792C170.868 59.5122 170.237 59.9085 169.265 59.9085C168.229 59.9085 167.203 59.3903 167.203 58.392Z" fill="white"/>
<path fill-rule="evenodd" clip-rule="evenodd" d="M178.126 57.6441V57.6237C178.126 56.37 177.343 55.569 176.431 55.569C175.536 55.569 174.69 56.401 174.69 57.6131V57.6335C174.69 58.8668 175.536 59.689 176.431 59.689C177.362 59.689 178.126 58.928 178.126 57.6441ZM174 54.9727H174.717V56.0413C175.108 55.4042 175.676 54.8594 176.561 54.8594C177.716 54.8594 178.861 55.8667 178.861 57.6131V57.6335C178.861 59.3701 177.725 60.3979 176.561 60.3979C175.667 60.3979 175.09 59.8636 174.717 59.2673V61.9281H174V54.9727Z" fill="white"/>
<path fill-rule="evenodd" clip-rule="evenodd" d="M183.922 57.0944C183.832 56.2155 183.295 55.4673 182.282 55.4673C181.397 55.4673 180.721 56.1591 180.612 57.0944H183.922ZM182.42 59.282C183.126 59.282 183.623 59.0117 184.041 58.5998L184.518 59.0021C184.001 59.544 183.375 59.9085 182.401 59.9085C180.989 59.9085 179.836 58.89 179.836 57.3839C179.836 55.9817 180.88 54.8594 182.301 54.8594C183.822 54.8594 184.697 56.001 184.697 57.4218C184.697 57.4871 184.697 57.562 184.687 57.6741H180.612C180.721 58.6933 181.516 59.282 182.42 59.282Z" fill="white"/>
<path fill-rule="evenodd" clip-rule="evenodd" d="M191.64 53.5806H189.562V52.8438H194.423V53.5806H192.347V59.9125H191.64V53.5806Z" fill="white"/>
<path fill-rule="evenodd" clip-rule="evenodd" d="M198.574 57.4032V57.3839C198.574 56.3469 197.825 55.4955 196.843 55.4955C195.833 55.4955 195.138 56.3469 195.138 57.3654V57.3839C195.138 58.4217 195.878 59.2634 196.861 59.2634C197.871 59.2634 198.574 58.4217 198.574 57.4032ZM194.426 57.4032V57.3839C194.426 56.0195 195.454 54.8594 196.861 54.8594C198.258 54.8594 199.287 56.001 199.287 57.3654V57.3839C199.287 58.7497 198.25 59.9085 196.843 59.9085C195.445 59.9085 194.426 58.7683 194.426 57.4032Z" fill="white"/>
<path fill-rule="evenodd" clip-rule="evenodd" d="M201.23 54.9649H201.994V55.7969C202.332 55.3095 202.788 54.8594 203.651 54.8594C204.485 54.8594 205.02 55.2905 205.298 55.8447C205.665 55.2997 206.21 54.8594 207.103 54.8594C208.284 54.8594 209.008 55.6246 209.008 56.8491V59.9085H208.244V57.0214C208.244 56.0642 207.748 55.5296 206.915 55.5296C206.141 55.5296 205.497 56.0839 205.497 57.0587V59.9085H204.742V57.0017C204.742 56.074 204.237 55.5296 203.423 55.5296C202.61 55.5296 201.994 56.1788 201.994 57.0875V59.9085H201.23V54.9649Z" fill="white"/>
<path fill-rule="evenodd" clip-rule="evenodd" d="M215.098 57.4032V57.3839C215.098 56.3469 214.349 55.4955 213.366 55.4955C212.356 55.4955 211.662 56.3469 211.662 57.3654V57.3839C211.662 58.4217 212.401 59.2634 213.384 59.2634C214.394 59.2634 215.098 58.4217 215.098 57.4032ZM210.949 57.4032V57.3839C210.949 56.0195 211.977 54.8594 213.384 54.8594C214.782 54.8594 215.81 56.001 215.81 57.3654V57.3839C215.81 58.7497 214.773 59.9085 213.366 59.9085C211.968 59.9085 210.949 58.7683 210.949 57.4032Z" fill="white"/>
<path fill-rule="evenodd" clip-rule="evenodd" d="M49.798 3.61895C49.798 5.43479 51.2149 6.90662 52.9623 6.90662C54.7111 6.90662 56.1274 5.43479 56.1274 3.61895C56.1274 1.80311 54.7111 0.332031 52.9623 0.332031C51.2149 0.332031 49.798 1.80311 49.798 3.61895ZM49.798 59.6542C49.798 61.47 51.2149 62.9411 52.9623 62.9411C54.7111 62.9411 56.1274 61.47 56.1274 59.6542C56.1274 57.8384 54.7111 56.3665 52.9623 56.3665C51.2149 56.3665 49.798 57.8384 49.798 59.6542ZM27.4508 3.61895C27.4508 5.43479 28.8685 6.90662 30.6159 6.90662C32.364 6.90662 33.7802 5.43479 33.7802 3.61895C33.7802 1.80311 32.364 0.332031 30.6159 0.332031C28.8685 0.332031 27.4508 1.80311 27.4508 3.61895ZM27.4508 59.6542C27.4508 61.47 28.8685 62.9411 30.6159 62.9411C32.364 62.9411 33.7802 61.47 33.7802 59.6542C33.7802 57.8384 32.364 56.3665 30.6159 56.3665C28.8685 56.3665 27.4508 57.8384 27.4508 59.6542ZM68.7615 39.9553C67.0141 39.9553 65.5971 41.4279 65.5971 43.243C65.5971 45.0581 67.0141 46.5299 68.7615 46.5299C70.5103 46.5299 71.9273 45.0581 71.9273 43.243C71.9273 41.4279 70.5103 39.9553 68.7615 39.9553ZM14.8167 39.9553C13.0693 39.9553 11.6523 41.4279 11.6523 43.243C11.6523 45.0581 13.0693 46.5299 14.8167 46.5299C16.5641 46.5299 17.981 45.0581 17.981 43.243C17.981 41.4279 16.5641 39.9553 14.8167 39.9553ZM68.7615 16.7432C67.0141 16.7432 65.5971 18.2151 65.5971 20.0301C65.5971 21.8452 67.0141 23.3178 68.7615 23.3178C70.5103 23.3178 71.9273 21.8452 71.9273 20.0301C71.9273 18.2151 70.5103 16.7432 68.7615 16.7432ZM17.981 20.0301C17.981 21.8452 16.5641 23.3178 14.8167 23.3178C13.0693 23.3178 11.6523 21.8452 11.6523 20.0301C11.6523 18.2151 13.0693 16.7432 14.8167 16.7432C16.5641 16.7432 17.981 18.2151 17.981 20.0301Z" fill="white"/>
<path fill-rule="evenodd" clip-rule="evenodd" d="M22.4074 29.0045C21.3198 28.5257 20.0645 29.0536 19.6035 30.1833C19.1425 31.3137 19.6521 32.6176 20.7397 33.0957C21.8273 33.5746 23.0826 33.0467 23.5436 31.917C24.0046 30.7866 23.4957 29.4819 22.4074 29.0045ZM61.8766 29.0045C60.7883 28.5257 59.5323 29.0536 59.0713 30.1833C58.6117 31.3137 59.1199 32.6176 60.2075 33.0957C61.2951 33.5746 62.5504 33.0467 63.0114 31.917C63.4724 30.7866 62.9642 29.4819 61.8766 29.0045ZM53.306 15.5727C52.8522 16.7054 53.3684 18.0063 54.4596 18.4776C55.5508 18.9489 56.8025 18.412 57.2562 17.2793C57.7093 16.1458 57.1938 14.845 56.1026 14.3736C55.0114 13.9023 53.759 14.4392 53.306 15.5727ZM39.3461 50.7628C38.8851 51.8925 39.3933 53.1971 40.4809 53.676C41.5692 54.1541 42.8245 53.6262 43.2848 52.4958C43.7458 51.3661 43.2376 50.0622 42.15 49.5833C41.0617 49.1044 39.8064 49.6323 39.3461 50.7628ZM39.3461 9.76664C38.8851 10.8963 39.3933 12.2002 40.4809 12.6791C41.5692 13.158 42.8245 12.6301 43.2848 11.4996C43.7458 10.3699 43.2376 9.0653 42.15 8.58642C41.0617 8.1083 39.8064 8.6362 39.3461 9.76664ZM25.3594 44.7531C24.9056 45.8858 25.4225 47.1867 26.513 47.6572C27.6042 48.1286 28.8559 47.5916 29.3096 46.4589C29.7634 45.3255 29.2465 44.0253 28.1553 43.554C27.0648 43.0834 25.8131 43.6196 25.3594 44.7531ZM56.0423 43.3911C54.9526 42.9175 53.6995 43.4522 53.2435 44.5842C52.7883 45.7169 53.3023 47.0177 54.3928 47.4913C55.4826 47.9642 56.7357 47.4295 57.1916 46.2976C57.6468 45.1648 57.1328 43.864 56.0423 43.3911ZM29.3713 17.4467C28.9161 18.5794 27.6637 19.1133 26.5733 18.6413C25.4835 18.1677 24.9688 16.866 25.424 15.7341C25.8799 14.6014 27.1323 14.0667 28.2228 14.5403C29.3125 15.0139 29.8273 16.3155 29.3713 17.4467Z" fill="white"/>
<path fill-rule="evenodd" clip-rule="evenodd" d="M43.9581 22.1932C43.9581 23.1117 44.6752 23.8559 45.5587 23.8559C46.443 23.8559 47.1594 23.1117 47.1594 22.1932C47.1594 21.2754 46.443 20.5312 45.5587 20.5312C44.6752 20.5312 43.9581 21.2754 43.9581 22.1932ZM43.9581 41.0854C43.9581 42.0032 44.6752 42.7474 45.5587 42.7474C46.443 42.7474 47.1594 42.0032 47.1594 41.0854C47.1594 40.1669 46.443 39.4228 45.5587 39.4228C44.6752 39.4228 43.9581 40.1669 43.9581 41.0854ZM36.4246 22.1932C36.4246 23.1117 37.1409 23.8559 38.0245 23.8559C38.9087 23.8559 39.6251 23.1117 39.6251 22.1932C39.6251 21.2754 38.9087 20.5312 38.0245 20.5312C37.1409 20.5312 36.4246 21.2754 36.4246 22.1932ZM36.4246 41.0854C36.4246 42.0032 37.1409 42.7474 38.0245 42.7474C38.9087 42.7474 39.6251 42.0032 39.6251 41.0854C39.6251 40.1669 38.9087 39.4228 38.0245 39.4228C37.1409 39.4228 36.4246 40.1669 36.4246 41.0854ZM50.8849 33.8894C50.0014 33.8894 49.2842 34.6343 49.2842 35.5521C49.2842 36.4698 50.0014 37.2148 50.8849 37.2148C51.7691 37.2148 52.4855 36.4698 52.4855 35.5521C52.4855 34.6343 51.7691 33.8894 50.8849 33.8894ZM32.6983 33.8894C31.8148 33.8894 31.0977 34.6343 31.0977 35.5521C31.0977 36.4698 31.8148 37.2148 32.6983 37.2148C33.5818 37.2148 34.299 36.4698 34.299 35.5521C34.299 34.6343 33.5818 33.8894 32.6983 33.8894ZM50.8849 26.0639C50.0014 26.0639 49.2842 26.8088 49.2842 27.7266C49.2842 28.6443 50.0014 29.3892 50.8849 29.3892C51.7691 29.3892 52.4855 28.6443 52.4855 27.7266C52.4855 26.8088 51.7691 26.0639 50.8849 26.0639ZM34.299 27.7266C34.299 28.6443 33.5818 29.3892 32.6983 29.3892C31.8148 29.3892 31.0977 28.6443 31.0977 27.7266C31.0977 26.8088 31.8148 26.0639 32.6983 26.0639C33.5818 26.0639 34.299 26.8088 34.299 27.7266Z" fill="#F5F5F5"/>
<path fill-rule="evenodd" clip-rule="evenodd" d="M159.206 38.357C158.149 39.7188 156.519 40.5944 154.688 40.5944C151.497 40.5944 148.909 37.9415 148.909 34.6693C148.909 31.3956 151.497 28.7427 154.688 28.7427C156.519 28.7427 158.149 29.6183 159.206 30.9801L162.339 28.3145C160.534 26.031 157.779 24.5703 154.688 24.5703C149.249 24.5703 144.84 29.092 144.84 34.6693C144.84 40.2458 149.249 44.7668 154.688 44.7668C157.779 44.7668 160.534 43.3061 162.339 41.0226L159.206 38.357Z" fill="white"/>
<path fill-rule="evenodd" clip-rule="evenodd" d="M98.1721 40.4993C95.0272 40.4993 92.4777 37.7977 92.4777 34.4652C92.4777 31.1327 95.0272 28.4311 98.1721 28.4311C101.317 28.4311 103.866 31.1327 103.866 34.4652C103.866 37.7977 101.317 40.4993 98.1721 40.4993ZM98.1721 24.1645C96.0319 24.1645 94.0598 24.9061 92.4541 26.1481V19.5195H88.4492V34.3583H88.4564C88.4564 34.3947 88.4514 34.4296 88.4514 34.4652C88.4514 40.1535 92.8033 44.7651 98.1721 44.7651C103.541 44.7651 107.893 40.1535 107.893 34.4652C107.893 28.7761 103.541 24.1645 98.1721 24.1645Z" fill="white"/>
<path fill-rule="evenodd" clip-rule="evenodd" d="M121.51 28.7532C124.655 28.7532 127.204 31.4011 127.204 34.6689C127.204 37.9353 124.655 40.5839 121.51 40.5839C118.365 40.5839 115.816 37.9353 115.816 34.6689C115.816 31.4011 118.365 28.7532 121.51 28.7532ZM121.51 44.7668C123.65 44.7668 125.623 44.0398 127.228 42.8222V44.6189H131.233V34.773H131.225C131.226 34.7373 131.23 34.7039 131.23 34.6689C131.23 29.0915 126.878 24.5703 121.51 24.5703C116.141 24.5703 111.789 29.0915 111.789 34.6689C111.789 40.2456 116.141 44.7668 121.51 44.7668Z" fill="white"/>
<path fill-rule="evenodd" clip-rule="evenodd" d="M136.098 44.7651H140.959V19.5195H136.098V44.7651Z" fill="white"/>
<path fill-rule="evenodd" clip-rule="evenodd" d="M234.144 44.7668V33.1969C234.144 30.0999 232.71 28.7876 230.106 28.7876C227.564 28.7876 226.105 30.1449 226.105 33.1969V44.7668H222.079V33.1969C222.079 30.1449 220.607 28.7876 218.04 28.7876C215.436 28.7876 214.001 30.0999 214.001 33.1969V44.7668H209.977V33.1969C209.977 25.3299 215.382 24.5703 217.67 24.5703C220.375 24.5703 222.714 25.4829 224.036 27.6448H224.063C225.348 25.4852 227.904 24.5703 230.645 24.5703C232.933 24.5703 238.17 25.3299 238.17 33.1969V44.7668H234.144Z" fill="white"/>
<path fill-rule="evenodd" clip-rule="evenodd" d="M175.468 24.2486C173.855 24.2486 172.314 24.5974 171.069 25.3576V19.5195H167.203V44.7651H171.069V44.612L171.101 33.0487C171.101 29.9495 172.514 28.4902 174.977 28.4902C177.5 28.4902 178.89 29.9031 178.89 33.0487L178.857 44.7651H182.758V33.0129C182.758 25.0232 177.684 24.2486 175.468 24.2486Z" fill="white"/>
<path fill-rule="evenodd" clip-rule="evenodd" d="M197.299 28.7488C199.76 28.7488 201.907 30.3825 202.699 32.6457L197.262 32.6323L191.977 32.6472C192.761 30.3795 194.837 28.7488 197.299 28.7488ZM201.166 39.0398C200.164 39.9942 198.918 40.568 197.28 40.5806C195.049 40.5969 192.716 39.0168 191.978 36.6882L197.28 36.6741L206.874 36.6615C206.998 36.0119 207.062 35.3392 207.061 34.651C207.046 29.0803 202.713 24.5703 197.28 24.5703C191.847 24.5703 187.617 29.1153 187.617 34.6822C187.617 40.3926 192.147 44.7443 197.233 44.7667C202.151 44.7889 204.614 41.6806 206.185 39.0398H201.166Z" fill="white"/>
<path fill-rule="evenodd" clip-rule="evenodd" d="M149.699 59.9122H150.671V58.9023H149.699V59.9122Z" fill="white"/>
<path fill-rule="evenodd" clip-rule="evenodd" d="M217.754 54.9473H218.534V56.2432C218.918 55.4181 219.678 54.8223 220.67 54.8612V55.658H220.609C219.465 55.658 218.534 56.4344 218.534 57.9315V59.9085H217.754V54.9473Z" fill="white"/>
<path fill-rule="evenodd" clip-rule="evenodd" d="M221.645 54.9473H222.424V56.2432C222.809 55.4181 223.568 54.8223 224.561 54.8612V55.658H224.5C223.356 55.658 222.424 56.4344 222.424 57.9315V59.9085H221.645V54.9473Z" fill="white"/>
<path fill-rule="evenodd" clip-rule="evenodd" d="M229.676 57.4032V57.3839C229.676 56.3469 228.927 55.4955 227.945 55.4955C226.934 55.4955 226.24 56.3469 226.24 57.3654V57.3839C226.24 58.4217 226.979 59.2634 227.962 59.2634C228.973 59.2634 229.676 58.4217 229.676 57.4032ZM225.527 57.4032V57.3839C225.527 56.0195 226.556 54.8594 227.962 54.8594C229.361 54.8594 230.388 56.001 230.388 57.3654V57.3839C230.388 58.7497 229.351 59.9085 227.945 59.9085C226.547 59.9085 225.527 58.7683 225.527 57.4032Z" fill="white"/>
<path fill-rule="evenodd" clip-rule="evenodd" d="M231.363 54.8778H232.184L233.546 58.8845L234.936 54.8594H235.577L236.979 58.8845L238.34 54.8778H239.141L237.319 59.9085H236.648L235.257 55.9693L233.855 59.9085H233.175L231.363 54.8778Z" fill="white"/>
<path fill-rule="evenodd" clip-rule="evenodd" d="M239.137 59.9122H240.109V58.9023H239.137V59.9122Z" fill="white"/>
<path fill-rule="evenodd" clip-rule="evenodd" d="M241.771 26.4918H241.978C242.221 26.4918 242.417 26.407 242.417 26.1978C242.417 26.0154 242.29 25.8919 242.012 25.8919C241.898 25.8919 241.817 25.9048 241.771 25.9158V26.4918ZM241.759 27.6309H241.321V25.6228C241.494 25.5859 241.736 25.5619 242.047 25.5619C242.405 25.5619 242.567 25.6228 242.706 25.7094C242.809 25.7942 242.89 25.9527 242.89 26.149C242.89 26.3702 242.728 26.5416 242.498 26.6135V26.6393C242.682 26.713 242.786 26.8595 242.843 27.1286C242.902 27.4346 242.936 27.5572 242.983 27.6309H242.509C242.452 27.5572 242.417 27.3738 242.359 27.1406C242.325 26.9194 242.21 26.8227 241.967 26.8227H241.759V27.6309ZM240.594 26.5766C240.594 27.4715 241.217 28.1811 242.071 28.1811C242.902 28.1811 243.513 27.4715 243.513 26.5904C243.513 25.6956 242.902 24.974 242.059 24.974C241.217 24.974 240.594 25.6956 240.594 26.5766ZM243.998 26.5766C243.998 27.7175 243.156 28.6096 242.059 28.6096C240.974 28.6096 240.109 27.7175 240.109 26.5766C240.109 25.4633 240.974 24.5703 242.059 24.5703C243.156 24.5703 243.998 25.4633 243.998 26.5766Z" fill="white"/>
</g>
<defs>
<clipPath id="clip0_4919_29225">
<rect width="244" height="71" fill="white" transform="translate(0 0.332031)"/>
</clipPath>
</defs>
</svg>
