<svg width="38" height="25" viewBox="0 0 38 25" fill="none" xmlns="http://www.w3.org/2000/svg">
<path d="M14.9462 16.9777H14.4897V15.4227H14.8442C15.2062 15.4227 15.3583 15.5682 15.3583 16.0372V16.4777C15.3592 16.8556 15.2145 16.9777 14.9462 16.9777ZM20.4797 13.3594H20.0968V14.9152H20.4086C20.7054 14.9152 20.8852 14.7848 20.8852 14.3785V13.8777C20.8852 13.5199 20.7614 13.3594 20.4797 13.3594ZM15.2797 14.1637V13.8802C15.2797 13.5183 15.1568 13.3594 14.8743 13.3594H14.4905V14.6987H14.8024C15.0983 14.6987 15.2797 14.57 15.2797 14.1637ZM30.6631 14.381V13.8802C30.6631 13.5183 30.5411 13.3594 30.2585 13.3594H29.8748V14.9152H30.1866C30.4817 14.9177 30.6631 14.7848 30.6631 14.381ZM26.8902 16.0957H27.6577L27.2731 13.535L26.8902 16.0957ZM37.6204 1.94205V23.058C37.6204 24.1306 36.7509 25 35.6783 25H1.94205C0.869449 25 0 24.1306 0 23.058V1.94205C0 0.869449 0.869449 0 1.94205 0H35.6783C36.7509 0 37.6204 0.869449 37.6204 1.94205ZM29.0781 17.705H29.8739V15.6409H30.1498C30.511 15.6409 30.6706 15.8139 30.6706 16.2854V17.0822C30.6706 17.4952 30.6999 17.5737 30.7425 17.7042H31.5543C31.4741 17.5144 31.4674 17.3355 31.4674 17.0897V16.3055C31.4674 15.7763 31.3369 15.3934 30.9365 15.2271C31.2926 15.0624 31.4582 14.7221 31.4582 14.1996V13.8017C31.4582 13.0183 31.1037 12.6346 30.2777 12.6346H29.0764L29.0781 17.705ZM23.2686 16.4886C23.2686 17.2995 23.6741 17.761 24.4558 17.761C25.2374 17.761 25.6429 17.2962 25.6429 16.4886V15.8131H24.8896V16.5379C24.8896 16.9016 24.7325 17.0303 24.4767 17.0303C24.225 17.0303 24.0662 16.8999 24.0662 16.5379V13.8025C24.0662 13.4397 24.225 13.3017 24.4767 13.3017C24.7325 13.3017 24.8896 13.4397 24.8896 13.8025V14.3442H25.6429V13.8518C25.6429 13.0409 25.2374 12.5786 24.4558 12.5786C23.6741 12.5786 23.2686 13.0434 23.2686 13.8518V16.4886ZM16.6349 17.705H18.806V16.9802H17.4308V15.4971H18.5243V14.7731H17.4308V13.3611H18.806V12.6371H16.6349V17.705ZM6.53006 12.6363H5.42235L4.87895 16.2344L4.29207 12.6363H3.18436V17.7042H3.87908V14.1202L4.47265 17.7042H5.22589L5.77598 14.0684V17.7042H6.52923L6.53006 12.6363ZM9.2822 12.6363H7.11025V17.7042H9.2822V16.9793H7.90613V15.4963H8.99963V14.7723H7.90613V13.3611H9.2822V12.6363ZM9.35912 9.95185C9.89583 9.95185 10.3306 9.51712 10.3306 8.9804V4.24776C10.3306 3.71188 9.89583 3.27715 9.35912 3.27715H4.14075C3.60403 3.27715 3.17014 3.71188 3.17014 4.24776V8.9804C3.17014 9.51712 3.60487 9.95185 4.14075 9.95185H9.35912ZM13.1128 12.6363H12.0059L11.4634 16.2344L10.8765 12.6363H9.7696V17.7042H10.4643V14.1202L11.057 17.7042H11.8103L12.3604 14.0684V17.7042H13.1128V12.6363ZM13.6938 17.705H14.947C15.7429 17.705 16.1559 17.2853 16.1559 16.5028V16.0898C16.1559 15.5531 15.9895 15.1694 15.5631 15.0047C15.9176 14.8375 16.0764 14.5031 16.0764 13.9839V13.8025C16.0764 13.02 15.7211 12.6363 14.896 12.6363H13.6938V17.705ZM20.2364 19.8418H13.805V21.4194H20.2364V19.8418ZM20.8919 16.2821V17.0805C20.8919 17.4918 20.9211 17.5721 20.9646 17.7008H21.7755C21.6953 17.5127 21.6886 17.3338 21.6886 17.0872V16.3038C21.6886 15.7746 21.559 15.3918 21.1594 15.2254C21.5138 15.059 21.6819 14.7204 21.6819 14.1979V13.7983C21.6819 13.0167 21.3249 12.6329 20.5014 12.6329H19.2993V17.7008H20.096V15.6375H20.371C20.733 15.64 20.8919 15.8131 20.8919 16.2821ZM27.3358 19.8418H20.9036V21.4194H27.3358V19.8418ZM27.9026 17.705H28.706L27.8951 12.6371H26.7289L25.9179 17.705H26.6494L26.7874 16.7837H27.7647L27.9026 17.705ZM34.4344 19.8418H28.0038V21.4194H34.4344V19.8418ZM34.4344 13.8886C34.4344 13.0768 34.0456 12.6363 33.2489 12.6363H31.9882V17.7042H33.2489C34.0456 17.7042 34.4344 17.2627 34.4344 16.4518V13.8886ZM33.2347 13.3594H32.7849V16.9777H33.2347C33.488 16.9777 33.6393 16.8489 33.6393 16.4861V13.8518C33.6393 13.4923 33.488 13.3594 33.2347 13.3594Z" fill="#00038F"/>
</svg>
