<svg width="32" height="32" viewBox="0 0 32 32" fill="none" xmlns="http://www.w3.org/2000/svg">
<path d="M24.1974 22.9621C23.7345 23.0399 23.4222 23.4782 23.5 23.9412C23.5778 24.4041 24.0161 24.7164 24.4791 24.6386L24.1974 22.9621ZM22.6869 15.6602C22.2175 15.6602 21.8369 16.0407 21.8369 16.5102C21.8369 16.9796 22.2175 17.3602 22.6869 17.3602V15.6602ZM21.4565 13.2272C23.1575 13.2272 24.5361 11.8479 24.5361 10.147H22.8361C22.8361 10.9095 22.2182 11.5272 21.4565 11.5272V13.2272ZM18.3769 10.147C18.3769 11.8479 19.7555 13.2272 21.4565 13.2272V11.5272C20.6948 11.5272 20.0769 10.9095 20.0769 10.147H18.3769ZM21.4565 7.06677C19.7555 7.06677 18.3769 8.44605 18.3769 10.147H20.0769C20.0769 9.38449 20.6948 8.76677 21.4565 8.76677V7.06677ZM24.5361 10.147C24.5361 8.44605 23.1575 7.06677 21.4565 7.06677V8.76677C22.2182 8.76677 22.8361 9.38449 22.8361 10.147H24.5361ZM27.15 20.2191C27.15 20.88 26.9375 21.4519 26.5046 21.906C26.0641 22.3682 25.3343 22.7711 24.1974 22.9621L24.4791 24.6386C25.8776 24.4037 26.9787 23.8726 27.7352 23.079C28.4993 22.2773 28.85 21.2715 28.85 20.2191H27.15ZM22.6869 17.3602C24.0016 17.3602 25.1552 17.7335 25.9573 18.2935C26.7622 18.8554 27.15 19.5495 27.15 20.2191H28.85C28.85 18.8404 28.0484 17.68 26.9304 16.8995C25.8095 16.1171 24.3066 15.6602 22.6869 15.6602V17.3602ZM14.1667 9.90613C14.1667 11.5215 13.0768 12.5246 11.8558 12.5246V14.2246C14.1262 14.2246 15.8667 12.3459 15.8667 9.90613H14.1667ZM11.8558 12.5246C10.6348 12.5246 9.54483 11.5215 9.54483 9.90613H7.84483C7.84483 12.3459 9.58532 14.2246 11.8558 14.2246V12.5246ZM9.54483 9.90613C9.54483 9.09909 9.82145 8.51665 10.2133 8.13556C10.6104 7.74937 11.1805 7.51699 11.8558 7.51699V5.81699C10.7853 5.81699 9.77498 6.1904 9.02802 6.91689C8.27582 7.64847 7.84483 8.6856 7.84483 9.90613H9.54483ZM11.8558 7.51699C12.5311 7.51699 13.1012 7.74937 13.4983 8.13556C13.8901 8.51665 14.1667 9.09909 14.1667 9.90613H15.8667C15.8667 8.6856 15.4357 7.64847 14.6835 6.91689C13.9366 6.1904 12.9262 5.81699 11.8558 5.81699V7.51699ZM19.2437 21.5575C19.2437 22.2013 18.8915 22.8947 17.7805 23.4739C16.6413 24.0679 14.785 24.4837 12.0468 24.4837V26.1837C14.9171 26.1837 17.0842 25.7541 18.5664 24.9814C20.0767 24.1939 20.9437 22.9992 20.9437 21.5575H19.2437ZM12.0468 24.4837C9.30866 24.4837 7.45237 24.0679 6.31324 23.4739C5.20223 22.8947 4.85 22.2013 4.85 21.5575H3.15C3.15 22.9992 4.01699 24.1939 5.5273 24.9814C7.00949 25.7541 9.17663 26.1837 12.0468 26.1837V24.4837ZM4.85 21.5575C4.85 21.0386 5.33067 20.3078 6.71797 19.6568C8.03782 19.0374 9.92094 18.6313 12.0468 18.6313V16.9313C9.7286 16.9313 7.5883 17.3705 5.99577 18.1178C4.47068 18.8335 3.15 19.9908 3.15 21.5575H4.85ZM12.0468 18.6313C14.1728 18.6313 16.0559 19.0374 17.3757 19.6568C18.763 20.3078 19.2437 21.0386 19.2437 21.5575H20.9437C20.9437 19.9908 19.623 18.8335 18.0979 18.1178C16.5054 17.3705 14.3651 16.9313 12.0468 16.9313V18.6313Z" fill="#00038F"/>
</svg>
