<svg width="172" height="167" viewBox="0 0 172 167" fill="none" xmlns="http://www.w3.org/2000/svg">
<path d="M127.273 8.66406H44.7259C43.6205 8.66406 42.5922 9.25534 42.0523 10.2065L0.791614 81.6737C0.251754 82.6249 0.251754 83.8074 0.791614 84.7586L42.0523 156.226C42.5922 157.177 43.6205 157.768 44.7259 157.768H127.273C128.378 157.768 129.407 157.177 129.947 156.226L171.207 84.7586C171.747 83.8074 171.747 82.6249 171.207 81.6737L129.947 10.2065C129.407 9.25534 128.378 8.66406 127.273 8.66406Z" fill="#FBF89F"/>
<path d="M86.0112 166.482C84.623 166.482 83.2605 166.123 82.0779 165.428L16.8063 127.741C14.3898 126.353 12.873 123.731 12.873 120.929V45.5539C12.873 42.7517 14.3898 40.1553 16.8063 38.7414L82.0779 1.05401C83.2605 0.359908 84.623 0 86.0112 0C87.3994 0 88.7619 0.359908 89.9445 1.05401L155.216 38.7414C157.633 40.1296 159.149 42.7517 159.149 45.5539V120.929C159.149 123.731 157.633 126.327 155.216 127.741L89.9445 165.428C88.7619 166.123 87.3994 166.482 86.0112 166.482Z" fill="#000390"/>
<path d="M16.2676 44.1398V122.342C16.2676 123.062 16.6532 123.731 17.2702 124.09L85.0097 163.192C85.6267 163.552 86.3979 163.552 87.0149 163.192L154.729 124.09C155.346 123.731 155.731 123.062 155.731 122.342V44.1398C155.731 43.42 155.346 42.7516 154.729 42.3917L87.0149 3.29044C86.3979 2.93053 85.6267 2.93053 85.0097 3.29044L17.2959 42.3917C16.6532 42.7516 16.2676 43.42 16.2676 44.1398Z" fill="#FBF89F"/>
<path d="M86.0116 12.2119C85.2918 12.2119 84.572 12.3919 83.9293 12.7775L26.01 46.2231C24.7247 46.9686 23.9277 48.3311 23.9277 49.8221V116.713C23.9277 118.204 24.7247 119.567 26.01 120.312L83.9293 153.758C84.572 154.118 85.2918 154.324 86.0116 154.324V12.2119Z" fill="#FFFF00"/>
<path d="M146.011 46.1977L88.0921 12.7521C87.4494 12.3922 86.7296 12.1865 86.0098 12.1865V154.272C86.7296 154.272 87.4494 154.093 88.0921 153.707L146.011 120.261C147.297 119.516 148.094 118.153 148.094 116.662V49.7968C148.094 48.3057 147.297 46.9432 146.011 46.1977Z" fill="#FFFF00"/>
<path d="M28.0156 50.8497V115.633C28.0156 116.301 28.3755 116.918 28.9668 117.252L85.0865 149.644C85.6778 149.978 86.3719 149.978 86.9632 149.644L143.083 117.252C143.674 116.918 144.034 116.301 144.034 115.633V50.8497C144.034 50.1813 143.674 49.5643 143.083 49.2301L86.9632 16.8385C86.3719 16.5043 85.6778 16.5043 85.0865 16.8385L28.9668 49.2301C28.3755 49.5643 28.0156 50.1813 28.0156 50.8497Z" fill="#000390"/>
<path d="M143.393 67.3791L88.7904 98.8966C87.068 99.8992 84.9599 99.8992 83.2375 98.8966L28.6346 67.3791C28.4289 67.2506 28.2232 67.122 28.0176 66.9678V86.6084C28.2232 86.7626 28.4032 86.8912 28.6346 87.0197L83.2375 118.537C84.9599 119.54 87.068 119.54 88.7904 118.537L143.393 87.0197C143.599 86.8912 143.805 86.7626 144.01 86.6084V66.9678C143.805 67.0963 143.599 67.2506 143.393 67.3791Z" fill="#E0E0D1"/>
<path d="M86.012 99.6431C85.0608 99.6431 84.0839 99.386 83.2355 98.8976L28.6326 67.3801C28.427 67.2515 28.2213 67.123 28.0156 66.9688V71.1334C28.2213 71.2876 28.4012 71.4162 28.6326 71.5447L83.2355 103.062C84.0839 103.551 85.0608 103.808 86.012 103.808V99.6431Z" fill="url(#paint0_linear_1580_9341)"/>
<path d="M88.7862 98.8976C87.9378 99.386 86.9609 99.6431 86.0098 99.6431V103.808C86.9609 103.808 87.9378 103.551 88.7862 103.062L143.389 71.5447C143.595 71.4162 143.8 71.2876 144.006 71.1334V66.9688C143.8 67.123 143.621 67.2515 143.389 67.3801L88.7862 98.8976Z" fill="#C1C1B8"/>
<path d="M75.2753 62.806C74.1698 62.806 73.0901 62.3947 72.2418 61.6749L72.0618 61.5206C71.1363 60.7237 70.5708 59.5926 70.468 58.3586L70.0309 52.7543C69.8253 52.6515 69.6196 52.523 69.4139 52.3687L69.234 52.2402C68.1285 51.4432 67.4344 50.235 67.3059 48.8725L67.1774 47.4843C67.0745 46.276 67.4344 45.0935 68.2057 44.1423L68.3856 43.9366C69.1826 42.9597 70.3394 42.3428 71.5734 42.2399C73.7842 42.0343 76.0208 41.88 78.2316 41.7515C79.4913 41.6744 80.7253 42.1371 81.6251 42.9854L81.8307 43.1911C82.7048 44.0138 83.2446 45.1449 83.2961 46.3531L83.3732 47.7414C83.4503 49.0781 82.9361 50.3892 81.9592 51.3147L81.7793 51.4947C81.5993 51.6489 81.4194 51.8032 81.2394 51.9574L81.6251 57.5874C81.7022 58.8213 81.2909 60.0296 80.4939 60.9551L80.3397 61.135C79.517 62.0605 78.3859 62.6518 77.1519 62.7289C76.6635 62.7546 76.1493 62.806 75.6609 62.8317C75.5323 62.806 75.4038 62.806 75.2753 62.806Z" fill="#1D1D1B"/>
<path d="M80.9312 62.4465C79.7744 62.4465 78.6433 62.0094 77.7949 61.2125L77.615 61.0326C76.7152 60.2099 76.1753 59.0531 76.1239 57.8191L75.6098 46.662C75.5584 45.4538 75.9697 44.2712 76.7666 43.3714L76.9465 43.1658C77.7692 42.2403 78.9518 41.6747 80.2114 41.6233C82.4223 41.5205 84.6589 41.4691 86.8954 41.4434C88.078 41.4434 89.2091 41.8804 90.0832 42.6773L90.3145 42.883C91.2657 43.757 91.8056 44.9653 91.8056 46.2507V47.6389C91.8056 48.6158 91.5228 49.567 90.9572 50.3382C91.0086 50.5953 91.0343 50.8523 91.0343 51.1094L91.06 52.5233C91.06 52.8061 91.0343 53.0632 91.0086 53.346C91.5742 54.1172 91.8827 55.0427 91.8827 56.0196V57.4078C91.8827 58.7189 91.3428 59.9785 90.3916 60.8526L90.2117 61.0326C89.3633 61.8295 88.2579 62.2665 87.0754 62.2922C85.0959 62.3179 83.0907 62.3694 81.1112 62.4465C81.0598 62.4465 81.0084 62.4465 80.9312 62.4465Z" fill="#1D1D1B"/>
<path d="M94.7862 62.3943C94.7348 62.3943 94.6834 62.3943 94.632 62.3943C94.1435 62.3686 93.6293 62.3686 93.1409 62.3429C92.6267 62.3172 92.1383 62.2401 91.6756 62.0601C91.1871 62.2144 90.6987 62.2915 90.1845 62.2915C89.6961 62.2915 89.1819 62.2915 88.6935 62.2915C87.331 62.2915 86.0199 61.6745 85.1458 60.6462L84.9659 60.4406C84.0404 59.3608 83.6805 57.9212 83.9633 56.533C84.7345 52.7797 85.5572 49.0007 86.4055 45.2731C86.6369 44.2962 87.1767 43.3964 87.948 42.7537L88.1279 42.5995C88.9763 41.8797 90.056 41.4941 91.1614 41.5198C91.727 41.5198 92.2926 41.5455 92.8324 41.5455C93.9378 41.5712 95.0176 41.9825 95.8402 42.728L96.0459 42.908C96.7914 43.5764 97.3055 44.4761 97.4855 45.4787C98.231 49.232 98.9251 53.0625 99.5421 56.8158C99.7735 58.2297 99.3621 59.6436 98.411 60.6976L98.231 60.9033C97.357 61.8288 96.0973 62.3943 94.7862 62.3943Z" fill="#1D1D1B"/>
<path d="M104.091 62.9594C103.962 62.9594 103.834 62.9594 103.68 62.9337C103.191 62.8822 102.703 62.8565 102.214 62.8051C101.957 62.7794 101.726 62.7537 101.469 62.6766C101.212 62.7023 100.98 62.7023 100.723 62.6766C100.235 62.6509 99.7207 62.5995 99.2323 62.5738C98.9752 62.548 98.7438 62.5223 98.4867 62.4709C98.2297 62.4966 97.9983 62.4966 97.7412 62.4966C97.2528 62.4709 96.7643 62.4452 96.2502 62.4195C95.0934 62.3681 93.9879 61.8797 93.1653 61.057L92.9853 60.8771C92.0598 59.9516 91.5714 58.6919 91.6228 57.3808L92.1112 46.2237C92.1627 44.9383 92.7539 43.7301 93.7308 42.9074L93.9622 42.7018C94.862 41.9305 96.0188 41.5449 97.2014 41.5963C98.024 41.6221 98.8723 41.6735 99.695 41.7249C100.261 41.7506 100.826 41.9048 101.34 42.1362C101.88 41.982 102.446 41.9048 103.011 41.9562C103.834 42.0077 104.682 42.0848 105.505 42.1619C106.61 42.2647 107.639 42.7532 108.436 43.5501L108.641 43.7558C109.592 44.7327 110.055 46.0695 109.952 47.4063L108.975 58.5377C108.847 59.9002 108.127 61.1598 106.996 61.9311L106.765 62.0853C105.993 62.6509 105.042 62.9594 104.091 62.9594Z" fill="#1D1D1B"/>
<path d="M65.9695 78.4096C64.8898 78.4096 63.8358 78.0239 63.0131 77.3298L62.8332 77.2013C61.9334 76.4558 61.3421 75.4275 61.1879 74.2706L59.6197 63.2164C59.4655 62.0852 59.7225 60.9284 60.3652 59.9772L60.5195 59.7458C61.265 58.6404 62.4219 57.9206 63.7329 57.7406C64.7612 57.5864 65.7895 57.4579 66.7921 57.3293C68.0775 57.1751 69.3372 57.3293 70.5712 57.7921C71.8822 58.2805 72.962 59.0774 73.836 60.1315C73.836 60.1572 73.8617 60.1572 73.8617 60.1829C74.7872 61.3654 75.3271 62.7793 75.507 64.3989C75.6098 65.3244 75.5584 66.147 75.4299 66.8668C75.7127 67.5609 75.9183 68.3579 76.0212 69.2577C76.3297 72.2654 75.25 74.8362 72.9877 76.5072C71.8565 77.3298 70.6483 77.8183 69.3629 77.9982C68.4631 78.1011 67.5634 78.2296 66.6636 78.3581C66.4065 78.3839 66.1752 78.4096 65.9695 78.4096Z" fill="#1D1D1B"/>
<path d="M75.7103 77.306C73.0624 77.306 70.7744 76.072 69.3862 73.8869C68.6921 72.8071 68.2808 71.6246 68.1522 70.4163L67.3553 62.0614C67.2525 60.9302 67.561 59.7991 68.2294 58.8736L68.3836 58.6422C69.1549 57.5882 70.3631 56.8941 71.6742 56.7656C72.1883 56.7142 72.7025 56.6628 73.2166 56.637C73.7308 56.5856 74.2706 56.637 74.7591 56.7656C75.2218 56.5599 75.736 56.4314 76.2758 56.4057C76.79 56.38 77.3042 56.3286 77.8183 56.3029C79.1294 56.2257 80.4148 56.7142 81.366 57.6396L81.5716 57.8453C82.3685 58.6422 82.857 59.722 82.9341 60.8531L83.4483 69.2338C83.5254 70.4163 83.3197 71.5732 82.857 72.7043C82.3428 73.9383 81.5716 74.9923 80.5176 75.7635C80.5176 75.7635 80.4919 75.7635 80.4919 75.7892C79.3094 76.689 77.9211 77.2031 76.353 77.306C76.173 77.306 75.9417 77.306 75.7103 77.306Z" fill="#1D1D1B"/>
<path d="M80.6473 76.9966C79.4133 76.9966 78.2565 76.5082 77.3824 75.6598L77.2024 75.4799C76.3798 74.6572 75.8914 73.5775 75.84 72.4207L75.2744 61.2636C75.2229 60.1324 75.5829 59.0013 76.3027 58.1272L76.4826 57.9216C77.3053 56.8933 78.5392 56.2763 79.876 56.1992C80.3902 56.1734 80.9043 56.1477 81.4185 56.122C82.6525 56.0706 83.8864 56.5334 84.7862 57.3817L84.9919 57.5617C85.8916 58.3843 86.4058 59.5412 86.4572 60.7751L86.8942 71.9322C86.9456 73.1662 86.5086 74.3744 85.6602 75.2742L85.506 75.4542C84.6834 76.3539 83.5008 76.8938 82.2669 76.9452C81.8041 76.9709 81.3671 76.9966 80.9043 76.9966C80.8015 76.9966 80.7244 76.9966 80.6473 76.9966Z" fill="#1D1D1B"/>
<path d="M83.9126 76.8678C82.6529 76.8678 81.4447 76.3536 80.5706 75.4539L80.3906 75.2739C79.5937 74.4513 79.131 73.3458 79.0796 72.189L78.7453 61.0319C78.7196 59.9008 79.1053 58.7696 79.8251 57.8956L80.005 57.6899C80.8534 56.6873 82.0874 56.096 83.4242 56.0446C83.9383 56.0189 84.4525 56.0189 84.9666 55.9932C86.2006 55.9675 87.4088 56.4302 88.3086 57.3043L88.5142 57.4842C89.3883 58.3326 89.9024 59.4894 89.9282 60.7234L90.031 65.7878C91.0079 65.8906 91.9334 66.302 92.6532 66.9704L92.8588 67.1503C93.8357 68.0244 94.3756 69.3097 94.3756 70.6208V72.009C94.3756 73.243 93.8614 74.4256 92.9874 75.2739L92.8074 75.4539C91.9334 76.3022 90.7765 76.7907 89.5425 76.7907H89.5168C87.7173 76.7907 85.8664 76.8164 84.0668 76.8678C83.9897 76.8678 83.964 76.8678 83.9126 76.8678Z" fill="#1D1D1B"/>
<path d="M94.1431 76.8943C94.0403 76.8943 93.9375 76.8943 93.8603 76.8943C92.9606 76.8686 92.0351 76.8429 91.1353 76.8172C89.8242 76.7915 88.5903 76.2259 87.7419 75.249L87.5877 75.0691C86.8164 74.195 86.4051 73.0896 86.4308 71.9328L86.5851 60.7757C86.6108 59.6445 87.0478 58.5391 87.819 57.6907L87.999 57.4851C88.8987 56.5082 90.1584 55.9683 91.4695 55.994C92.4978 56.0197 93.5261 56.0455 94.5544 56.0712C97.6136 56.174 100.082 57.7164 101.316 60.3386C101.881 61.5469 102.164 62.8066 102.087 64.0662L101.804 69.6705C101.753 70.853 101.418 72.0099 100.827 73.0896C100.184 74.2464 99.2846 75.1719 98.1792 75.8403C98.1792 75.8403 98.1535 75.8403 98.1535 75.866C96.9452 76.5344 95.5827 76.8943 94.1431 76.8943Z" fill="#1D1D1B"/>
<path d="M104.168 77.5367C104.014 77.5367 103.886 77.5367 103.731 77.511C101.932 77.331 100.107 77.2025 98.2813 77.0996C96.9702 77.0225 95.762 76.4055 94.9393 75.3772L94.7851 75.1716C94.0653 74.2718 93.7054 73.1407 93.7568 71.9838L94.4252 60.8267C94.5023 59.6956 94.9908 58.6159 95.7877 57.7932L95.9676 57.6133C96.9188 56.6878 98.2042 56.1994 99.5153 56.2765C101.572 56.405 103.629 56.5593 105.685 56.7649C106.919 56.8935 108.05 57.4847 108.847 58.4616L109.027 58.693C109.798 59.6442 110.158 60.8524 110.03 62.0607L109.901 63.4489C109.798 64.4001 109.438 65.2741 108.847 65.994C108.873 66.2767 108.873 66.5595 108.847 66.8423L108.719 68.2305C108.693 68.539 108.641 68.8218 108.564 69.1046C109.001 69.9272 109.207 70.8527 109.13 71.7782L109.001 73.1664C108.873 74.4003 108.282 75.5315 107.33 76.3027L107.15 76.457C106.302 77.1768 105.248 77.5367 104.168 77.5367Z" fill="#1D1D1B"/>
<path d="M111.498 78.4098C111.293 78.4098 111.061 78.3841 110.856 78.3584C110.393 78.307 109.956 78.2299 109.493 78.1784C109.03 78.127 108.593 77.9985 108.182 77.7928C107.745 77.87 107.257 77.8957 106.82 77.8442C106.357 77.7928 105.92 77.7414 105.457 77.69C104.172 77.5615 102.989 76.8674 102.192 75.8133L102.064 75.6334C101.37 74.7079 101.061 73.5511 101.164 72.3942L102.321 61.2885C102.449 60.1574 102.963 59.1034 103.812 58.3322L104.017 58.1522C104.994 57.2782 106.305 56.8411 107.616 56.9954C108.645 57.0982 109.673 57.2267 110.676 57.3553C111.473 57.4581 112.27 57.7152 113.118 58.1265C114.815 58.9492 116.126 60.3117 116.871 62.1112C116.897 62.1369 116.897 62.1626 116.923 62.214C117.462 63.5765 117.617 65.0933 117.385 66.7129C117.18 68.2039 116.666 69.515 115.92 70.6204C116.049 71.3659 116.177 72.1115 116.306 72.857C116.563 74.3737 116.049 75.9162 114.917 76.9702L114.712 77.1758C113.838 77.9471 112.681 78.4098 111.498 78.4098Z" fill="#1D1D1B"/>
<path d="M73.955 61.4691C72.8496 61.4691 71.7699 61.0578 70.9215 60.338L70.7415 60.1837C69.8161 59.3868 69.2248 58.2557 69.1477 57.0217L68.7106 51.4174C68.505 51.3146 68.2993 51.1861 68.0937 51.0318L67.9137 50.9033C66.8083 50.1063 66.1142 48.8981 65.9856 47.5356L65.8571 46.1474C65.7543 44.9391 66.1142 43.7566 66.8597 42.8054L67.0396 42.5997C67.8366 41.6228 68.9934 41.0058 70.2531 40.903C72.4639 40.6974 74.7005 40.5431 76.9114 40.4146C78.171 40.3374 79.405 40.8002 80.3305 41.6485L80.5361 41.8285C81.4359 42.6511 81.9501 43.7823 82.0272 44.9905L82.1043 46.3787C82.1814 47.7155 81.6673 49.0266 80.6904 49.9521L80.5104 50.1321C80.3305 50.312 80.1505 50.4662 79.9449 50.5948L80.3305 56.2247C80.4076 57.4587 79.9963 58.667 79.1993 59.5924L79.0451 59.7724C78.2225 60.6979 77.0913 61.2634 75.8574 61.3663C75.3689 61.392 74.8547 61.4434 74.3663 61.4691C74.1863 61.4691 74.0578 61.4691 73.955 61.4691Z" fill="#1D1D1B"/>
<path d="M79.5878 61.1357C78.431 61.1357 77.2998 60.6986 76.4258 59.9017L76.2458 59.7474C75.3461 58.9248 74.8062 57.768 74.7548 56.534L74.2406 45.3769C74.1892 44.1686 74.6005 42.9861 75.3975 42.0863L75.5774 41.8807C76.4001 40.9552 77.5826 40.3896 78.8423 40.3382C81.0531 40.2354 83.2897 40.184 85.5263 40.1582C86.7088 40.1325 87.84 40.5953 88.714 41.3922L88.9197 41.5979C89.8709 42.4719 90.4107 43.6802 90.4107 44.9656V46.3538C90.4107 47.3307 90.128 48.2818 89.5624 49.0531C89.6138 49.3102 89.6395 49.5672 89.6395 49.8243L89.6652 51.2382C89.6652 51.521 89.6395 51.7781 89.6138 52.0609C90.1794 52.8321 90.4879 53.7576 90.4879 54.7345V56.1227C90.4879 57.4338 89.948 58.6677 88.9968 59.5675L88.8169 59.7474C87.9685 60.5444 86.8631 60.9814 85.7062 61.0071C83.7268 61.0328 81.7215 61.0842 79.7421 61.1614C79.7421 61.1357 79.6649 61.1357 79.5878 61.1357Z" fill="#1D1D1B"/>
<path d="M93.4405 61.0584C93.3891 61.0584 93.3377 61.0584 93.2863 61.0584C92.7978 61.0327 92.2836 61.0327 91.7952 61.007C91.281 60.9813 90.7926 60.9042 90.3299 60.7242C89.8414 60.8785 89.353 60.9556 88.8388 60.9556C88.3504 60.9556 87.8362 60.9556 87.3478 60.9556C85.9853 60.9556 84.6742 60.3386 83.8001 59.3103L83.6202 59.1046C82.6947 58.0249 82.3348 56.5853 82.6176 55.1971C83.3888 51.4438 84.2115 47.6647 85.0598 43.9371C85.2912 42.9602 85.831 42.0605 86.6023 41.4178L86.7822 41.2635C87.6306 40.5437 88.7103 40.1581 89.8414 40.1838C90.407 40.1838 90.9469 40.2095 91.5124 40.2095C92.6179 40.2352 93.6976 40.6466 94.5202 41.3921L94.7002 41.572C95.4457 42.2404 95.9598 43.1402 96.1655 44.1428C96.911 47.8961 97.6051 51.7265 98.2221 55.4799C98.4535 56.8681 98.0421 58.3077 97.091 59.3617L96.911 59.5674C96.0113 60.4928 94.7516 61.0584 93.4405 61.0584Z" fill="#1D1D1B"/>
<path d="M102.777 61.6241C102.648 61.6241 102.519 61.6241 102.365 61.5984C101.877 61.547 101.388 61.5213 100.9 61.4698C100.643 61.4441 100.411 61.4184 100.154 61.3413C99.8973 61.367 99.6659 61.367 99.4089 61.3413C98.9204 61.3156 98.4063 61.2642 97.9178 61.2385C97.6608 61.2128 97.4294 61.1871 97.1723 61.1356C96.9152 61.1614 96.6839 61.1614 96.4268 61.1614C95.9384 61.1356 95.4499 61.1099 94.9357 61.0842C93.7789 61.0328 92.6735 60.5444 91.8508 59.7217L91.6709 59.5418C90.7454 58.6163 90.257 57.3566 90.3084 56.0455L90.7968 44.8884C90.8482 43.6031 91.4395 42.3948 92.4164 41.5722L92.6478 41.3922C93.5476 40.621 94.7044 40.2354 95.8869 40.2868C96.7096 40.3125 97.5579 40.3639 98.3806 40.4153C98.9461 40.441 99.5117 40.5953 100.026 40.8266C100.566 40.6724 101.131 40.5953 101.697 40.6467C102.519 40.6981 103.368 40.7752 104.19 40.8523C105.296 40.9552 106.324 41.4436 107.095 42.2406L107.301 42.4719C108.252 43.4488 108.715 44.7856 108.612 46.1224L107.635 57.2538C107.507 58.6163 106.787 59.876 105.682 60.6472L105.45 60.8014C104.653 61.3413 103.728 61.6241 102.777 61.6241Z" fill="#1D1D1B"/>
<path d="M64.6258 77.0756C63.5461 77.0756 62.5177 76.7157 61.6694 76.0216L61.4894 75.8673C60.5897 75.1218 59.9984 74.0935 59.8441 72.9367L58.276 61.8824C58.1217 60.7512 58.3788 59.5944 59.0215 58.6432L59.1757 58.4119C59.9213 57.3064 61.0781 56.5866 62.3892 56.4067C63.3918 56.2524 64.4201 56.1239 65.4484 55.9953C66.7338 55.8411 67.9934 55.9953 69.2274 56.4581C70.5385 56.9465 71.6182 57.7435 72.4666 58.7975C72.4923 58.8232 72.4923 58.8232 72.518 58.8489C73.4435 60.0314 73.9833 61.4454 74.1633 63.0649C74.2661 63.9904 74.2147 64.8131 74.0862 65.5329C74.3689 66.227 74.5746 67.0239 74.6774 67.9237C74.9859 70.9315 73.9062 73.5022 71.6439 75.1732C70.5128 75.9959 69.3045 76.4843 68.0192 76.6643C67.1194 76.7671 66.1939 76.8956 65.3199 77.0242C65.0628 77.0756 64.8571 77.0756 64.6258 77.0756Z" fill="#1D1D1B"/>
<path d="M74.3665 75.9931C71.7187 75.9931 69.4307 74.7592 68.0425 72.574C67.3484 71.4943 66.9371 70.3118 66.8085 69.1035L66.0116 60.7485C65.9087 59.6174 66.2172 58.4606 66.8856 57.5608L67.0399 57.3551C67.8111 56.2754 69.0194 55.607 70.3305 55.4785C70.8446 55.4271 71.3588 55.3756 71.8729 55.3499C72.3871 55.2985 72.9269 55.3499 73.4154 55.4785C73.8781 55.2728 74.3923 55.1443 74.9321 55.1186C75.4463 55.0929 75.9604 55.0414 76.4746 55.0157C77.7857 54.9386 79.071 55.4271 80.0222 56.3525L80.2022 56.5325C81.0248 57.3294 81.5133 58.4091 81.5647 59.566L82.0788 67.9467C82.1559 69.1292 81.9503 70.2861 81.4876 71.4172C80.9734 72.6512 80.2022 73.6795 79.1482 74.4764C79.1482 74.4764 79.1225 74.4764 79.1225 74.5021C77.9399 75.4019 76.5517 75.916 74.9835 76.0189C74.8293 75.9674 74.5979 75.9931 74.3665 75.9931Z" fill="#1D1D1B"/>
<path d="M79.3305 75.6844C78.0966 75.6844 76.914 75.196 76.0657 74.3219L75.9114 74.1677C75.0888 73.345 74.6003 72.2653 74.5489 71.1085L73.9833 59.9514C73.9319 58.8202 74.2918 57.6891 75.0117 56.7893L75.1916 56.5837C76.0143 55.5554 77.2482 54.9384 78.5593 54.8613C79.0735 54.8356 79.5876 54.8099 80.1018 54.7841C81.3357 54.7327 82.5697 55.1955 83.4695 56.0438L83.6751 56.2495C84.5492 57.0721 85.089 58.229 85.1405 59.4372L85.5775 70.5943C85.6289 71.8283 85.1919 73.0365 84.3435 73.9363L84.1893 74.1163C83.3666 75.016 82.2098 75.5559 80.9758 75.6073C80.5131 75.633 80.0504 75.6587 79.6133 75.6587C79.4848 75.6844 79.4077 75.6844 79.3305 75.6844Z" fill="#1D1D1B"/>
<path d="M82.5705 75.5553C81.3108 75.5553 80.1025 75.0411 79.2285 74.1414L79.0742 73.9871C78.2516 73.1645 77.7889 72.059 77.7632 70.8765L77.4289 59.7194C77.4032 58.5883 77.7889 57.4571 78.5087 56.5831L78.6886 56.3774C79.537 55.3748 80.7709 54.7835 82.1077 54.7321C82.6219 54.7064 83.1361 54.7064 83.6502 54.6807C84.9099 54.655 86.0924 55.1177 86.9922 55.9918L87.1978 56.1975C88.0719 57.0458 88.5603 58.2026 88.5861 59.4366L88.6889 64.501C89.6658 64.6038 90.5912 65.0152 91.3111 65.6836L91.491 65.8378C92.4679 66.7376 93.0335 67.9972 93.0077 69.3083V70.6965C93.0077 71.9305 92.4936 73.1131 91.6196 73.9871L91.4396 74.1671C90.5655 75.0154 89.4087 75.5039 88.1747 75.5039H88.149C86.3495 75.5039 84.4985 75.5296 82.699 75.581C82.6733 75.5553 82.6219 75.5553 82.5705 75.5553Z" fill="#1D1D1B"/>
<path d="M92.8058 75.5562C92.703 75.5562 92.6002 75.5562 92.523 75.5562C91.6233 75.5305 90.6978 75.5048 89.798 75.4791C88.4869 75.4534 87.253 74.8878 86.3789 73.9109L86.2247 73.7567C85.4534 72.8826 85.0164 71.7515 85.0421 70.5946V70.5175L85.1964 59.4375C85.2221 58.2807 85.6591 57.201 86.4303 56.3526L86.6103 56.1727C87.4843 55.2215 88.7183 54.6816 90.0294 54.6816C90.0551 54.6816 90.0808 54.6816 90.1065 54.6816C91.1348 54.7073 92.1631 54.7331 93.1914 54.7588C96.2506 54.8616 98.7185 56.404 99.9525 59.0262C100.518 60.2345 100.801 61.4942 100.724 62.7538L100.441 68.3581C100.39 69.5406 100.055 70.6975 99.4383 71.7772C98.7957 72.934 97.8959 73.8595 96.7905 74.5279C95.6079 75.1963 94.2711 75.5562 92.8058 75.5562Z" fill="#1D1D1B"/>
<path d="M102.853 76.1978C102.699 76.1978 102.57 76.1978 102.416 76.1721C100.616 75.9921 98.7911 75.8636 96.9659 75.7608C95.6548 75.6837 94.4465 75.0667 93.6239 74.0384L93.4697 73.8584C92.7498 72.9587 92.3642 71.8018 92.4414 70.645L93.1097 59.4879C93.1869 58.3567 93.6753 57.277 94.4723 56.4801L94.6779 56.2744C95.6291 55.3489 96.9145 54.8605 98.2256 54.9376C100.282 55.0662 102.339 55.2204 104.395 55.4261C105.629 55.5546 106.761 56.1459 107.557 57.1228L107.737 57.3541C108.509 58.3053 108.869 59.5136 108.74 60.7218L108.611 62.11C108.509 63.0612 108.149 63.9353 107.557 64.6551C107.583 64.9379 107.583 65.2207 107.557 65.5034L107.429 66.8917C107.403 67.2001 107.352 67.4829 107.275 67.7657C107.712 68.5884 107.917 69.5138 107.84 70.4393L107.712 71.8275C107.583 73.0615 106.992 74.1926 106.041 74.9638L105.835 75.1181C104.961 75.8379 103.907 76.1978 102.853 76.1978Z" fill="#1D1D1B"/>
<path d="M110.154 77.0752C109.949 77.0752 109.717 77.0495 109.512 77.0238C109.049 76.9724 108.612 76.8953 108.149 76.8438C107.686 76.7924 107.249 76.6639 106.838 76.4582C106.401 76.5354 105.938 76.5611 105.475 76.5096C105.013 76.4582 104.576 76.4068 104.113 76.3554C102.828 76.2269 101.645 75.5328 100.874 74.5044L100.745 74.3245C100.051 73.399 99.7427 72.2422 99.8455 71.0853L101.002 59.9796C101.131 58.8485 101.645 57.7945 102.519 57.0233L102.725 56.8433C103.702 55.9693 105.013 55.5322 106.324 55.6608C107.352 55.7636 108.38 55.8921 109.409 56.0207C110.206 56.1235 111.003 56.3806 111.851 56.7919C113.548 57.6146 114.859 58.9771 115.604 60.7766C115.63 60.8023 115.63 60.8537 115.656 60.8794C116.196 62.2419 116.35 63.7587 116.118 65.3782C115.913 66.8693 115.399 68.1804 114.653 69.2858C114.782 70.0313 114.91 70.7768 115.039 71.5224C115.296 73.0391 114.782 74.5816 113.65 75.6356L113.445 75.8412C112.494 76.6125 111.337 77.0752 110.154 77.0752Z" fill="#1D1D1B"/>
<path d="M72.6249 60.1335C71.5195 60.1335 70.4397 59.7222 69.5914 59.0023L69.4115 58.8481C68.486 58.0512 67.8947 56.92 67.8176 55.6861L67.3805 50.0818C67.1749 49.979 66.9692 49.8504 66.7636 49.6962L66.5579 49.5419C65.4782 48.745 64.7584 47.5367 64.6555 46.2L64.527 44.8117C64.4242 43.6035 64.7841 42.4209 65.5296 41.4698L65.7096 41.2384C66.5065 40.2615 67.6633 39.6445 68.8973 39.5417C71.1082 39.336 73.3447 39.1818 75.5556 39.0532C76.8153 38.9761 78.0492 39.4389 78.9747 40.2872L79.1803 40.4672C80.0544 41.2898 80.5943 42.4209 80.6457 43.6292L80.7228 45.0174C80.7999 46.3542 80.2858 47.6653 79.3089 48.5908L79.1289 48.7707C78.949 48.9507 78.769 49.1049 78.5634 49.2335L78.949 54.8634C79.0261 56.0974 78.6148 57.3056 77.8178 58.2311L77.6636 58.4111C76.8409 59.3365 75.7098 59.9278 74.4758 60.0049C73.9874 60.0306 73.4733 60.0821 72.9848 60.1078C72.8563 60.1335 72.7534 60.1335 72.6249 60.1335Z" fill="#1D1D1B"/>
<path d="M78.2792 59.799C77.1224 59.799 75.9912 59.362 75.1172 58.565L74.9372 58.4108C74.0375 57.5882 73.4976 56.4313 73.4462 55.1973L72.932 44.0402C72.8806 42.832 73.2919 41.6494 74.0889 40.7497L74.2688 40.544C75.0915 39.5928 76.274 39.0273 77.5337 38.9758C79.7446 38.873 81.9811 38.8216 84.2177 38.7959C85.4002 38.7959 86.5314 39.2329 87.4054 40.0299L87.6368 40.2355C88.588 41.1096 89.1278 42.3178 89.1278 43.6032V44.9914C89.1278 45.9683 88.8451 46.9195 88.2795 47.6907C88.3309 47.9478 88.3566 48.2049 88.3566 48.462L88.3823 49.8759C88.3823 50.1587 88.3566 50.4157 88.3309 50.6985C88.8965 51.4697 89.205 52.3952 89.205 53.3721V54.7603C89.205 56.0714 88.6908 57.3054 87.7139 58.2051L87.534 58.3851C86.6856 59.182 85.5802 59.6191 84.3976 59.6448C82.4181 59.6705 80.413 59.7219 78.4335 59.799C78.4078 59.799 78.3306 59.799 78.2792 59.799Z" fill="#1D1D1B"/>
<path d="M92.1339 59.7472C92.0825 59.7472 92.031 59.7472 91.9796 59.7472C91.4912 59.7215 90.977 59.7215 90.4886 59.6958C89.9744 59.6701 89.486 59.593 89.0232 59.413C88.5605 59.5672 88.0464 59.6444 87.5322 59.6444C87.0438 59.6444 86.5296 59.6444 86.0412 59.6444C84.6787 59.6444 83.3676 59.0274 82.4935 57.9734L82.3136 57.7677C81.3881 56.688 81.0282 55.2484 81.311 53.8602C82.0822 50.1069 82.9048 46.3278 83.7532 42.6002C83.9845 41.6233 84.5244 40.7236 85.2956 40.0809L85.4756 39.9266C86.324 39.2068 87.4037 38.8212 88.5091 38.8469C89.0747 38.8469 89.6402 38.8726 90.1801 38.8726C91.2855 38.8983 92.3652 39.3097 93.1879 40.0552L93.3678 40.2351C94.1133 40.9035 94.6275 41.8033 94.8332 42.8059C95.5787 46.5592 96.2728 50.3896 96.8898 54.1429C97.1212 55.5312 96.7098 56.9708 95.7586 58.0248L95.5787 58.2305C94.7046 59.1816 93.445 59.7472 92.1339 59.7472Z" fill="#1D1D1B"/>
<path d="M101.441 60.2871C101.312 60.2871 101.184 60.2871 101.029 60.2614C100.541 60.21 100.052 60.1843 99.564 60.1328C99.3069 60.1071 99.0755 60.0814 98.8185 60.0043C98.5614 60.03 98.33 60.03 98.0729 60.0043C97.5845 59.9786 97.0703 59.9272 96.5819 59.9015C96.3248 59.8758 96.0934 59.85 95.8364 59.7986C95.5793 59.8243 95.3479 59.8243 95.0909 59.8243C94.6024 59.7986 94.114 59.7729 93.5998 59.7472C92.443 59.6958 91.3375 59.2074 90.5149 58.3847L90.3349 58.2048C89.4095 57.2793 88.921 56.0196 88.9724 54.7085L89.4609 43.5514C89.5123 42.266 90.1036 41.0578 91.0804 40.2351L91.3118 40.0552C92.2116 39.284 93.3684 38.8983 94.551 38.9241C95.3736 38.9498 96.222 39.0012 97.0446 39.0526C97.6102 39.0783 98.1758 39.2326 98.6899 39.4639C99.2298 39.3097 99.7953 39.2325 100.361 39.284C101.184 39.3354 102.032 39.4125 102.855 39.4896C103.96 39.5925 104.988 40.0809 105.785 40.8778L105.991 41.1092C106.942 42.0861 107.405 43.4229 107.302 44.7597L106.325 55.8911C106.197 57.2536 105.477 58.5133 104.346 59.2845L104.114 59.4387C103.317 60.0043 102.392 60.2871 101.441 60.2871Z" fill="#1D1D1B"/>
<path d="M63.3171 75.7357C62.2374 75.7357 61.2091 75.3758 60.3608 74.6817L60.1808 74.5275C59.2811 73.782 58.6898 72.7537 58.5355 71.5968L56.9674 60.5425C56.8131 59.4114 57.0702 58.2546 57.7129 57.3034L57.8671 57.072C58.6127 55.9666 59.7695 55.2468 61.0806 55.0668C62.1089 54.9126 63.1372 54.784 64.1398 54.6555C65.4252 54.5013 66.6849 54.6555 67.9188 55.1182C69.2299 55.6067 70.3096 56.4036 71.1837 57.4576C71.1837 57.4833 71.2094 57.4833 71.2094 57.509C72.1349 58.6916 72.6747 60.1055 72.8547 61.7251C72.9575 62.6506 72.9061 63.4732 72.7776 64.193C73.0603 64.8871 73.266 65.6841 73.3688 66.5838C73.6773 69.5916 72.5976 72.1624 70.3353 73.8334C69.2042 74.656 67.996 75.1445 66.7106 75.3244C65.8108 75.4273 64.911 75.5558 64.0113 75.6843C63.7542 75.7357 63.5228 75.7357 63.3171 75.7357Z" fill="#1D1D1B"/>
<path d="M73.0365 74.6585C70.3886 74.6585 68.1006 73.4245 66.7124 71.2394C66.0183 70.1597 65.607 68.9771 65.4784 67.7689L64.6815 59.4139C64.5787 58.2828 64.8872 57.1259 65.5556 56.2262L65.7098 55.9948C66.481 54.9408 67.6893 54.2467 69.0004 54.1181C69.5145 54.0667 70.0287 54.0153 70.5428 53.9896C71.057 53.9382 71.5969 53.9896 72.0853 54.1181C72.548 53.9125 73.0622 53.7839 73.602 53.7582C74.1162 53.7325 74.6303 53.6811 75.1445 53.6554C76.4556 53.5783 77.741 54.0667 78.6921 54.9922L78.8721 55.1721C79.6947 55.9691 80.1832 57.0488 80.2346 58.2056L80.7487 66.5863C80.8259 67.7689 80.6202 68.9257 80.1575 70.0568C79.6433 71.2908 78.8721 72.3448 77.8181 73.1161C77.8181 73.1161 77.7924 73.1161 77.7924 73.1418C76.6098 74.0415 75.2216 74.5557 73.6535 74.6585C73.4992 74.6585 73.2678 74.6585 73.0365 74.6585Z" fill="#1D1D1B"/>
<path d="M77.9949 74.3485C76.761 74.3485 75.5784 73.8601 74.7043 72.986L74.5501 72.8317C73.7274 72.0091 73.239 70.9294 73.1876 69.7725L72.622 58.6154C72.5706 57.4843 72.9305 56.3532 73.6503 55.4534L73.8046 55.2477C74.6272 54.2194 75.8612 53.6025 77.198 53.5253C77.7121 53.4996 78.2263 53.4739 78.7404 53.4482C79.9744 53.3968 81.2084 53.8595 82.1081 54.7079L82.3138 54.8878C83.2135 55.7105 83.7277 56.8673 83.7791 58.1013L84.2161 69.2584C84.2676 70.4924 83.8305 71.7006 82.9822 72.6004L82.8279 72.7803C82.0053 73.6801 80.8227 74.22 79.6145 74.2714C79.1517 74.2971 78.7147 74.3228 78.252 74.3228C78.1492 74.3485 78.072 74.3485 77.9949 74.3485Z" fill="#1D1D1B"/>
<path d="M81.2599 74.2203C80.0002 74.2203 78.792 73.7062 77.9179 72.8064L77.7637 72.6264C76.9668 71.8038 76.4783 70.6984 76.4526 69.5415L76.1184 58.3844C76.0927 57.2533 76.4783 56.1222 77.1981 55.2481L77.3781 55.0424C78.2264 54.0398 79.4604 53.4229 80.7972 53.3972C81.3113 53.3714 81.8255 53.3715 82.3396 53.3457C83.5736 53.32 84.7818 53.7828 85.6816 54.6568L85.8873 54.8625C86.7613 55.7108 87.2498 56.8677 87.2755 58.1017L87.3783 63.166C88.3552 63.2689 89.2807 63.6802 90.0005 64.3486L90.1804 64.5286C91.1573 65.4026 91.6972 66.6623 91.6972 67.9734V69.3616C91.6972 70.5955 91.183 71.7781 90.309 72.6522L90.129 72.8321C89.255 73.6805 88.0982 74.1689 86.8642 74.1689H86.8385C85.0389 74.1689 83.188 74.1946 81.3885 74.246C81.337 74.2203 81.2856 74.2203 81.2599 74.2203Z" fill="#1D1D1B"/>
<path d="M91.4911 74.2469C91.3883 74.2469 91.2854 74.2469 91.2083 74.2469C90.3085 74.2212 89.3831 74.1955 88.4833 74.1697C87.1722 74.144 85.9383 73.5785 85.0642 72.6016L84.9099 72.4216C84.1387 71.5476 83.7274 70.4421 83.7531 69.2853L83.9074 58.1282C83.9331 56.9971 84.3701 55.8916 85.1413 55.0433L85.3213 54.8376C86.221 53.8607 87.4807 53.3209 88.7918 53.3466C89.8201 53.3723 90.8484 53.398 91.8767 53.4237C94.9359 53.5265 97.4038 55.069 98.6378 57.6912C99.2034 58.8994 99.4862 60.1591 99.409 61.4188L99.1263 67.023C99.0748 68.2056 98.7406 69.3624 98.1493 70.4421C97.5067 71.599 96.6069 72.5245 95.5015 73.1929C94.2675 73.887 92.9307 74.2469 91.4911 74.2469Z" fill="#1D1D1B"/>
<path d="M101.521 74.8886C101.367 74.8886 101.238 74.8886 101.084 74.8629C99.2843 74.6829 97.4591 74.5544 95.6339 74.4515C94.3228 74.3744 93.1145 73.7574 92.2919 72.7291L92.1376 72.5492C91.4178 71.6494 91.0322 70.5183 91.1093 69.3614L91.7777 58.2043C91.8548 57.0732 92.3433 55.9935 93.1402 55.1966L93.3459 55.0166C94.2971 54.0911 95.5824 53.6027 96.8935 53.6798C98.9501 53.8083 101.007 53.9626 103.063 54.1682C104.297 54.2968 105.428 54.8881 106.225 55.865L106.405 56.0963C107.177 57.0475 107.536 58.2558 107.408 59.464L107.279 60.8522C107.177 61.8034 106.817 62.6775 106.225 63.3973C106.251 63.6801 106.251 63.9628 106.225 64.2456L106.097 65.6595C106.071 65.968 106.02 66.2508 105.943 66.5336C106.38 67.3562 106.585 68.2817 106.508 69.2072L106.38 70.5954C106.251 71.8294 105.66 72.9605 104.709 73.7317L104.503 73.886C103.629 74.503 102.601 74.8886 101.521 74.8886Z" fill="#1D1D1B"/>
<path d="M108.843 75.736C108.638 75.736 108.406 75.7103 108.201 75.6846C107.738 75.6332 107.301 75.556 106.838 75.5046C106.376 75.4532 105.938 75.3247 105.527 75.119C105.09 75.1961 104.602 75.2219 104.165 75.1704C103.702 75.119 103.265 75.0676 102.802 75.0162C101.517 74.8877 100.334 74.1936 99.5373 73.1395L99.3831 72.9339C98.6889 72.0084 98.3805 70.8516 98.509 69.6947L99.6658 58.589C99.7944 57.4579 100.309 56.4039 101.183 55.6327L101.388 55.4527C102.365 54.5786 103.676 54.1416 104.987 54.2701C106.016 54.373 107.044 54.5015 108.047 54.6301C108.843 54.7329 109.64 54.99 110.489 55.4013C112.185 56.2239 113.497 57.5864 114.242 59.386C114.268 59.4117 114.268 59.4631 114.293 59.4888C114.833 60.8513 114.988 62.368 114.756 63.9876C114.551 65.4787 114.036 66.7898 113.291 67.8952C113.419 68.6407 113.548 69.3862 113.676 70.1317C113.934 71.6485 113.419 73.191 112.288 74.245L112.083 74.4506C111.183 75.299 110.026 75.736 108.843 75.736Z" fill="#1D1D1B"/>
<path d="M81.3324 49.2018C81.3581 49.6645 81.3838 50.1272 81.4095 50.59C81.3581 50.6414 81.281 50.7185 81.2296 50.7699C80.484 50.8213 79.7385 50.847 79.0187 50.8985C79.2244 54.0862 79.4557 57.2997 79.6614 60.4874C79.61 60.5388 79.5585 60.6159 79.5071 60.6674C78.993 60.6931 78.4788 60.7445 77.9647 60.7702C77.9133 60.7188 77.8361 60.6674 77.7847 60.6159C77.5277 57.4282 77.2963 54.2147 77.0392 51.027C76.2937 51.0784 75.5482 51.1555 74.8284 51.2069C74.7512 51.1555 74.6998 51.1041 74.6227 51.0527C74.5713 50.59 74.5456 50.1272 74.4941 49.6645C74.5456 49.5874 74.597 49.5103 74.6741 49.4588C76.8336 49.2532 79.0187 49.0989 81.1781 48.9961C81.2038 49.0989 81.2553 49.1503 81.3324 49.2018Z" fill="#1D1D1B"/>
<path d="M84.983 50.6165C85.0087 51.6706 85.0601 52.6989 85.0858 53.7529C86.3455 53.7015 87.5795 53.6757 88.8392 53.65C88.9163 53.7015 88.9677 53.7786 89.0448 53.83C89.0448 54.2927 89.0448 54.7812 89.0705 55.2439C88.9934 55.2953 88.942 55.3467 88.8649 55.3982C87.6309 55.4239 86.3969 55.4496 85.163 55.4753C85.1887 56.5293 85.2401 57.5833 85.2658 58.6373C86.7311 58.5859 88.2222 58.5602 89.6875 58.5345C89.7646 58.5859 89.816 58.6373 89.8932 58.6887C89.8932 59.1515 89.8932 59.6142 89.8932 60.0769C89.816 60.1284 89.7646 60.2055 89.6875 60.2569C87.6566 60.2826 85.6 60.334 83.5691 60.4111C83.5177 60.3597 83.4406 60.3083 83.3892 60.2312C83.2092 56.5036 83.055 52.8017 82.875 49.0741C82.9264 48.997 83.0035 48.9455 83.0549 48.8684C85.2144 48.7656 87.3995 48.7142 89.559 48.6885C89.6361 48.7656 89.6875 48.817 89.7646 48.8941C89.7646 49.3569 89.7646 49.8196 89.7646 50.2823C89.6875 50.3338 89.6361 50.3852 89.559 50.4366C88.0422 50.5137 86.4998 50.5651 84.983 50.6165Z" fill="#1D1D1B"/>
<path d="M95.5743 48.9453C96.2942 52.6729 96.9883 56.4262 97.6053 60.1795C97.5538 60.2566 97.4767 60.308 97.4253 60.3851C96.9112 60.3594 96.397 60.3594 95.8829 60.3337C95.8314 60.2823 95.7543 60.2309 95.7029 60.1795C95.6258 59.7682 95.5487 59.3311 95.4715 58.9198C94.7517 58.8941 94.0319 58.8941 93.3121 58.8941C93.2093 59.3054 93.1322 59.7425 93.0293 60.1538C92.9779 60.2052 92.9008 60.2566 92.8494 60.308C92.3352 60.308 91.821 60.308 91.3069 60.308C91.2555 60.2309 91.1784 60.1538 91.127 60.1024C91.8982 56.3748 92.6951 52.6472 93.5435 48.9453C93.5949 48.8938 93.672 48.8424 93.7234 48.791C94.2633 48.791 94.8031 48.8167 95.3687 48.8167C95.4458 48.8424 95.4972 48.8938 95.5743 48.9453ZM94.4946 53.624C94.2119 54.8066 93.9548 55.9634 93.6977 57.146C94.1862 57.146 94.7003 57.1717 95.1887 57.1717C94.9574 55.9891 94.726 54.8066 94.4946 53.624Z" fill="#1D1D1B"/>
<path d="M107.964 49.6654C107.63 53.3673 107.322 57.0949 106.988 60.7968C106.91 60.8483 106.833 60.8997 106.756 60.9511C106.242 60.8997 105.754 60.874 105.239 60.8225C105.188 60.7454 105.137 60.694 105.085 60.6169C105.239 58.7659 105.368 56.915 105.522 55.064C104.982 56.8893 104.468 58.7402 103.954 60.5655C103.877 60.6169 103.826 60.6426 103.748 60.694C103.234 60.6683 102.72 60.6169 102.206 60.5912C102.155 60.5398 102.103 60.4883 102.026 60.4369C101.769 58.5603 101.486 56.6579 101.178 54.7813C101.075 56.6322 100.972 58.4832 100.869 60.3341C100.792 60.3855 100.741 60.4369 100.663 60.5141C100.149 60.4883 99.6609 60.4626 99.1467 60.4369C99.0953 60.3855 99.0182 60.3084 98.9668 60.257C99.121 56.5294 99.2753 52.8275 99.4552 49.0999C99.5324 49.0485 99.6095 48.9713 99.6609 48.9199C100.484 48.9456 101.28 48.997 102.103 49.0485C102.18 49.0999 102.232 49.177 102.309 49.2284C102.643 51.4393 102.977 53.6244 103.286 55.8353C103.877 53.7015 104.494 51.5421 105.137 49.4084C105.214 49.3569 105.265 49.3055 105.342 49.2541C106.165 49.3055 106.962 49.3827 107.784 49.4598C107.81 49.5369 107.887 49.5883 107.964 49.6654Z" fill="#1D1D1B"/>
<path d="M73.5177 67.5316C73.6205 68.5856 73.4148 69.434 72.8493 70.0767C73.5177 70.5651 73.9033 71.362 74.0061 72.4161C74.1346 73.7528 73.749 74.7812 72.8235 75.4496C72.3608 75.7838 71.8981 75.9894 71.3839 76.0408C70.4584 76.1437 69.533 76.2722 68.6075 76.4007C68.5561 76.3493 68.4789 76.2979 68.4275 76.2465C67.9134 72.5703 67.3735 68.8684 66.8594 65.1922C66.9108 65.1151 66.9622 65.038 67.0136 64.9608C68.0162 64.8323 68.9931 64.6781 69.9957 64.5752C70.5098 64.4981 71.0497 64.5752 71.5639 64.7809C72.078 64.9866 72.5151 65.2693 72.8493 65.6807C73.2092 66.1691 73.4405 66.7861 73.5177 67.5316ZM70.6127 69.434C70.8955 69.3568 71.1011 69.2797 71.2554 69.1769C71.4096 69.0741 71.5125 68.9198 71.6153 68.6885C71.7181 68.4314 71.7438 68.1229 71.7181 67.7116C71.641 67.0946 71.3839 66.6576 70.9469 66.4262C70.7155 66.3234 70.4841 66.2719 70.2528 66.2976C69.8157 66.3491 69.4044 66.4005 68.9674 66.4519C69.0959 67.4802 69.2502 68.5342 69.3787 69.5625C69.7643 69.5368 70.1757 69.4854 70.6127 69.434ZM71.204 74.3184C71.6924 74.1642 72.0266 73.9071 72.1551 73.5472C72.258 73.2901 72.2837 72.9816 72.258 72.596C72.1809 71.979 71.9238 71.542 71.4867 71.3106C71.2554 71.2078 71.024 71.1564 70.8184 71.1821C70.407 71.2335 69.9957 71.2849 69.5844 71.3363C69.7129 72.3904 69.8672 73.4186 69.9957 74.4727C70.3813 74.4212 70.7926 74.3698 71.204 74.3184Z" fill="#1D1D1B"/>
<path d="M80.9725 63.7779C81.1525 66.5801 81.3067 69.3565 81.4867 72.1586C81.5124 72.647 81.4352 73.1098 81.2296 73.5725C81.0496 74.0353 80.7411 74.4209 80.3812 74.7037C79.9185 75.0636 79.3529 75.2435 78.6845 75.2949C77.4506 75.3978 76.5508 74.9864 75.9595 74.0353C75.651 73.5725 75.4968 73.0841 75.4454 72.5956C75.1883 69.8192 74.9055 67.0428 74.6484 64.2407C74.6999 64.1635 74.7513 64.0864 74.8027 64.035C75.3168 63.9836 75.8053 63.9322 76.3194 63.9065C76.3708 63.9579 76.448 64.035 76.4994 64.0864C76.7307 66.8885 76.9878 69.665 77.2192 72.4671C77.322 72.8527 77.4763 73.1355 77.6562 73.3154C77.8362 73.4954 78.1447 73.5982 78.556 73.5725C79.0444 73.5468 79.3786 73.3154 79.5843 72.9298C79.6871 72.7242 79.7385 72.4928 79.7128 72.2357C79.5072 69.4593 79.3272 66.6572 79.1215 63.8808C79.173 63.8036 79.2244 63.7522 79.2758 63.6751C79.79 63.6494 80.2784 63.598 80.7925 63.5723C80.8439 63.6494 80.8954 63.7008 80.9725 63.7779Z" fill="#1D1D1B"/>
<path d="M84.4434 63.5986C84.5976 67.3262 84.7519 71.0281 84.8804 74.7557C84.829 74.8071 84.7519 74.8842 84.7005 74.9356C84.2377 74.9613 83.7493 74.987 83.2865 74.987C83.2351 74.9356 83.1837 74.8842 83.1066 74.8071C82.9266 71.0795 82.721 67.3776 82.541 63.65C82.5924 63.5728 82.6438 63.5214 82.6953 63.4443C83.2094 63.4186 83.6979 63.3929 84.212 63.3672C84.3148 63.47 84.3663 63.5471 84.4434 63.5986Z" fill="#1D1D1B"/>
<path d="M92.3609 73.2395C92.3609 73.7023 92.3609 74.165 92.3609 74.6278C92.3094 74.6792 92.2323 74.7563 92.1809 74.8077C90.3043 74.8077 88.4276 74.8334 86.5767 74.8848C86.5252 74.8334 86.4738 74.7563 86.3967 74.7049C86.2939 70.9773 86.1653 67.2754 86.0625 63.5478C86.1139 63.4707 86.1653 63.4192 86.2425 63.3421C86.7566 63.3164 87.2451 63.3164 87.7592 63.3164C87.8363 63.3678 87.8877 63.4449 87.9649 63.4964C88.0163 66.7098 88.0934 69.8976 88.1448 73.111C89.5073 73.0853 90.8441 73.0853 92.2066 73.0853C92.2323 73.1367 92.2837 73.1881 92.3609 73.2395Z" fill="#1D1D1B"/>
<path d="M97.0136 63.3672C98.3503 63.4186 99.2501 63.9584 99.7386 64.9867C99.9699 65.5009 100.098 65.9893 100.073 66.4778C99.9699 68.3544 99.8928 70.2054 99.79 72.082C99.7642 72.5705 99.6357 73.0332 99.3786 73.4703C99.1216 73.9073 98.8131 74.2672 98.4017 74.4986C97.9133 74.8071 97.322 74.9356 96.6536 74.9099C95.7282 74.8842 94.777 74.8585 93.8515 74.8328C93.8001 74.7813 93.7487 74.7042 93.6973 74.6528C93.7487 70.9252 93.8001 67.1976 93.8515 63.4957C93.9029 63.4186 93.98 63.3672 94.0314 63.29C95.0083 63.29 96.011 63.3158 97.0136 63.3672ZM97.9904 71.9792C98.0675 70.1026 98.1447 68.2259 98.2218 66.375C98.1704 65.9893 98.0418 65.6808 97.8619 65.4752C97.6819 65.2438 97.3734 65.141 96.9621 65.1153C96.5251 65.0896 96.1138 65.0896 95.6767 65.0896C95.5996 67.7632 95.5482 70.4625 95.4711 73.1361C95.8824 73.1361 96.2937 73.1618 96.705 73.1618C97.1935 73.1875 97.5534 73.0075 97.7848 72.6476C97.9133 72.4419 97.9904 72.2106 97.9904 71.9792Z" fill="#1D1D1B"/>
<path d="M103.493 65.4493C103.416 66.5033 103.339 67.5316 103.262 68.5856C104.419 68.6627 105.55 68.7655 106.707 68.8684C106.758 68.9455 106.81 68.9969 106.887 69.074C106.835 69.5368 106.81 69.9995 106.758 70.488C106.681 70.5394 106.63 70.5908 106.553 70.6422C105.421 70.5394 104.29 70.4365 103.133 70.3594C103.056 71.4134 102.979 72.4674 102.902 73.5215C104.265 73.6243 105.601 73.7271 106.964 73.8556C107.015 73.9071 107.067 73.9842 107.118 74.0356C107.067 74.4983 107.041 74.9611 106.99 75.4238C106.912 75.4752 106.861 75.5266 106.784 75.5781C104.907 75.3981 103.056 75.2439 101.18 75.141C101.128 75.0896 101.077 75.0125 101.025 74.9611C101.257 71.2335 101.462 67.5316 101.694 63.804C101.745 63.7526 101.822 63.6754 101.874 63.624C103.879 63.7526 105.884 63.9068 107.864 64.0868C107.915 64.1639 107.992 64.241 108.044 64.2924C107.992 64.7552 107.966 65.2179 107.915 65.6806C107.838 65.732 107.786 65.7835 107.709 65.8349C106.347 65.6549 104.933 65.5521 103.493 65.4493Z" fill="#1D1D1B"/>
<path d="M115.421 68.6639C115.215 70.1292 114.572 71.0804 113.544 71.5689C113.827 73.1113 114.11 74.6538 114.367 76.2219C114.29 76.2991 114.238 76.3505 114.161 76.4276C113.698 76.3505 113.236 76.2991 112.747 76.2476C112.696 76.1962 112.644 76.1448 112.593 76.0934C112.362 74.7052 112.105 73.2913 111.822 71.9031C111.41 71.8516 111.025 71.8002 110.614 71.7488C110.459 73.0856 110.305 74.3967 110.151 75.7335C110.074 75.7849 110.022 75.8363 109.945 75.8877C109.482 75.8363 109.02 75.7849 108.531 75.7335C108.48 75.6564 108.428 75.6049 108.377 75.5278C108.763 71.8259 109.148 68.124 109.534 64.4221C109.611 64.3707 109.662 64.2936 109.739 64.2422C110.742 64.345 111.745 64.4736 112.722 64.5764C112.979 64.6021 113.313 64.7306 113.698 64.9106C114.367 65.2191 114.881 65.7589 115.189 66.5045C115.472 67.1214 115.549 67.8412 115.421 68.6639ZM112.079 70.1549C112.285 70.1806 112.49 70.1035 112.722 69.975C113.21 69.7179 113.493 69.1781 113.596 68.3811C113.698 67.5842 113.57 66.9929 113.184 66.633C112.979 66.453 112.773 66.3245 112.567 66.2988C112.13 66.2474 111.719 66.196 111.282 66.1445C111.128 67.4299 110.973 68.7153 110.845 69.975C111.256 70.0521 111.668 70.1035 112.079 70.1549Z" fill="#1D1D1B"/>
<path d="M76.014 43.9068C76.0397 44.3696 76.0654 44.8323 76.0911 45.295C76.0397 45.3465 75.9626 45.4236 75.9112 45.475C75.1656 45.5264 74.4201 45.5521 73.7003 45.6035C73.906 48.7913 74.1373 52.0047 74.343 55.1925C74.2916 55.2439 74.2402 55.321 74.1888 55.3724C73.6746 55.3981 73.1605 55.4495 72.6463 55.4753C72.5949 55.4238 72.5178 55.3724 72.4664 55.321C72.2093 52.1333 71.9779 48.9198 71.7208 45.7321C70.9753 45.7835 70.2298 45.8606 69.51 45.912C69.4329 45.8606 69.3814 45.8092 69.3043 45.7578C69.2529 45.295 69.2272 44.8323 69.1758 44.3696C69.2272 44.2924 69.2786 44.2153 69.3557 44.1639C71.5152 43.9582 73.7003 43.804 75.8598 43.7012C75.8855 43.7783 75.9626 43.8297 76.014 43.9068Z" fill="#1D1D1B"/>
<path d="M79.6647 45.2943C79.6904 46.3483 79.7418 47.3766 79.7675 48.4306C81.0272 48.3792 82.2612 48.3535 83.5208 48.3278C83.5979 48.3792 83.6493 48.4563 83.7265 48.5077C83.7265 48.9705 83.7265 49.4589 83.7522 49.9217C83.675 49.9731 83.6236 50.0245 83.5465 50.0759C82.3126 50.1016 81.0786 50.1273 79.8446 50.153C79.8703 51.207 79.9218 52.261 79.9475 53.3151C81.4128 53.2636 82.9038 53.2379 84.3692 53.2122C84.4463 53.2636 84.4977 53.3151 84.5748 53.3665C84.5748 53.8292 84.5748 54.2919 84.5748 54.7547C84.4977 54.8061 84.4463 54.8832 84.3692 54.9346C82.3383 54.9603 80.2817 55.0118 78.2508 55.0889C78.1993 55.0375 78.1222 54.986 78.0708 54.9089C77.8908 51.1813 77.7366 47.4794 77.5566 43.7518C77.6081 43.6747 77.6852 43.6233 77.7366 43.5462C79.8961 43.4433 82.0812 43.3919 84.2406 43.3662C84.3177 43.4433 84.3692 43.4948 84.4463 43.5719C84.4463 44.0346 84.4463 44.4973 84.4463 44.9601C84.3692 45.0115 84.3177 45.0629 84.2406 45.1143C82.7496 45.2172 81.2071 45.2429 79.6647 45.2943Z" fill="#1D1D1B"/>
<path d="M90.2541 43.6494C90.9739 47.377 91.668 51.1303 92.285 54.8836C92.2336 54.9607 92.1564 55.0121 92.105 55.0893C91.5909 55.0635 91.0767 55.0635 90.5625 55.0378C90.5111 54.9864 90.434 54.935 90.3826 54.8836C90.3055 54.4723 90.2284 54.0352 90.1512 53.6239C89.4314 53.5982 88.7116 53.5982 87.9918 53.5982C87.889 54.0095 87.8118 54.4466 87.709 54.8579C87.6576 54.9093 87.5805 54.9607 87.5291 55.0121C87.0149 55.0121 86.5008 55.0121 85.9866 55.0121C85.9352 54.935 85.8581 54.8579 85.8066 54.8065C86.5779 51.0789 87.3748 47.3513 88.2232 43.6494C88.2746 43.5979 88.3517 43.5465 88.4031 43.4951C88.943 43.4951 89.4828 43.5208 90.0484 43.5208C90.1512 43.5465 90.2027 43.5979 90.2541 43.6494ZM89.1744 48.3024C88.8916 49.485 88.6345 50.6418 88.3774 51.8244C88.8658 51.8244 89.38 51.8501 89.8685 51.8501C89.6371 50.6675 89.4057 49.485 89.1744 48.3024Z" fill="#1D1D1B"/>
<path d="M102.646 44.3695C102.312 48.0714 102.003 51.799 101.669 55.5009C101.592 55.5524 101.515 55.6038 101.438 55.6552C100.924 55.6038 100.435 55.5781 99.9211 55.5266C99.8697 55.4495 99.8183 55.3981 99.7669 55.321C99.9211 53.47 100.05 51.6191 100.204 49.7681C99.664 51.5934 99.1499 53.4443 98.6357 55.2696C98.5586 55.321 98.5072 55.3467 98.4301 55.3981C97.9159 55.3724 97.4018 55.321 96.8876 55.2953C96.8362 55.2439 96.7848 55.1925 96.7076 55.141C96.4506 53.2644 96.1678 51.362 95.8593 49.4854C95.7565 51.3363 95.6536 53.1873 95.5508 55.0382C95.4737 55.0896 95.4223 55.141 95.3452 55.2182C94.831 55.1924 94.3426 55.1667 93.8284 55.141C93.777 55.0896 93.6999 55.0125 93.6484 54.9611C93.8027 51.2335 93.9569 47.5316 94.1369 43.804C94.214 43.7526 94.2911 43.6754 94.3426 43.624C95.1652 43.6497 95.9621 43.7011 96.7848 43.7526C96.8619 43.804 96.9133 43.8811 96.9904 43.9325C97.3246 46.1434 97.6588 48.3285 97.9673 50.5394C98.5586 48.4056 99.1756 46.2462 99.8183 44.1125C99.8954 44.0611 99.9468 44.0096 100.024 43.9582C100.847 44.0096 101.644 44.0868 102.466 44.1639C102.518 44.2153 102.595 44.2924 102.646 44.3695Z" fill="#1D1D1B"/>
<path d="M68.2247 62.2093C68.3275 63.2634 68.1218 64.1117 67.5563 64.7544C68.2247 65.2428 68.6103 66.0398 68.7131 67.0938C68.8416 68.4306 68.456 69.4589 67.5306 70.1273C67.0678 70.4615 66.6051 70.6671 66.0909 70.7186C65.1655 70.8214 64.24 70.9499 63.3145 71.0785C63.2631 71.0271 63.186 70.9756 63.1346 70.9242C62.6204 67.248 62.0806 63.5461 61.5664 59.87C61.6178 59.7928 61.6692 59.7157 61.7206 59.6386C62.7232 59.51 63.7001 59.3558 64.7027 59.253C65.2169 59.1758 65.7567 59.253 66.2709 59.4586C66.785 59.6643 67.2221 59.9471 67.5563 60.3584C67.9162 60.8725 68.1476 61.4638 68.2247 62.2093ZM65.294 64.1374C65.5768 64.0603 65.7825 63.9832 65.9367 63.8803C66.0909 63.7775 66.1938 63.6233 66.2966 63.3919C66.3994 63.1348 66.4251 62.8263 66.3994 62.415C66.3223 61.798 66.0652 61.361 65.6282 61.1296C65.3968 61.0268 65.1655 60.9754 64.9341 61.0011C64.4971 61.0525 64.0857 61.1039 63.6487 61.1553C63.7773 62.1836 63.9315 63.2376 64.06 64.266C64.4456 64.2402 64.8827 64.1888 65.294 64.1374ZM65.911 68.9962C66.3994 68.8419 66.7336 68.5848 66.8622 68.2249C66.965 67.9678 66.9907 67.6594 66.965 67.2737C66.8879 66.6568 66.6308 66.2197 66.1938 65.9884C65.9624 65.8855 65.731 65.8341 65.5254 65.8598C65.1141 65.9112 64.7027 65.9627 64.2914 66.0141C64.4199 67.0681 64.5742 68.0964 64.7027 69.1504C65.0883 69.099 65.4997 69.0476 65.911 68.9962Z" fill="#1D1D1B"/>
<path d="M75.6541 58.4557C75.8341 61.2578 75.9883 64.0342 76.1683 66.8363C76.194 67.3248 76.1169 67.7875 75.9112 68.2503C75.7313 68.713 75.4228 69.0986 75.0629 69.3814C74.6002 69.7413 74.0346 69.9213 73.3662 69.9727C72.1322 70.0755 71.2324 69.6642 70.6412 68.713C70.3327 68.2503 70.1784 67.7618 70.127 67.2734C69.8699 64.497 69.5872 61.7205 69.3301 58.9184C69.3815 58.8413 69.4329 58.7642 69.4843 58.7127C69.9985 58.6613 70.4869 58.6099 71.0011 58.5842C71.0525 58.6356 71.1296 58.7127 71.181 58.7642C71.4124 61.5663 71.6695 64.3427 71.9008 67.1448C72.0037 67.5304 72.1579 67.8132 72.3379 67.9932C72.5178 68.1731 72.8263 68.276 73.2377 68.2503C73.7261 68.2246 74.0603 67.9932 74.266 67.6076C74.3688 67.4019 74.4202 67.1705 74.3945 66.9135C74.1888 64.137 74.0089 61.3349 73.8032 58.5585C73.8546 58.4814 73.906 58.43 73.9574 58.3528C74.4716 58.3271 74.9601 58.2757 75.4742 58.25C75.5256 58.3271 75.6027 58.4043 75.6541 58.4557Z" fill="#1D1D1B"/>
<path d="M79.125 58.2773C79.2792 62.0049 79.4335 65.7068 79.562 69.4344C79.5106 69.4858 79.4335 69.5629 79.3821 69.6143C78.9193 69.64 78.4309 69.6657 77.9682 69.6657C77.9167 69.6143 77.8653 69.5629 77.7882 69.4858C77.6083 65.7582 77.4026 62.0563 77.2227 58.3287C77.2741 58.2516 77.3255 58.2001 77.3769 58.123C77.891 58.0973 78.3795 58.0716 78.8937 58.0459C78.9965 58.1744 79.0736 58.2259 79.125 58.2773Z" fill="#1D1D1B"/>
<path d="M87.0425 67.9173C87.0425 68.38 87.0425 68.8428 87.0425 69.3055C86.9911 69.3569 86.914 69.434 86.8626 69.4854C84.9859 69.4854 83.1092 69.5111 81.2583 69.5626C81.2069 69.5111 81.1555 69.434 81.0784 69.3826C80.9755 65.655 80.847 61.9531 80.7441 58.2255C80.7956 58.1484 80.847 58.097 80.9241 58.0198C81.4382 57.9941 81.9267 57.9941 82.4408 57.9941C82.518 58.0456 82.5694 58.1227 82.6465 58.1741C82.6979 61.3875 82.775 64.5753 82.8265 67.7887C84.189 67.763 85.5258 67.763 86.8883 67.763C86.9397 67.8144 86.9911 67.8659 87.0425 67.9173Z" fill="#1D1D1B"/>
<path d="M91.7206 58.0459C93.0573 58.0973 93.9571 58.6371 94.4456 59.6654C94.677 60.1796 94.8055 60.668 94.7798 61.1565C94.6769 63.0331 94.5998 64.8841 94.497 66.7607C94.4713 67.2492 94.3427 67.7119 94.0857 68.149C93.8286 68.586 93.5201 68.9459 93.1088 69.1773C92.6203 69.4858 92.0291 69.6143 91.3607 69.5886C90.4352 69.5629 89.484 69.5372 88.5585 69.5115C88.5071 69.46 88.4557 69.3829 88.4043 69.3315C88.4557 65.6039 88.5071 61.8763 88.5585 58.1744C88.61 58.0973 88.6871 58.0459 88.7385 57.9688C89.7154 57.9945 90.718 58.0202 91.7206 58.0459ZM92.6975 66.6579C92.7746 64.7813 92.8517 62.9046 92.9288 61.0537C92.8774 60.668 92.7489 60.3596 92.5689 60.1539C92.389 59.9225 92.0805 59.8197 91.6692 59.794C91.2321 59.7683 90.8208 59.7683 90.3838 59.7683C90.3066 62.4419 90.2552 65.1412 90.1781 67.8148C90.5894 67.8148 91.0008 67.8405 91.4121 67.8405C91.9005 67.8662 92.2604 67.6862 92.4918 67.3263C92.6203 67.1207 92.6717 66.915 92.6975 66.6579Z" fill="#1D1D1B"/>
<path d="M98.2003 60.127C98.1232 61.181 98.0461 62.2093 97.969 63.2633C99.1258 63.3404 100.257 63.4433 101.414 63.5461C101.465 63.6232 101.517 63.6747 101.594 63.7518C101.542 64.2145 101.517 64.6772 101.465 65.1657C101.388 65.2171 101.337 65.2685 101.26 65.3199C100.128 65.2171 98.9973 65.1143 97.8404 65.0372C97.7633 66.0912 97.6862 67.1452 97.6091 68.1992C98.9716 68.302 100.308 68.4048 101.671 68.5334C101.722 68.5848 101.774 68.6619 101.825 68.7133C101.774 69.1761 101.748 69.6388 101.697 70.1015C101.619 70.153 101.568 70.2044 101.491 70.2558C99.6142 70.0758 97.7633 69.9216 95.8867 69.8188C95.8352 69.7673 95.7838 69.6902 95.7324 69.6388C95.9638 65.9112 96.1694 62.2093 96.4008 58.4817C96.4522 58.4303 96.5293 58.3532 96.5808 58.3018C98.5859 58.4303 100.591 58.5845 102.571 58.7645C102.622 58.8416 102.699 58.9187 102.751 58.9702C102.699 59.4329 102.673 59.8956 102.622 60.3584C102.545 60.4098 102.494 60.4612 102.416 60.5126C101.028 60.3584 99.6143 60.2298 98.2003 60.127Z" fill="#1D1D1B"/>
<path d="M110.128 63.3416C109.922 64.807 109.28 65.7581 108.251 66.2466C108.534 67.789 108.817 69.3315 109.074 70.8997C108.997 70.9768 108.945 71.0282 108.868 71.1053C108.405 71.0282 107.943 70.9768 107.454 70.9254C107.403 70.874 107.351 70.8225 107.3 70.7711C107.069 69.3829 106.812 67.969 106.529 66.5808C106.117 66.5294 105.732 66.478 105.321 66.4265C105.166 67.7633 105.012 69.0744 104.858 70.4112C104.781 70.4626 104.729 70.5141 104.652 70.5655C104.189 70.5141 103.727 70.4626 103.238 70.4112C103.187 70.3341 103.135 70.2827 103.084 70.2056C103.47 66.5037 103.855 62.8018 104.241 59.0999C104.318 59.0485 104.369 58.9713 104.446 58.9199C105.449 59.0228 106.452 59.1513 107.429 59.2541C107.686 59.2798 108.02 59.4084 108.405 59.5883C109.074 59.8968 109.588 60.4367 109.897 61.1822C110.179 61.8249 110.231 62.519 110.128 63.3416ZM106.76 64.8327C106.966 64.8584 107.171 64.7813 107.403 64.6527C107.891 64.3956 108.174 63.8558 108.277 63.0588C108.38 62.2619 108.251 61.6706 107.866 61.3107C107.66 61.1308 107.454 61.0022 107.249 60.9765C106.812 60.9251 106.4 60.8737 105.963 60.8223C105.809 62.1077 105.655 63.3931 105.526 64.6527C105.938 64.7556 106.349 64.7813 106.76 64.8327Z" fill="#1D1D1B"/>
<path d="M76.016 43.9088C76.0417 44.3715 76.0674 44.8343 76.0931 45.297C76.0417 45.3484 75.9645 45.4255 75.9131 45.4769C75.1676 45.5284 74.4221 45.5541 73.7023 45.6055C73.9079 48.7932 74.1393 52.0067 74.345 55.1944C74.2935 55.2458 74.2421 55.323 74.1907 55.3744C73.6766 55.4001 73.1624 55.4515 72.6483 55.4772C72.5968 55.4258 72.5197 55.3744 72.4683 55.323C72.2112 52.1352 71.9799 48.9218 71.7228 45.734C70.9773 45.7854 70.2318 45.8626 69.5119 45.914C69.4348 45.8626 69.3834 45.8111 69.3063 45.7597C69.2549 45.297 69.2291 44.8343 69.1777 44.3715C69.2291 44.2944 69.2806 44.2173 69.3577 44.1659C71.5171 43.9602 73.7023 43.806 75.8617 43.7031C75.8874 43.7802 75.9645 43.8317 76.016 43.9088Z" fill="white"/>
<path d="M79.6666 45.2962C79.6923 46.3502 79.7437 47.3786 79.7694 48.4326C81.0291 48.3812 82.2631 48.3554 83.5228 48.3297C83.5999 48.3812 83.6513 48.4583 83.7284 48.5097C83.7284 48.9724 83.7284 49.4609 83.7541 49.9236C83.677 49.975 83.6256 50.0264 83.5485 50.0779C82.3145 50.1036 81.0805 50.1293 79.8466 50.155C79.8723 51.209 79.9237 52.263 79.9494 53.317C81.4147 53.2656 82.9058 53.2399 84.3711 53.2142C84.4482 53.2656 84.4997 53.317 84.5768 53.3684C84.5768 53.8312 84.5768 54.2939 84.5768 54.7566C84.4997 54.8081 84.4482 54.8852 84.3711 54.9366C82.3402 54.9623 80.2836 55.0137 78.2527 55.0908C78.2013 55.0394 78.1242 54.988 78.0727 54.9109C77.8928 51.1833 77.7385 47.4814 77.5586 43.7538C77.61 43.6767 77.6872 43.6252 77.7386 43.5481C79.898 43.4453 82.0831 43.3939 84.2426 43.3682C84.3197 43.4453 84.3711 43.4967 84.4482 43.5738C84.4482 44.0366 84.4482 44.4993 84.4482 44.962C84.3711 45.0135 84.3197 45.0649 84.2426 45.1163C82.7515 45.2191 81.2091 45.2448 79.6666 45.2962Z" fill="white"/>
<path d="M90.256 43.6513C90.9758 47.3789 91.6699 51.1322 92.2869 54.8855C92.2355 54.9627 92.1584 55.0141 92.107 55.0912C91.5928 55.0655 91.0787 55.0655 90.5645 55.0398C90.5131 54.9884 90.436 54.937 90.3846 54.8855C90.3074 54.4742 90.2303 54.0372 90.1532 53.6259C89.4334 53.6002 88.7136 53.6002 87.9937 53.6002C87.8909 54.0115 87.8138 54.4485 87.711 54.8598C87.6595 54.9113 87.5824 54.9627 87.531 55.0141C87.0169 55.0141 86.5027 55.0141 85.9886 55.0141C85.9372 54.937 85.86 54.8598 85.8086 54.8084C86.5798 51.0808 87.3768 47.3532 88.2251 43.6513C88.2765 43.5999 88.3537 43.5485 88.4051 43.4971C88.9449 43.4971 89.4848 43.5228 90.0503 43.5228C90.1532 43.5485 90.2046 43.5999 90.256 43.6513ZM89.1763 48.3044C88.8935 49.4869 88.6364 50.6438 88.3794 51.8263C88.8678 51.8263 89.382 51.852 89.8704 51.852C89.639 50.6695 89.4077 49.4869 89.1763 48.3044Z" fill="white"/>
<path d="M102.648 44.3715C102.314 48.0734 102.005 51.801 101.671 55.5029C101.594 55.5543 101.517 55.6057 101.44 55.6571C100.926 55.6057 100.437 55.58 99.9231 55.5286C99.8716 55.4515 99.8202 55.4001 99.7688 55.3229C99.9231 53.472 100.052 51.621 100.206 49.7701C99.666 51.5953 99.1518 53.4463 98.6377 55.2715C98.5606 55.3229 98.5092 55.3486 98.432 55.4001C97.9179 55.3744 97.4037 55.3229 96.8896 55.2972C96.8382 55.2458 96.7867 55.1944 96.7096 55.143C96.4525 53.2663 96.1698 51.364 95.8613 49.4873C95.7584 51.3383 95.6556 53.1892 95.5528 55.0402C95.4756 55.0916 95.4242 55.143 95.3471 55.2201C94.833 55.1944 94.3445 55.1687 93.8304 55.143C93.7789 55.0916 93.7018 55.0144 93.6504 54.963C93.8046 51.2354 93.9589 47.5335 94.1388 43.8059C94.216 43.7545 94.2931 43.6774 94.3445 43.626C95.1672 43.6517 95.9641 43.7031 96.7867 43.7545C96.8639 43.8059 96.9153 43.8831 96.9924 43.9345C97.3266 46.1453 97.6608 48.3305 97.9693 50.5413C98.5606 48.4076 99.1775 46.2482 99.8202 44.1144C99.8973 44.063 99.9488 44.0116 100.026 43.9602C100.849 44.0116 101.645 44.0887 102.468 44.1658C102.52 44.2173 102.597 44.2944 102.648 44.3715Z" fill="white"/>
<path d="M68.2266 62.2113C68.3295 63.2653 68.1238 64.1137 67.5582 64.7563C68.2266 65.2448 68.6122 66.0417 68.7151 67.0957C68.8436 68.4325 68.458 69.4608 67.5325 70.1292C67.0698 70.4634 66.607 70.6691 66.0929 70.7205C65.1674 70.8233 64.2419 70.9519 63.3165 71.0804C63.265 71.029 63.1879 70.9776 63.1365 70.9262C62.6224 67.25 62.0825 63.5481 61.5684 59.8719C61.6198 59.7948 61.6712 59.7177 61.7226 59.6405C62.7252 59.512 63.7021 59.3578 64.7047 59.2549C65.2188 59.1778 65.7587 59.2549 66.2728 59.4606C66.787 59.6662 67.224 59.949 67.5582 60.3603C67.9181 60.8745 68.1495 61.4658 68.2266 62.2113ZM65.296 64.1394C65.5787 64.0622 65.7844 63.9851 65.9387 63.8823C66.0929 63.7795 66.1957 63.6252 66.2986 63.3938C66.4014 63.1368 66.4271 62.8283 66.4014 62.417C66.3242 61.8 66.0672 61.3629 65.6301 61.1316C65.3988 61.0287 65.1674 60.9773 64.936 61.003C64.499 61.0545 64.0877 61.1059 63.6507 61.1573C63.7792 62.1856 63.9334 63.2396 64.062 64.2679C64.4476 64.2422 64.8846 64.1908 65.296 64.1394ZM65.913 68.9981C66.4014 68.8439 66.7356 68.5868 66.8641 68.2269C66.967 67.9698 66.9927 67.6613 66.967 67.2757C66.8898 66.6587 66.6328 66.2217 66.1957 65.9903C65.9644 65.8875 65.733 65.8361 65.5273 65.8618C65.116 65.9132 64.7047 65.9646 64.2934 66.016C64.4219 67.07 64.5761 68.0983 64.7047 69.1524C65.0903 69.1009 65.5016 69.0495 65.913 68.9981Z" fill="white"/>
<path d="M75.6561 58.4576C75.8361 61.2597 75.9903 64.0362 76.1702 66.8383C76.196 67.3267 76.1188 67.7895 75.9132 68.2522C75.7332 68.715 75.4247 69.1006 75.0648 69.3834C74.6021 69.7433 74.0365 69.9232 73.3681 69.9746C72.1342 70.0775 71.2344 69.6661 70.6431 68.715C70.3346 68.2522 70.1804 67.7638 70.129 67.2753C69.8719 64.4989 69.5891 61.7225 69.332 58.9204C69.3834 58.8432 69.4349 58.7661 69.4863 58.7147C70.0004 58.6633 70.4889 58.6119 71.003 58.5862C71.0544 58.6376 71.1316 58.7147 71.183 58.7661C71.4144 61.5682 71.6714 64.3447 71.9028 67.1468C72.0056 67.5324 72.1599 67.8152 72.3398 67.9951C72.5198 68.1751 72.8283 68.2779 73.2396 68.2522C73.7281 68.2265 74.0623 67.9951 74.2679 67.6095C74.3707 67.4039 74.4222 67.1725 74.3964 66.9154C74.1908 64.139 74.0108 61.3369 73.8052 58.5604C73.8566 58.4833 73.908 58.4319 73.9594 58.3548C74.4736 58.3291 74.962 58.2777 75.4762 58.252C75.5276 58.3291 75.6047 58.4062 75.6561 58.4576Z" fill="white"/>
<path d="M79.1269 58.2792C79.2812 62.0068 79.4355 65.7087 79.564 69.4363C79.5126 69.4877 79.4354 69.5649 79.384 69.6163C78.9213 69.642 78.4328 69.6677 77.9701 69.6677C77.9187 69.6163 77.8673 69.5649 77.7902 69.4877C77.6102 65.7601 77.4046 62.0582 77.2246 58.3306C77.276 58.2535 77.3274 58.2021 77.3788 58.125C77.893 58.0993 78.3815 58.0736 78.8956 58.0479C78.9984 58.1764 79.0755 58.2278 79.1269 58.2792Z" fill="white"/>
<path d="M87.0445 67.9192C87.0445 68.382 87.0445 68.8447 87.0445 69.3074C86.993 69.3589 86.9159 69.436 86.8645 69.4874C84.9879 69.4874 83.1112 69.5131 81.2602 69.5645C81.2088 69.5131 81.1574 69.436 81.0803 69.3846C80.9775 65.657 80.8489 61.9551 80.7461 58.2275C80.7975 58.1503 80.8489 58.0989 80.926 58.0218C81.4402 57.9961 81.9286 57.9961 82.4428 57.9961C82.5199 58.0475 82.5713 58.1246 82.6485 58.1761C82.6999 61.3895 82.777 64.5772 82.8284 67.7907C84.1909 67.765 85.5277 67.765 86.8902 67.765C86.9416 67.8164 86.993 67.8678 87.0445 67.9192Z" fill="white"/>
<path d="M91.7225 58.0478C93.0593 58.0992 93.9591 58.6391 94.4475 59.6674C94.6789 60.1816 94.8074 60.67 94.7817 61.1584C94.6789 63.0351 94.6018 64.886 94.4989 66.7627C94.4732 67.2511 94.3447 67.7139 94.0876 68.1509C93.8305 68.5879 93.522 68.9478 93.1107 69.1792C92.6223 69.4877 92.031 69.6162 91.3626 69.5905C90.4372 69.5648 89.486 69.5391 88.5605 69.5134C88.5091 69.462 88.4577 69.3849 88.4062 69.3335C88.4577 65.6059 88.5091 61.8783 88.5605 58.1764C88.6119 58.0992 88.689 58.0478 88.7404 57.9707C89.7173 57.9964 90.7199 58.0221 91.7225 58.0478ZM92.6994 66.6599C92.7765 64.7832 92.8537 62.9066 92.9308 61.0556C92.8794 60.67 92.7508 60.3615 92.5709 60.1558C92.3909 59.9245 92.0824 59.8216 91.6711 59.7959C91.2341 59.7702 90.8228 59.7702 90.3857 59.7702C90.3086 62.4438 90.2572 65.1431 90.18 67.8167C90.5914 67.8167 91.0027 67.8424 91.414 67.8424C91.9025 67.8681 92.2624 67.6882 92.4937 67.3283C92.6223 67.1226 92.6737 66.9169 92.6994 66.6599Z" fill="white"/>
<path d="M98.2023 60.129C98.1252 61.183 98.048 62.2113 97.9709 63.2653C99.1278 63.3424 100.259 63.4452 101.416 63.5481C101.467 63.6252 101.519 63.6766 101.596 63.7537C101.544 64.2165 101.519 64.6792 101.467 65.1676C101.39 65.2191 101.339 65.2705 101.262 65.3219C100.13 65.2191 98.9992 65.1162 97.8424 65.0391C97.7653 66.0931 97.6881 67.1471 97.611 68.2011C98.9735 68.304 100.31 68.4068 101.673 68.5353C101.724 68.5868 101.776 68.6639 101.827 68.7153C101.776 69.178 101.75 69.6408 101.699 70.1035C101.621 70.1549 101.57 70.2063 101.493 70.2577C99.6162 70.0778 97.7653 69.9235 95.8886 69.8207C95.8372 69.7693 95.7858 69.6922 95.7344 69.6408C95.9657 65.9132 96.1714 62.2113 96.4028 58.4837C96.4542 58.4323 96.5313 58.3551 96.5827 58.3037C98.5879 58.4322 100.593 58.5865 102.573 58.7664C102.624 58.8436 102.701 58.9207 102.753 58.9721C102.701 59.4348 102.675 59.8976 102.624 60.3603C102.547 60.4117 102.495 60.4632 102.418 60.5146C101.03 60.3603 99.6162 60.2318 98.2023 60.129Z" fill="white"/>
<path d="M110.13 63.3436C109.924 64.8089 109.281 65.7601 108.253 66.2485C108.536 67.791 108.819 69.3335 109.076 70.9016C108.999 70.9787 108.947 71.0302 108.87 71.1073C108.407 71.0302 107.945 70.9787 107.456 70.9273C107.405 70.8759 107.353 70.8245 107.302 70.7731C107.071 69.3849 106.814 67.971 106.531 66.5827C106.119 66.5313 105.734 66.4799 105.322 66.4285C105.168 67.7653 105.014 69.0764 104.86 70.4132C104.783 70.4646 104.731 70.516 104.654 70.5674C104.191 70.516 103.729 70.4646 103.24 70.4132C103.189 70.3361 103.137 70.2846 103.086 70.2075C103.472 66.5056 103.857 62.8037 104.243 59.1018C104.32 59.0504 104.371 58.9733 104.448 58.9219C105.451 59.0247 106.454 59.1532 107.431 59.2561C107.688 59.2818 108.022 59.4103 108.407 59.5903C109.076 59.8988 109.59 60.4386 109.898 61.1841C110.181 61.8268 110.233 62.5209 110.13 63.3436ZM106.762 64.8346C106.968 64.8603 107.173 64.7832 107.405 64.6547C107.893 64.3976 108.176 63.8577 108.279 63.0608C108.382 62.2639 108.253 61.6726 107.868 61.3127C107.662 61.1327 107.456 61.0042 107.251 60.9785C106.814 60.9271 106.402 60.8757 105.965 60.8242C105.811 62.1096 105.657 63.395 105.528 64.6547C105.939 64.7575 106.351 64.7832 106.762 64.8346Z" fill="white"/>
<path d="M72.622 60.4412C71.4394 60.4412 70.2826 60.0299 69.3828 59.2329L69.2028 59.0787C68.2259 58.2303 67.609 57.0221 67.5061 55.711L67.0948 50.261C66.9149 50.1581 66.7606 50.0553 66.5807 49.9268L66.375 49.7725C65.2181 48.9242 64.4726 47.6388 64.3441 46.2249L64.2155 44.8367C64.1127 43.5513 64.4983 42.2916 65.2953 41.289L65.4752 41.0576C66.3236 40.0293 67.5319 39.3609 68.8686 39.2581C71.0795 39.0524 73.316 38.8982 75.5269 38.7697C76.8637 38.6925 78.1748 39.181 79.1517 40.0807L79.3573 40.2607C80.3085 41.1348 80.8484 42.343 80.9255 43.6027L81.0026 44.9909C81.0798 46.4048 80.5399 47.793 79.5116 48.7956L79.3316 48.9756C79.1774 49.1041 79.0231 49.2584 78.8689 49.3612L79.2288 54.8112C79.3059 56.1223 78.8946 57.4077 78.0206 58.3846L77.8663 58.5645C76.9923 59.5671 75.784 60.1584 74.4729 60.2612C73.9844 60.2869 73.4703 60.3383 72.9819 60.364C72.879 60.4155 72.7505 60.4412 72.622 60.4412Z" fill="#FBF89F"/>
<path d="M78.2766 60.0814C77.0427 60.0814 75.8344 59.6186 74.9346 58.7703L74.7547 58.6161C73.8035 57.742 73.2122 56.508 73.1608 55.1969L72.6466 44.0398C72.5952 42.7545 73.0323 41.5205 73.8806 40.5436L74.0606 40.3379C74.9346 39.3353 76.1943 38.7441 77.5311 38.6927C79.7419 38.5898 82.0042 38.5384 84.2151 38.5127C84.2408 38.5127 84.2408 38.5127 84.2665 38.5127C85.5004 38.5127 86.683 38.9754 87.6085 39.8238L87.8398 40.0294C88.8424 40.9549 89.408 42.2403 89.4337 43.6028V44.991C89.4337 45.9936 89.1509 46.9448 88.6111 47.7674C88.6368 47.9988 88.6625 48.2302 88.6625 48.4615L88.6882 49.8755C88.6882 50.1325 88.6625 50.3896 88.6368 50.621C89.1766 51.4179 89.4851 52.3691 89.5108 53.3717V54.7599C89.5108 56.1481 88.9453 57.4592 87.9427 58.4104L87.7627 58.5903C86.863 59.4387 85.6804 59.9014 84.4464 59.9271C82.467 59.9528 80.4875 60.0043 78.508 60.0814C78.4052 60.0814 78.328 60.0814 78.2766 60.0814Z" fill="#FBF89F"/>
<path d="M92.1319 60.03C92.0805 60.03 92.029 60.03 91.9519 60.03C91.4635 60.0043 90.9493 60.0043 90.4609 59.9785C89.9467 59.9528 89.4583 59.8757 88.9955 59.7215C88.5071 59.8757 88.0187 59.9528 87.5045 59.9271C87.0161 59.9271 86.5019 59.9271 86.0135 59.9271C84.5481 59.9271 83.1599 59.2844 82.2345 58.1533L82.0545 57.9476C81.0776 56.7908 80.692 55.2483 81.0005 53.783C81.7717 50.0297 82.5943 46.2507 83.4427 42.4974C83.6741 41.4434 84.2653 40.5179 85.088 39.8238L85.2679 39.6695C86.1677 38.924 87.2731 38.5127 88.43 38.5127C88.4557 38.5127 88.4814 38.5127 88.4814 38.5127C89.0469 38.5127 89.6125 38.5384 90.1524 38.5384C91.3349 38.5641 92.4661 39.0011 93.3401 39.7981L93.5201 39.978C94.317 40.6978 94.8569 41.649 95.0625 42.703C95.808 46.4563 96.5022 50.2868 97.1191 54.0658C97.3762 55.5568 96.9392 57.0736 95.9109 58.179L95.7309 58.3847C94.8569 59.4387 93.5201 60.03 92.1319 60.03Z" fill="#FBF89F"/>
<path d="M101.442 60.5944C101.287 60.5944 101.159 60.5944 101.005 60.5687C100.516 60.5172 100.028 60.4915 99.5392 60.4401C99.2821 60.4144 99.0507 60.3887 98.7936 60.3373C98.5366 60.363 98.3052 60.363 98.0481 60.3373C97.5597 60.3116 97.0455 60.2602 96.5571 60.2345C96.3 60.2087 96.0686 60.183 95.8116 60.1316C95.5545 60.1573 95.3231 60.1573 95.066 60.1573C94.5776 60.1316 94.0891 60.1059 93.6007 60.0802C92.3667 60.0288 91.2099 59.5146 90.3359 58.6406L90.1559 58.4606C89.179 57.4837 88.6391 56.1469 88.7163 54.7587L89.2047 43.6016C89.2561 42.2391 89.8731 40.9538 90.9014 40.0797L91.1328 39.8997C92.084 39.0771 93.3179 38.6658 94.5776 38.7172C95.4002 38.7429 96.2486 38.7943 97.0712 38.8457C97.6368 38.8714 98.2024 39 98.7165 39.2313C99.2564 39.0771 99.822 39.0257 100.388 39.0771C101.21 39.1285 102.059 39.2056 102.881 39.2828C104.064 39.3856 105.169 39.8997 105.992 40.7481L106.197 40.9795C107.2 42.0078 107.714 43.4217 107.586 44.8613L106.609 55.9927C106.48 57.458 105.709 58.7691 104.526 59.6175L104.295 59.7717C103.447 60.2859 102.444 60.5944 101.442 60.5944Z" fill="#FBF89F"/>
<path d="M63.3165 76.0444C62.1853 76.0444 61.0542 75.6588 60.1802 74.9133L60.0002 74.759C59.049 73.9878 58.432 72.8566 58.2521 71.6484L56.6839 60.5941C56.504 59.3859 56.7868 58.1776 57.4552 57.1493L57.6094 56.9179C58.3806 55.7611 59.6403 54.9641 61.0285 54.7842C62.0568 54.6299 63.0851 54.5014 64.0877 54.3729C65.4245 54.2186 66.7356 54.3729 68.021 54.8613C69.3835 55.3755 70.5146 56.1981 71.3887 57.3035C71.4144 57.3292 71.4144 57.3292 71.4401 57.355C72.3913 58.5889 72.9568 60.0543 73.1368 61.7252C73.2396 62.625 73.1882 63.4477 73.0854 64.1932C73.3681 64.8873 73.5481 65.6842 73.651 66.584C73.9594 69.6432 72.8283 72.3939 70.4889 74.1163C69.3321 74.9647 68.0724 75.4788 66.7099 75.6588C65.8101 75.7616 64.9104 75.8901 64.0106 76.0187C63.7792 76.0187 63.5478 76.0444 63.3165 76.0444Z" fill="#FBF89F"/>
<path d="M73.0336 74.9395C70.2829 74.9395 67.9178 73.6541 66.4781 71.3662C65.7583 70.235 65.3213 69.0268 65.2185 67.7671L64.4215 59.4121C64.293 58.2039 64.6272 56.9956 65.347 56.0187L65.5012 55.7874C66.3239 54.6562 67.6093 53.9364 68.9975 53.8079C69.5116 53.7565 70.0258 53.705 70.5399 53.6536C71.0541 53.6022 71.594 53.6536 72.0824 53.7564C72.5708 53.5508 73.0593 53.448 73.5991 53.3965C74.1133 53.3708 74.6274 53.3194 75.1416 53.2937C76.5555 53.2166 77.918 53.7307 78.9206 54.7076L79.1006 54.8876C79.9746 55.7359 80.4888 56.8928 80.5659 58.101L81.0801 66.4817C81.1572 67.69 80.9515 68.8982 80.4888 70.0551C79.9746 71.3405 79.152 72.4202 78.0723 73.2428C78.0723 73.2428 78.0466 73.2428 78.0466 73.2685C76.8126 74.194 75.373 74.7339 73.7791 74.8624C73.522 74.9395 73.2906 74.9395 73.0336 74.9395Z" fill="#FBF89F"/>
<path d="M77.9946 74.6308C76.6835 74.6308 75.4495 74.1167 74.4983 73.1912L74.3441 73.037C73.47 72.1629 72.9559 71.0061 72.8787 69.7721L72.3131 58.615C72.2617 57.4068 72.6474 56.1985 73.3929 55.273L73.5471 55.0674C74.4212 53.9876 75.7323 53.3192 77.1462 53.2421C77.6603 53.2164 78.1745 53.1907 78.6886 53.165C80.0254 53.1136 81.3108 53.5763 82.262 54.5018L82.4677 54.6817C83.4188 55.5558 83.9587 56.7898 84.0101 58.0751L84.4472 69.2322C84.4986 70.5433 84.0358 71.8287 83.1361 72.7799L82.9818 72.9599C82.1077 73.911 80.8738 74.4766 79.5627 74.5537C79.1 74.5794 78.6629 74.6051 78.2002 74.6051C78.1745 74.6308 78.0717 74.6308 77.9946 74.6308Z" fill="#FBF89F"/>
<path d="M81.2594 74.5036C79.9226 74.5036 78.6372 73.9637 77.7118 73.0125L77.5575 72.8326C76.7092 71.9585 76.195 70.776 76.1693 69.542L75.8351 58.3849C75.8094 57.1766 76.2207 55.9941 76.992 55.0686L77.1719 54.863C78.0717 53.7832 79.4085 53.1405 80.7967 53.1148C81.3108 53.0891 81.825 53.0891 82.3649 53.0634C83.6759 53.0377 84.9613 53.5519 85.9125 54.4516L86.1182 54.6573C87.0436 55.5571 87.5835 56.791 87.6092 58.0764L87.712 62.8837C88.6632 63.038 89.5373 63.4493 90.2571 64.092L90.4628 64.2719C91.4911 65.2231 92.0823 66.5599 92.0823 67.9481V69.3363C92.0823 70.6474 91.5425 71.9071 90.617 72.8326L90.437 73.0125C89.5115 73.9123 88.2776 74.4264 86.9665 74.4264H86.9408C85.1413 74.4264 83.316 74.4521 81.4908 74.5036C81.3365 74.5036 81.2851 74.5036 81.2594 74.5036Z" fill="#FBF89F"/>
<path d="M91.4909 74.5257C91.3881 74.5257 91.2852 74.5257 91.1824 74.5257C90.2826 74.5 89.3572 74.4743 88.4574 74.4486C87.0692 74.4229 85.7581 73.8316 84.8326 72.7776L84.6784 72.5977C83.8558 71.6722 83.4187 70.4896 83.4444 69.2557L83.5987 58.0986C83.6244 56.8903 84.0871 55.7078 84.9098 54.8337L85.0897 54.6281C86.0409 53.5998 87.3777 53.0342 88.7916 53.0342C89.8199 53.0599 90.8482 53.0856 91.8765 53.1113C95.0386 53.2141 97.6093 54.8337 98.8947 57.533C99.486 58.767 99.7688 60.0781 99.6916 61.3892L99.4089 66.9934C99.3574 68.2274 98.9975 69.4099 98.3805 70.5411C97.7121 71.7493 96.7867 72.7262 95.6298 73.4203C95.6298 73.4203 95.6041 73.4203 95.6041 73.446C94.3702 74.1401 92.982 74.5257 91.4909 74.5257Z" fill="#FBF89F"/>
<path d="M101.518 75.1719C101.364 75.1719 101.21 75.1719 101.055 75.1462C99.2559 74.9662 97.4307 74.8377 95.6311 74.7348C94.2429 74.6577 92.9575 73.9893 92.0835 72.9096L91.9292 72.7297C91.158 71.7785 90.7724 70.5702 90.8495 69.3362L91.5179 58.1791C91.595 56.9709 92.1092 55.8398 92.9575 54.9657L93.1632 54.7857C94.1658 53.8089 95.5283 53.269 96.9422 53.3718C98.9988 53.5004 101.055 53.6546 103.112 53.8603C104.423 53.9888 105.631 54.6315 106.48 55.6598L106.66 55.8912C107.482 56.8938 107.868 58.1791 107.739 59.4645L107.611 60.8527C107.508 61.8039 107.148 62.7294 106.557 63.4492C106.583 63.7063 106.583 63.9634 106.557 64.2204L106.428 65.6344C106.403 65.9171 106.351 66.1742 106.274 66.457C106.711 67.3054 106.891 68.2565 106.814 69.2077L106.685 70.5959C106.557 71.907 105.914 73.1153 104.912 73.9379L104.732 74.0922C103.78 74.7863 102.649 75.1719 101.518 75.1719Z" fill="#FBF89F"/>
<path d="M108.845 76.0439C108.614 76.0439 108.383 76.0182 108.151 75.9925C107.689 75.941 107.252 75.8639 106.789 75.8125C106.326 75.7611 105.889 75.6326 105.478 75.4526C105.041 75.5297 104.578 75.5297 104.115 75.4783C103.652 75.4269 103.215 75.3755 102.753 75.3241C101.364 75.1698 100.131 74.45 99.3079 73.3446L99.1536 73.1389C98.4338 72.1363 98.0996 70.9281 98.2282 69.6941L99.385 58.5884C99.5135 57.3802 100.079 56.249 100.979 55.4521L101.185 55.2721C102.213 54.321 103.627 53.8839 105.015 54.0382C106.043 54.141 107.072 54.2695 108.1 54.3981C108.923 54.5009 109.745 54.758 110.645 55.195C112.419 56.0434 113.756 57.4573 114.527 59.3082C114.552 59.3339 114.552 59.3853 114.578 59.4111C115.144 60.825 115.298 62.3931 115.067 64.0384C114.861 65.5295 114.347 66.8663 113.601 67.9717C113.73 68.6658 113.833 69.3856 113.961 70.0797C114.218 71.6993 113.678 73.3446 112.496 74.45L112.29 74.6557C111.313 75.5554 110.105 76.0439 108.845 76.0439Z" fill="#FBF89F"/>
<path d="M72.619 58.6665C71.8478 58.6665 71.128 58.3837 70.5367 57.8953L70.3567 57.741C69.714 57.2012 69.3284 56.4299 69.277 55.5816L68.7629 49.0262C68.3515 48.9233 67.9659 48.7434 67.606 48.512L67.4004 48.3578C66.6548 47.8179 66.1664 46.9953 66.0893 46.0698L65.9607 44.6816C65.8836 43.8589 66.1407 43.0363 66.6548 42.3936L66.8348 42.1622C67.3747 41.4938 68.1716 41.0825 69.0199 41.0054C71.2051 40.7997 73.4416 40.6455 75.6268 40.5426C76.4751 40.4912 77.3235 40.7997 77.9662 41.391L78.1718 41.571C78.7631 42.1365 79.1487 42.9077 79.1745 43.7304L79.2516 45.1186C79.303 46.0441 78.9431 46.9181 78.3004 47.5608L78.1204 47.7408C77.812 48.0493 77.452 48.2806 77.0664 48.4092L77.5035 54.9646C77.5549 55.813 77.2721 56.6356 76.7322 57.2526L76.578 57.4325C76.0124 58.0752 75.2412 58.4608 74.3928 58.5123C73.8787 58.538 73.3902 58.5894 72.8761 58.6151C72.7733 58.6665 72.6961 58.6665 72.619 58.6665Z" fill="#1D1D1B"/>
<path d="M78.278 58.3326C77.481 58.3326 76.7098 58.0241 76.1185 57.4842L75.9386 57.33C75.3216 56.7644 74.9617 55.9675 74.9103 55.1448L74.3961 43.9877C74.3704 43.1651 74.6532 42.3681 75.1931 41.7512L75.373 41.5455C75.9386 40.9028 76.7612 40.5172 77.6096 40.4915C79.7947 40.3886 82.0313 40.3372 84.2421 40.3115H84.2678C85.0648 40.3115 85.836 40.62 86.4016 41.1342L86.6073 41.3398C87.2499 41.9311 87.6099 42.7795 87.6356 43.6535V45.0417C87.6356 45.9415 87.2756 46.7641 86.633 47.3811C86.7872 47.741 86.8643 48.1266 86.8643 48.538L86.89 49.9519C86.89 50.3632 86.8129 50.7488 86.6844 51.1344C87.3271 51.7257 87.7127 52.5741 87.7127 53.4481V54.8363C87.7127 55.7361 87.3528 56.5844 86.7101 57.1757L86.5301 57.3557C85.9388 57.8955 85.1933 58.204 84.3964 58.204C82.4169 58.2297 80.386 58.2811 78.3808 58.3583C78.3551 58.3326 78.3037 58.3326 78.278 58.3326Z" fill="#1D1D1B"/>
<path d="M92.1316 58.2558C92.1059 58.2558 92.0545 58.2558 92.0288 58.2558C91.5146 58.23 91.0262 58.23 90.512 58.2043C89.9979 58.1786 89.4837 58.0501 89.021 57.793C88.5582 58.0244 88.0441 58.1529 87.5299 58.1529C87.0158 58.1529 86.5273 58.1529 86.0132 58.1529C85.0877 58.1529 84.1879 57.7416 83.571 57.0218L83.391 56.8161C82.774 56.0706 82.5169 55.0937 82.6969 54.1425C83.4681 50.4149 84.2651 46.6359 85.1391 42.9083C85.2934 42.2399 85.6533 41.6229 86.1931 41.1859L86.3731 41.0317C86.9644 40.5432 87.6842 40.2861 88.4554 40.2861C89.021 40.2861 89.5608 40.3118 90.1264 40.3118C90.8976 40.3375 91.6174 40.6203 92.183 41.1345L92.3629 41.3144C92.8771 41.7772 93.2113 42.3942 93.3655 43.0626C94.0854 46.8159 94.7795 50.6206 95.4222 54.3739C95.5764 55.3251 95.2936 56.302 94.6509 57.0218L94.471 57.2274C93.8797 57.8701 93.0314 58.2558 92.1316 58.2558Z" fill="#1D1D1B"/>
<path d="M101.439 58.821C101.337 58.821 101.259 58.821 101.157 58.821C100.668 58.7696 100.154 58.7439 99.6655 58.6925C99.4084 58.6668 99.1771 58.6154 98.92 58.5382C98.6629 58.5897 98.4316 58.5897 98.1745 58.564C97.6603 58.5382 97.1719 58.4868 96.6577 58.4611C96.4006 58.4354 96.1436 58.4097 95.9122 58.3326C95.6551 58.384 95.4237 58.384 95.1667 58.384C94.6782 58.3583 94.1641 58.3326 93.6756 58.3069C92.8787 58.2812 92.1332 57.947 91.5676 57.3814L91.3877 57.2015C90.745 56.5845 90.4108 55.7104 90.4622 54.8106L90.9506 43.6535C90.9763 42.7795 91.3877 41.9568 92.0561 41.3913L92.2874 41.2113C92.9044 40.6972 93.7013 40.4144 94.4983 40.4401C95.3209 40.4658 96.1436 40.5172 96.9662 40.5686C97.5575 40.5943 98.0974 40.8 98.5858 41.1085C99.0999 40.8514 99.6655 40.7229 100.257 40.7743C101.079 40.8257 101.902 40.9028 102.725 40.98C103.47 41.0571 104.19 41.3913 104.73 41.9311L104.936 42.1625C105.578 42.8309 105.912 43.7307 105.835 44.6561L104.858 55.7875C104.781 56.713 104.293 57.5614 103.522 58.1012L103.29 58.2555C102.725 58.6154 102.082 58.821 101.439 58.821Z" fill="#1D1D1B"/>
<path d="M63.3155 74.27C62.5699 74.27 61.8759 74.013 61.2846 73.5502L61.1046 73.396C60.4876 72.8818 60.102 72.1877 59.9735 71.3908L58.4053 60.3365C58.3025 59.5653 58.4824 58.7683 58.8938 58.1257L59.048 57.8943C59.5622 57.1488 60.3591 56.6346 61.2332 56.5318C62.2357 56.3775 63.2641 56.249 64.2667 56.1205C65.295 55.9919 66.349 56.1205 67.3516 56.5061C68.4056 56.9174 69.3053 57.5344 69.9737 58.3827L69.9994 58.4084C70.745 59.3596 71.2077 60.5422 71.3363 61.879C71.4391 62.8302 71.362 63.6528 71.182 64.3469C71.4905 64.9896 71.7476 65.7865 71.8504 66.7377C72.1075 69.2056 71.2334 71.288 69.4082 72.6505C68.5084 73.3189 67.5058 73.7302 66.4775 73.8587C65.5777 73.9615 64.6523 74.0901 63.7525 74.2186C63.5983 74.27 63.4697 74.27 63.3155 74.27Z" fill="#1D1D1B"/>
<path d="M73.0302 73.1899C70.8707 73.1899 69.0969 72.2387 67.9658 70.4392C67.4002 69.5394 67.066 68.5883 66.9632 67.6114L66.1662 59.2564C66.0891 58.4852 66.2948 57.7139 66.7575 57.0713L66.9117 56.8656C67.4516 56.1458 68.2742 55.683 69.174 55.5802C69.6882 55.5288 70.2023 55.4774 70.7165 55.4517C71.2563 55.4003 71.7705 55.5031 72.2589 55.7087C72.696 55.426 73.2101 55.246 73.75 55.2203C74.2641 55.1946 74.7783 55.1432 75.2924 55.1175C76.1922 55.0661 77.0662 55.4003 77.7089 56.0172L77.8889 56.1972C78.4545 56.7371 78.7887 57.4826 78.8144 58.2538L79.3285 66.6345C79.3799 67.5857 79.2257 68.5368 78.8401 69.4366C78.4287 70.4392 77.8118 71.2619 76.9891 71.9045C76.0122 72.6244 74.9068 73.0357 73.6214 73.1385C73.4158 73.1642 73.2358 73.1899 73.0302 73.1899Z" fill="#1D1D1B"/>
<path d="M77.9919 72.8819C77.1435 72.8819 76.3466 72.5477 75.7553 71.9564L75.601 71.8022C75.0355 71.2366 74.7013 70.4911 74.6756 69.7199L74.11 58.5628C74.0586 57.7916 74.3157 57.0203 74.8041 56.4033L74.9584 56.1977C75.5239 55.5036 76.3723 55.0666 77.272 55.0151C77.7862 54.9894 78.3003 54.9637 78.8145 54.938C79.6628 54.9123 80.4855 55.2208 81.1025 55.7864L81.3081 55.9663C81.9251 56.5319 82.285 57.3288 82.3107 58.1515L82.7478 69.3086C82.7735 70.1569 82.465 70.9796 81.8994 71.5965L81.7452 71.7765C81.1796 72.3935 80.3827 72.7534 79.5343 72.8048C79.0716 72.8305 78.6088 72.8562 78.1461 72.8562C78.0947 72.8819 78.0433 72.8819 77.9919 72.8819Z" fill="#1D1D1B"/>
<path d="M81.26 72.7539C80.4116 72.7539 79.589 72.394 78.972 71.777L78.8178 71.5971C78.2779 71.0315 77.9437 70.286 77.918 69.489L77.5838 58.3319C77.5581 57.5607 77.8152 56.7895 78.3293 56.1982L78.5093 55.9925C79.1006 55.2984 79.9489 54.8871 80.8487 54.8614C81.3628 54.8357 81.877 54.8357 82.3911 54.81C83.2395 54.7843 84.0621 55.1185 84.6791 55.7097L84.8848 55.9154C85.476 56.5067 85.8102 57.2779 85.836 58.1263L85.9645 64.6046C86.2987 64.6046 86.6072 64.6046 86.9414 64.6046C87.7126 64.6046 88.4838 64.9131 89.0494 65.4272L89.2293 65.6072C89.8977 66.2242 90.2577 67.0725 90.2577 67.9723V69.3605C90.2577 70.2088 89.9235 71.0058 89.3065 71.5971L89.1265 71.777C88.5352 72.3683 87.7383 72.7025 86.89 72.7025C86.89 72.7025 86.89 72.7025 86.8643 72.7025C85.039 72.7025 83.1881 72.7282 81.3628 72.7796C81.3114 72.7539 81.2857 72.7539 81.26 72.7539Z" fill="#1D1D1B"/>
<path d="M91.4875 72.7541C91.4104 72.7541 91.3333 72.7541 91.2561 72.7541C90.3564 72.7284 89.4309 72.7027 88.5054 72.677C87.6056 72.6513 86.7573 72.2657 86.166 71.5973L86.0118 71.4173C85.4976 70.826 85.2148 70.0548 85.2148 69.2579L85.3691 58.1008C85.3691 57.3295 85.6776 56.584 86.2174 55.9928L86.3974 55.7871C86.9887 55.1444 87.837 54.7588 88.7368 54.7588C88.7625 54.7588 88.7625 54.7588 88.7882 54.7588C89.8165 54.7845 90.8448 54.8102 91.8474 54.8359C94.341 54.913 96.3462 56.1727 97.3231 58.255C97.7859 59.2319 98.0172 60.2602 97.9658 61.2628L97.683 66.8671C97.6316 67.8182 97.3745 68.7694 96.8861 69.6435C96.372 70.569 95.6521 71.3145 94.7781 71.8543C93.7498 72.4713 92.6701 72.7541 91.4875 72.7541Z" fill="#1D1D1B"/>
<path d="M101.517 73.3968C101.414 73.3968 101.312 73.3968 101.209 73.3711C99.3834 73.1911 97.5325 73.0626 95.7072 72.934C94.8075 72.8826 93.9849 72.4456 93.4193 71.7515L93.265 71.5715C92.7766 70.9546 92.5195 70.1833 92.5709 69.3864L93.2393 58.2293C93.2907 57.4581 93.6249 56.7125 94.1648 56.1727L94.3448 55.9927C94.9874 55.35 95.8615 55.0158 96.7613 55.093C98.7922 55.2215 100.849 55.3757 102.88 55.5814C103.728 55.6585 104.499 56.0699 105.039 56.7382L105.219 56.9696C105.733 57.6123 105.99 58.435 105.913 59.2576L105.785 60.6458C105.708 61.4942 105.27 62.2911 104.602 62.831C104.731 63.2166 104.756 63.6279 104.731 64.0392L104.602 65.4531C104.551 65.8644 104.448 66.2758 104.242 66.6357C104.808 67.2784 105.065 68.1524 104.988 69.0008L104.859 70.389C104.782 71.2373 104.371 72.0086 103.702 72.5484L103.497 72.7027C102.957 73.1654 102.263 73.3968 101.517 73.3968Z" fill="#1D1D1B"/>
<path d="M108.842 74.2712C108.688 74.2712 108.534 74.2712 108.405 74.2455C107.942 74.1684 107.48 74.117 107.043 74.0655C106.58 74.0141 106.117 73.8342 105.732 73.5771C105.294 73.7313 104.806 73.7828 104.343 73.7313C103.881 73.6799 103.418 73.6285 102.955 73.5771C102.081 73.4743 101.258 73.0115 100.744 72.2917L100.59 72.0861C100.127 71.4434 99.8959 70.6721 99.9987 69.8752L101.156 58.7695C101.233 57.9983 101.593 57.2785 102.184 56.7386L102.39 56.5587C103.058 55.9674 103.958 55.6589 104.857 55.7617C105.86 55.8646 106.888 55.9931 107.891 56.1216C108.508 56.1988 109.176 56.4044 109.87 56.7643C111.233 57.407 112.287 58.5381 112.904 59.9778C112.904 60.0035 112.93 60.0292 112.93 60.0549C113.367 61.186 113.495 62.4457 113.315 63.8082C113.11 65.2735 112.57 66.5589 111.747 67.5358C111.927 68.487 112.081 69.4382 112.236 70.3894C112.415 71.4177 112.056 72.4717 111.284 73.2172L111.079 73.4228C110.436 73.9627 109.639 74.2712 108.842 74.2712Z" fill="#1D1D1B"/>
<path d="M76.016 43.9088C76.0417 44.3715 76.0674 44.8343 76.0931 45.297C76.0417 45.3484 75.9645 45.4255 75.9131 45.4769C75.1676 45.5284 74.4221 45.5541 73.7023 45.6055C73.9079 48.7932 74.1393 52.0067 74.345 55.1944C74.2935 55.2458 74.2421 55.323 74.1907 55.3744C73.6766 55.4001 73.1624 55.4515 72.6483 55.4772C72.5968 55.4258 72.5197 55.3744 72.4683 55.323C72.2112 52.1352 71.9799 48.9218 71.7228 45.734C70.9773 45.7854 70.2318 45.8626 69.5119 45.914C69.4348 45.8626 69.3834 45.8111 69.3063 45.7597C69.2549 45.297 69.2291 44.8343 69.1777 44.3715C69.2291 44.2944 69.2806 44.2173 69.3577 44.1659C71.5171 43.9602 73.7023 43.806 75.8617 43.7031C75.8874 43.7802 75.9645 43.8317 76.016 43.9088Z" fill="#FBF89F"/>
<path d="M79.6666 45.2962C79.6923 46.3502 79.7437 47.3786 79.7694 48.4326C81.0291 48.3812 82.2631 48.3554 83.5228 48.3297C83.5999 48.3812 83.6513 48.4583 83.7284 48.5097C83.7284 48.9724 83.7284 49.4609 83.7541 49.9236C83.677 49.975 83.6256 50.0264 83.5485 50.0779C82.3145 50.1036 81.0805 50.1293 79.8466 50.155C79.8723 51.209 79.9237 52.263 79.9494 53.317C81.4147 53.2656 82.9058 53.2399 84.3711 53.2142C84.4482 53.2656 84.4997 53.317 84.5768 53.3684C84.5768 53.8312 84.5768 54.2939 84.5768 54.7566C84.4997 54.8081 84.4482 54.8852 84.3711 54.9366C82.3402 54.9623 80.2836 55.0137 78.2527 55.0908C78.2013 55.0394 78.1242 54.988 78.0727 54.9109C77.8928 51.1833 77.7385 47.4814 77.5586 43.7538C77.61 43.6767 77.6872 43.6252 77.7386 43.5481C79.898 43.4453 82.0831 43.3939 84.2426 43.3682C84.3197 43.4453 84.3711 43.4967 84.4482 43.5738C84.4482 44.0366 84.4482 44.4993 84.4482 44.962C84.3711 45.0135 84.3197 45.0649 84.2426 45.1163C82.7515 45.2191 81.2091 45.2448 79.6666 45.2962Z" fill="#FBF89F"/>
<path d="M90.256 43.6513C90.9758 47.3789 91.6699 51.1322 92.2869 54.8855C92.2355 54.9627 92.1584 55.0141 92.107 55.0912C91.5928 55.0655 91.0787 55.0655 90.5645 55.0398C90.5131 54.9884 90.436 54.937 90.3846 54.8855C90.3074 54.4742 90.2303 54.0372 90.1532 53.6259C89.4334 53.6002 88.7136 53.6002 87.9937 53.6002C87.8909 54.0115 87.8138 54.4485 87.711 54.8598C87.6595 54.9113 87.5824 54.9627 87.531 55.0141C87.0169 55.0141 86.5027 55.0141 85.9886 55.0141C85.9372 54.937 85.86 54.8598 85.8086 54.8084C86.5798 51.0808 87.3768 47.3532 88.2251 43.6513C88.2765 43.5999 88.3537 43.5485 88.4051 43.4971C88.9449 43.4971 89.4848 43.5228 90.0503 43.5228C90.1532 43.5485 90.2046 43.5999 90.256 43.6513ZM89.1763 48.3044C88.8935 49.4869 88.6364 50.6438 88.3794 51.8263C88.8678 51.8263 89.382 51.852 89.8704 51.852C89.639 50.6695 89.4077 49.4869 89.1763 48.3044Z" fill="#FBF89F"/>
<path d="M102.648 44.3715C102.314 48.0734 102.005 51.801 101.671 55.5029C101.594 55.5543 101.517 55.6057 101.44 55.6571C100.926 55.6057 100.437 55.58 99.9231 55.5286C99.8716 55.4515 99.8202 55.4001 99.7688 55.3229C99.9231 53.472 100.052 51.621 100.206 49.7701C99.666 51.5953 99.1518 53.4463 98.6377 55.2715C98.5606 55.3229 98.5092 55.3486 98.432 55.4001C97.9179 55.3744 97.4037 55.3229 96.8896 55.2972C96.8382 55.2458 96.7867 55.1944 96.7096 55.143C96.4525 53.2663 96.1698 51.364 95.8613 49.4873C95.7584 51.3383 95.6556 53.1892 95.5528 55.0402C95.4756 55.0916 95.4242 55.143 95.3471 55.2201C94.833 55.1944 94.3445 55.1687 93.8304 55.143C93.7789 55.0916 93.7018 55.0144 93.6504 54.963C93.8046 51.2354 93.9589 47.5335 94.1388 43.8059C94.216 43.7545 94.2931 43.6774 94.3445 43.626C95.1672 43.6517 95.9641 43.7031 96.7867 43.7545C96.8639 43.8059 96.9153 43.8831 96.9924 43.9345C97.3266 46.1453 97.6608 48.3305 97.9693 50.5413C98.5606 48.4076 99.1775 46.2482 99.8202 44.1144C99.8973 44.063 99.9488 44.0116 100.026 43.9602C100.849 44.0116 101.645 44.0887 102.468 44.1658C102.52 44.2173 102.597 44.2944 102.648 44.3715Z" fill="#FBF89F"/>
<path d="M68.2266 62.2113C68.3295 63.2653 68.1238 64.1137 67.5582 64.7563C68.2266 65.2448 68.6122 66.0417 68.7151 67.0957C68.8436 68.4325 68.458 69.4608 67.5325 70.1292C67.0698 70.4634 66.607 70.6691 66.0929 70.7205C65.1674 70.8233 64.2419 70.9519 63.3165 71.0804C63.265 71.029 63.1879 70.9776 63.1365 70.9262C62.6224 67.25 62.0825 63.5481 61.5684 59.8719C61.6198 59.7948 61.6712 59.7177 61.7226 59.6405C62.7252 59.512 63.7021 59.3578 64.7047 59.2549C65.2188 59.1778 65.7587 59.2549 66.2728 59.4606C66.787 59.6662 67.224 59.949 67.5582 60.3603C67.9181 60.8745 68.1495 61.4658 68.2266 62.2113ZM65.296 64.1394C65.5787 64.0622 65.7844 63.9851 65.9387 63.8823C66.0929 63.7795 66.1957 63.6252 66.2986 63.3938C66.4014 63.1368 66.4271 62.8283 66.4014 62.417C66.3242 61.8 66.0672 61.3629 65.6301 61.1316C65.3988 61.0287 65.1674 60.9773 64.936 61.003C64.499 61.0545 64.0877 61.1059 63.6507 61.1573C63.7792 62.1856 63.9334 63.2396 64.062 64.2679C64.4476 64.2422 64.8846 64.1908 65.296 64.1394ZM65.913 68.9981C66.4014 68.8439 66.7356 68.5868 66.8641 68.2269C66.967 67.9698 66.9927 67.6613 66.967 67.2757C66.8898 66.6587 66.6328 66.2217 66.1957 65.9903C65.9644 65.8875 65.733 65.8361 65.5273 65.8618C65.116 65.9132 64.7047 65.9646 64.2934 66.016C64.4219 67.07 64.5761 68.0983 64.7047 69.1524C65.0903 69.1009 65.5016 69.0495 65.913 68.9981Z" fill="#FBF89F"/>
<path d="M75.6561 58.4576C75.8361 61.2597 75.9903 64.0362 76.1702 66.8383C76.196 67.3267 76.1188 67.7895 75.9132 68.2522C75.7332 68.715 75.4247 69.1006 75.0648 69.3834C74.6021 69.7433 74.0365 69.9232 73.3681 69.9746C72.1342 70.0775 71.2344 69.6661 70.6431 68.715C70.3346 68.2522 70.1804 67.7638 70.129 67.2753C69.8719 64.4989 69.5891 61.7225 69.332 58.9204C69.3834 58.8432 69.4349 58.7661 69.4863 58.7147C70.0004 58.6633 70.4889 58.6119 71.003 58.5862C71.0544 58.6376 71.1316 58.7147 71.183 58.7661C71.4144 61.5682 71.6714 64.3447 71.9028 67.1468C72.0056 67.5324 72.1599 67.8152 72.3398 67.9951C72.5198 68.1751 72.8283 68.2779 73.2396 68.2522C73.7281 68.2265 74.0623 67.9951 74.2679 67.6095C74.3707 67.4039 74.4222 67.1725 74.3964 66.9154C74.1908 64.139 74.0108 61.3369 73.8052 58.5604C73.8566 58.4833 73.908 58.4319 73.9594 58.3548C74.4736 58.3291 74.962 58.2777 75.4762 58.252C75.5276 58.3291 75.6047 58.4062 75.6561 58.4576Z" fill="#FBF89F"/>
<path d="M79.1269 58.2792C79.2812 62.0068 79.4355 65.7087 79.564 69.4363C79.5126 69.4877 79.4354 69.5649 79.384 69.6163C78.9213 69.642 78.4328 69.6677 77.9701 69.6677C77.9187 69.6163 77.8673 69.5649 77.7902 69.4877C77.6102 65.7601 77.4046 62.0582 77.2246 58.3306C77.276 58.2535 77.3274 58.2021 77.3788 58.125C77.893 58.0993 78.3815 58.0736 78.8956 58.0479C78.9984 58.1764 79.0755 58.2278 79.1269 58.2792Z" fill="#FBF89F"/>
<path d="M87.0445 67.9192C87.0445 68.382 87.0445 68.8447 87.0445 69.3074C86.993 69.3589 86.9159 69.436 86.8645 69.4874C84.9879 69.4874 83.1112 69.5131 81.2602 69.5645C81.2088 69.5131 81.1574 69.436 81.0803 69.3846C80.9775 65.657 80.8489 61.9551 80.7461 58.2275C80.7975 58.1503 80.8489 58.0989 80.926 58.0218C81.4402 57.9961 81.9286 57.9961 82.4428 57.9961C82.5199 58.0475 82.5713 58.1246 82.6485 58.1761C82.6999 61.3895 82.777 64.5772 82.8284 67.7907C84.1909 67.765 85.5277 67.765 86.8902 67.765C86.9416 67.8164 86.993 67.8678 87.0445 67.9192Z" fill="#FBF89F"/>
<path d="M91.7225 58.0478C93.0593 58.0992 93.9591 58.6391 94.4475 59.6674C94.6789 60.1816 94.8074 60.67 94.7817 61.1584C94.6789 63.0351 94.6018 64.886 94.4989 66.7627C94.4732 67.2511 94.3447 67.7139 94.0876 68.1509C93.8305 68.5879 93.522 68.9478 93.1107 69.1792C92.6223 69.4877 92.031 69.6162 91.3626 69.5905C90.4372 69.5648 89.486 69.5391 88.5605 69.5134C88.5091 69.462 88.4577 69.3849 88.4062 69.3335C88.4577 65.6059 88.5091 61.8783 88.5605 58.1764C88.6119 58.0992 88.689 58.0478 88.7404 57.9707C89.7173 57.9964 90.7199 58.0221 91.7225 58.0478ZM92.6994 66.6599C92.7765 64.7832 92.8537 62.9066 92.9308 61.0556C92.8794 60.67 92.7508 60.3615 92.5709 60.1558C92.3909 59.9245 92.0824 59.8216 91.6711 59.7959C91.2341 59.7702 90.8228 59.7702 90.3857 59.7702C90.3086 62.4438 90.2572 65.1431 90.18 67.8167C90.5914 67.8167 91.0027 67.8424 91.414 67.8424C91.9025 67.8681 92.2624 67.6882 92.4937 67.3283C92.6223 67.1226 92.6737 66.9169 92.6994 66.6599Z" fill="#FBF89F"/>
<path d="M98.2023 60.129C98.1252 61.183 98.048 62.2113 97.9709 63.2653C99.1278 63.3424 100.259 63.4452 101.416 63.5481C101.467 63.6252 101.519 63.6766 101.596 63.7537C101.544 64.2165 101.519 64.6792 101.467 65.1676C101.39 65.2191 101.339 65.2705 101.262 65.3219C100.13 65.2191 98.9992 65.1162 97.8424 65.0391C97.7653 66.0931 97.6881 67.1471 97.611 68.2011C98.9735 68.304 100.31 68.4068 101.673 68.5353C101.724 68.5868 101.776 68.6639 101.827 68.7153C101.776 69.178 101.75 69.6408 101.699 70.1035C101.621 70.1549 101.57 70.2063 101.493 70.2577C99.6162 70.0778 97.7653 69.9235 95.8886 69.8207C95.8372 69.7693 95.7858 69.6922 95.7344 69.6408C95.9657 65.9132 96.1714 62.2113 96.4028 58.4837C96.4542 58.4323 96.5313 58.3551 96.5827 58.3037C98.5879 58.4322 100.593 58.5865 102.573 58.7664C102.624 58.8436 102.701 58.9207 102.753 58.9721C102.701 59.4348 102.675 59.8976 102.624 60.3603C102.547 60.4117 102.495 60.4632 102.418 60.5146C101.03 60.3603 99.6162 60.2318 98.2023 60.129Z" fill="#FBF89F"/>
<path d="M110.13 63.3436C109.924 64.8089 109.281 65.7601 108.253 66.2485C108.536 67.791 108.819 69.3335 109.076 70.9016C108.999 70.9787 108.947 71.0302 108.87 71.1073C108.407 71.0302 107.945 70.9787 107.456 70.9273C107.405 70.8759 107.353 70.8245 107.302 70.7731C107.071 69.3849 106.814 67.971 106.531 66.5827C106.119 66.5313 105.734 66.4799 105.322 66.4285C105.168 67.7653 105.014 69.0764 104.86 70.4132C104.783 70.4646 104.731 70.516 104.654 70.5674C104.191 70.516 103.729 70.4646 103.24 70.4132C103.189 70.3361 103.137 70.2846 103.086 70.2075C103.472 66.5056 103.857 62.8037 104.243 59.1018C104.32 59.0504 104.371 58.9733 104.448 58.9219C105.451 59.0247 106.454 59.1532 107.431 59.2561C107.688 59.2818 108.022 59.4103 108.407 59.5903C109.076 59.8988 109.59 60.4386 109.898 61.1841C110.181 61.8268 110.233 62.5209 110.13 63.3436ZM106.762 64.8346C106.968 64.8603 107.173 64.7832 107.405 64.6547C107.893 64.3976 108.176 63.8577 108.279 63.0608C108.382 62.2639 108.253 61.6726 107.868 61.3127C107.662 61.1327 107.456 61.0042 107.251 60.9785C106.814 60.9271 106.402 60.8757 105.965 60.8242C105.811 62.1096 105.657 63.395 105.528 64.6547C105.939 64.7575 106.351 64.7832 106.762 64.8346Z" fill="#FBF89F"/>
<defs>
<linearGradient id="paint0_linear_1580_9341" x1="28.021" y1="85.3814" x2="86.0106" y2="85.3814" gradientUnits="userSpaceOnUse">
<stop stop-color="white"/>
<stop offset="0.297" stop-color="#FCFCFC"/>
<stop offset="0.5129" stop-color="#F4F4F3"/>
<stop offset="0.703" stop-color="#E6E6E3"/>
<stop offset="0.8772" stop-color="#D3D3CD"/>
<stop offset="1" stop-color="#C1C1B8"/>
</linearGradient>
</defs>
</svg>
