<svg width="16" height="16" viewBox="0 0 16 16" fill="none" xmlns="http://www.w3.org/2000/svg">
<circle cx="8" cy="8" r="7.5" stroke="white"/>
<path d="M11.3057 5.10213V10.9064L11.2035 11H10.4801L10.395 10.9064V8.01277L9.85033 10.9234L9.75672 11H9.0248L8.93969 10.9234L8.39501 8.01277V10.9064L8.3014 11H7.57799L7.48438 10.9064V5.10213L7.57799 5H8.66735L8.76097 5.08511L9.39076 8.48085L10.0291 5.08511L10.1142 5H11.2035L11.3057 5.10213Z" fill="white"/>
<path d="M6.78398 5.10213V5.82553L6.69887 5.91064H5.69461V10.9064L5.60951 11H4.87759L4.79249 10.9064V5.91064H3.78823L3.70312 5.82553V5.10213L3.78823 5H6.69887L6.78398 5.10213Z" fill="white"/>
</svg>
