<svg width="173" height="147" viewBox="0 0 173 147" fill="none" xmlns="http://www.w3.org/2000/svg">
<path d="M17.3334 133.667C12.7501 133.667 8.82647 132.035 5.56258 128.771C2.29869 125.508 0.666748 121.584 0.666748 117.001V17.0007C0.666748 12.4173 2.29869 8.49371 5.56258 5.22982C8.82647 1.96593 12.7501 0.333984 17.3334 0.333984H150.667C155.25 0.333984 159.174 1.96593 162.438 5.22982C165.701 8.49371 167.333 12.4173 167.333 17.0007V46.3757C167.333 48.5979 166.917 50.7159 166.083 52.7298C165.25 54.7437 164.07 56.5145 162.542 58.0423L117.125 103.459L105.042 91.3757C101.847 88.1812 97.889 86.584 93.1668 86.584C88.4445 86.584 84.4862 88.1812 81.2918 91.3757L69.8334 102.834C66.5001 106.167 65.1459 110.265 65.7709 115.126C66.3959 119.987 68.3056 124.292 71.5001 128.042C72.4723 129.153 72.6806 130.369 72.1251 131.688C71.5695 133.008 70.5279 133.667 69.0001 133.667H17.3334ZM84.0001 58.6673L28.1667 23.6673C25.8056 22.1395 23.4098 22.0701 20.9792 23.459C18.5487 24.8479 17.3334 26.9312 17.3334 29.709C17.3334 30.959 17.6112 32.1048 18.1667 33.1465C18.7223 34.1882 19.5556 35.0562 20.6667 35.7507L79.6251 72.6257C81.014 73.459 82.4723 73.8757 84.0001 73.8757C85.5279 73.8757 86.9862 73.459 88.3751 72.6257L147.333 35.7507C148.445 35.0562 149.278 34.1882 149.833 33.1465C150.389 32.1048 150.667 30.959 150.667 29.709C150.667 26.9312 149.451 24.8479 147.021 23.459C144.59 22.0701 142.195 22.1395 139.833 23.6673L84.0001 58.6673ZM116.917 127.001L158.167 85.7507C159.695 84.2229 161.639 83.459 164 83.459C166.361 83.459 168.306 84.2229 169.833 85.7507C171.361 87.2784 172.125 89.2229 172.125 91.584C172.125 93.9451 171.361 95.8895 169.833 97.4173L122.75 144.501C121.917 145.334 121.014 145.959 120.042 146.376C119.07 146.792 118.028 147.001 116.917 147.001C115.806 147.001 114.764 146.792 113.792 146.376C112.82 145.959 111.917 145.334 111.083 144.501L87.3334 120.751C85.8056 119.223 85.0418 117.278 85.0418 114.917C85.0418 112.556 85.8056 110.612 87.3334 109.084C88.8612 107.556 90.8056 106.792 93.1668 106.792C95.5279 106.792 97.4723 107.556 99.0001 109.084L116.917 127.001Z" fill="#00038F"/>
</svg>
