<svg width="40" height="40" viewBox="0 0 40 40" fill="none" xmlns="http://www.w3.org/2000/svg">
<g clip-path="url(#clip0_625_5017)">
<path d="M36.5748 6.57227H3.43192C1.69617 6.57227 0.289062 7.97937 0.289062 9.71512V30.2866C0.289062 32.0223 1.69617 33.4294 3.43192 33.4294H36.5748C38.3105 33.4294 39.7176 32.0223 39.7176 30.2866V9.71512C39.7176 7.97937 38.3105 6.57227 36.5748 6.57227Z" fill="white" stroke="#D9D9D9"/>
<path fill-rule="evenodd" clip-rule="evenodd" d="M12.1409 24.8666H9.71771L7.90057 17.9341C7.81434 17.6153 7.6312 17.3333 7.36183 17.2005C6.68954 16.8666 5.94874 16.6008 5.14062 16.4668V16.1999H9.04422C9.58302 16.1999 9.98708 16.6008 10.0544 17.0665L10.9973 22.067L13.4193 16.1999H15.7751L12.1409 24.8666ZM17.1221 24.8666H14.8335L16.718 16.1999H19.0065L17.1221 24.8666ZM21.9673 18.6008C22.0347 18.1341 22.4387 17.8671 22.9102 17.8671C23.651 17.8001 24.4579 17.9342 25.1314 18.2669L25.5354 16.4009C24.8619 16.134 24.1212 16 23.4489 16C21.2277 16 19.6114 17.2005 19.6114 18.8666C19.6114 20.1341 20.7563 20.7995 21.5645 21.2005C22.4387 21.6002 22.7755 21.8671 22.7081 22.2669C22.7081 22.8666 22.0347 23.1335 21.3624 23.1335C20.5543 23.1335 19.7461 22.9336 19.0065 22.5997L18.6025 24.4668C19.4106 24.7995 20.2849 24.9336 21.093 24.9336C23.5836 24.9994 25.1314 23.8001 25.1314 22C25.1314 19.7331 21.9673 19.6002 21.9673 18.6008ZM33.1406 24.8666L31.3235 16.1999H29.3717C28.9676 16.1999 28.5635 16.4668 28.4289 16.8666L25.064 24.8666H27.4199L27.8901 23.6002H30.7847L31.0541 24.8666H33.1406ZM29.7084 18.5338L30.3807 21.8001H28.4962L29.7084 18.5338Z" fill="#172B85"/>
</g>
<defs>
<clipPath id="clip0_625_5017">
<rect width="40" height="40" fill="white"/>
</clipPath>
</defs>
</svg>
