<svg width="40" height="40" viewBox="0 0 40 40" fill="none" xmlns="http://www.w3.org/2000/svg">
<g clip-path="url(#clip0_705_6461)">
<path d="M27.0314 18.228C26.7713 18.081 26.4412 18.1726 26.2941 18.4327C26.1471 18.6927 26.2386 19.0237 26.4991 19.1707C26.8986 19.3982 27.1424 19.652 27.3036 19.9143C26.6364 20.1487 26.045 20.2451 25.5224 20.2451C24.7577 20.2444 24.1321 20.0425 23.6046 19.7332C23.0785 19.4232 22.6531 18.9994 22.3305 18.5596C21.7988 17.8348 21.107 17.1891 20.2916 16.7181C19.4774 16.2485 18.5354 15.9551 17.5245 15.9551C16.638 15.9545 15.7038 16.1827 14.7781 16.691C14.3997 16.8984 14.0717 17.1412 13.786 17.4061C12.6599 17.8396 11.6896 17.9956 10.8687 17.9956C9.69924 17.9956 8.82565 17.6814 8.24158 17.3727C7.94994 17.2188 7.73182 17.0655 7.59065 16.9545C7.51987 16.8984 7.4683 16.8539 7.43627 16.8248L7.40299 16.7929L7.39776 16.788H7.39752C7.1901 16.5751 6.84885 16.5696 6.63416 16.7763C6.41916 16.9836 6.41291 17.3263 6.62033 17.5413C6.65049 17.5718 7.0226 17.9526 7.73494 18.3299C8.04674 18.495 8.42893 18.6573 8.87041 18.7898C8.75315 18.9548 8.59299 19.1962 8.41854 19.5034C8.08315 20.0951 7.69783 20.9254 7.50151 21.9048C7.44291 22.1974 7.63299 22.4826 7.92604 22.5415C8.21908 22.5997 8.50447 22.4096 8.56276 22.1163C8.72744 21.2916 9.06385 20.5585 9.36002 20.0376C9.50776 19.7768 9.64479 19.5694 9.7433 19.4299C9.79252 19.3599 9.83205 19.3065 9.85846 19.2718C9.87158 19.2551 9.88166 19.242 9.8876 19.2343L9.89385 19.2266L9.89455 19.2259L9.89487 19.2252C9.94479 19.1642 9.97815 19.0955 9.99713 19.0234C10.2725 19.0573 10.5617 19.0782 10.8687 19.0775C11.4378 19.0782 12.061 19.0109 12.7321 18.8584C12.3994 19.5755 12.2625 20.324 12.2621 21.0099C12.2635 21.7008 12.3949 22.3278 12.6294 22.8272C12.7573 23.0977 13.0802 23.2128 13.3503 23.0852C13.6205 22.9576 13.736 22.6344 13.608 22.3646V22.3639C13.4575 22.0504 13.343 21.5566 13.3448 21.0099C13.3444 20.4204 13.4717 19.7712 13.7769 19.1788C14.0838 18.5865 14.5603 18.0462 15.2987 17.6397C16.0779 17.2131 16.8218 17.0383 17.5245 17.0377C18.3245 17.0377 19.0781 17.2687 19.7509 17.6556C20.423 18.0434 21.0102 18.5892 21.4574 19.1995C21.851 19.7364 22.3776 20.2663 23.0553 20.6659C23.7315 21.0654 24.5618 21.3282 25.5224 21.3275C26.1581 21.3275 26.8486 21.2123 27.5901 20.9598L27.5918 20.9987C27.5918 21.2637 27.5506 21.505 27.5093 21.6756C27.4888 21.7609 27.4684 21.8283 27.4542 21.872C27.4469 21.8934 27.4413 21.9094 27.4379 21.9184L27.4348 21.9267L27.4345 21.928H27.4348C27.3252 22.2048 27.4601 22.5184 27.7368 22.6293C28.0142 22.7403 28.3295 22.605 28.4405 22.3276C28.4543 22.2888 28.6722 21.7484 28.6742 20.9986C28.6742 20.5685 28.5989 20.0636 28.3489 19.565C28.1006 19.0666 27.672 18.588 27.0314 18.228Z" fill="#00038F"/>
<path d="M28.2378 14.6134C26.7501 14.6134 25.5553 14.0654 24.7289 13.3482C24.3166 12.9903 23.9995 12.5901 23.7912 12.2073C23.5817 11.8237 23.4856 11.4588 23.487 11.1855C23.487 10.8866 23.2446 10.6445 22.9457 10.6445C22.6468 10.6445 22.4046 10.8866 22.4046 11.1855C22.406 11.6946 22.5652 12.2162 22.8406 12.724C23.1288 13.2526 23.5498 13.7658 24.0849 14.218C23.977 14.3678 23.8282 14.5607 23.6382 14.7673C23.2259 15.2175 22.6315 15.7162 21.9219 15.968C21.6403 16.0685 21.4936 16.3786 21.5942 16.6595C21.6948 16.9411 22.0045 17.0882 22.2858 16.9875C23.2488 16.6414 23.9698 16.0103 24.4588 15.4734C24.6766 15.2334 24.8462 15.0142 24.9714 14.8387C25.8669 15.3555 26.9728 15.6967 28.238 15.696C28.5366 15.696 28.7794 15.454 28.7794 15.155C28.7791 14.8562 28.5364 14.6134 28.2378 14.6134Z" fill="#00038F"/>
<path d="M24.6208 25.1991C23.6082 25.1991 22.8036 25.0035 22.1571 24.7046C21.1895 24.2552 20.5618 23.5644 20.1668 22.8755C19.9698 22.5322 19.8339 22.1903 19.7482 21.8899C19.6622 21.591 19.6285 21.3288 19.6292 21.17C19.6292 20.8711 19.3872 20.6289 19.0882 20.6289C18.7889 20.6289 18.5469 20.871 18.5469 21.17C18.5469 21.3649 18.5701 21.5806 18.6177 21.8178C18.7002 22.2312 18.8573 22.7091 19.1119 23.2016C19.4937 23.9396 20.0999 24.7136 21.0058 25.3019C21.2326 25.4502 21.4781 25.5848 21.7423 25.7055C21.7836 25.883 21.8409 26.1993 21.8405 26.5808C21.8405 26.8583 21.8106 27.1676 21.7267 27.4846C21.6428 27.8016 21.5062 28.1248 21.2891 28.439C21.1188 28.6852 21.1802 29.0223 21.4261 29.1923C21.672 29.3622 22.0091 29.3012 22.1791 29.0556C22.4745 28.6284 22.6617 28.1845 22.7734 27.7613C22.8855 27.3376 22.9229 26.9346 22.9229 26.5808C22.9229 26.4039 22.9132 26.2402 22.8986 26.0905C23.4202 26.2119 23.9917 26.2826 24.6208 26.2819C24.9195 26.2819 25.1619 26.0391 25.1619 25.7402C25.1619 25.4419 24.9195 25.1991 24.6208 25.1991Z" fill="#00038F"/>
<path d="M31.9779 17.0687C31.7098 16.8378 31.4206 16.6484 31.1154 16.5138C30.8105 16.3793 30.4884 16.2988 30.1585 16.2988C29.8596 16.2988 29.6172 16.5409 29.6172 16.8398C29.6172 17.1395 29.8596 17.3816 30.1585 17.3816C30.3576 17.3809 30.6094 17.4502 30.874 17.6035C31.2707 17.831 31.6831 18.2395 31.983 18.7514C32.2848 19.2626 32.4759 19.8709 32.4755 20.4993C32.4731 21.1909 32.2553 21.9122 31.6658 22.6295C31.4754 22.8604 31.508 23.2009 31.7386 23.3916C31.9689 23.5817 32.3102 23.5491 32.5005 23.3188C33.2434 22.4226 33.5603 21.4287 33.5579 20.4993C33.5579 19.9347 33.4448 19.3945 33.2548 18.902C32.969 18.1638 32.5137 17.532 31.9779 17.0687Z" fill="#00038F"/>
<path d="M13.1263 14.183V14.1823C13.4981 13.7418 14.0277 13.3964 14.6315 13.1641C15.2342 12.931 15.907 12.8145 16.5365 12.8152C17.1496 12.8137 17.7204 12.9268 18.1391 13.1217C18.4107 13.2466 18.7321 13.1287 18.8577 12.8568C18.9829 12.5855 18.8643 12.2645 18.5931 12.1388C17.9883 11.8607 17.2777 11.733 16.5365 11.7324C15.7757 11.7324 14.9818 11.8698 14.2424 12.1534C13.5048 12.4377 12.8178 12.872 12.3001 13.483C12.1069 13.7112 12.1353 14.0531 12.3635 14.246C12.5915 14.4396 12.9332 14.4105 13.1263 14.183Z" fill="#00038F"/>
<path d="M38.4543 16.2828C38.3586 16.1857 38.2559 16.0934 38.152 16.0027C38.2063 15.6995 38.2379 15.3909 38.2379 15.0773C38.2382 14.2464 38.0402 13.4002 37.6279 12.6192C37.1566 11.7237 36.4584 11.0134 35.6434 10.5321C35.0734 10.195 34.4463 9.97031 33.7964 9.86555C33.6387 9.30445 33.3913 8.77031 33.0591 8.28555C32.5059 7.4782 31.7194 6.80961 30.757 6.39547C30.0686 6.0993 29.3462 5.95711 28.6366 5.95711C28.6366 5.95711 28.6148 5.95641 28.5749 5.95992C27.6739 5.97039 26.7969 6.20687 26.021 6.63898C25.7176 6.27344 25.3666 5.94813 24.9761 5.67414C24.1202 5.07281 23.0735 4.71625 21.9537 4.70516C21.9408 4.70445 21.9252 4.70383 21.9062 4.70312C21.9037 4.70312 21.9013 4.70312 21.8986 4.70312H21.8979H21.8972H21.8969C21.8952 4.70312 21.8934 4.70312 21.8917 4.70312C21.8813 4.70312 21.8688 4.70383 21.8529 4.70445C20.8777 4.71211 19.9563 4.98125 19.169 5.44727C18.8277 5.64844 18.5163 5.89047 18.2305 6.15961C17.4149 5.65117 16.4511 5.3543 15.4245 5.34945L15.4208 5.34883H15.3965C15.3958 5.34883 15.3954 5.34883 15.3948 5.34883C15.3934 5.34883 15.392 5.34883 15.3903 5.34883C15.3778 5.34883 15.3622 5.34945 15.3424 5.35086C14.2503 5.36125 13.2262 5.69977 12.3818 6.27406C11.8924 6.60633 11.4641 7.01766 11.11 7.48852C10.662 7.36719 10.1941 7.30133 9.71617 7.30133C9.31844 7.30133 8.91508 7.34641 8.51352 7.43797C7.33086 7.70914 6.3207 8.35766 5.5968 9.22398H5.59719C5.08914 9.83086 4.72258 10.5466 4.52141 11.3187C3.75008 11.5802 3.0232 12.0186 2.41523 12.6379C2.41492 12.6386 2.41422 12.6393 2.41352 12.64C1.39391 13.6797 0.880625 15.0398 0.881016 16.3903V16.3923V16.3952C0.881016 16.3952 0.881016 16.3965 0.881016 16.3979V16.4124H0.881329C0.882657 16.882 0.946172 17.3502 1.07 17.8052C0.374922 18.7354 0.000390979 19.8652 3.54302e-07 21.0216C-0.000312146 21.8774 0.206094 22.7479 0.635 23.5504C1.11703 24.4514 1.82594 25.1651 2.65063 25.6485C3.22906 25.9877 3.86406 26.2118 4.52188 26.3172C4.87219 27.2584 5.47281 28.0706 6.24133 28.672C7.15547 29.3885 8.30867 29.8123 9.5443 29.8123C9.67266 29.8123 9.80063 29.8082 9.92852 29.7984H9.93164H9.93336H9.93375H9.93406C10.4795 29.7589 11.0022 29.6362 11.4891 29.4468C11.8127 29.9655 12.2194 30.424 12.6918 30.8021C13.6056 31.5338 14.7677 31.9709 16.0134 31.9764C16.018 31.9771 16.0217 31.9771 16.0256 31.9771C16.0298 31.9771 16.0339 31.9771 16.0378 31.9771H16.0385C16.0389 31.9771 16.0389 31.9771 16.0389 31.9771H16.0399H16.0455C16.0473 31.9771 16.048 31.9771 16.0497 31.9771L16.0632 31.9764H16.067C16.1666 31.9757 16.2665 31.9716 16.3659 31.9653H16.3673L16.4259 31.9639C16.8719 31.9313 17.3027 31.8445 17.7109 31.7101C18.2252 32.4737 18.9413 33.118 19.8274 33.5454H19.827C20.5747 33.906 21.3723 34.0788 22.1552 34.0788C22.9173 34.0788 23.663 33.913 24.3469 33.6064C25.3408 34.662 26.7423 35.296 28.2498 35.2975C28.5803 35.2975 28.9146 35.267 29.249 35.2038C30.5332 34.9625 31.6336 34.2751 32.4035 33.3366H32.4032C32.906 32.7256 33.2678 32.0043 33.4613 31.226C34.3495 31.1387 35.2307 30.8293 36.0096 30.2813C36.7508 29.7611 37.3251 29.0813 37.71 28.3226C38.095 27.5645 38.2934 26.7279 38.2934 25.8838C38.2934 25.3213 38.2018 24.7566 38.0218 24.2122C38.4841 23.8356 38.8929 23.3764 39.2189 22.8389C39.7461 21.9719 39.9999 21.005 39.9999 20.0547C39.9997 18.6654 39.4611 17.3024 38.4543 16.2828ZM37.5998 21.8552C37.0556 22.7513 36.1785 23.3091 35.2203 23.4748C34.9255 23.5255 34.7279 23.8057 34.7784 24.0997C34.8291 24.3945 35.109 24.5922 35.4034 24.5416C35.6237 24.5041 35.8405 24.4493 36.053 24.38C36.2846 24.8586 36.3988 25.3719 36.3988 25.8838C36.3991 26.431 36.2698 26.9748 36.0209 27.4652C35.7715 27.9556 35.4038 28.3918 34.9211 28.7317C34.3132 29.1576 33.623 29.3609 32.9353 29.3615C32.8816 29.3615 32.8278 29.3573 32.7741 29.3546C32.7627 29.2645 32.7515 29.175 32.7348 29.0855V29.0848C32.6162 28.457 32.3721 27.8827 32.0367 27.3841L31.9958 27.323L31.9403 27.2751C31.53 26.9241 30.9859 26.347 30.5659 25.7589C30.3554 25.4655 30.1754 25.1686 30.0544 24.9044C29.9319 24.6401 29.8758 24.4091 29.8778 24.2725C29.8778 24.2115 29.8869 24.1705 29.897 24.1428C29.9077 24.1158 29.9177 24.0998 29.9389 24.0777C30.1501 23.8668 30.1501 23.5234 29.9389 23.3126C29.7273 23.1011 29.3847 23.1011 29.1734 23.3126V23.312C29.0417 23.4437 28.9422 23.6025 28.8811 23.769C28.8201 23.9355 28.7955 24.1068 28.7955 24.2726C28.7975 24.6478 28.9109 25.0029 29.0705 25.3552C29.3123 25.881 29.6729 26.4033 30.0623 26.8798C30.4289 27.3279 30.8191 27.7295 31.1683 28.0374C31.4086 28.4078 31.5841 28.8254 31.6709 29.2852C31.7073 29.4788 31.7273 29.6709 31.7302 29.856L31.7305 29.8588C31.7309 29.8838 31.7312 29.9081 31.7312 29.933C31.7312 30.7516 31.4402 31.5248 30.9398 32.1345C30.4386 32.7436 29.7335 33.1847 28.8988 33.3421C28.6804 33.3831 28.4636 33.4032 28.2503 33.4032C27.1024 33.4039 26.0405 32.8282 25.4024 31.9098C25.7458 31.5616 26.0384 31.1524 26.2624 30.6891C26.5402 30.1148 26.6859 29.5072 26.7126 28.9066C26.7258 28.6069 26.4941 28.3545 26.1959 28.3413C25.897 28.3281 25.6441 28.5597 25.6309 28.858C25.6104 29.3179 25.5002 29.7784 25.2876 30.2174L25.2873 30.2188C25.0604 30.6891 24.7427 31.0823 24.3651 31.3938L24.363 31.3952C23.7427 31.9043 22.9574 32.1845 22.1553 32.1845C21.6497 32.1845 21.1374 32.0735 20.6502 31.8391C19.7477 31.4034 19.1211 30.6336 18.844 29.7486L18.8436 29.7479C18.7378 29.4121 18.683 29.0605 18.683 28.7061C18.683 28.2005 18.7941 27.6886 19.0295 27.1989C19.1595 26.9298 19.0462 26.6066 18.777 26.4769C18.5079 26.3472 18.1843 26.4602 18.0546 26.7294C17.7473 27.3661 17.6006 28.0423 17.6006 28.7062C17.6006 29.028 17.6374 29.3464 17.704 29.6585C17.2812 29.8895 16.8044 30.0365 16.289 30.0748H16.288C16.2041 30.0803 16.1208 30.083 16.039 30.083C15.2264 30.083 14.4735 29.8014 13.8749 29.3229C13.354 28.9066 12.9548 28.3428 12.7416 27.6901C13.1227 27.3141 13.4383 26.8745 13.6689 26.3868C13.7965 26.117 13.681 25.7938 13.4109 25.6661C13.1407 25.5384 12.8178 25.6536 12.6902 25.9241C12.4759 26.3777 12.1652 26.7801 11.7826 27.1026C11.2409 27.5596 10.5566 27.8545 9.79477 27.9092H9.79367C9.71008 27.9148 9.62687 27.9182 9.54469 27.9182C7.82594 27.9189 6.35898 26.651 6.11133 24.9517L6.1107 24.9475L6.11 24.9433C6.0968 24.8629 6.08742 24.7782 6.08117 24.6909C6.07531 24.6062 6.07227 24.523 6.07227 24.4398C6.07227 24.2205 6.09274 24.0063 6.13148 23.7975C6.18563 23.5034 5.99141 23.2211 5.69734 23.1663C5.40359 23.1121 5.12133 23.3064 5.06688 23.6005C5.01656 23.8723 4.98984 24.1533 4.98984 24.4398L4.99094 24.4709C4.50437 24.4168 4.03203 24.2622 3.60891 24.0139C3.07516 23.701 2.61984 23.244 2.30563 22.6572C2.02609 22.1342 1.89469 21.5752 1.8943 21.0223C1.8943 20.3093 2.11563 19.6088 2.52516 19.0234C2.68188 19.2454 2.86055 19.4562 3.06063 19.6525C3.51672 20.1006 4.04586 20.4329 4.60672 20.6492C4.88523 20.7575 5.19875 20.6187 5.30656 20.3399C5.41445 20.0611 5.27578 19.7476 4.99727 19.64C4.5693 19.4742 4.16773 19.2225 3.81914 18.8798L3.81844 18.8792C3.51188 18.5788 3.27359 18.2363 3.10188 17.8693C2.88445 17.4046 2.77523 16.9003 2.77523 16.3954C2.77555 15.5166 3.10398 14.6434 3.76672 13.9657C4.33023 13.3921 5.03953 13.0563 5.77672 12.9558H5.77742H5.77813L5.78016 12.9551C5.93594 12.9343 6.09266 12.9232 6.25008 12.9239C7.12859 12.9246 8.00352 13.2534 8.68086 13.9158C8.89445 14.1245 9.23711 14.1211 9.44625 13.9075C9.65539 13.6939 9.65156 13.3513 9.43797 13.1424C8.57609 12.2983 7.45844 11.8669 6.33891 11.8454C6.46656 11.3273 6.71 10.8459 7.04984 10.4402C7.52008 9.87836 8.16695 9.46219 8.93711 9.28461C9.19867 9.22492 9.45945 9.19586 9.71602 9.19586C10.1696 9.19586 10.6105 9.28602 11.0179 9.45109C10.902 9.85406 10.8383 10.2793 10.8383 10.7183C10.8383 11.0172 11.0807 11.2593 11.3796 11.2593C11.6785 11.2593 11.9206 11.0173 11.9206 10.7183C11.9206 10.2445 12.016 9.79234 12.1863 9.38172C12.4477 8.75469 12.8896 8.21922 13.4455 7.84117C14.0026 7.4632 14.6709 7.24398 15.3956 7.24328C16.4384 7.24398 17.37 7.70039 18.0084 8.42797L18.0095 8.42867C18.5463 9.03969 18.8699 9.83875 18.8703 10.7182C18.8703 11.0171 19.1123 11.2592 19.4116 11.2592C19.7106 11.2592 19.9527 11.0172 19.9527 10.7182C19.953 9.71875 19.6298 8.7907 19.0822 8.03945C19.3624 7.65109 19.7196 7.32227 20.133 7.07812C20.6504 6.77227 21.2511 6.5975 21.8975 6.5975C22.64 6.5975 23.3232 6.82914 23.8875 7.22523C24.4517 7.62055 24.8936 8.18031 25.1429 8.83297L25.1426 8.83234C25.2897 9.21867 25.3705 9.63414 25.3708 10.0725C25.3708 10.3714 25.6129 10.6136 25.9119 10.6136C26.2108 10.6136 26.4532 10.3715 26.4532 10.0725C26.4532 9.62578 26.3863 9.19438 26.2663 8.78656C26.9071 8.18937 27.7578 7.85156 28.6356 7.85156C29.0941 7.85156 29.5588 7.94313 30.0083 8.13594C30.635 8.40578 31.1382 8.83508 31.4971 9.35805C31.8557 9.88031 32.0673 10.4955 32.103 11.1309C32.1065 11.1961 32.1086 11.262 32.1086 11.3278C32.1082 11.7862 32.0177 12.2504 31.8249 12.6998C31.707 12.9745 31.8336 13.2928 32.1082 13.4107C32.3829 13.5293 32.7012 13.4017 32.8191 13.127C33.0199 12.6609 33.1354 12.1775 33.1745 11.6962C33.7052 11.7316 34.222 11.8924 34.6797 12.163C35.2023 12.4723 35.6469 12.9231 35.9517 13.5016V13.5023C36.2184 14.0073 36.3433 14.5455 36.3436 15.0775C36.3436 15.3216 36.3155 15.563 36.2638 15.7995C35.9371 15.6733 35.6017 15.5866 35.2636 15.5388C34.9677 15.4971 34.6942 15.7032 34.6526 16C34.6109 16.2955 34.817 16.5695 35.1131 16.6111C35.4527 16.659 35.7873 16.7568 36.1084 16.908C36.1653 17.0002 36.2492 17.0772 36.3564 17.123C36.4234 17.1514 36.4927 17.1653 36.5614 17.1659C36.7611 17.2991 36.9429 17.4483 37.1052 17.6134L37.0979 17.6058L37.1066 17.6148C37.7547 18.2695 38.1056 19.1539 38.1053 20.0548C38.1054 20.6698 37.9431 21.2907 37.5998 21.8552Z" fill="#00038F"/>
</g>
<defs>
<clipPath id="clip0_705_6461">
<rect width="40" height="40" fill="white"/>
</clipPath>
</defs>
</svg>
