<svg width="28" height="28" viewBox="0 0 28 28" fill="none" xmlns="http://www.w3.org/2000/svg">
<path d="M21 14.0004H20.065C19.0971 14.0004 18.6131 14.0004 18.2119 14.2276C17.8108 14.4547 17.5617 14.8697 17.0638 15.6997L17.0277 15.7598C16.5639 16.5329 16.3318 16.9196 15.9944 16.9131C15.6569 16.9068 15.4395 16.5118 15.0051 15.7217L13.0366 12.1427C12.6314 11.406 12.4289 11.0376 12.1052 11.0202C11.7817 11.0027 11.5407 11.3471 11.0585 12.0358L10.7284 12.5076C10.2163 13.2391 9.96023 13.6048 9.58035 13.8026C9.20047 14.0004 8.75399 14.0004 7.86103 14.0004H7" stroke="#00038F" stroke-width="2" stroke-linecap="round"/>
<path d="M13.9948 6.41707L13.3643 7.02385C13.5293 7.19524 13.7569 7.29207 13.9948 7.29207C14.2327 7.29207 14.4603 7.19524 14.6253 7.02385L13.9948 6.41707ZM3.09423 15.6288C3.34964 16.039 3.88925 16.1646 4.29949 15.9092C4.70972 15.6538 4.83523 15.1141 4.57983 14.7039L3.09423 15.6288ZM7.61276 18.4001C7.27065 18.0589 6.71663 18.0595 6.37533 18.4017C6.03403 18.7437 6.0347 19.2978 6.37682 19.639L7.61276 18.4001ZM3.20312 10.6596C3.20312 7.38959 4.66988 5.36062 6.50387 4.663C8.34283 3.96349 10.9046 4.46827 13.3643 7.02385L14.6253 5.81029C11.8352 2.91151 8.56361 2.00718 5.88169 3.02734C3.19479 4.04939 1.45312 6.86886 1.45312 10.6596H3.20312ZM18.0812 22.7496C19.8222 21.377 21.9091 19.5368 23.5686 17.4808C25.2095 15.4478 26.5365 13.0768 26.5365 10.6596H24.7865C24.7865 12.469 23.7688 14.4464 22.2068 16.3817C20.6635 18.2939 18.6893 20.0416 16.9978 21.3753L18.0812 22.7496ZM26.5365 10.6596C26.5365 6.86885 24.7947 4.04938 22.1079 3.02733C19.426 2.00719 16.1544 2.91151 13.3643 5.81029L14.6253 7.02385C17.0849 4.46827 19.6467 3.96349 21.4857 4.663C23.3197 5.36061 24.7865 7.38958 24.7865 10.6596H26.5365ZM9.90845 22.7495C11.3951 23.9215 12.4199 24.7749 13.9948 24.7749V23.0249C13.1423 23.0249 12.6131 22.6533 10.9918 21.3753L9.90845 22.7495ZM16.9978 21.3753C15.3765 22.6533 14.8473 23.0249 13.9948 23.0249V24.7749C15.5697 24.7749 16.5945 23.9215 18.0812 22.7496L16.9978 21.3753ZM4.57983 14.7039C3.70949 13.306 3.20312 11.9361 3.20312 10.6596H1.45312C1.45312 12.3862 2.13042 14.0808 3.09423 15.6288L4.57983 14.7039ZM10.9918 21.3753C9.92205 20.5319 8.73421 19.5189 7.61276 18.4001L6.37682 19.639C7.55884 20.8183 8.80101 21.8765 9.90845 22.7495L10.9918 21.3753Z" fill="#00038F"/>
</svg>
