<svg width="40" height="40" viewBox="0 0 40 40" fill="none" xmlns="http://www.w3.org/2000/svg">
<path d="M30 20.0006H28.6643C27.2815 20.0006 26.5902 20.0006 26.017 20.3251C25.444 20.6496 25.0882 21.2425 24.3768 22.4281L24.3253 22.514C23.6627 23.6185 23.3312 24.1708 22.8492 24.1616C22.367 24.1526 22.0565 23.5883 21.4358 22.4596L18.6237 17.3466C18.0448 16.2942 17.7555 15.768 17.2932 15.7431C16.831 15.7181 16.4867 16.2101 15.7979 17.194L15.3262 17.868C14.5947 18.913 14.2289 19.4355 13.6862 19.718C13.1435 20.0006 12.5057 20.0006 11.23 20.0006H10" stroke="#00038F" stroke-width="2" stroke-linecap="round"/>
<path d="M19.9948 9.16808L19.0941 10.0349C19.3298 10.2797 19.655 10.4181 19.9948 10.4181C20.3346 10.4181 20.6598 10.2797 20.8955 10.0349L19.9948 9.16808ZM4.42256 22.3277C4.78743 22.9137 5.55831 23.0931 6.14436 22.7282C6.73041 22.3634 6.90971 21.5924 6.54484 21.0064L4.42256 22.3277ZM10.8776 26.2867C10.3889 25.7992 9.59742 25.8001 9.10984 26.2889C8.62227 26.7776 8.62323 27.5691 9.11198 28.0566L10.8776 26.2867ZM4.57812 15.2289C4.57812 10.5574 6.67349 7.65886 9.29347 6.66226C11.9206 5.66296 15.5803 6.38408 19.0941 10.0349L20.8955 8.30125C16.9096 4.16013 12.236 2.86823 8.40464 4.32561C4.56622 5.78568 2.07812 9.8135 2.07812 15.2289H4.57812ZM25.8325 32.5003C28.3196 30.5394 31.301 27.9106 33.6716 24.9734C36.0158 22.0691 37.9115 18.6819 37.9115 15.2288H35.4115C35.4115 17.8137 33.9576 20.6386 31.7263 23.4032C29.5215 26.1349 26.7013 28.6317 24.2848 30.5369L25.8325 32.5003ZM37.9115 15.2288C37.9115 9.81348 35.4233 5.78566 31.585 4.3256C27.7536 2.86825 23.08 4.16013 19.0941 8.30125L20.8955 10.0349C24.4093 6.38408 28.069 5.66296 30.6961 6.66226C33.3161 7.65885 35.4115 10.5574 35.4115 15.2288H37.9115ZM14.1572 32.5001C16.281 34.1744 17.745 35.3936 19.9948 35.3936V32.8936C18.777 32.8936 18.021 32.3627 15.7049 30.5369L14.1572 32.5001ZM24.2848 30.5369C21.9686 32.3627 21.2126 32.8936 19.9948 32.8936V35.3936C22.2446 35.3936 23.7086 34.1744 25.8325 32.5003L24.2848 30.5369ZM6.54484 21.0064C5.30151 19.0094 4.57812 17.0524 4.57812 15.2289H2.07812C2.07812 17.6954 3.04569 20.1162 4.42256 22.3277L6.54484 21.0064ZM15.7049 30.5369C14.1766 29.3321 12.4797 27.8849 10.8776 26.2867L9.11198 28.0566C10.8006 29.7412 12.5751 31.2529 14.1572 32.5001L15.7049 30.5369Z" fill="#00038F"/>
</svg>
