<svg width="40" height="40" viewBox="0 0 40 40" fill="none" xmlns="http://www.w3.org/2000/svg">
<path d="M33.9838 22.7241C35.6667 21.4919 36.7617 19.5023 36.7617 17.2614C36.7617 13.5304 33.7264 10.4949 29.9953 10.4949H24.7935C25.7045 9.34228 26.2485 7.8873 26.2485 6.30755V4.02769C26.2485 1.80691 24.4418 0 22.2208 0C19.9999 0 18.1931 1.80691 18.1931 4.02769V5.01815H9.96947C6.23857 5.01815 3.20312 8.05342 3.20312 11.7843C3.20312 14.178 4.4526 16.2855 6.33381 17.4884C4.80794 18.7302 3.83145 20.6223 3.83145 22.7382C3.83145 26.4693 6.86689 29.5045 10.598 29.5045H16.9907C16.0797 30.6572 15.5354 32.1125 15.5354 33.6926V35.9723C15.5354 38.1931 17.3421 40 19.5631 40C21.784 40 23.5908 38.1931 23.5908 35.9723V34.9819H30.0351C33.766 34.9819 36.8014 31.9466 36.8014 28.2157C36.8011 25.9573 35.6891 23.9539 33.9838 22.7241ZM30.0349 32.2967H22.3015C21.5318 32.2967 20.9055 32.9229 20.9055 33.6926V35.9723C20.9055 36.7127 20.3033 37.3149 19.5629 37.3149C18.8227 37.3149 18.2203 36.7127 18.2203 35.9723V33.6926C18.2203 31.4425 20.0512 29.6116 22.3015 29.6116H30.0349C30.8046 29.6116 31.431 28.9854 31.431 28.2157C31.431 27.4458 30.8046 26.8194 30.0349 26.8194H10.5978C8.34729 26.8194 6.51639 24.9887 6.51639 22.7382C6.51639 20.4881 8.34729 18.6573 10.5978 18.6573H29.9952C30.7649 18.6573 31.3912 18.0312 31.3912 17.2614C31.3912 16.4915 30.7649 15.8652 29.9952 15.8652H9.96947C7.71915 15.8652 5.88825 14.0343 5.88825 11.7841C5.88825 9.534 7.71915 7.7031 9.96947 7.7031H19.4825C20.2523 7.7031 20.8784 7.07692 20.8784 6.30737V4.02769C20.8784 3.28731 21.4808 2.68513 22.221 2.68513C22.9614 2.68513 23.5636 3.28731 23.5636 4.02769V6.30755C23.5636 8.55768 21.7328 10.3884 19.4825 10.3884H9.96947C9.19973 10.3884 8.57338 11.0146 8.57338 11.7843C8.57338 12.554 9.19973 13.1802 9.96947 13.1802H29.9953C32.2457 13.1802 34.0766 15.0111 34.0766 17.2616C34.0766 19.5118 32.2457 21.3427 29.9953 21.3427H10.5978C9.82787 21.3427 9.20152 21.9688 9.20152 22.7384C9.20152 23.5081 9.82787 24.1345 10.5978 24.1345H30.0347C32.285 24.1345 34.1159 25.9654 34.1159 28.2159C34.1159 30.4658 32.2852 32.2967 30.0349 32.2967Z" fill="#00038F"/>
</svg>
