<svg width="60" height="32" viewBox="0 0 60 32" fill="none" xmlns="http://www.w3.org/2000/svg">
<rect x="0.5" y="0.5" width="59" height="31" rx="3.5" fill="#F9F8F4" stroke="#D0D5DD"/>
<path d="M25.3193 18.9827C23.4704 18.9827 22.0341 17.6778 22.0341 15.9939C22.0341 14.3304 23.5059 13 25.3442 13C25.8699 13 26.3062 13.1025 26.8379 13.3499V14.6644C26.3344 14.2079 25.8947 14.0203 25.3193 14.0203C24.1787 14.0203 23.2853 14.8891 23.2853 15.9859C23.2853 17.1467 24.1507 17.9602 25.3724 17.9602C25.9247 17.9602 26.3516 17.7828 26.8379 17.333V18.649C26.2876 18.888 25.8406 18.9827 25.3193 18.9827Z" fill="#E6772F"/>
<path d="M19.8608 15.324C19.1309 15.0777 18.9176 14.9136 18.9176 14.6041C18.9176 14.2444 19.2988 13.9716 19.8231 13.9716C20.1864 13.9716 20.4858 14.1054 20.8046 14.4325L21.4359 13.6703C20.9143 13.2479 20.2901 13.034 19.6095 13.034C18.5083 13.034 17.669 13.739 17.669 14.6713C17.669 15.4628 18.0592 15.8643 19.1978 16.2456C19.6738 16.3979 19.9156 16.5019 20.0381 16.5724C20.2806 16.7167 20.4014 16.9235 20.4014 17.1625C20.4014 17.6283 20.0004 17.9707 19.4583 17.9707C18.8811 17.9707 18.4141 17.7048 18.1346 17.2054L17.3523 17.9026C17.9116 18.6568 18.582 18.9938 19.5056 18.9938C20.7653 18.9938 21.6529 18.2177 21.6529 17.1122C21.6529 16.2014 21.2412 15.7885 19.8608 15.324Z" fill="#E6772F"/>
<path fill-rule="evenodd" clip-rule="evenodd" d="M10 13.1294H11.7832C13.7502 13.1294 15.1225 14.3035 15.1225 15.9939C15.1225 16.8383 14.7018 17.6533 13.993 18.1932C13.3963 18.6489 12.7155 18.8555 11.7723 18.8555H10V13.1294ZM11.5399 17.8853C12.3253 17.8853 12.8165 17.7465 13.2023 17.4293C13.62 17.0875 13.871 16.5377 13.871 15.9859C13.871 15.4367 13.62 14.9058 13.2023 14.5616C12.7976 14.2286 12.3253 14.0992 11.5399 14.0992H11.214V17.8853H11.5399Z" fill="#E6772F"/>
<path d="M16.8914 13.1294H15.6822V18.8555H16.8914V13.1294Z" fill="#E6772F"/>
<path d="M36.6687 16.9737L35.0095 13.1294H33.6865L36.3242 19H36.9748L39.6637 13.1294H38.3512L36.6687 16.9737Z" fill="#E6772F"/>
<path d="M43.6553 18.8555H40.2143V13.1294H43.6553V14.0992H41.4283V15.3696H43.5707V16.3396H41.4283V17.8852H43.6553V18.8555Z" fill="#E6772F"/>
<path fill-rule="evenodd" clip-rule="evenodd" d="M48.4588 14.8188C48.4588 13.7465 47.6597 13.1294 46.2587 13.1294H44.4564V18.8555H45.673V16.5533H45.8308L47.5072 18.8555H49L47.0424 16.4421C47.9573 16.27 48.4588 15.6951 48.4588 14.8188ZM46.0253 15.7625H45.673V14.0305H46.0451C46.8032 14.0305 47.2093 14.3233 47.2093 14.8812C47.2093 15.4543 46.8032 15.7625 46.0253 15.7625Z" fill="#E6772F"/>
<path d="M30.614 18.992C32.4061 18.992 33.8576 17.6558 33.8576 16.0072C33.8576 14.3584 32.4061 13.022 30.614 13.022C28.8223 13.022 27.3706 14.3584 27.3706 16.0072C27.3706 17.6558 28.8223 18.992 30.614 18.992Z" fill="#E6772F"/>
</svg>
