<svg width="60" height="32" viewBox="0 0 60 32" fill="none" xmlns="http://www.w3.org/2000/svg">
<rect x="0.5" y="0.5" width="59" height="31" rx="3.5" fill="#F9F8F4" stroke="#D0D5DD"/>
<path d="M44.5651 22.5651C44.5651 25.0095 42.5746 27 40.1302 27H16V9.43492C16 6.99048 17.9905 5 20.4349 5H44.5651V22.5651Z" fill="white"/>
<path d="M38.332 6.48438C36.5859 6.48438 35.1542 7.89866 35.1542 9.66215V12.9622H39.6415C39.7462 12.9622 39.8685 12.9622 39.9558 12.9796C40.9685 13.032 41.7193 13.5558 41.7193 14.4637C41.7193 15.1796 41.2129 15.7907 40.2701 15.9129V15.9479C41.3002 16.0177 42.0859 16.5939 42.0859 17.4844C42.0859 18.4447 41.2129 19.0733 40.0605 19.0733H35.1367V25.5336H39.7986C41.5447 25.5336 42.9764 24.1193 42.9764 22.3558V6.48438H38.332Z" fill="#05A551"/>
<path d="M36.7081 18.0606H38.5415C38.5677 18.0606 38.6113 18.0562 38.655 18.0518C38.6986 18.0475 38.7423 18.0431 38.7685 18.0431C39.1177 17.9732 39.4145 17.659 39.4145 17.2225C39.4145 16.8034 39.1177 16.4891 38.7685 16.4018C38.7161 16.3844 38.6113 16.3844 38.5415 16.3844H36.7081V18.0606Z" fill="#05A551"/>
<path d="M38.5415 13.9225C38.8907 13.9748 39.1875 14.2542 39.1875 14.6733C39.1875 15.0923 38.8907 15.3717 38.5415 15.4241C38.524 15.4415 38.4193 15.4415 38.3669 15.4415H36.7081V13.905H38.3669C38.3957 13.905 38.4351 13.9103 38.4706 13.9151C38.4995 13.9189 38.5258 13.9225 38.5415 13.9225Z" fill="#05A551"/>
<path d="M20.7665 6.48438C19.0205 6.48438 17.5887 7.89866 17.5887 9.66215V17.5018C18.4792 17.9383 19.4046 18.2177 20.33 18.2177C21.43 18.2177 22.0237 17.5542 22.0237 16.6463V12.9447H24.7475V16.6288C24.7475 18.0606 23.857 19.2304 20.8364 19.2304C19.003 19.2304 17.5713 18.8288 17.5713 18.8288V25.5161H22.2332C23.9792 25.5161 25.411 24.1018 25.411 22.3383V6.48438H20.7665Z" fill="#0A4EA1"/>
<path d="M29.5489 6.48438C27.8028 6.48438 26.3711 7.89866 26.3711 9.66215V13.8177C27.1743 13.1368 28.5711 12.7002 30.8235 12.805C32.0282 12.8574 33.3203 13.1891 33.3203 13.1891V14.5336C32.6743 14.2018 31.906 13.905 30.9108 13.8352C29.1997 13.7129 28.1695 14.551 28.1695 16.0177C28.1695 17.5018 29.1997 18.3399 30.9108 18.2002C31.906 18.1304 32.6743 17.8161 33.3203 17.5018V18.8463C33.3203 18.8463 32.0457 19.178 30.8235 19.2304C28.5711 19.3352 27.1743 18.8987 26.3711 18.2177V25.551H31.033C32.779 25.551 34.2108 24.1368 34.2108 22.3733V6.48438H29.5489Z" fill="#EE1C24"/>
</svg>
