<svg width="60" height="32" viewBox="0 0 60 32" fill="none" xmlns="http://www.w3.org/2000/svg">
<rect x="0.5" y="0.5" width="59" height="31" rx="3.5" fill="#F9F8F4" stroke="#D0D5DD"/>
<path d="M33.2455 10.585H26.7559V22.2471H33.2455V10.585Z" fill="#FF5F00"/>
<path d="M27.1674 16.4168C27.1663 15.2936 27.4209 14.185 27.9116 13.1747C28.4024 12.1645 29.1166 11.2791 30.0001 10.5857C28.906 9.7257 27.592 9.19087 26.2083 9.04236C24.8246 8.89384 23.427 9.13763 22.1753 9.74586C20.9236 10.3541 19.8682 11.3022 19.1299 12.4819C18.3915 13.6615 18 15.0251 18 16.4168C18 17.8084 18.3915 19.172 19.1299 20.3517C19.8682 21.5314 20.9236 22.4795 22.1753 23.0877C23.427 23.6959 24.8246 23.9397 26.2083 23.7912C27.592 23.6427 28.906 23.1079 30.0001 22.2479C29.1166 21.5544 28.4024 20.6691 27.9117 19.6588C27.4209 18.6486 27.1664 17.5399 27.1674 16.4168Z" fill="#EB001B"/>
<path d="M42 16.4168C42 17.8084 41.6085 19.172 40.8702 20.3517C40.1319 21.5313 39.0766 22.4795 37.825 23.0877C36.5733 23.6959 35.1757 23.9397 33.792 23.7912C32.4083 23.6427 31.0943 23.1079 30.0002 22.2479C30.883 21.5537 31.5966 20.6682 32.0873 19.6582C32.578 18.6481 32.833 17.5398 32.833 16.4168C32.833 15.2938 32.578 14.1855 32.0873 13.1754C31.5966 12.1653 30.883 11.2798 30.0002 10.5857C31.0943 9.7257 32.4083 9.19087 33.792 9.04236C35.1757 8.89384 36.5733 9.13764 37.825 9.74587C39.0766 10.3541 40.1319 11.3022 40.8702 12.4819C41.6085 13.6616 42 15.0251 42 16.4168Z" fill="#F79E1B"/>
<path d="M41.2924 21.0125V20.7737H41.3887V20.7251H41.1435V20.7737H41.2398V21.0125H41.2924ZM41.7684 21.0125V20.7246H41.6933L41.6068 20.9226L41.5204 20.7246H41.4452V21.0125H41.4983V20.7953L41.5793 20.9826H41.6343L41.7154 20.7949V21.0125H41.7684Z" fill="#F79E1B"/>
</svg>
