<svg width="60" height="32" viewBox="0 0 60 32" fill="none" xmlns="http://www.w3.org/2000/svg">
<rect x="0.5" y="0.5" width="59" height="31" rx="3.5" fill="#F9F8F4" stroke="#D0D5DD"/>
<path fill-rule="evenodd" clip-rule="evenodd" d="M43.049 6.00579L35.7834 6.00391C35.7825 6.00391 35.7815 6.00391 35.7815 6.00391C35.7759 6.00391 35.7704 6.00491 35.7649 6.00491C34.7668 6.03574 33.5237 6.84273 33.2973 7.83782L29.8613 23.1636C29.6349 24.1679 30.2508 24.9852 31.2417 25.0002H38.8745C39.8503 24.9516 40.7985 24.1539 41.021 23.1701L44.4571 7.84423C44.6871 6.82964 44.0563 6.00579 43.049 6.00579Z" fill="#01798A"/>
<path fill-rule="evenodd" clip-rule="evenodd" d="M29.8608 23.1635L33.2968 7.83775C33.5232 6.84266 34.7663 6.03567 35.7645 6.00485L32.8757 6.00296L27.671 6.00195C26.6701 6.02259 25.4108 6.83524 25.1844 7.83775L21.7475 23.1635C21.5202 24.1679 22.1371 24.9851 23.1273 25.0002H31.2413C30.2504 24.9851 29.6344 24.1679 29.8608 23.1635Z" fill="#024381"/>
<path fill-rule="evenodd" clip-rule="evenodd" d="M21.7474 23.1633L25.1844 7.83756C25.4107 6.83505 26.67 6.0224 27.6709 6.00176L21.0034 6C19.9969 6 18.7064 6.82196 18.4764 7.83756L15.0394 23.1633C15.0185 23.2568 15.0069 23.3485 15 23.4382V23.7225C15.0673 24.4547 15.622 24.9878 16.4193 25H23.1272C22.137 24.985 21.5201 24.1677 21.7474 23.1633Z" fill="#DD0228"/>
<path fill-rule="evenodd" clip-rule="evenodd" d="M27.8114 17.1695H27.9376C28.0535 17.1695 28.1315 17.1303 28.1681 17.0527L28.496 16.558H29.374L29.1909 16.8834H30.2437L30.1102 17.3819H28.8574C28.7132 17.6007 28.5356 17.7035 28.322 17.6914H27.6695L27.8114 17.1695ZM27.6672 17.884H29.9738L29.8267 18.4255H28.8991L28.7576 18.9482H29.6602L29.5132 19.4896H28.6106L28.4009 20.262C28.3489 20.3911 28.4172 20.4492 28.6046 20.436H29.3402L29.2039 20.9392H27.7915C27.5238 20.9392 27.432 20.7848 27.5159 20.4753L27.784 19.4896H27.2071L27.3536 18.9482H27.9307L28.0721 18.4255H27.5206L27.6672 17.884ZM31.3487 16.5543L31.3124 16.8713C31.3124 16.8713 31.7475 16.542 32.1426 16.542H33.6028L33.0444 18.5797C32.9981 18.8126 32.7995 18.9284 32.4488 18.9284H30.7938L30.4061 20.3593C30.3838 20.4359 30.4153 20.4753 30.4988 20.4753H30.8245L30.7048 20.9194H29.8769C29.5591 20.9194 29.4269 20.8231 29.4794 20.6296L30.5748 16.5543H31.3487ZM32.5852 17.1303H31.2819L31.126 17.6801C31.126 17.6801 31.3431 17.5221 31.7058 17.5165C32.0675 17.5108 32.4804 17.5165 32.4804 17.5165L32.5852 17.1303ZM32.113 18.4058C32.2094 18.419 32.2633 18.3805 32.2698 18.2898L32.3496 18H31.0443L30.9348 18.4058H32.113ZM31.2326 19.0641H31.985L31.971 19.3923H32.1713C32.2726 19.3923 32.3227 19.3596 32.3227 19.2951L32.382 19.0828H33.0073L32.9238 19.3923C32.8532 19.6504 32.666 19.7851 32.3617 19.7983H31.9609L31.959 20.3593C31.9517 20.4491 32.0323 20.4949 32.1983 20.4949H32.575L32.4534 20.9391H31.5499C31.2967 20.9513 31.1725 20.8296 31.1751 20.5716L31.2326 19.0641Z" fill="white"/>
<path fill-rule="evenodd" clip-rule="evenodd" d="M22.1159 13.8389C22.0138 14.3429 21.7773 14.7301 21.4103 15.005C21.0467 15.2753 20.5778 15.4108 20.0036 15.4108C19.4632 15.4108 19.0671 15.2724 18.8143 14.9947C18.639 14.7974 18.5518 14.5468 18.5518 14.2438C18.5518 14.1185 18.5666 13.9838 18.5963 13.8389L19.2081 10.8652H20.1321L19.5286 13.8052C19.51 13.8866 19.5026 13.9623 19.5036 14.0306C19.5026 14.1812 19.5397 14.3046 19.6149 14.4009C19.7243 14.544 19.902 14.615 20.1492 14.615C20.4335 14.615 20.6678 14.5449 20.8496 14.4037C21.0314 14.2634 21.1502 14.0643 21.2035 13.8052L21.8088 10.8652H22.7281L22.1159 13.8389Z" fill="white"/>
<path fill-rule="evenodd" clip-rule="evenodd" d="M25.9961 12.6691H26.7197L26.1529 15.323H25.4307L25.9961 12.6691ZM26.2239 11.7021H26.9539L26.8175 12.3463H26.0875L26.2239 11.7021Z" fill="white"/>
<path fill-rule="evenodd" clip-rule="evenodd" d="M27.36 15.1207C27.1707 14.9384 27.0751 14.6925 27.0742 14.3801C27.0742 14.3268 27.0774 14.266 27.0845 14.1996C27.0914 14.1323 27.1003 14.0668 27.1127 14.0061C27.1985 13.575 27.3813 13.2327 27.6628 12.9802C27.9439 12.7268 28.283 12.5996 28.6801 12.5996C29.0052 12.5996 29.2631 12.6913 29.4519 12.8745C29.6406 13.0588 29.7352 13.3075 29.7352 13.6236C29.7352 13.6778 29.7311 13.7405 29.7241 13.8078C29.7157 13.8761 29.7056 13.9415 29.6939 14.0061C29.61 14.4306 29.4278 14.7691 29.1462 15.017C28.8647 15.2666 28.5265 15.3909 28.1323 15.3909C27.8057 15.3909 27.5488 15.3012 27.36 15.1207ZM28.739 14.5952C28.8665 14.4559 28.9579 14.2445 29.0135 13.9631C29.0219 13.9191 29.0293 13.8733 29.0339 13.8275C29.0385 13.7826 29.0404 13.7405 29.0404 13.7021C29.0404 13.5385 28.9991 13.4113 28.9161 13.3215C28.8336 13.2308 28.7162 13.186 28.5646 13.186C28.3641 13.186 28.2009 13.257 28.073 13.3991C27.9439 13.5413 27.8525 13.7564 27.795 14.0425C27.7871 14.0865 27.7806 14.1305 27.7747 14.1735C27.77 14.2174 27.7687 14.2585 27.7695 14.2959C27.7695 14.4587 27.8108 14.584 27.8938 14.6728C27.9764 14.7617 28.0932 14.8056 28.2468 14.8056C28.4481 14.8056 28.6114 14.7355 28.739 14.5952Z" fill="white"/>
<path fill-rule="evenodd" clip-rule="evenodd" d="M34.4305 17.1915L34.605 16.5725H35.4871L35.4491 16.7996C35.4491 16.7996 35.8999 16.5725 36.2245 16.5725C36.5493 16.5725 37.3154 16.5725 37.3154 16.5725L37.142 17.1915H36.9704L36.1475 20.111H36.3191L36.1559 20.6908H35.9843L35.9129 20.9423H35.0585L35.1298 20.6908H33.4443L33.6086 20.111H33.7775L34.6011 17.1915H34.4305ZM35.3823 17.1916L35.1578 17.9817C35.1578 17.9817 35.5419 17.8331 35.873 17.791C35.9462 17.5151 36.0418 17.1916 36.0418 17.1916L35.3823 17.1916ZM35.0538 18.352L34.8285 19.1796C34.8285 19.1796 35.2542 18.9683 35.5464 18.9505C35.6308 18.6306 35.7153 18.352 35.7153 18.352L35.0538 18.352ZM35.2189 20.111L35.3878 19.5107H34.7293L34.5595 20.111H35.2189ZM37.3526 16.5342H38.182L38.2172 16.8427C38.2117 16.9212 38.258 16.9587 38.3563 16.9587H38.5028L38.3546 17.4814H37.745C37.5122 17.4935 37.3925 17.4038 37.3814 17.2102L37.3526 16.5342ZM37.1096 17.6554H39.796L39.6384 18.2165H38.7831L38.6364 18.7382H39.4909L39.3322 19.2984H38.3805L38.1652 19.6267H38.631L38.7386 20.284C38.7515 20.3495 38.809 20.3813 38.9074 20.3813H39.052L38.9 20.9226H38.3879C38.1225 20.9358 37.9854 20.846 37.9741 20.6525L37.8507 20.0521L37.4268 20.6908C37.3266 20.8713 37.1726 20.9555 36.9649 20.9423H36.1828L36.335 20.4008H36.579C36.6792 20.4008 36.7626 20.356 36.8377 20.2653L37.5011 19.2984H36.6458L36.8043 18.7382H37.732L37.8795 18.2165H36.9509L37.1096 17.6554Z" fill="white"/>
<path fill-rule="evenodd" clip-rule="evenodd" d="M22.9669 12.6679H23.6195L23.5448 13.0513L23.6385 12.9419C23.85 12.7138 24.107 12.6006 24.4103 12.6006C24.6849 12.6006 24.8829 12.681 25.0073 12.8428C25.1297 13.0046 25.1631 13.2281 25.1052 13.5152L24.7457 15.3237H24.075L24.3996 13.6844C24.4331 13.5152 24.4238 13.3889 24.3722 13.3075C24.3213 13.2262 24.2238 13.186 24.0833 13.186C23.9108 13.186 23.7656 13.2402 23.6473 13.3478C23.5285 13.4562 23.4502 13.6068 23.4117 13.7985L23.1125 15.3237H22.4404L22.9669 12.6679Z" fill="white"/>
<path fill-rule="evenodd" clip-rule="evenodd" d="M30.4511 12.6679H31.1043L31.0301 13.0513L31.1228 12.9419C31.3344 12.7138 31.5923 12.6006 31.8947 12.6006C32.1693 12.6006 32.3678 12.681 32.4911 12.8428C32.6128 13.0046 32.648 13.2281 32.5886 13.5152L32.2305 15.3237H31.5588L31.8836 13.6844C31.9169 13.5152 31.9077 13.3889 31.8567 13.3075C31.8037 13.2262 31.7081 13.186 31.5682 13.186C31.3956 13.186 31.2509 13.2402 31.1312 13.3478C31.0124 13.4562 30.9337 13.6068 30.8966 13.7985L30.596 15.3237H29.9248L30.4511 12.6679" fill="white"/>
<path fill-rule="evenodd" clip-rule="evenodd" d="M33.6795 11.0225H35.5757C35.9402 11.0225 36.2222 11.1058 36.416 11.2693C36.609 11.4349 36.7056 11.6724 36.7056 11.9819V11.9913C36.7056 12.0501 36.7017 12.1166 36.6962 12.1885C36.6869 12.2596 36.6748 12.3316 36.6592 12.4064C36.5757 12.816 36.3817 13.1452 36.0822 13.3949C35.7815 13.6436 35.4254 13.769 35.0154 13.769H33.9985L33.6841 15.3241H32.8037L33.6795 11.0225ZM34.1534 13.0209H34.9968C35.2166 13.0209 35.3909 12.9694 35.5181 12.8675C35.6443 12.7646 35.7278 12.6076 35.7741 12.3944C35.7815 12.355 35.7861 12.3195 35.7917 12.2868C35.7946 12.256 35.7982 12.225 35.7982 12.1952C35.7982 12.0427 35.7445 11.9324 35.6368 11.8632C35.5292 11.793 35.3605 11.7594 35.1266 11.7594H34.4104L34.1534 13.0209Z" fill="white"/>
<path fill-rule="evenodd" clip-rule="evenodd" d="M40.6454 15.8372C40.3671 16.4338 40.1019 16.7816 39.9461 16.9434C39.7901 17.1034 39.4813 17.4755 38.7373 17.4474L38.8013 16.9921C39.4274 16.7976 39.766 15.9213 39.959 15.5332L39.7289 12.6755L40.2132 12.6689H40.6195L40.6632 14.4616L41.4246 12.6689H42.1956L40.6454 15.8372Z" fill="white"/>
<path fill-rule="evenodd" clip-rule="evenodd" d="M38.4896 12.8857L38.1833 13.098C37.8633 12.8456 37.5711 12.6894 37.0072 12.9531C36.239 13.3121 35.5971 16.0661 37.7122 15.159L37.8327 15.303L38.6648 15.3246L39.2113 12.8221L38.4896 12.8857ZM38.0164 14.2538C37.8828 14.6513 37.5842 14.914 37.3504 14.8392C37.1167 14.7663 37.0332 14.3828 37.1686 13.9845C37.3021 13.5861 37.6027 13.3243 37.8346 13.3991C38.0684 13.472 38.1527 13.8554 38.0164 14.2538Z" fill="white"/>
</svg>
