<svg width="60" height="32" viewBox="0 0 60 32" fill="none" xmlns="http://www.w3.org/2000/svg">
<rect x="0.5" y="0.5" width="59" height="31" rx="3.5" fill="#F9F8F4" stroke="#D0D5DD"/>
<path d="M29.8541 11.159L27.8498 19.8633H25.4255L27.43 11.159H29.8541ZM40.0528 16.7795L41.3287 13.5108L42.063 16.7795H40.0528ZM42.7584 19.8633H45L43.0417 11.159H40.974C40.508 11.159 40.1152 11.41 39.9413 11.797L36.3039 19.8633H38.8498L39.3552 18.5634H42.4649L42.7584 19.8633ZM36.4302 17.0217C36.4407 14.7244 33.0116 14.5972 33.0345 13.5707C33.0419 13.2589 33.3622 12.9266 34.0624 12.8417C34.4095 12.8002 35.3673 12.7665 36.4531 13.2313L36.8778 11.3847C36.2947 11.1887 35.5442 11 34.6103 11C32.2139 11 30.528 12.1825 30.5146 13.8771C30.4992 15.1303 31.7188 15.829 32.6358 16.2464C33.5812 16.673 33.898 16.9465 33.8933 17.3277C33.8868 17.9117 33.1395 18.1703 32.4436 18.1801C31.2242 18.1977 30.5173 17.8739 29.954 17.6299L29.5139 19.5382C30.0812 19.7794 31.1266 19.9892 32.209 20C34.7568 20 36.4226 18.8314 36.4302 17.0217ZM26.3901 11.159L22.4623 19.8633H19.9002L17.9672 12.9166C17.85 12.4895 17.7478 12.3324 17.3914 12.1519C16.8085 11.8579 15.8462 11.5828 15 11.4117L15.0573 11.159H19.1822C19.7076 11.159 20.1803 11.4838 20.3006 12.046L21.3217 17.0833L23.8434 11.159H26.3901Z" fill="#1434CB"/>
</svg>
