<svg width="24" height="24" viewBox="0 0 24 24" fill="none" xmlns="http://www.w3.org/2000/svg">
<path d="M19 8C18.7348 8 18.4804 7.89464 18.2929 7.70711C18.1054 7.51957 18 7.26522 18 7V6H17C16.7348 6 16.4804 5.89464 16.2929 5.70711C16.1054 5.51957 16 5.26522 16 5C16 4.73478 16.1054 4.48043 16.2929 4.29289C16.4804 4.10536 16.7348 4 17 4H18V3C18 2.73478 18.1054 2.48043 18.2929 2.29289C18.4804 2.10536 18.7348 2 19 2C19.2652 2 19.5196 2.10536 19.7071 2.29289C19.8946 2.48043 20 2.73478 20 3V4H21C21.2652 4 21.5196 4.10536 21.7071 4.29289C21.8946 4.48043 22 4.73478 22 5C22 5.26522 21.8946 5.51957 21.7071 5.70711C21.5196 5.89464 21.2652 6 21 6H20V7C20 7.26522 19.8946 7.51957 19.7071 7.70711C19.5196 7.89464 19.2652 8 19 8Z" fill="#5C84A2"/>
<path d="M14.9 12.5502C16.1059 11.5293 16.8606 10.074 17 8.50016C16.2596 8.12591 15.637 7.55425 15.2011 6.84835C14.7652 6.14245 14.533 5.32979 14.53 4.50016C14.5363 4.08664 14.6003 3.67602 14.72 3.28016C13.4898 2.27785 11.9127 1.80366 10.3338 1.96136C8.75483 2.11906 7.30265 2.89581 6.29503 4.12162C5.2874 5.34744 4.80639 6.92249 4.95725 8.5021C5.10811 10.0817 5.87856 11.5372 7.1 12.5502C5.59867 13.1341 4.3086 14.1577 3.39863 15.487C2.48866 16.8162 2.00118 18.3893 2 20.0002C2 20.5306 2.21071 21.0393 2.58579 21.4144C2.96086 21.7894 3.46957 22.0002 4 22.0002H18C18.5304 22.0002 19.0391 21.7894 19.4142 21.4144C19.7893 21.0393 20 20.5306 20 20.0002C19.9988 18.3893 19.5113 16.8162 18.6014 15.487C17.6914 14.1577 16.4013 13.1341 14.9 12.5502Z" fill="#00038F"/>
</svg>
