<svg width="14" height="8" viewBox="0 0 14 8" fill="none" xmlns="http://www.w3.org/2000/svg">
<path d="M7.00019 5.17656L11.9002 0.301562C12.0835 0.118229 12.3127 0.0223957 12.5877 0.0140625C12.8627 0.00572926 13.1002 0.101563 13.3002 0.301562C13.4835 0.484896 13.5752 0.718229 13.5752 1.00156C13.5752 1.2849 13.4835 1.51823 13.3002 1.70156L7.7002 7.30156C7.5002 7.50156 7.26686 7.60156 7.0002 7.60156C6.73353 7.60156 6.5002 7.50156 6.3002 7.30156L0.700195 1.70156C0.516861 1.51823 0.421028 1.28906 0.412694 1.01406C0.404361 0.739063 0.500195 0.501564 0.700195 0.301563C0.883528 0.11823 1.11686 0.0265633 1.40019 0.0265633C1.68353 0.0265633 1.91686 0.11823 2.10019 0.301563L7.00019 5.17656Z" fill="#00038F"/>
</svg>
