<svg width="14" height="8" viewBox="0 0 14 8" fill="none" xmlns="http://www.w3.org/2000/svg">
<path d="M6.575 2.425L1.675 7.3C1.49167 7.48333 1.2625 7.57917 0.9875 7.5875C0.7125 7.59583 0.475 7.5 0.275 7.3C0.0916667 7.11667 0 6.88333 0 6.6C0 6.31667 0.0916667 6.08333 0.275 5.9L5.875 0.3C6.075 0.1 6.30833 0 6.575 0C6.84167 0 7.075 0.1 7.275 0.3L12.875 5.9C13.0583 6.08333 13.1542 6.3125 13.1625 6.5875C13.1708 6.8625 13.075 7.1 12.875 7.3C12.6917 7.48333 12.4583 7.575 12.175 7.575C11.8917 7.575 11.6583 7.48333 11.475 7.3L6.575 2.425Z" fill="#00038F"/>
</svg>
