<svg width="40" height="40" viewBox="0 0 40 40" fill="none" xmlns="http://www.w3.org/2000/svg">
<path d="M30.8385 11.6673C33.1397 11.6673 35.0052 9.80184 35.0052 7.50065C35.0052 5.19946 33.1397 3.33398 30.8385 3.33398C28.5374 3.33398 26.6719 5.19946 26.6719 7.50065C26.6719 9.80184 28.5374 11.6673 30.8385 11.6673Z" stroke="#00038F" stroke-width="2"/>
<path d="M15 28.334L13.332 30.3355C12.1033 31.81 11.489 32.5472 10.6491 32.9407C9.8092 33.334 8.84955 33.334 6.93022 33.334H5" stroke="#00038F" stroke-width="2" stroke-linecap="round"/>
<path d="M6.05458 14.9734C5.45434 15.3145 5.24423 16.0775 5.58528 16.6778C5.92631 17.278 6.68938 17.4881 7.28961 17.147L6.05458 14.9734ZM35.0054 21.2496C35.6958 21.2496 36.2554 20.69 36.2554 19.9996C36.2554 19.3093 35.6958 18.7496 35.0054 18.7496V21.2496ZM8.44738 13.6139L6.05458 14.9734L7.28961 17.147L9.68241 15.7875L8.44738 13.6139ZM25.2158 17.5686L25.3196 17.7245L27.3998 16.3377L27.2958 16.1819L25.2158 17.5686ZM18.4158 9.84579C18.2451 9.82807 18.0938 9.81727 17.9604 9.81135L17.8496 12.3089C17.9319 12.3125 18.0341 12.3196 18.1578 12.3324L18.4158 9.84579ZM9.68241 15.7875C13.5463 13.5921 15.3255 12.6057 17.1011 12.3605L16.7591 9.88404C14.3939 10.2106 12.1278 11.5227 8.44738 13.6139L9.68241 15.7875ZM31.9066 21.2496H35.0054V18.7496H31.9066V21.2496ZM17.9604 9.81135C17.5219 9.79192 17.1083 9.83582 16.7591 9.88404L17.1011 12.3605C17.3979 12.3196 17.6364 12.2995 17.8496 12.3089L17.9604 9.81135ZM25.3196 17.7245C26.7879 19.9268 29.2596 21.2496 31.9066 21.2496V18.7496C30.0956 18.7496 28.4043 17.8445 27.3998 16.3377L25.3196 17.7245ZM27.2958 16.1819C25.3334 13.2384 22.3869 10.258 18.4158 9.84579L18.1578 12.3324C20.9953 12.627 23.3811 14.8168 25.2158 17.5686L27.2958 16.1819Z" fill="#00038F"/>
<path d="M23.3326 14.166L19.6312 18.792C18.2372 20.5343 17.5401 21.4057 17.4289 22.3543C17.3664 22.8877 17.4337 23.4282 17.6251 23.93C17.9654 24.8225 18.8547 25.4962 20.6336 26.8437C21.9884 27.8702 22.6657 28.3833 23.1249 29.0542C23.3867 29.4368 23.5941 29.8542 23.7411 30.2938C23.9986 31.065 23.9986 31.9149 23.9986 33.6147V36.6657" stroke="#00038F" stroke-width="2" stroke-linecap="round"/>
</svg>
