<svg width="28" height="28" viewBox="0 0 28 28" fill="none" xmlns="http://www.w3.org/2000/svg">
<path fill-rule="evenodd" clip-rule="evenodd" d="M9.4345 9.33398H10.9197C11.3394 9.34417 11.6715 9.69244 11.6617 10.1122V17.8892C11.6715 18.3088 11.3394 18.6572 10.9197 18.6673H9.4345C9.01481 18.6572 8.68273 18.3088 8.6925 17.8892V16.334H6.57034C6.15064 16.3238 5.81856 15.9755 5.82834 15.5558V12.4455C5.81856 12.0258 6.15064 11.6775 6.57034 11.6673H8.6925V10.1122C8.68273 9.69244 9.01481 9.34417 9.4345 9.33398Z" stroke="#00038F" stroke-width="2" stroke-linecap="round" stroke-linejoin="round"/>
<path fill-rule="evenodd" clip-rule="evenodd" d="M18.5555 18.6673H17.0703C16.6506 18.6572 16.3185 18.3088 16.3283 17.8892V10.1122C16.3185 9.69244 16.6506 9.34417 17.0703 9.33398H18.5555C18.9752 9.34417 19.3073 9.69244 19.2975 10.1122V11.6673H21.4185C21.6202 11.6719 21.8119 11.7565 21.9513 11.9024C22.0906 12.0484 22.1663 12.2438 22.1617 12.4455V15.5558C22.1715 15.9755 21.8393 16.3238 21.4197 16.334H19.2975V17.8892C19.3073 18.3088 18.9752 18.6572 18.5555 18.6673Z" stroke="#00038F" stroke-width="2" stroke-linecap="round" stroke-linejoin="round"/>
<path d="M7.82812 16.3327C7.82812 16.8159 8.21988 17.2077 8.70312 17.2077C9.18637 17.2077 9.57812 16.8159 9.57812 16.3327H7.82812ZM9.57812 11.666C9.57812 11.1828 9.18637 10.791 8.70312 10.791C8.21988 10.791 7.82812 11.1828 7.82812 11.666H9.57812ZM20.1843 11.666C20.1843 11.1828 19.7925 10.791 19.3093 10.791C18.8261 10.791 18.4343 11.1828 18.4343 11.666H20.1843ZM18.4343 16.3327C18.4343 16.8159 18.8261 17.2077 19.3093 17.2077C19.7925 17.2077 20.1843 16.8159 20.1843 16.3327H18.4343ZM11.6723 13.1243C11.189 13.1243 10.7973 13.5161 10.7973 13.9993C10.7973 14.4826 11.189 14.8743 11.6723 14.8743V13.1243ZM16.339 14.8743C16.8222 14.8743 17.214 14.4826 17.214 13.9993C17.214 13.5161 16.8222 13.1243 16.339 13.1243V14.8743ZM9.57812 16.3327V11.666H7.82812V16.3327H9.57812ZM18.4343 11.666V16.3327H20.1843V11.666H18.4343ZM11.6723 14.8743H16.339V13.1243H11.6723V14.8743Z" fill="#00038F"/>
</svg>
