<svg width="40" height="40" viewBox="0 0 40 40" fill="none" xmlns="http://www.w3.org/2000/svg">
<path d="M15.7759 19.7948C15.8893 20.208 16.3164 20.4501 16.7283 20.3364C17.1416 20.2222 17.3835 19.7959 17.2699 19.3831C17.0949 18.7494 16.7184 18.2027 16.2146 17.8125C15.7109 17.423 15.0731 17.1895 14.3882 17.1895C13.7084 17.1895 13.0745 17.419 12.5727 17.8041C12.0705 18.1891 11.6934 18.7295 11.5144 19.3572C11.3968 19.7688 11.6354 20.1973 12.0469 20.3149C12.4586 20.432 12.8876 20.1934 13.0047 19.7818C13.0898 19.4827 13.2712 19.2209 13.515 19.0349C13.7584 18.8489 14.0569 18.7398 14.3882 18.7393C14.722 18.7398 15.0219 18.8507 15.2671 19.039C15.5111 19.2272 15.6926 19.4928 15.7759 19.7948Z" fill="#00038F"/>
<path d="M24.3639 19.7823C24.4493 19.4827 24.6313 19.2215 24.8744 19.0348C25.1183 18.8488 25.4169 18.7398 25.7482 18.7392C26.0818 18.7398 26.3817 18.8506 26.6268 19.0389C26.8707 19.2272 27.0522 19.4928 27.1356 19.7948C27.2493 20.208 27.6755 20.4501 28.0882 20.3364C28.5013 20.2222 28.7432 19.7959 28.6293 19.3831C28.4546 18.7494 28.0783 18.2027 27.574 17.8125C27.0706 17.423 26.4328 17.1895 25.7482 17.1895C25.068 17.1895 24.4343 17.419 23.9325 17.8041C23.4301 18.1891 23.0533 18.7295 22.8738 19.3572C22.7562 19.7681 22.9942 20.1967 23.4058 20.3144C23.8175 20.432 24.2465 20.194 24.3639 19.7823Z" fill="#00038F"/>
<path d="M38.5942 17.0077C37.808 16.2213 36.7409 15.7056 35.5607 15.6191C34.8237 12.1522 32.9681 9.09914 30.3912 6.85688C27.575 4.40766 23.8888 2.92188 19.8641 2.92188C15.8452 2.92188 12.1634 4.40313 9.34984 6.845C6.75703 9.09461 4.89305 12.1634 4.16 15.6478C3.09031 15.7875 2.12773 16.2833 1.40375 17.0076C0.537969 17.8732 0 19.0798 0 20.4016C0 21.7212 0.537969 22.9277 1.40383 23.7933C2.26914 24.6589 3.47563 25.1971 4.79727 25.1971C4.88852 25.1971 4.97672 25.1948 5.06547 25.1903C6.22109 27.9358 8.11656 30.2934 10.5033 32.0116C11.6012 32.802 12.8058 33.4573 14.0898 33.953C13.9352 33.4109 13.8552 32.8416 13.8552 32.2614C13.8552 31.994 13.8727 31.726 13.9083 31.4648C13.1645 31.1104 12.4581 30.6903 11.796 30.2142C9.5243 28.5798 7.76633 26.2708 6.81672 23.5852L6.47359 22.6155L5.48164 22.888C5.25352 22.9497 5.02789 22.983 4.79727 22.983C4.08039 22.983 3.44063 22.6952 2.97078 22.226C2.5018 21.7562 2.21375 21.1167 2.21375 20.4015C2.21375 19.684 2.50172 19.0441 2.97078 18.5748C3.44063 18.1055 4.08031 17.8177 4.79727 17.8177C4.84188 17.8177 4.90836 17.8223 5.00164 17.8284L6.03055 17.9082L6.18383 16.8905C6.68391 13.5645 8.37094 10.6268 10.7998 8.51906C11.4068 7.99266 12.0601 7.51836 12.7518 7.10219C12.8117 7.47758 12.9042 7.8293 13.033 8.15211C13.2369 8.66492 13.5235 9.1093 13.8622 9.48867C14.4567 10.1541 15.2002 10.6228 15.9767 11.0066C17.1425 11.5794 18.4022 11.9763 19.4611 12.471C19.99 12.7164 20.4661 12.9833 20.857 13.2909C21.2488 13.6001 21.5541 13.9427 21.7715 14.3599C21.8888 14.5855 22.1226 14.7235 22.3765 14.7178C22.6309 14.7116 22.8576 14.5629 22.9642 14.3316C24.1122 11.844 24.5263 9.88664 24.5266 8.34945C24.5284 7.30008 24.3305 6.45148 24.0523 5.7832C25.8722 6.36102 27.529 7.30289 28.9388 8.5275C31.3699 10.6426 33.0525 13.5871 33.5484 16.9211L33.7126 18.0191L34.8105 17.8511C34.9566 17.8284 35.0853 17.8177 35.2023 17.8177C35.9198 17.8177 36.557 18.1055 37.0287 18.5748C37.4984 19.0441 37.7838 19.684 37.7858 20.4015C37.7838 21.1166 37.4984 21.7561 37.0287 22.226C36.557 22.6952 35.9198 22.983 35.2023 22.983C34.9057 22.983 34.622 22.9293 34.3477 22.8349L33.2984 22.4646L32.9328 23.5139C31.994 26.2175 30.2385 28.5446 27.9623 30.1915C27.3667 30.6229 26.736 31.0085 26.0739 31.3409C26.1205 31.644 26.1423 31.9498 26.1423 32.2613C26.1423 32.7996 26.0739 33.3266 25.941 33.8337C27.1258 33.3468 28.2396 32.7244 29.2595 31.9848C31.6355 30.2644 33.5213 27.9108 34.671 25.1659C34.8435 25.1856 35.023 25.197 35.2022 25.197C36.5244 25.197 37.7283 24.6587 38.5942 23.7931C39.4595 22.9277 40 21.7212 40 20.4016C40 19.0798 39.4595 17.8732 38.5942 17.0077ZM17.3152 10.1564C16.352 9.75047 15.5071 9.29703 14.9344 8.69266C14.646 8.38961 14.4198 8.05094 14.2593 7.64109C14.1259 7.30016 14.041 6.90211 14.0148 6.43289C14.8846 6.02633 15.8022 5.70578 16.7591 5.48641C16.7637 6.23836 16.9387 7.41547 17.6872 8.83C18.0213 9.46438 18.4697 10.1439 19.0641 10.8563C18.4702 10.6166 17.8746 10.3934 17.3152 10.1564ZM22.3968 12.237C20.5282 10.7341 19.4645 9.35133 18.8615 8.20977C18.2062 6.96711 18.0884 6.00648 18.0872 5.45016C18.0872 5.37555 18.0897 5.30992 18.0931 5.25062C18.6729 5.17656 19.2634 5.13586 19.8641 5.13586C20.6774 5.13586 21.4732 5.20883 22.2475 5.34273C22.3272 5.43547 22.4106 5.5418 22.4934 5.66672C22.8431 6.19703 23.1956 7.02984 23.1982 8.34945C23.1985 9.34625 22.9887 10.6263 22.3968 12.237Z" fill="#00038F"/>
<path d="M20.0025 27.4473C18.6767 27.4467 17.4654 27.9884 16.5975 28.8579C15.7283 29.7252 15.1872 30.9368 15.1875 32.2626C15.1872 33.5884 15.7283 34.8 16.5975 35.6673C17.4653 36.5369 18.6766 37.0779 20.0025 37.0773C21.3286 37.0779 22.5399 36.5369 23.4075 35.6673C24.2773 34.8 24.8181 33.5884 24.8178 32.2626C24.8181 30.9368 24.2773 29.7252 23.4075 28.8579C22.5399 27.9884 21.3286 27.4467 20.0025 27.4473ZM22.2425 33.2085C22.0591 33.6427 21.7495 34.0164 21.3608 34.2788C20.9709 34.5411 20.5102 34.6927 20.0025 34.6931C19.6638 34.6926 19.347 34.6248 19.0572 34.502C18.6224 34.3188 18.249 34.0091 17.9866 33.6206C17.7243 33.2311 17.573 32.7698 17.5725 32.2626C17.5725 31.9234 17.6403 31.6068 17.7627 31.3167C17.9462 30.8825 18.2557 30.5088 18.6445 30.2465C19.034 29.9841 19.4951 29.8326 20.0025 29.832C20.3417 29.8326 20.658 29.9005 20.9481 30.0226C21.3832 30.2063 21.7566 30.5162 22.0189 30.9046C22.2812 31.2936 22.4325 31.7555 22.4328 32.2627C22.4327 32.6013 22.3649 32.9178 22.2425 33.2085Z" fill="#00038F"/>
<path d="M20.0007 24.5586C16.7309 24.5586 14.0781 26.1439 14.0781 28.1007C14.0781 28.6853 14.3153 29.2371 14.7363 29.7239C14.9907 29.3033 15.3005 28.9092 15.6567 28.5525C16.8152 27.3929 18.3581 26.7529 19.9985 26.7529C21.6457 26.7529 23.1866 27.3929 24.3465 28.5552C24.703 28.9092 25.0111 29.3032 25.2655 29.7239C25.6865 29.2371 25.923 28.6853 25.923 28.1007C25.923 26.144 23.2729 24.5586 20.0007 24.5586Z" fill="#00038F"/>
</svg>
