<svg width="40" height="40" viewBox="0 0 40 40" fill="none" xmlns="http://www.w3.org/2000/svg">
<path d="M31.6615 33.334V30.834M8.32812 33.334V30.834" stroke="#00038F" stroke-width="2" stroke-linecap="round"/>
<path d="M3.32812 25C3.32812 23.4468 3.32813 22.6703 3.58186 22.0577C3.92018 21.241 4.56909 20.592 5.38584 20.2537C5.99843 20 6.77499 20 8.32812 20H31.6615C33.2146 20 33.9911 20 34.6038 20.2537C35.4205 20.592 36.0695 21.241 36.4078 22.0577C36.6615 22.6703 36.6615 23.4468 36.6615 25C36.6615 26.5532 36.6615 27.3297 36.4078 27.9423C36.0695 28.759 35.4205 29.408 34.6038 29.7463C33.9911 30 33.2146 30 31.6615 30H8.32812C6.77499 30 5.99843 30 5.38584 29.7463C4.56909 29.408 3.92018 28.759 3.58186 27.9423C3.32813 27.3297 3.32812 26.5532 3.32812 25Z" stroke="#00038F" stroke-width="2"/>
<path d="M35 19.9993C35 13.7139 35 10.5713 33.0473 8.61863C31.0948 6.66602 27.952 6.66602 21.6667 6.66602H18.3333C12.0479 6.66602 8.90525 6.66602 6.95262 8.61863C5 10.5713 5 13.7139 5 19.9993" stroke="#00038F" stroke-width="2"/>
<path d="M30.8385 20.0007V17.5007C30.8385 14.358 30.8385 12.7866 29.8622 11.8103C28.8859 10.834 27.3145 10.834 24.1719 10.834H15.8385C12.6958 10.834 11.1245 10.834 10.1482 11.8103C9.17188 12.7866 9.17188 14.358 9.17188 17.5007V20.0007" stroke="#00038F" stroke-width="2"/>
<path d="M20 11.666V19.9993" stroke="#00038F" stroke-width="2"/>
</svg>
