<svg width="40" height="40" viewBox="0 0 40 40" fill="none" xmlns="http://www.w3.org/2000/svg">
<g clip-path="url(#clip0_705_6473)">
<path d="M38.1011 6.91665C37.1981 6.01352 36.0709 5.40892 34.8445 5.15532C34.5909 3.92892 33.9862 2.80181 33.0832 1.89884C30.5516 -0.63287 26.4538 -0.633026 23.922 1.89884C21.6437 4.17712 21.4499 7.665 23.1595 10.1455L10.1446 23.1604C7.62285 21.4286 4.13832 21.6824 1.89887 23.922C-0.632762 26.4536 -0.633153 30.5514 1.89887 33.0832C2.80184 33.9862 3.9291 34.591 5.15543 34.8446C5.40902 36.0709 6.01371 37.1981 6.91675 38.101C9.44831 40.6328 13.5461 40.6331 16.078 38.101C18.3175 35.8616 18.5715 32.377 16.8396 29.8553L29.8554 16.8395C32.3773 18.5715 35.8618 18.3173 38.1011 16.0779C40.6326 13.5464 40.633 9.44852 38.1011 6.91665ZM36.1279 14.1048C34.6867 15.5458 32.3542 15.546 30.913 14.1048C30.1475 13.3393 29.3201 13.4284 28.7955 13.953L13.953 28.7954C13.4468 29.3015 13.3146 30.1228 14.1047 30.9129C15.5459 32.3541 15.5459 34.6865 14.1047 36.1278C12.6636 37.5689 10.331 37.5691 8.8898 36.1278C8.2062 35.4442 7.82316 34.5346 7.81121 33.5665C7.80183 32.8095 7.19042 32.1981 6.4334 32.1887C5.46527 32.1767 4.55559 31.7936 3.87199 31.1101C2.4309 29.669 2.43075 27.3364 3.87199 25.8952C5.30965 24.4575 7.64902 24.4575 9.08691 25.8952C9.85058 26.6589 10.6768 26.5747 11.2044 26.0469L26.0468 11.2045C26.553 10.6984 26.6852 9.87719 25.8951 9.08703C24.454 7.64594 24.4538 5.31337 25.8951 3.87212C27.3362 2.43103 29.6687 2.43087 31.11 3.87212C31.7936 4.55563 32.1766 5.46524 32.1886 6.43352C32.198 7.19047 32.8094 7.80188 33.5664 7.81133C34.5346 7.82336 35.4442 8.20649 36.1278 8.88992C37.569 10.3309 37.5692 12.6634 36.1279 14.1048Z" fill="#00038F"/>
</g>
<defs>
<clipPath id="clip0_705_6473">
<rect width="40" height="40" fill="white"/>
</clipPath>
</defs>
</svg>
