<svg width="32" height="32" viewBox="0 0 32 32" fill="none" xmlns="http://www.w3.org/2000/svg">
<path d="M14.3531 11.5188C16.8522 11.5188 18.8781 9.49284 18.8781 6.99375C18.8781 4.49466 16.8522 2.46875 14.3531 2.46875C11.854 2.46875 9.82812 4.49466 9.82812 6.99375C9.82812 9.49284 11.854 11.5188 14.3531 11.5188Z" fill="#5D5D5D"/>
<path d="M14.9062 22.4945L17.45 21.1758V15.707V15.1133V13.6445H16.5187V16.4508H12.1938V13.6445H9.575L9.53125 13.7383V29.532H13.0312V26.4508H14.9062V22.4945Z" fill="#BDBDBD"/>
<path d="M2.82188 17.9691L1.67188 20.2879L6.82188 22.6941C7.39063 22.9566 8.06563 22.7191 8.33438 22.1566L8.64688 21.5129V15.5566L6.65313 19.6879L2.82188 17.9691Z" fill="#5D5D5D"/>
<path d="M25.9063 14.2379V12.0566H18.325V14.2379H23.05V15.9816L22.1125 15.8254L19.1813 16.3066L18.325 16.4504V21.7066L15.7812 23.0254V26.4504H28.45V23.0254L25.9063 21.7066V16.4504L24.9188 16.2879V14.2379H25.9063Z" fill="#5D5D5D"/>
<path d="M29.325 27.3242H15.7813H13.9062V29.5305H30.325V27.3242H29.325Z" fill="#5D5D5D"/>
<path d="M1.83594 29.834L29.8359 1.83398" stroke="#AAAAAA" stroke-width="2" stroke-linecap="round"/>
</svg>
