<svg width="32" height="32" viewBox="0 0 32 32" fill="none" xmlns="http://www.w3.org/2000/svg">
<path d="M4.13281 30.7313H21.4266V25.8438H4.13281V30.7313ZM6.28906 27.85H8.44531C8.68906 27.85 8.88281 28.0438 8.88281 28.2875C8.88281 28.5313 8.68906 28.725 8.44531 28.725H6.28906C6.04531 28.725 5.85156 28.5313 5.85156 28.2875C5.85156 28.05 6.05156 27.85 6.28906 27.85Z" fill="#5D5D5D"/>
<path d="M23.3781 1.26953C20.9031 1.26953 18.8906 3.27578 18.8906 5.75703C18.8906 6.21328 18.9594 6.65078 19.0844 7.06953H22.0531C22.1344 6.98828 22.2469 6.93203 22.3656 6.93203H23.5781C23.7844 6.93203 23.9469 6.76953 23.9469 6.56328C23.9469 6.35703 23.7781 6.19453 23.5781 6.19453H23.1719C22.4844 6.19453 21.9281 5.63828 21.9281 4.95078C21.9281 4.34453 22.3656 3.83828 22.9406 3.73203V3.41953C22.9406 3.17578 23.1344 2.98203 23.3781 2.98203C23.6219 2.98203 23.8156 3.17578 23.8156 3.41953V3.70703H24.3906C24.6344 3.70703 24.8281 3.90078 24.8281 4.14453C24.8281 4.38828 24.6344 4.58203 24.3906 4.58203H23.1781C22.9719 4.58203 22.8094 4.74453 22.8094 4.95078C22.8094 5.15703 22.9719 5.31953 23.1781 5.31953H23.5844C24.2719 5.31953 24.8281 5.87578 24.8281 6.56328C24.8281 7.16953 24.3906 7.67578 23.8156 7.78828V8.10078C23.8156 8.34453 23.6219 8.53828 23.3781 8.53828C23.1344 8.53828 22.9406 8.34453 22.9406 8.10078V7.81328H22.3656C22.3406 7.81328 22.3156 7.81328 22.2969 7.80703V10.1195C22.6406 10.207 23.0031 10.2508 23.3781 10.2508C25.8531 10.2508 27.8656 8.24453 27.8656 5.76328C27.8656 3.28203 25.8531 1.26953 23.3781 1.26953Z" fill="#BDBDBD"/>
<path d="M4.13281 15.8H6.20781V15.25H9.60156V15.8H11.0828V15.25H14.4766V15.8H15.9578V15.25H19.3516V15.8H21.4266V7.9375H4.13281V15.8ZM15.9578 11.1C15.9578 10.925 16.1016 10.7875 16.2703 10.7875H16.7391V9.425H18.5641V10.7875H19.0391C19.2141 10.7875 19.3516 10.925 19.3516 11.1V11.2688H15.9578V11.1ZM15.9578 12.1438H19.3516V14.375H15.9578V12.1438ZM11.0828 11.1C11.0828 10.925 11.2266 10.7875 11.3953 10.7875H11.8641V9.425H13.6891V10.7875H14.1641C14.3391 10.7875 14.4766 10.925 14.4766 11.1V11.2688H11.0828V11.1ZM11.0828 12.1438H14.4766V14.375H11.0828V12.1438ZM6.21406 11.1C6.21406 10.925 6.35781 10.7875 6.52656 10.7875H7.00156V9.425H8.82656V10.7875H9.30156C9.47656 10.7875 9.61406 10.925 9.61406 11.1V11.2688H6.21406V11.1ZM6.21406 12.1438H9.60781V14.375H6.21406V12.1438Z" fill="#5D5D5D"/>
<path d="M4.13281 24.9695H21.4266V16.6758H4.13281V24.9695ZM15.9578 20.8883C16.2203 20.6258 16.3703 19.457 16.6391 19.1945H18.6766C18.9391 19.457 19.0891 20.6258 19.3516 20.8883V21.532H15.9578V20.8883ZM15.9578 22.407H19.3516V24.1758H15.9578V22.407ZM11.0828 20.8883C11.3453 20.6258 11.4953 19.457 11.7641 19.1945H13.8016C14.0641 19.457 14.2141 20.6258 14.4766 20.8883V21.532H11.0828V20.8883ZM11.0828 22.407H14.4766V24.1758H11.0828V22.407ZM6.21406 20.8883C6.47656 20.6258 6.62656 19.457 6.89531 19.1945H8.93281C9.19531 19.457 9.34531 20.6258 9.61406 20.8883V21.532H6.21406V20.8883ZM6.21406 22.407H9.60781V24.1758H6.21406V22.407Z" fill="#BDBDBD"/>
<path d="M1.83594 29.834L29.8359 1.83398" stroke="#AAAAAA" stroke-width="2" stroke-linecap="round"/>
</svg>
