<svg width="32" height="32" viewBox="0 0 32 32" fill="none" xmlns="http://www.w3.org/2000/svg">
<path d="M28.4172 3.86914C28.4172 3.86914 26.7547 4.08789 25.1172 5.88789V12.4691H26.0734C26.1547 12.4691 26.2297 12.4754 26.3047 12.4816C26.6172 11.2129 27.4734 8.88789 29.6547 7.82539L28.4172 3.86914Z" fill="#5D5D5D"/>
<path d="M27.3875 16.5016C27.725 16.1703 27.9312 15.7016 27.9312 15.1953C27.9312 14.3516 27.3625 13.6391 26.5875 13.4203C26.425 13.3766 26.2562 13.3516 26.0812 13.3516H15.1562L14 14.9141C13.775 15.2203 13.4937 15.4641 13.1687 15.6328C12.8125 15.8203 12.4188 15.9203 12.0063 15.9203H9.09375V25.5516H11.6C12.5063 25.5516 13.3375 26.0453 13.775 26.8391C13.9875 27.2391 14.3062 27.5578 14.6812 27.7828C15.0562 28.0078 15.4938 28.1266 15.9438 28.1266H26.075H26.5812V28.0641C26.8875 27.9766 27.1625 27.8141 27.3813 27.5953C27.7188 27.2578 27.925 26.7953 27.925 26.2891C27.925 25.4453 27.3562 24.7266 26.5812 24.5078C26.4187 24.4641 26.25 24.4391 26.075 24.4391C26.25 24.4391 26.4187 24.4141 26.5812 24.3703C26.8875 24.2828 27.1625 24.1203 27.3813 23.9016C27.7188 23.5641 27.925 23.1016 27.925 22.5953C27.925 21.7453 27.3562 21.0328 26.5812 20.8141C26.4187 20.7703 26.25 20.7453 26.075 20.7453C26.25 20.7453 26.4187 20.7203 26.5812 20.6766C26.8875 20.5891 27.1625 20.4266 27.3813 20.2078C27.7188 19.8703 27.925 19.4078 27.925 18.9016C27.925 18.0578 27.3562 17.3453 26.5812 17.1266C26.4187 17.0828 26.25 17.0578 26.075 17.0578C26.25 17.0578 26.4187 17.0328 26.5812 16.9891C26.8875 16.8828 27.1625 16.7203 27.3875 16.5016Z" fill="#5D5D5D"/>
<path d="M14.5031 10.6879C14.8219 11.3504 15.0219 11.9816 15.1406 12.4691H16.3344V5.88164C14.6969 4.08164 13.0344 3.86914 13.0344 3.86914L11.7969 7.81914C13.1469 8.48164 13.9844 9.61914 14.5031 10.6879Z" fill="#5D5D5D"/>
<path d="M12.995 14.7066C13.1075 14.6191 13.2075 14.5129 13.295 14.3941L14.3637 12.9441L14.295 12.6816C14.2075 12.3254 14.0512 11.8066 13.8012 11.2441C13.3012 11.8004 12.7575 12.8566 12.995 14.7066Z" fill="#5D5D5D"/>
<path d="M19.2109 8.26211C19.7859 8.26211 20.2547 7.79336 20.2547 7.21836H21.1984C21.1984 7.79336 21.6672 8.26211 22.2422 8.26211V12.4684H24.2422V4.06836H17.2109V12.4684H19.2109V8.26211Z" fill="#BDBDBD"/>
<path d="M2.33594 28.0195H8.21719V13.457H2.33594V28.0195ZM5.27969 15.632C5.79219 15.632 6.20469 16.0445 6.20469 16.557C6.20469 17.0695 5.79219 17.482 5.27969 17.482C4.76719 17.482 4.35469 17.0695 4.35469 16.557C4.35469 16.0445 4.76719 15.632 5.27969 15.632Z" fill="#BDBDBD"/>
<path d="M1.83594 29.834L29.8359 1.83398" stroke="#AAAAAA" stroke-width="2" stroke-linecap="round"/>
</svg>
