<svg width="30" height="24" viewBox="0 0 30 24" fill="none" xmlns="http://www.w3.org/2000/svg">
<path d="M28.9516 11.1565L27.1953 9.72521L25.6391 9.88771C26.0266 9.12521 25.8453 8.17521 25.1578 7.61271C24.4453 7.03146 23.4016 7.06896 22.7328 7.68771C22.6266 7.78771 22.5766 7.93146 22.5953 8.06271H18.6141C17.8328 8.06271 17.1953 8.70021 17.1953 9.48146V14.1127H7.96406V9.48146C7.96406 8.70021 7.32656 8.06271 6.54531 8.06271H2.27031C1.48906 8.06271 0.851562 8.70021 0.851562 9.48146V18.6565C0.851562 19.7752 1.75781 20.6877 2.88281 20.6877H22.2766C23.3953 20.6877 24.3078 19.7815 24.3078 18.6565V10.8752C24.6078 10.8252 24.9016 10.694 25.1453 10.5002L25.3078 12.0565L27.0641 13.4877C27.2953 13.6752 27.6391 13.644 27.8266 13.4065L29.0328 11.9252C29.2203 11.6877 29.1828 11.344 28.9516 11.1565ZM24.7453 9.66271C24.6266 9.81271 24.4703 9.91271 24.3016 9.96896V9.48146C24.3016 8.91896 23.9703 8.43146 23.4953 8.20021C23.8391 8.00021 24.2828 8.02521 24.6016 8.28771C25.0203 8.63146 25.0828 9.25021 24.7453 9.66271Z" fill="#5D5D5D"/>
<path d="M8.8375 9.48125V13.2375H16.3188V9.48125C16.3188 8.21875 17.35 7.1875 18.6125 7.1875H21.25V2.71875C21.25 1.525 20.2812 0.5625 19.0938 0.5625H6.0625C4.86875 0.5625 3.90625 1.53125 3.90625 2.71875V7.1875H6.54375C7.80625 7.1875 8.8375 8.21875 8.8375 9.48125Z" fill="#BDBDBD"/>
<path d="M3.90625 23.4375H5.81875L7.28125 21.5625H3.90625V23.4375Z" fill="#BDBDBD"/>
<path d="M19.3375 23.4375H21.25V21.5625H17.875L19.3375 23.4375Z" fill="#BDBDBD"/>
</svg>
