<svg width="24" height="24" viewBox="0 0 24 24" fill="none" xmlns="http://www.w3.org/2000/svg">
<path d="M2.3999 1.99316C1.84762 1.99316 1.3999 2.44088 1.3999 2.99316C1.3999 3.54545 1.84762 3.99316 2.3999 3.99316V1.99316ZM4.69244 2.99316L5.65767 2.73175C5.53961 2.29585 5.14405 1.99316 4.69244 1.99316V2.99316ZM8.41781 16.7484L7.45259 17.0098C7.58285 17.4908 8.04737 17.8025 8.54185 17.7407L8.41781 16.7484ZM19.8805 15.3156L20.0045 16.3078C20.4292 16.2547 20.773 15.9373 20.8598 15.5182L19.8805 15.3156ZM21.5999 7.00511L22.5792 7.20771C22.6401 6.9132 22.5652 6.6069 22.3753 6.37368C22.1854 6.14047 21.9007 6.00511 21.5999 6.00511V7.00511ZM5.77901 7.00511L4.81378 7.26652L5.77901 7.00511ZM2.3999 3.99316H4.69244V1.99316H2.3999V3.99316ZM8.54185 17.7407L20.0045 16.3078L19.7565 14.3233L8.29378 15.7561L8.54185 17.7407ZM20.8598 15.5182L22.5792 7.20771L20.6206 6.8025L18.9012 15.1129L20.8598 15.5182ZM3.72721 3.25458L4.81378 7.26652L6.74423 6.74369L5.65767 2.73175L3.72721 3.25458ZM4.81378 7.26652L7.45259 17.0098L9.38304 16.487L6.74423 6.74369L4.81378 7.26652ZM21.5999 6.00511H5.77901V8.00511H21.5999V6.00511ZM10.9999 20.5004C10.9999 20.7766 10.776 21.0004 10.4999 21.0004V23.0004C11.8806 23.0004 12.9999 21.8811 12.9999 20.5004H10.9999ZM10.4999 21.0004C10.2238 21.0004 9.9999 20.7766 9.9999 20.5004H7.9999C7.9999 21.8811 9.11919 23.0004 10.4999 23.0004V21.0004ZM9.9999 20.5004C9.9999 20.2243 10.2238 20.0004 10.4999 20.0004V18.0004C9.11919 18.0004 7.9999 19.1197 7.9999 20.5004H9.9999ZM10.4999 20.0004C10.776 20.0004 10.9999 20.2243 10.9999 20.5004H12.9999C12.9999 19.1197 11.8806 18.0004 10.4999 18.0004V20.0004ZM18.9999 20.5004C18.9999 20.7766 18.776 21.0004 18.4999 21.0004V23.0004C19.8806 23.0004 20.9999 21.8811 20.9999 20.5004H18.9999ZM18.4999 21.0004C18.2238 21.0004 17.9999 20.7766 17.9999 20.5004H15.9999C15.9999 21.8811 17.1192 23.0004 18.4999 23.0004V21.0004ZM17.9999 20.5004C17.9999 20.2243 18.2238 20.0004 18.4999 20.0004V18.0004C17.1192 18.0004 15.9999 19.1197 15.9999 20.5004H17.9999ZM18.4999 20.0004C18.776 20.0004 18.9999 20.2243 18.9999 20.5004H20.9999C20.9999 19.1197 19.8806 18.0004 18.4999 18.0004V20.0004Z" fill="black"/>
</svg>
