<svg width="32" height="32" viewBox="0 0 32 32" fill="none" xmlns="http://www.w3.org/2000/svg">
<path d="M27.3021 16.3927V13.4555C28.3022 13.072 29.0125 12.1034 29.0125 10.9683C29.0125 9.4973 27.82 8.3048 26.349 8.3048C25.7132 8.3048 25.1297 8.52786 24.6718 8.89961L22.1274 7.43061V2.00586H20.2214V7.43067L16 9.86792L11.7786 7.43061V2.00586H9.87256V7.43067L7.32819 8.89967C6.87025 8.52792 6.28681 8.30486 5.651 8.30486C4.18 8.30486 2.9875 9.49736 2.9875 10.9684C2.9875 12.1035 3.69788 13.0721 4.698 13.4556V16.3928L0 19.105L0.953 20.7557L5.65063 18.0435L9.87244 20.481V25.3552L5.1745 28.0675L6.1275 29.7182L10.8254 27.0058L15.9999 29.9933L19.4972 27.974C19.9552 28.3458 20.5386 28.5689 21.1744 28.5689C22.6454 28.5689 23.8379 27.3764 23.8379 25.9054C23.8379 24.7702 23.1276 23.8016 22.1274 23.4181V20.4809L26.3493 18.0435L31.0469 20.7557L32 19.1051L27.3021 16.3927ZM10.8252 18.8301L6.60413 16.393V13.4555C7.60425 13.072 8.3145 12.1034 8.3145 10.9682C8.3145 10.8259 8.30306 10.6863 8.2815 10.5499L10.8254 9.08117L15.0469 11.5185V14.456C14.0468 14.8395 13.3364 15.8082 13.3364 16.9433C13.3364 17.0855 13.3479 17.225 13.3694 17.3612L10.8252 18.8301ZM20.2214 23.4182C19.2213 23.8017 18.511 24.7704 18.511 25.9055C18.511 26.0478 18.5224 26.1874 18.544 26.3238L16 27.7925L11.7786 25.3551V20.481L14.3229 19.012C14.7809 19.3837 15.3643 19.6068 16.0001 19.6068C16.6358 19.6068 17.2193 19.3837 17.6772 19.012L20.2216 20.481V23.4182H20.2214ZM25.3961 16.3931L21.1749 18.8302L18.6306 17.3612C18.6521 17.225 18.6636 17.0855 18.6636 16.9433C18.6636 15.8082 17.9533 14.8395 16.9531 14.456V11.5185L21.1746 9.08117L23.7185 10.5499C23.6969 10.6863 23.6855 10.8259 23.6855 10.9682C23.6855 12.1034 24.3959 13.072 25.396 13.4555V16.3931H25.3961Z" fill="#00038F"/>
</svg>
