<svg width="24" height="24" viewBox="0 0 24 24" fill="none" xmlns="http://www.w3.org/2000/svg">
<path d="M13.8754 9.98295C14.056 10.5049 14.6255 10.7816 15.1474 10.601C15.6693 10.4204 15.946 9.85085 15.7654 9.32893L13.8754 9.98295ZM13.2004 8.43372L13.2443 7.43469C13.2297 7.43404 13.215 7.43372 13.2004 7.43372V8.43372ZM10.8004 12.1004V13.1004V12.1004ZM13.2004 15.7671V16.7671V15.7671ZM10.8004 15.7671L10.7565 16.7661C10.7711 16.7667 10.7857 16.7671 10.8004 16.7671V15.7671ZM10.1254 14.2178C9.94481 13.6959 9.3753 13.4192 8.85338 13.5998C8.33146 13.7804 8.05477 14.3499 8.23537 14.8718L10.1254 14.2178ZM13.0004 6.60039C13.0004 6.0481 12.5527 5.60039 12.0004 5.60039C11.4481 5.60039 11.0004 6.0481 11.0004 6.60039H13.0004ZM11.0004 8.43372C11.0004 8.98601 11.4481 9.43372 12.0004 9.43372C12.5527 9.43372 13.0004 8.98601 13.0004 8.43372H11.0004ZM13.0004 15.7671C13.0004 15.2148 12.5527 14.7671 12.0004 14.7671C11.4481 14.7671 11.0004 15.2148 11.0004 15.7671H13.0004ZM11.0004 17.6004C11.0004 18.1527 11.4481 18.6004 12.0004 18.6004C12.5527 18.6004 13.0004 18.1527 13.0004 17.6004H11.0004ZM15.7654 9.32893C15.5817 8.79813 15.2453 8.33252 14.7964 7.99387L13.5919 9.59045C13.7204 9.68744 13.8202 9.82349 13.8754 9.98295L15.7654 9.32893ZM14.7964 7.99387C14.3473 7.65505 13.8068 7.45942 13.2443 7.43469L13.1565 9.43276C13.3119 9.43959 13.4636 9.49363 13.5919 9.59045L14.7964 7.99387ZM13.2004 7.43372H10.8004V9.43372H13.2004V7.43372ZM10.8004 7.43372C10.0518 7.43372 9.33766 7.73678 8.81403 8.2701L10.2412 9.67128C10.3927 9.51698 10.5942 9.43372 10.8004 9.43372V7.43372ZM8.81403 8.2701C8.29101 8.80281 8.00039 9.52147 8.00039 10.2671H10.0004C10.0004 10.0402 10.089 9.82621 10.2412 9.67128L8.81403 8.2701ZM8.00039 10.2671C8.00039 11.0126 8.29101 11.7313 8.81403 12.264L10.2412 10.8628C10.089 10.7079 10.0004 10.4939 10.0004 10.2671H8.00039ZM8.81403 12.264C9.33766 12.7973 10.0518 13.1004 10.8004 13.1004V11.1004C10.5942 11.1004 10.3927 11.0171 10.2412 10.8628L8.81403 12.264ZM10.8004 13.1004H13.2004V11.1004H10.8004V13.1004ZM13.2004 13.1004C13.4066 13.1004 13.6081 13.1836 13.7596 13.3379L15.1867 11.9368C14.6631 11.4034 13.949 11.1004 13.2004 11.1004V13.1004ZM13.7596 13.3379C13.9117 13.4929 14.0004 13.7068 14.0004 13.9337H16.0004C16.0004 13.1881 15.7098 12.4695 15.1867 11.9368L13.7596 13.3379ZM14.0004 13.9337C14.0004 14.1606 13.9117 14.3746 13.7596 14.5295L15.1867 15.9307C15.7098 15.398 16.0004 14.6793 16.0004 13.9337H14.0004ZM13.7596 14.5295C13.6081 14.6838 13.4066 14.7671 13.2004 14.7671V16.7671C13.949 16.7671 14.6631 16.464 15.1867 15.9307L13.7596 14.5295ZM13.2004 14.7671H10.8004V16.7671H13.2004V14.7671ZM10.8443 14.768C10.6889 14.7612 10.5372 14.7071 10.4089 14.6103L9.20435 16.2069C9.65344 16.5457 10.1939 16.7414 10.7565 16.7661L10.8443 14.768ZM10.4089 14.6103C10.2803 14.5133 10.1806 14.3773 10.1254 14.2178L8.23537 14.8718C8.41904 15.4026 8.75549 15.8683 9.20435 16.2069L10.4089 14.6103ZM11.0004 6.60039V8.43372H13.0004V6.60039H11.0004ZM11.0004 15.7671V17.6004H13.0004V15.7671H11.0004ZM20.6004 12.0004C20.6004 16.75 16.75 20.6004 12.0004 20.6004V22.6004C17.8546 22.6004 22.6004 17.8546 22.6004 12.0004H20.6004ZM12.0004 20.6004C7.25074 20.6004 3.40039 16.75 3.40039 12.0004H1.40039C1.40039 17.8546 6.14617 22.6004 12.0004 22.6004V20.6004ZM3.40039 12.0004C3.40039 7.25074 7.25074 3.40039 12.0004 3.40039V1.40039C6.14617 1.40039 1.40039 6.14617 1.40039 12.0004H3.40039ZM12.0004 3.40039C16.75 3.40039 20.6004 7.25074 20.6004 12.0004H22.6004C22.6004 6.14617 17.8546 1.40039 12.0004 1.40039V3.40039Z" fill="#00038F"/>
</svg>
