<svg width="40" height="40" viewBox="0 0 40 40" fill="none" xmlns="http://www.w3.org/2000/svg">
<path fill-rule="evenodd" clip-rule="evenodd" d="M13.4801 13.334H15.6018C16.2013 13.3485 16.6758 13.8461 16.6618 14.4457V25.5557C16.6758 26.1552 16.2013 26.6528 15.6018 26.6673H13.4801C12.8805 26.6528 12.4061 26.1552 12.4201 25.5557V23.334H9.38843C8.78886 23.3195 8.31446 22.8218 8.32843 22.2223V17.779C8.31446 17.1795 8.78886 16.6818 9.38843 16.6673H12.4201V14.4457C12.4061 13.8461 12.8805 13.3485 13.4801 13.334Z" stroke="#00038F" stroke-width="2" stroke-linecap="round" stroke-linejoin="round"/>
<path fill-rule="evenodd" clip-rule="evenodd" d="M26.5101 26.6673H24.3884C23.7888 26.6528 23.3144 26.1552 23.3284 25.5557V14.4457C23.3144 13.8461 23.7888 13.3485 24.3884 13.334H26.5101C27.1096 13.3485 27.5841 13.8461 27.5701 14.4457V16.6673H30.6001C30.8883 16.6738 31.1621 16.7947 31.3613 17.0032C31.5603 17.2117 31.6684 17.4908 31.6618 17.779V22.2223C31.6758 22.8218 31.2013 23.3195 30.6018 23.334H27.5701V25.5557C27.5841 26.1552 27.1096 26.6528 26.5101 26.6673Z" stroke="#00038F" stroke-width="2" stroke-linecap="round" stroke-linejoin="round"/>
<path d="M11.1719 23.3327C11.1719 24.023 11.7315 24.5827 12.4219 24.5827C13.1122 24.5827 13.6719 24.023 13.6719 23.3327H11.1719ZM13.6719 16.666C13.6719 15.9757 13.1122 15.416 12.4219 15.416C11.7315 15.416 11.1719 15.9757 11.1719 16.666H13.6719ZM28.8235 16.666C28.8235 15.9757 28.2639 15.416 27.5735 15.416C26.8832 15.416 26.3235 15.9757 26.3235 16.666H28.8235ZM26.3235 23.3327C26.3235 24.023 26.8832 24.5827 27.5735 24.5827C28.2639 24.5827 28.8235 24.023 28.8235 23.3327H26.3235ZM16.6635 18.7493C15.9732 18.7493 15.4135 19.309 15.4135 19.9993C15.4135 20.6897 15.9732 21.2493 16.6635 21.2493V18.7493ZM23.3302 21.2493C24.0205 21.2493 24.5802 20.6897 24.5802 19.9993C24.5802 19.309 24.0205 18.7493 23.3302 18.7493V21.2493ZM13.6719 23.3327V16.666H11.1719V23.3327H13.6719ZM26.3235 16.666V23.3327H28.8235V16.666H26.3235ZM16.6635 21.2493H23.3302V18.7493H16.6635V21.2493Z" fill="#00038F"/>
</svg>
