<svg width="40" height="40" viewBox="0 0 40 40" fill="none" xmlns="http://www.w3.org/2000/svg">
<path d="M23.2569 2.52805L20.4369 17.348L30.6544 17.3818L16.7457 37.4718L19.5669 21.168L9.34944 21.1318L23.2569 2.52805ZM23.2582 0.0292969C23.1907 0.0292969 23.1232 0.0317969 23.0569 0.0367969C22.6157 0.0717969 22.3232 0.220547 21.9769 0.453047C21.7844 0.580547 21.6082 0.738047 21.4532 0.919297C21.4069 0.973047 21.3644 1.0293 21.3244 1.0868L7.31569 19.6268C6.76319 20.3855 6.68069 21.3855 7.10569 22.2218C7.53069 23.058 8.38819 23.588 9.32944 23.5955L16.5457 23.648L14.2769 37.0155C14.0619 38.1643 14.6744 39.3093 15.7519 39.7705C16.0732 39.908 16.4107 39.9743 16.7432 39.9743C17.5294 39.9743 18.1744 39.6068 18.6594 38.943L32.6844 18.853C33.2369 18.0943 33.3182 17.093 32.8944 16.258C32.4694 15.4218 31.6119 14.8918 30.6707 14.8855L23.4544 14.873L25.6994 3.12055C25.7469 2.9318 25.7707 2.73555 25.7707 2.53305C25.7707 1.18055 24.6944 0.0780469 23.3469 0.0342969C23.3169 0.0330469 23.2882 0.0330469 23.2582 0.0330469V0.0292969Z" fill="#00038F"/>
</svg>
