<svg width="16" height="16" viewBox="0 0 16 16" fill="none" xmlns="http://www.w3.org/2000/svg">
<path fill-rule="evenodd" clip-rule="evenodd" d="M7.99998 2.66732C5.05446 2.66732 2.66665 5.05513 2.66665 8.00065C2.66665 10.9462 5.05446 13.334 7.99998 13.334C10.9455 13.334 13.3333 10.9462 13.3333 8.00065C13.3333 5.05513 10.9455 2.66732 7.99998 2.66732ZM1.33331 8.00065C1.33331 4.31875 4.31808 1.33398 7.99998 1.33398C11.6819 1.33398 14.6666 4.31875 14.6666 8.00065C14.6666 11.6826 11.6819 14.6673 7.99998 14.6673C4.31808 14.6673 1.33331 11.6825 1.33331 8.00065ZM7.99998 5.08398C8.36817 5.08398 8.66665 5.38246 8.66665 5.75065V5.77702C8.66665 6.14521 8.36817 6.44369 7.99998 6.44369C7.63179 6.44369 7.33331 6.14521 7.33331 5.77702V5.75065C7.33331 5.38246 7.63179 5.08398 7.99998 5.08398ZM7.99998 7.33398C8.36817 7.33398 8.66665 7.63246 8.66665 8.00065L8.66665 11.0007C8.66665 11.3688 8.36817 11.6673 7.99998 11.6673C7.63179 11.6673 7.33331 11.3688 7.33331 11.0007V8.00065C7.33331 7.63246 7.63179 7.33398 7.99998 7.33398Z" fill="#B42318"/>
</svg>
