<svg width="24" height="25" viewBox="0 0 24 25" fill="none" xmlns="http://www.w3.org/2000/svg">
<path d="M11.999 17.7752L7.84904 20.2752C7.66571 20.3919 7.47404 20.4419 7.27404 20.4252C7.07404 20.4085 6.89904 20.3419 6.74904 20.2252C6.59904 20.1085 6.48237 19.9627 6.39904 19.7877C6.31571 19.6127 6.29904 19.4169 6.34904 19.2002L7.44904 14.4752L3.77404 11.3002C3.60737 11.1502 3.50321 10.9794 3.46154 10.7877C3.41987 10.596 3.43237 10.4085 3.49904 10.2252C3.56571 10.0419 3.66571 9.89186 3.79904 9.7752C3.93237 9.65853 4.11571 9.58353 4.34904 9.5502L9.19904 9.1252L11.074 4.6752C11.1574 4.4752 11.2865 4.3252 11.4615 4.2252C11.6365 4.1252 11.8157 4.0752 11.999 4.0752C12.1824 4.0752 12.3615 4.1252 12.5365 4.2252C12.7115 4.3252 12.8407 4.4752 12.924 4.6752L14.799 9.1252L19.649 9.5502C19.8824 9.58353 20.0657 9.65853 20.199 9.7752C20.3324 9.89186 20.4324 10.0419 20.499 10.2252C20.5657 10.4085 20.5782 10.596 20.5365 10.7877C20.4949 10.9794 20.3907 11.1502 20.224 11.3002L16.549 14.4752L17.649 19.2002C17.699 19.4169 17.6824 19.6127 17.599 19.7877C17.5157 19.9627 17.399 20.1085 17.249 20.2252C17.099 20.3419 16.924 20.4085 16.724 20.4252C16.524 20.4419 16.3324 20.3919 16.149 20.2752L11.999 17.7752Z" fill="black"/>
</svg>
