<svg width="24" height="24" viewBox="0 0 24 24" fill="none" xmlns="http://www.w3.org/2000/svg">
<g clip-path="url(#clip0_705_12086)">
<path d="M18.2567 10.6887H21.0152V11.2375H18.2567V10.6887ZM20.0497 12.3438H19.2221C18.9174 12.3438 18.6704 12.0968 18.6704 11.7921V11.6542H20.6013V11.7921C20.6014 12.0968 20.3544 12.3438 20.0497 12.3438ZM19.5661 3.5175C17.9843 3.55472 16.7142 4.87922 16.74 6.46116C16.7522 7.209 17.0479 7.88803 17.5242 8.39531C17.9876 8.88891 18.2568 9.53334 18.2568 10.2104V10.2721H19.4291V7.86122H18.8774V7.4475H20.3946V7.86131H19.8428V10.2721H21.0152V10.2103C21.0152 9.53447 21.2823 8.88994 21.7455 8.39784C22.2334 7.8795 22.5323 7.18125 22.5323 6.41316C22.5323 4.79025 21.1976 3.47906 19.5661 3.5175ZM20.032 0.9375H19.4916V2.73328H20.032V0.9375ZM23.8125 2.82675L23.4304 2.44463L22.1605 3.71447L22.5427 4.09659L23.8125 2.82675ZM16.8176 4.09659L17.1998 3.71447L15.9299 2.44463L15.5478 2.82675L16.8176 4.09659ZM2.90644 14.3451C2.90644 14.1108 3.057 13.9519 3.29962 13.9519C3.54225 13.9519 3.69281 14.1024 3.69281 14.3451V23.0625H12.268V14.3451C12.268 14.1108 12.4186 13.9519 12.6612 13.9519C12.8955 13.9519 13.0544 14.1024 13.0544 14.3451V23.0625H15.7818V13.5586C15.7818 11.4085 14.0249 9.66 11.8832 9.66H11.0968L7.98469 15.219L5.00634 9.66H4.08609C1.93603 9.66 0.1875 11.4169 0.1875 13.5586V23.0625H2.91488V14.3451H2.90644ZM8.10694 8.59594C5.47791 8.59594 3.31734 6.65672 2.95294 4.13175C3.00497 4.24884 3.09609 4.32694 3.18722 4.41806C3.75984 4.99069 4.71 4.99069 5.28263 4.41806C5.37375 4.32694 5.45184 4.22287 5.51691 4.13175C6.0375 3.22069 7.02666 2.59594 8.11997 2.59594C9.75984 2.59594 11.1264 3.92353 11.1264 5.60241C11.1264 7.28128 9.78591 8.59594 8.10694 8.59594ZM6.85969 10.785C6.85969 10.1637 7.36341 9.66 7.98469 9.66C8.60597 9.66 9.10969 10.1637 9.10969 10.785C9.10969 11.4063 8.60597 11.91 7.98469 11.91C7.36341 11.91 6.85969 11.4064 6.85969 10.785Z" fill="#00038F"/>
</g>
<defs>
<clipPath id="clip0_705_12086">
<rect width="24" height="24" fill="white"/>
</clipPath>
</defs>
</svg>
