<svg width="40" height="40" viewBox="0 0 40 40" fill="none" xmlns="http://www.w3.org/2000/svg">
<path d="M39.1389 18.9507C38.974 18.6628 38.7529 18.411 38.4886 18.2103C38.2244 18.0096 37.9224 17.8642 37.6008 17.7827C36.173 17.4302 34.6943 17.3322 33.2325 17.4932C33.6172 15.3661 33.4815 13.1775 32.837 11.1143C32.6472 10.5259 32.2457 10.029 31.7104 9.71994C31.175 9.41086 30.5439 9.31161 29.9395 9.44147C28.4907 9.76188 27.108 10.3298 25.8523 11.1204C24.8497 9.0101 23.3584 7.16921 21.5022 5.75036C21.07 5.42435 20.5433 5.24802 20.0019 5.24805C19.4605 5.24808 18.9339 5.42446 18.5017 5.75052C16.6455 7.1693 15.1544 9.01014 14.1518 11.1204C12.8962 10.3299 11.5136 9.76192 10.0649 9.44146C9.46048 9.31169 8.82938 9.41099 8.29398 9.72009C7.75857 10.0292 7.35701 10.5261 7.16714 11.1144C6.5226 13.1776 6.3869 15.3661 6.77163 17.4931C5.30984 17.3319 3.83108 17.43 2.40335 17.7827C2.08218 17.8653 1.78072 18.0112 1.51662 18.2117C1.25251 18.4123 1.03108 18.6635 0.865267 18.9507C0.699458 19.2379 0.592609 19.5553 0.550976 19.8843C0.509343 20.2133 0.533762 20.5473 0.622804 20.8668C1.17563 22.8439 2.86775 26.602 7.98807 29.5583C13.0766 32.496 17.5734 32.4993 19.9937 32.4993C19.9961 32.4993 19.9984 32.4996 20.0008 32.4996L20.0021 32.4995L20.0033 32.4996C20.0057 32.4996 20.008 32.4993 20.0105 32.4993C22.4307 32.4993 26.9276 32.496 32.0161 29.5582C37.1364 26.6019 38.8285 22.8439 39.3813 20.8668C39.4716 20.5475 39.4967 20.2133 39.455 19.8841C39.4134 19.5549 39.3058 19.2375 39.1389 18.9507ZM20.0068 7.75368C21.5087 8.87505 25.0021 12.1912 25.0021 18.7493C25.0021 25.3074 21.5087 28.6236 20.007 29.7448C20.0064 29.7455 20.0056 29.746 20.0048 29.7463C20.0039 29.7467 20.003 29.7469 20.0021 29.7469C20.0011 29.7469 20.0002 29.7467 19.9994 29.7463C19.9985 29.746 19.9978 29.7455 19.9971 29.7448C18.495 28.6231 15.0021 25.3069 15.0021 18.7493C15.0021 12.1912 18.4954 8.87505 20.0068 7.75368ZM3.02423 20.2042C4.477 19.8558 5.98786 19.825 7.45362 20.114C7.85389 21.248 8.35971 22.342 8.9644 23.3816C10.3101 25.6923 12.0729 27.7333 14.1633 29.4009C12.4357 28.9655 10.7777 28.2897 9.23807 27.3933C4.88603 24.8805 3.48077 21.8038 3.02423 20.2042ZM30.7661 27.3931C29.2264 28.2896 27.5685 28.9654 25.8409 29.4008C27.9313 27.7332 29.694 25.6923 31.0397 23.3816C31.6444 22.342 32.1502 21.248 32.5505 20.114C34.014 19.8273 35.5216 19.8544 36.9738 20.1936C36.5234 21.8038 35.1181 24.8805 30.7661 27.3931Z" fill="#00038F"/>
</svg>
