<svg width="24" height="24" viewBox="0 0 24 24" fill="none" xmlns="http://www.w3.org/2000/svg">
<path d="M2.39961 14.0962L2.39942 8.82845C2.39937 7.50293 3.47389 6.42837 4.7994 6.42836L19.1996 6.42825C20.5251 6.42824 21.5996 7.50276 21.5996 8.82825V14.0962M2.39961 14.0962H21.5996M2.39961 14.0962L2.39941 19.6281C2.39937 20.9537 3.4739 22.0282 4.79941 22.0282H19.1996C20.5251 22.0282 21.5996 20.9537 21.5996 19.6282V14.0962M12.1742 22.0282V6.42823M10.9638 5.92304C11.1435 5.91566 11.3097 5.82117 11.399 5.66643C11.4883 5.51168 11.487 5.32052 11.4036 5.16124C11.085 4.58054 9.96693 2.64967 9.23726 2.22839C8.32819 1.70354 7.1605 2.01322 6.63824 2.9178C6.11602 3.82231 6.43157 4.98843 7.34071 5.51332C8.08232 5.94149 10.3016 5.93743 10.9638 5.92304ZM12.6342 5.16108C12.5507 5.3204 12.5495 5.51152 12.6388 5.66627C12.7282 5.82101 12.8944 5.91544 13.074 5.92288C13.7363 5.93726 15.9675 5.93443 16.6971 5.51316C17.6062 4.98831 17.9219 3.82221 17.3996 2.91764C16.8774 2.01313 15.7097 1.70334 14.8006 2.22823C14.059 2.6564 12.9528 4.58039 12.6342 5.16108Z" stroke="#00038F" stroke-width="2" stroke-linecap="round" stroke-linejoin="round"/>
</svg>
