<svg width="24" height="24" viewBox="0 0 24 24" fill="none" xmlns="http://www.w3.org/2000/svg">
<path d="M23.2283 14.1003C23.1701 13.4366 22.4053 13.0543 21.6656 12.6846C21.3691 12.5362 20.8747 12.2892 20.7855 12.1573C20.5074 11.4436 20.355 11.3758 19.1941 10.8595C18.8571 10.7096 18.4375 10.5231 17.8826 10.2652C16.3697 9.5624 15.2009 8.60549 14.2617 7.83656C13.6902 7.36865 13.1966 6.96459 12.7376 6.70659C12.0513 6.32081 11.4297 6.2654 10.922 6.52321C10.1702 6.90487 8.49046 8.74949 7.37512 9.71493C5.84343 11.0408 3.08896 12.7655 1.79108 13.1074C0.345271 13.4882 0.210552 14.5336 2.65208 14.8501C7.02655 15.4173 6.05596 16.3963 10.3232 16.6463C12.9889 16.8025 20.1142 15.8761 22.5003 14.994C22.7424 14.9274 22.906 14.8316 23.0292 14.6988C23.1795 14.5364 23.2484 14.3295 23.2283 14.1003ZM10.3423 13.9114C10.1384 13.9116 9.97293 13.7465 9.97274 13.5426C9.97255 13.3387 10.1376 13.1732 10.3416 13.173C10.5455 13.1728 10.7109 13.3379 10.7111 13.5418C10.7113 13.7456 10.5462 13.9112 10.3423 13.9114ZM11.4356 12.766C11.2544 12.7662 11.1073 12.6195 11.1071 12.4382C11.1069 12.2569 11.2536 12.1099 11.435 12.1097C11.6163 12.1095 11.7633 12.2562 11.7635 12.4375C11.7636 12.6188 11.6169 12.7658 11.4356 12.766ZM12.176 14.5657C11.9494 14.566 11.7655 14.3826 11.7653 14.156C11.7651 13.9294 11.9485 13.7455 12.1751 13.7453C12.4017 13.7451 12.5856 13.9285 12.5857 14.1551C12.5859 14.3817 12.4026 14.5655 12.176 14.5657ZM14.3768 11.3206C13.3451 10.1895 12.7138 8.50134 12.1284 7.44937C12.1771 7.47037 12.2271 7.49493 12.2781 7.52362C12.6659 7.74159 13.1301 8.12165 13.6677 8.56181C14.6477 9.36412 15.8673 10.3626 17.4876 11.1153C18.0495 11.3764 18.4729 11.5646 18.813 11.7159C19.3128 11.9382 19.6144 12.0724 19.7378 12.1683C19.7971 12.2142 19.8152 12.2487 19.915 12.5056C20.0847 12.9424 20.623 13.2114 21.2464 13.5231C21.4841 13.6419 21.8946 13.8541 22.139 14.0268C22.1947 14.0662 22.1748 14.1538 22.1072 14.1637C21.8635 14.1995 21.4348 14.2256 20.7447 14.1808C19.152 14.0775 16.443 13.5859 14.3768 11.3206ZM6.65549 16.8352C6.65549 17.0956 6.44436 17.3067 6.18402 17.3067C5.92368 17.3067 5.71255 17.0956 5.71255 16.8352C5.71255 16.5749 5.92368 16.3638 6.18402 16.3638C6.44436 16.3638 6.65549 16.5749 6.65549 16.8352ZM4.97999 16.0964C4.97999 16.326 4.7938 16.5122 4.56421 16.5122C4.33461 16.5122 4.14843 16.326 4.14843 16.0964C4.14843 15.8668 4.33461 15.6806 4.56421 15.6806C4.7938 15.6806 4.97999 15.8668 4.97999 16.0964ZM3.09936 17.0504C3.09936 17.2575 2.93146 17.4254 2.72436 17.4254C2.51727 17.4254 2.34936 17.2575 2.34936 17.0504C2.34936 16.8433 2.51727 16.6754 2.72436 16.6754C2.93146 16.6754 3.09936 16.8433 3.09936 17.0504ZM20.5547 16.6637C20.5547 16.8772 20.3815 17.0504 20.168 17.0504C19.9544 17.0504 19.7812 16.8772 19.7812 16.6637C19.7812 16.4501 19.9544 16.277 20.168 16.277C20.3815 16.277 20.5547 16.4501 20.5547 16.6637Z" fill="#00038F"/>
</svg>
