<svg width="40" height="40" viewBox="0 0 40 40" fill="none" xmlns="http://www.w3.org/2000/svg">
<path fill-rule="evenodd" clip-rule="evenodd" d="M19.8924 2.08399H20.1004C23.4566 2.08395 26.1054 2.08394 28.0346 2.3383C29.9309 2.58832 31.6348 3.1393 32.4439 4.71042C32.5604 4.93677 32.6589 5.172 32.7381 5.4139C33.2903 7.09885 32.4733 8.69044 31.3096 10.1968C30.1261 11.7287 28.2524 13.5842 25.8803 15.9333L21.7729 20.0007L25.8803 24.068C28.2524 26.4172 30.1261 28.2726 31.3096 29.8045C32.4733 31.3108 33.2903 32.9025 32.7381 34.5873C32.6589 34.8293 32.5604 35.0645 32.4439 35.2908C31.6348 36.862 29.9309 37.413 28.0346 37.663C26.1054 37.9173 23.4566 37.9173 20.1004 37.9173H19.8924C16.5362 37.9173 13.8874 37.9173 11.9581 37.663C10.0618 37.413 8.35803 36.862 7.54885 35.2908C7.43227 35.0645 7.33387 34.8293 7.2546 34.5873C6.7025 32.9025 7.51953 31.3108 8.68322 29.8045C9.86665 28.2726 11.7404 26.4172 14.1126 24.068L18.2199 20.0007L14.1126 15.9333C11.7404 13.5842 9.86665 11.7287 8.68322 10.1968C7.51953 8.69044 6.7025 7.09887 7.2546 5.4139C7.33387 5.172 7.43227 4.93677 7.54885 4.71042C8.35803 3.1393 10.0618 2.58832 11.9581 2.3383C13.8874 2.08394 16.5361 2.08395 19.8924 2.08399ZM19.9964 18.2415L24.0463 14.2309C26.5096 11.7917 28.2619 10.0524 29.3311 8.66845C30.4324 7.24288 30.4921 6.5882 30.3624 6.19235C30.3244 6.07653 30.2773 5.96377 30.2214 5.8551C30.0269 5.47745 29.5068 5.05403 27.7079 4.81685C25.9619 4.58665 23.4792 4.58399 19.9964 4.58399C16.5136 4.58399 14.0308 4.58665 12.2849 4.81685C10.486 5.05403 9.9659 5.47745 9.7714 5.8551C9.71543 5.96377 9.66827 6.07653 9.63032 6.19235C9.50062 6.5882 9.56038 7.24288 10.6616 8.66845C11.7308 10.0524 13.4832 11.7917 15.9464 14.2309L19.9964 18.2415ZM19.9964 21.7598L15.9464 25.7703C13.4832 28.2097 11.7308 29.949 10.6616 31.3328C9.56038 32.7585 9.50062 33.4132 9.63032 33.809C9.66827 33.9248 9.71543 34.0375 9.7714 34.1462C9.9659 34.5238 10.486 34.9473 12.2849 35.1845C14.0308 35.4146 16.5136 35.4173 19.9964 35.4173C23.4792 35.4173 25.9619 35.4146 27.7079 35.1845C29.5068 34.9473 30.0269 34.5238 30.2214 34.1462C30.2773 34.0375 30.3244 33.9248 30.3624 33.809C30.4921 33.4132 30.4324 32.7585 29.3311 31.3328C28.2619 29.949 26.5096 28.2097 24.0463 25.7703L19.9964 21.7598ZM15.413 9.16732C15.413 8.47697 15.9727 7.91732 16.663 7.91732H23.3298C24.0201 7.91732 24.5798 8.47697 24.5798 9.16732C24.5798 9.85767 24.0201 10.4173 23.3298 10.4173H16.663C15.9727 10.4173 15.413 9.85767 15.413 9.16732ZM15.413 30.834C15.413 30.1437 15.9727 29.584 16.663 29.584H23.3298C24.0201 29.584 24.5798 30.1437 24.5798 30.834C24.5798 31.5243 24.0201 32.084 23.3298 32.084H16.663C15.9727 32.084 15.413 31.5243 15.413 30.834Z" fill="#00038F"/>
</svg>
