<svg width="20" height="21" viewBox="0 0 20 21" fill="none" xmlns="http://www.w3.org/2000/svg">
<path d="M10 15.5C10.2833 15.5 10.5208 15.4042 10.7125 15.2125C10.9042 15.0208 11 14.7833 11 14.5V10.5C11 10.2167 10.9042 9.97917 10.7125 9.7875C10.5208 9.59583 10.2833 9.5 10 9.5C9.71667 9.5 9.47917 9.59583 9.2875 9.7875C9.09583 9.97917 9 10.2167 9 10.5V14.5C9 14.7833 9.09583 15.0208 9.2875 15.2125C9.47917 15.4042 9.71667 15.5 10 15.5ZM10 7.5C10.2833 7.5 10.5208 7.40417 10.7125 7.2125C10.9042 7.02083 11 6.78333 11 6.5C11 6.21667 10.9042 5.97917 10.7125 5.7875C10.5208 5.59583 10.2833 5.5 10 5.5C9.71667 5.5 9.47917 5.59583 9.2875 5.7875C9.09583 5.97917 9 6.21667 9 6.5C9 6.78333 9.09583 7.02083 9.2875 7.2125C9.47917 7.40417 9.71667 7.5 10 7.5ZM10 20.5C8.61667 20.5 7.31667 20.2375 6.1 19.7125C4.88333 19.1875 3.825 18.475 2.925 17.575C2.025 16.675 1.3125 15.6167 0.7875 14.4C0.2625 13.1833 0 11.8833 0 10.5C0 9.11667 0.2625 7.81667 0.7875 6.6C1.3125 5.38333 2.025 4.325 2.925 3.425C3.825 2.525 4.88333 1.8125 6.1 1.2875C7.31667 0.7625 8.61667 0.5 10 0.5C11.3833 0.5 12.6833 0.7625 13.9 1.2875C15.1167 1.8125 16.175 2.525 17.075 3.425C17.975 4.325 18.6875 5.38333 19.2125 6.6C19.7375 7.81667 20 9.11667 20 10.5C20 11.8833 19.7375 13.1833 19.2125 14.4C18.6875 15.6167 17.975 16.675 17.075 17.575C16.175 18.475 15.1167 19.1875 13.9 19.7125C12.6833 20.2375 11.3833 20.5 10 20.5Z" fill="#00038F"/>
</svg>
