<svg width="20" height="20" viewBox="0 0 20 20" fill="none" xmlns="http://www.w3.org/2000/svg">
<path d="M10.3422 1.74144C12.9055 1.74144 13.2092 1.75124 14.2214 1.79743C15.1574 1.84011 15.6657 1.9965 16.0041 2.12797C16.4521 2.30211 16.7719 2.51015 17.1078 2.84606C17.4438 3.18201 17.6518 3.50181 17.826 3.94991C17.9574 4.2882 18.1138 4.79651 18.1565 5.7325C18.2027 6.74478 18.2125 7.04842 18.2125 9.6117C18.2125 12.1751 18.2027 12.4787 18.1565 13.491C18.1138 14.4269 17.9574 14.9352 17.826 15.2735C17.6518 15.7216 17.4438 16.0415 17.1079 16.3774C16.7719 16.7133 16.4521 16.9213 16.0041 17.0955C15.6657 17.227 15.1574 17.3833 14.2214 17.426C13.2093 17.4722 12.9057 17.482 10.3422 17.482C7.77872 17.482 7.47516 17.4722 6.46299 17.426C5.52699 17.3833 5.01867 17.227 4.68039 17.0955C4.23229 16.9213 3.91249 16.7133 3.57658 16.3774C3.24066 16.0415 3.03259 15.7216 2.85844 15.2735C2.72697 14.9352 2.57058 14.4269 2.5279 13.491C2.48171 12.4787 2.47192 12.1751 2.47192 9.6117C2.47192 7.04842 2.48171 6.74478 2.5279 5.7325C2.57058 4.79651 2.72697 4.2882 2.85844 3.94991C3.03259 3.50181 3.24063 3.18201 3.57658 2.8461C3.91249 2.51015 4.23229 2.30211 4.68039 2.12797C5.01867 1.9965 5.52699 1.84011 6.46299 1.79743C7.47527 1.75124 7.77891 1.74144 10.3422 1.74144ZM10.3422 0.0117188C7.73501 0.0117188 7.40808 0.0227699 6.38414 0.0694894C5.36233 0.116095 4.66447 0.278393 4.05383 0.515688C3.42255 0.761022 2.88718 1.08927 2.35344 1.62297C1.81975 2.1567 1.49149 2.69207 1.24619 3.32335C1.00887 3.93399 0.846562 4.63184 0.799962 5.65365C0.753239 6.67759 0.742188 7.00452 0.742188 9.6117C0.742188 12.2189 0.753239 12.5459 0.799962 13.5698C0.846562 14.5916 1.00887 15.2895 1.24619 15.9001C1.49149 16.5314 1.81975 17.0667 2.35344 17.6005C2.88718 18.1342 3.42255 18.4624 4.05383 18.7077C4.66447 18.9451 5.36233 19.1074 6.38414 19.1539C7.40808 19.2007 7.73501 19.2117 10.3422 19.2117C12.9494 19.2117 13.2764 19.2007 14.3003 19.1539C15.3221 19.1074 16.02 18.9451 16.6306 18.7077C17.2619 18.4624 17.7973 18.1342 18.331 17.6005C18.8647 17.0667 19.1929 16.5314 19.4383 15.9001C19.6756 15.2895 19.8379 14.5916 19.8845 13.5698C19.9312 12.5459 19.9422 12.2189 19.9422 9.6117C19.9422 7.00452 19.9312 6.67759 19.8845 5.65365C19.8379 4.63184 19.6756 3.93399 19.4383 3.32335C19.1929 2.69207 18.8647 2.1567 18.331 1.62297C17.7973 1.08927 17.2619 0.761022 16.6306 0.515688C16.02 0.278393 15.3221 0.116095 14.3003 0.0694894C13.2764 0.0227699 12.9494 0.0117188 10.3422 0.0117188Z" fill="white"/>
<path d="M10.3516 4.6875C7.62898 4.6875 5.42188 6.8946 5.42188 9.6172C5.42188 12.3398 7.62898 14.547 10.3516 14.547C13.0743 14.547 15.2814 12.3398 15.2814 9.6172C15.2814 6.8946 13.0743 4.6875 10.3516 4.6875ZM10.3516 12.8172C8.58428 12.8172 7.15161 11.3846 7.15161 9.6172C7.15161 7.8499 8.58428 6.41722 10.3516 6.41722C12.1189 6.41722 13.5516 7.8499 13.5516 9.6172C13.5516 11.3846 12.1189 12.8172 10.3516 12.8172Z" fill="white"/>
<path d="M16.6243 4.48991C16.6243 5.12611 16.1086 5.6419 15.4723 5.6419C14.8361 5.6419 14.3203 5.12611 14.3203 4.48991C14.3203 3.85367 14.8361 3.33789 15.4723 3.33789C16.1086 3.33789 16.6243 3.85367 16.6243 4.48991Z" fill="white"/>
</svg>
