<svg width="28" height="28" viewBox="0 0 28 28" fill="none" xmlns="http://www.w3.org/2000/svg">
<path d="M16.276 1.76866L14.302 12.1427L21.4542 12.1663L11.7181 26.2293L13.693 14.8167L6.5407 14.7913L16.276 1.76866ZM16.2768 0.0195312C16.2296 0.0195312 16.1823 0.0212812 16.136 0.0247812C15.8271 0.0492813 15.6223 0.153406 15.38 0.316156C15.2452 0.405406 15.1218 0.515656 15.0133 0.642531C14.981 0.680156 14.9512 0.719531 14.9232 0.759781L5.11708 13.7378C4.73033 14.2689 4.67258 14.9689 4.97008 15.5543C5.26758 16.1397 5.86783 16.5107 6.5267 16.5159L11.5781 16.5527L9.98995 25.9099C9.83945 26.714 10.2682 27.5155 11.0225 27.8384C11.2473 27.9347 11.4836 27.981 11.7163 27.981C12.2667 27.981 12.7182 27.7238 13.0577 27.2592L22.8752 13.1962C23.2619 12.665 23.3188 11.9642 23.0222 11.3797C22.7247 10.7943 22.1244 10.4233 21.4656 10.4189L16.4142 10.4102L17.9857 2.18341C18.019 2.05128 18.0356 1.91391 18.0356 1.77216C18.0356 0.825406 17.2822 0.0536563 16.339 0.0230313C16.318 0.0221563 16.2978 0.0221563 16.2768 0.0221563V0.0195312Z" fill="#00038F"/>
</svg>
