<svg width="16" height="12" viewBox="0 0 16 12" fill="none" xmlns="http://www.w3.org/2000/svg">
<path d="M12.566 9.64787C12.1575 9.71649 11.882 10.1033 11.9506 10.5118C12.0193 10.9202 12.406 11.1958 12.8145 11.1271L12.566 9.64787ZM11.7614 5.53678C11.3472 5.53678 11.0114 5.87256 11.0114 6.28678C11.0114 6.70099 11.3472 7.03678 11.7614 7.03678V5.53678ZM11.0693 4.71199C12.1763 4.71199 13.0734 3.81435 13.0734 2.70749H11.5734C11.5734 2.98632 11.3475 3.21199 11.0693 3.21199V4.71199ZM9.06514 2.70749C9.06514 3.81435 9.96222 4.71199 11.0693 4.71199V3.21199C10.791 3.21199 10.5651 2.98632 10.5651 2.70749H9.06514ZM11.0693 0.703002C9.96222 0.703002 9.06514 1.60064 9.06514 2.70749H10.5651C10.5651 2.42867 10.791 2.203 11.0693 2.203V0.703002ZM13.0734 2.70749C13.0734 1.60064 12.1763 0.703002 11.0693 0.703002V2.203C11.3475 2.203 11.5734 2.42867 11.5734 2.70749H13.0734ZM14 8.37307C14 8.68221 13.9026 8.93448 13.7121 9.13438C13.5148 9.34132 13.1636 9.54748 12.566 9.64787L12.8145 11.1271C13.643 10.988 14.3218 10.6688 14.7978 10.1693C15.2806 9.66284 15.5 9.02767 15.5 8.37307H14ZM11.7614 7.03678C12.4521 7.03678 13.0451 7.23344 13.4454 7.51281C13.8481 7.79394 14 8.1098 14 8.37307H15.5C15.5 7.48411 14.9829 6.75682 14.304 6.28286C13.6225 5.80715 12.7213 5.53678 11.7614 5.53678V7.03678ZM6.6969 2.57202C6.6969 3.34883 6.18786 3.77302 5.66887 3.77302V5.27302C7.11383 5.27302 8.1969 4.07623 8.1969 2.57202H6.6969ZM5.66887 3.77302C5.14988 3.77302 4.64084 3.34883 4.64084 2.57202H3.14084C3.14084 4.07622 4.22391 5.27302 5.66887 5.27302V3.77302ZM4.64084 2.57202C4.64084 2.18419 4.77175 1.92927 4.93453 1.77096C5.10192 1.60816 5.3522 1.5 5.66887 1.5V0C5.00357 0 4.36483 0.232596 3.88871 0.695669C3.40796 1.16324 3.14084 1.81934 3.14084 2.57202H4.64084ZM5.66887 1.5C5.98555 1.5 6.23582 1.60816 6.40322 1.77096C6.56599 1.92927 6.6969 2.18419 6.6969 2.57202H8.1969C8.1969 1.81934 7.92979 1.16324 7.44904 0.695669C6.97291 0.232596 6.33417 0 5.66887 0V1.5ZM9.5527 9.1259C9.5527 9.36042 9.4369 9.67029 8.87581 9.96283C8.28991 10.2683 7.29547 10.5 5.77635 10.5V12C7.41196 12 8.68069 11.7562 9.56929 11.2929C10.4827 10.8167 11.0527 10.0645 11.0527 9.1259H9.5527ZM5.77635 10.5C4.25723 10.5 3.26279 10.2683 2.67689 9.96283C2.1158 9.67029 2 9.36042 2 9.1259H0.5C0.5 10.0645 1.07001 10.8167 1.98342 11.2929C2.87201 11.7562 4.14074 12 5.77635 12V10.5ZM2 9.1259C2 9.00161 2.13604 8.65876 2.89435 8.3029C3.59316 7.97497 4.61129 7.75181 5.77635 7.75181V6.25181C4.44158 6.25181 3.19653 6.50414 2.25712 6.94498C1.37722 7.3579 0.5 8.07709 0.5 9.1259H2ZM5.77635 7.75181C6.94141 7.75181 7.95954 7.97497 8.65835 8.3029C9.41666 8.65876 9.5527 9.00161 9.5527 9.1259H11.0527C11.0527 8.07709 10.1755 7.3579 9.29558 6.94498C8.35617 6.50414 7.11112 6.25181 5.77635 6.25181V7.75181Z" fill="#00038F"/>
</svg>
