<svg width="32" height="33" viewBox="0 0 32 33" fill="none" xmlns="http://www.w3.org/2000/svg">
<path d="M24.1974 23.4621C23.7345 23.5399 23.4222 23.9782 23.5 24.4412C23.5778 24.9041 24.0161 25.2164 24.4791 25.1386L24.1974 23.4621ZM22.6869 16.1602C22.2175 16.1602 21.8369 16.5407 21.8369 17.0102C21.8369 17.4796 22.2175 17.8602 22.6869 17.8602V16.1602ZM21.4565 13.7272C23.1575 13.7272 24.5361 12.3479 24.5361 10.647H22.8361C22.8361 11.4095 22.2182 12.0272 21.4565 12.0272V13.7272ZM18.3769 10.647C18.3769 12.3479 19.7555 13.7272 21.4565 13.7272V12.0272C20.6948 12.0272 20.0769 11.4095 20.0769 10.647H18.3769ZM21.4565 7.56677C19.7555 7.56677 18.3769 8.94605 18.3769 10.647H20.0769C20.0769 9.88449 20.6948 9.26677 21.4565 9.26677V7.56677ZM24.5361 10.647C24.5361 8.94605 23.1575 7.56677 21.4565 7.56677V9.26677C22.2182 9.26677 22.8361 9.88449 22.8361 10.647H24.5361ZM27.15 20.7191C27.15 21.38 26.9375 21.9519 26.5046 22.406C26.0641 22.8682 25.3343 23.2711 24.1974 23.4621L24.4791 25.1386C25.8776 24.9037 26.9787 24.3726 27.7352 23.579C28.4993 22.7773 28.85 21.7715 28.85 20.7191H27.15ZM22.6869 17.8602C24.0016 17.8602 25.1552 18.2335 25.9573 18.7935C26.7622 19.3554 27.15 20.0495 27.15 20.7191H28.85C28.85 19.3404 28.0484 18.18 26.9304 17.3995C25.8095 16.6171 24.3066 16.1602 22.6869 16.1602V17.8602ZM14.1667 10.4061C14.1667 12.0215 13.0768 13.0246 11.8558 13.0246V14.7246C14.1262 14.7246 15.8667 12.8459 15.8667 10.4061H14.1667ZM11.8558 13.0246C10.6348 13.0246 9.54483 12.0215 9.54483 10.4061H7.84483C7.84483 12.8459 9.58532 14.7246 11.8558 14.7246V13.0246ZM9.54483 10.4061C9.54483 9.59909 9.82145 9.01665 10.2133 8.63556C10.6104 8.24937 11.1805 8.01699 11.8558 8.01699V6.31699C10.7853 6.31699 9.77498 6.6904 9.02802 7.41689C8.27582 8.14847 7.84483 9.1856 7.84483 10.4061H9.54483ZM11.8558 8.01699C12.5311 8.01699 13.1012 8.24937 13.4983 8.63556C13.8901 9.01665 14.1667 9.59909 14.1667 10.4061H15.8667C15.8667 9.1856 15.4357 8.14847 14.6835 7.41689C13.9366 6.6904 12.9262 6.31699 11.8558 6.31699V8.01699ZM19.2437 22.0575C19.2437 22.7013 18.8915 23.3947 17.7805 23.9739C16.6413 24.5679 14.785 24.9837 12.0468 24.9837V26.6837C14.9171 26.6837 17.0842 26.2541 18.5664 25.4814C20.0767 24.6939 20.9437 23.4992 20.9437 22.0575H19.2437ZM12.0468 24.9837C9.30866 24.9837 7.45237 24.5679 6.31324 23.9739C5.20223 23.3947 4.85 22.7013 4.85 22.0575H3.15C3.15 23.4992 4.01699 24.6939 5.5273 25.4814C7.00949 26.2541 9.17663 26.6837 12.0468 26.6837V24.9837ZM4.85 22.0575C4.85 21.5386 5.33067 20.8078 6.71797 20.1568C8.03782 19.5374 9.92094 19.1313 12.0468 19.1313V17.4313C9.7286 17.4313 7.5883 17.8705 5.99577 18.6178C4.47068 19.3335 3.15 20.4908 3.15 22.0575H4.85ZM12.0468 19.1313C14.1728 19.1313 16.0559 19.5374 17.3757 20.1568C18.763 20.8078 19.2437 21.5386 19.2437 22.0575H20.9437C20.9437 20.4908 19.623 19.3335 18.0979 18.6178C16.5054 17.8705 14.3651 17.4313 12.0468 17.4313V19.1313Z" fill="#00038F"/>
</svg>
