<svg width="24" height="24" viewBox="0 0 24 24" fill="none" xmlns="http://www.w3.org/2000/svg">
<path d="M12.0005 4.9375C10.3174 4.9375 8.95312 6.30177 8.95312 7.98492V16.0146C8.95312 17.6978 10.3174 19.062 12.0005 19.062C13.6837 19.062 15.048 17.6978 15.048 16.0146V7.98492C15.048 6.30177 13.6837 4.9375 12.0005 4.9375Z" fill="white"/>
<path d="M8.95312 7.98492V16.0146C8.95312 17.6978 10.3174 19.062 12.0005 19.062V4.9375C10.3174 4.9375 8.95312 6.30177 8.95312 7.98492Z" fill="#EFEFEF"/>
<path d="M12.0005 19.0623C13.6837 19.0623 15.048 17.698 15.048 16.0149V12H8.95312V16.0149C8.95312 17.698 10.3174 19.0623 12.0005 19.0623Z" fill="#0105B6"/>
<path d="M8.95312 12V16.0149C8.95312 17.698 10.3174 19.0623 12.0005 19.0623V12H8.95312Z" fill="#0509E0"/>
</svg>
