<svg width="24" height="24" viewBox="0 0 24 24" fill="none" xmlns="http://www.w3.org/2000/svg">
<g clip-path="url(#clip0_705_12066)">
<path d="M22.5053 6.18844C21.3804 4.23994 18.9287 4.2307 16.4627 4.89431C16.1523 2.89884 15.178 0 12.2228 0C9.97332 0 8.74055 2.11303 8.08154 4.57903C6.19922 3.8543 3.19688 3.24727 1.71919 5.81156C0.594615 7.76006 1.80877 9.88697 3.61576 11.6893C2.04408 12.9555 0.0203967 15.2518 1.49813 17.8116C2.62294 19.7601 5.07465 19.7693 7.53582 19.1057C7.85105 21.1011 8.82507 24 11.7805 24C14.0299 24 15.2628 21.8824 15.9216 19.4164C17.8088 20.1457 20.8063 20.7481 22.284 18.1884C23.4088 16.2445 22.1946 14.1177 20.3876 12.3153C21.9593 11.0445 23.9827 8.74814 22.5053 6.18844ZM20.9427 17.5859C19.9639 19.2753 17.6346 18.7527 16.1898 18.221C16.5098 16.5459 16.6087 14.8327 16.6087 13.6094H15.7334C15.7334 14.6871 15.5593 16.2587 15.178 17.7881C15.0793 18.1788 14.9664 18.5648 14.8394 18.9412C14.1852 20.9034 13.1404 22.5363 11.6347 22.5363C9.68176 22.5363 8.96644 20.2587 8.70746 18.7436C10.3216 18.1833 11.8511 17.4118 12.9099 16.7955L12.4722 16.0377C11.5404 16.574 10.091 17.2096 8.57583 17.6425C8.18518 17.7555 7.79457 17.8544 7.40391 17.9293C5.38046 18.3438 3.44644 18.2588 2.69344 16.9504C1.71919 15.2611 3.32879 13.506 4.51468 12.5175C5.8088 13.6329 7.23915 14.574 8.30283 15.1857L8.74055 14.4284C7.80877 13.8916 6.53326 12.9504 5.39935 11.8493C5.11233 11.5717 4.83455 11.285 4.57097 10.9881C3.19688 9.43987 2.30743 7.72247 3.06038 6.41414C4.03468 4.72477 6.36394 5.24733 7.80882 5.77903C7.48876 7.45411 7.3899 9.16734 7.3899 10.3907H8.26997C8.26997 9.31298 8.44393 7.74131 8.82507 6.21192C8.92388 5.82127 9.03694 5.43066 9.16402 5.0543C9.81821 3.09202 10.8628 1.46377 12.3687 1.46377C14.3216 1.46377 15.0369 3.74137 15.2956 5.25652C13.6817 5.81667 12.1475 6.58833 11.0886 7.20459L11.5309 7.96237C12.4581 7.42613 13.9075 6.7905 15.4276 6.35761C15.8133 6.24455 16.204 6.14573 16.5946 6.07083C18.6229 5.65627 20.5569 5.7413 21.3099 7.04967C22.2839 8.739 20.6746 10.494 19.4887 11.4825C18.1945 10.3672 16.7593 9.42605 15.7005 8.81437L15.2628 9.57169C16.1897 10.1085 17.4698 11.0497 18.5992 12.1508C18.891 12.4283 19.1686 12.7202 19.4321 13.0165C20.8063 14.5602 21.6957 16.2775 20.9427 17.5859Z" fill="#00038F"/>
<path d="M11.9988 10.3125C11.0675 10.3125 10.3125 11.0671 10.3125 11.9986C10.3125 12.9301 11.0676 13.6852 11.9988 13.6852C12.93 13.6852 13.685 12.9301 13.685 11.9986C13.685 11.067 12.93 10.3125 11.9988 10.3125Z" fill="#00038F"/>
</g>
<defs>
<clipPath id="clip0_705_12066">
<rect width="24" height="24" fill="white"/>
</clipPath>
</defs>
</svg>
