<svg width="24" height="24" viewBox="0 0 24 24" fill="none" xmlns="http://www.w3.org/2000/svg">
<path d="M18.6407 7.65133C18.6965 7.2796 18.7221 6.90406 18.7175 6.52821C17.5988 5.36561 16.257 4.44073 14.7724 3.80899C13.2877 3.17725 11.6909 2.85156 10.0775 2.85156C8.46408 2.85156 6.86728 3.17725 5.38268 3.80899C3.89808 4.44073 2.55621 5.36561 1.4375 6.52821C1.4375 20.0258 10.0775 22.0514 10.0775 22.0514C10.7165 21.7809 11.3329 21.4599 11.9207 21.0914" stroke="#00038F" stroke-width="2" stroke-linecap="round" stroke-linejoin="round"/>
<path d="M22.5609 13.4121H12.9609" stroke="#00038F" stroke-width="2" stroke-linecap="round" stroke-linejoin="round"/>
<path d="M20.6409 10.4824H14.8809C13.8205 10.4824 12.9609 11.3421 12.9609 12.4024V17.2024C12.9609 18.2628 13.8205 19.1224 14.8809 19.1224H20.6409C21.7014 19.1224 22.5609 18.2628 22.5609 17.2024V12.4024C22.5609 11.3421 21.7014 10.4824 20.6409 10.4824Z" stroke="#00038F" stroke-width="2" stroke-linecap="round" stroke-linejoin="round"/>
</svg>
