<svg width="40" height="40" viewBox="0 0 40 40" fill="none" xmlns="http://www.w3.org/2000/svg">
<path d="M15.0052 20L18.3385 23.3333L25.0052 16.6666M33.3385 20C33.3385 27.4351 24.2385 32.8228 21.0742 34.4716C20.732 34.65 20.5609 34.7391 20.3235 34.7853C20.1385 34.8213 19.8719 34.8213 19.6869 34.7853C19.4495 34.7391 19.2784 34.65 18.9362 34.4716C15.7718 32.8228 6.67188 27.4351 6.67188 20V13.6959C6.67188 12.3634 6.67188 11.6972 6.88981 11.1245C7.08233 10.6185 7.39517 10.1671 7.80131 9.80916C8.26104 9.40401 8.88487 9.17007 10.1325 8.70219L19.0689 5.35107C19.4154 5.22114 19.5885 5.15617 19.7669 5.13041C19.9249 5.10757 20.0855 5.10757 20.2435 5.13041C20.4219 5.15617 20.595 5.22114 20.9415 5.35107L29.8779 8.70219C31.1255 9.17007 31.7494 9.40401 32.209 9.80916C32.6152 10.1671 32.928 10.6185 33.1205 11.1245C33.3385 11.6972 33.3385 12.3634 33.3385 13.6959V20Z" stroke="#00038F" stroke-width="2" stroke-linecap="round" stroke-linejoin="round"/>
</svg>
