<svg width="24" height="24" viewBox="0 0 24 24" fill="none" xmlns="http://www.w3.org/2000/svg">
<path d="M15.6788 4.12203L15.6793 4.12246C16.4213 4.88382 16.4053 6.11327 15.6443 6.85529L14.7962 7.68234C14.5173 6.17249 13.7521 5.04336 13.2261 3.86157C13.9841 3.35886 15.0226 3.44873 15.6788 4.12203ZM14.045 8.41426L12.6527 9.77165C12.3723 8.24756 11.5953 7.11109 11.0685 5.91704L12.4389 4.58131C12.7474 6.05197 13.5939 7.17022 14.045 8.41426ZM11.9021 10.5028L10.5094 11.8606C10.2293 10.336 9.45285 9.19962 8.92563 8.00557L10.2959 6.67028C10.6049 8.14042 11.4514 9.25867 11.9021 10.5028ZM9.75924 12.5912L8.36594 13.9494C8.0864 12.4244 7.31028 11.288 6.78314 10.0939L8.15253 8.75907C8.46229 10.2288 9.30894 11.3472 9.75924 12.5912ZM7.61632 14.6801L6.22267 16.0387C5.94399 14.5134 5.16787 13.3764 4.6403 12.1828L6.00926 10.8485C6.31997 12.3183 7.16645 13.436 7.61632 14.6801ZM5.4734 16.7691L4.07932 18.128C3.8015 16.6022 3.02581 15.4649 2.49772 14.2713L3.86634 12.9373C4.17739 14.4062 5.02396 15.5244 5.4734 16.7691ZM3.33048 18.858L3.27954 18.9077C2.51853 19.6497 1.28917 19.6341 0.546717 18.8727L0.546285 18.8723C-0.195735 18.1108 -0.179677 16.8813 0.581249 16.1395L1.72298 15.0267C2.0349 16.4952 2.88155 17.613 3.33048 18.858Z" fill="#00038F"/>
<path d="M23.4524 5.12791L23.4528 5.12834C24.1947 5.8897 24.1788 7.11914 23.4178 7.86116L22.5696 8.68822C22.2909 7.17845 21.5255 6.04924 20.9996 4.86736C21.7575 4.36474 22.7958 4.45461 23.4524 5.12791ZM21.8184 9.42014L20.4261 10.7775C20.1457 9.25335 19.3687 8.11696 18.8419 6.92291L20.2122 5.58728C20.5207 7.05785 21.3674 8.1761 21.8184 9.42014ZM19.6755 11.5087L18.2827 12.8665C18.0028 11.3419 17.2262 10.2055 16.699 9.01144L18.0693 7.67624C18.3783 9.14612 19.2248 10.2645 19.6755 11.5087ZM17.5327 13.597L16.1394 14.9552C15.8598 13.4302 15.0837 12.2938 14.5566 11.0998L15.926 9.76495C16.2358 11.2347 17.0823 12.353 17.5327 13.597ZM15.3897 15.686L13.996 17.0445C13.7173 15.5191 12.9411 14.3822 12.4136 13.1887L13.7825 11.8543C14.0932 13.3241 14.9398 14.4419 15.3897 15.686ZM13.2468 17.775L11.8528 19.134C11.5749 17.6082 10.7993 16.4707 10.2712 15.2772L11.6397 13.9432C11.9508 15.4121 12.7974 16.5304 13.2468 17.775ZM11.1038 19.8638L11.0529 19.9135C10.292 20.6555 9.06253 20.64 8.32017 19.8785L8.31965 19.8782C7.57771 19.1167 7.59377 17.8872 8.3547 17.1453L9.49635 16.0325C9.80835 17.501 10.6549 18.6189 11.1038 19.8638Z" fill="#00038F"/>
</svg>
