<svg width="40" height="40" viewBox="0 0 40 40" fill="none" xmlns="http://www.w3.org/2000/svg">
<path d="M34.4392 15.8936C34.532 15.3955 34.5784 14.8951 34.5784 14.3995C34.5784 10.8155 32.3054 7.68195 28.968 6.53813C27.7266 2.65383 24.1402 0 20.0032 0C15.8662 0 12.2786 2.65383 11.0384 6.53813C7.69977 7.6807 5.42797 10.8155 5.42797 14.3995C5.42797 14.8951 5.47438 15.3955 5.56594 15.8936C3.62742 17.6759 2.53125 20.1551 2.53125 22.8101C2.53125 28.0066 6.75852 32.2339 11.9551 32.2339C12.9878 32.2339 13.9961 32.0679 14.9653 31.7407C16.092 32.5391 17.3933 33.0554 18.7531 33.2531V40H19.3781H20.6281H21.2531V33.2532C22.613 33.0555 23.9143 32.5391 25.0409 31.7408C26.009 32.068 27.0185 32.234 28.0512 32.234C33.2477 32.234 37.475 28.0067 37.475 22.8102C37.4752 20.155 36.3777 17.6758 34.4392 15.8936ZM28.0513 29.7339C27.1065 29.7339 26.1898 29.5459 25.323 29.1748L24.6126 28.8696L24.0217 29.3701C23.0598 30.1855 21.872 30.686 20.6281 30.813V27.5415L25.5146 21.958L24.5735 21.1352L20.6282 25.6445V21.04L24.5687 16.5356L23.6275 15.7129L20.6282 19.1406V12.0825H19.3782V19.1418L16.3777 15.7128L15.4366 16.5355L19.3782 21.0401V25.6446L15.4329 21.1353L14.4917 21.958L19.3782 27.5415V30.813C18.133 30.686 16.9466 30.1855 15.9834 29.3701L15.3938 28.8696L14.6822 29.1748C13.8167 29.5459 12.8988 29.7338 11.9552 29.7338C8.1368 29.7338 5.03133 26.6284 5.03133 22.81C5.03133 20.6603 6.01281 18.667 7.72297 17.3412L8.39195 16.8212L8.15883 16.0083C8.005 15.4736 7.92813 14.9316 7.92813 14.3994C7.92813 11.7162 9.7482 9.39445 12.3544 8.75359L13.0966 8.57047L13.2723 7.82703C14.0145 4.68992 16.7818 2.5 20.0032 2.5C23.2246 2.5 25.992 4.68992 26.733 7.82719L26.9087 8.57063L27.6509 8.75375C30.2571 9.39461 32.0784 11.7164 32.0784 14.3995C32.0784 14.9318 32.0003 15.4738 31.8465 16.0084L31.6134 16.8214L32.2823 17.3414C33.9937 18.6671 34.9752 20.6605 34.9752 22.8102C34.9752 26.6284 31.8684 29.7339 28.0513 29.7339Z" fill="#00038F"/>
</svg>
