<svg width="25" height="25" viewBox="0 0 25 25" fill="none" xmlns="http://www.w3.org/2000/svg">
<path d="M22.4954 10.2507C22.3199 9.97482 22.1733 9.68161 22.0579 9.37569C21.9573 9.06134 21.8944 8.73614 21.8704 8.40694C21.8567 7.6103 21.6263 6.83245 21.2038 6.15694C20.6871 5.54439 20.0139 5.08356 19.2559 4.82361C18.9465 4.70422 18.6499 4.55417 18.3704 4.37569C18.128 4.16702 17.9049 3.93692 17.7038 3.68819C17.2252 3.03847 16.5763 2.53375 15.8288 2.22986C15.0719 2.05101 14.2811 2.07617 13.5371 2.30277C12.8725 2.45895 12.1808 2.45895 11.5163 2.30277C10.7593 2.06861 9.95308 2.04342 9.18294 2.22986C8.4278 2.53043 7.77133 3.03542 7.28711 3.68819C7.07939 3.93785 6.84927 4.16798 6.59961 4.37569C6.32015 4.55417 6.02354 4.70422 5.71419 4.82361C4.95241 5.08189 4.27538 5.54284 3.75586 6.15694C3.34435 6.83562 3.12474 7.61326 3.12044 8.40694C3.09653 8.73614 3.03359 9.06134 2.93294 9.37569C2.81625 9.67442 2.66968 9.9606 2.49544 10.2299C2.02579 10.8994 1.7484 11.6847 1.69336 12.5007C1.75212 13.3095 2.02934 14.0871 2.49544 14.7507C2.67369 15.0176 2.82049 15.3042 2.93294 15.6049C3.02357 15.9275 3.07602 16.2596 3.08919 16.5944C3.10184 17.3912 3.3324 18.1694 3.75586 18.8444C4.27252 19.457 4.94576 19.9178 5.70378 20.1778C6.01312 20.2972 6.30974 20.4472 6.58919 20.6257C6.83885 20.8334 7.06898 21.0635 7.27669 21.3132C7.75204 21.966 8.40193 22.4715 9.15169 22.7715C9.44548 22.8609 9.75084 22.9066 10.0579 22.9069C10.5284 22.892 10.9961 22.8291 11.4538 22.7194C12.1172 22.5536 12.8112 22.5536 13.4746 22.7194C14.2334 22.9447 15.0382 22.9662 15.8079 22.7819C16.5577 22.4819 17.2076 21.9764 17.6829 21.3236C17.8907 21.0739 18.1208 20.8438 18.3704 20.6361C18.6499 20.4576 18.9465 20.3076 19.2559 20.1882C20.0139 19.9282 20.6871 19.4674 21.2038 18.8549C21.6272 18.1798 21.8578 17.4017 21.8704 16.6049C21.8836 16.27 21.9361 15.9379 22.0267 15.6153C22.1434 15.3165 22.29 15.0304 22.4642 14.7611C22.9432 14.0979 23.2314 13.3161 23.2975 12.5007C23.2388 11.6919 22.9615 10.9143 22.4954 10.2507ZM17.4017 11.1569L12.1934 16.3653C12.0965 16.4629 11.9813 16.5404 11.8544 16.5933C11.7274 16.6462 11.5913 16.6734 11.4538 16.6734C11.3163 16.6734 11.1801 16.6462 11.0532 16.5933C10.9262 16.5404 10.811 16.4629 10.7142 16.3653L7.58919 13.2403C7.49207 13.1431 7.41503 13.0278 7.36246 12.9009C7.3099 12.7741 7.28285 12.638 7.28285 12.5007C7.28285 12.2233 7.39304 11.9573 7.58919 11.7611C7.78534 11.565 8.05138 11.4548 8.32877 11.4548C8.60617 11.4548 8.87221 11.565 9.06836 11.7611L11.4538 14.1569L15.9225 9.67777C16.1187 9.48162 16.3847 9.37143 16.6621 9.37143C16.9395 9.37143 17.2055 9.48162 17.4017 9.67777C17.5978 9.87392 17.708 10.14 17.708 10.4174C17.708 10.6948 17.5978 10.9608 17.4017 11.1569Z" fill="white"/>
</svg>
