<svg width="16" height="16" viewBox="0 0 16 16" fill="none" xmlns="http://www.w3.org/2000/svg">
<path d="M15.1962 6.38046C15.0699 6.18183 14.9643 5.97072 14.8812 5.75046C14.8088 5.52413 14.7635 5.28998 14.7462 5.05296C14.7364 4.47938 14.5704 3.91933 14.2662 3.43296C13.8943 2.99192 13.4095 2.66013 12.8637 2.47296C12.641 2.387 12.4275 2.27896 12.2262 2.15046C12.0517 2.00022 11.8911 1.83454 11.7462 1.65546C11.4017 1.18766 10.9345 0.824261 10.3962 0.605458C9.85129 0.476687 9.28192 0.494803 8.74625 0.657958C8.26777 0.770404 7.76973 0.770404 7.29125 0.657958C6.74622 0.489362 6.16575 0.471222 5.61125 0.605458C5.06755 0.821873 4.59489 1.18546 4.24625 1.65546C4.0967 1.83521 3.93101 2.0009 3.75125 2.15046C3.55004 2.27896 3.33648 2.387 3.11375 2.47296C2.56526 2.65892 2.07781 2.9908 1.70375 3.43296C1.40746 3.92161 1.24934 4.48151 1.24625 5.05296C1.22904 5.28998 1.18372 5.52413 1.11125 5.75046C1.02723 5.96555 0.921699 6.17159 0.79625 6.36546C0.458097 6.84752 0.258377 7.41296 0.21875 8.00046C0.261058 8.58278 0.460656 9.14269 0.79625 9.62046C0.924587 9.81264 1.03029 10.019 1.11125 10.2355C1.1765 10.4677 1.21426 10.7069 1.22375 10.948C1.23286 11.5217 1.39886 12.0819 1.70375 12.568C2.07575 13.009 2.56048 13.3408 3.10625 13.528C3.32898 13.6139 3.54254 13.722 3.74375 13.8505C3.9235 14 4.0892 14.1657 4.23875 14.3455C4.581 14.8155 5.04892 15.1794 5.58875 15.3955C5.80028 15.4598 6.02014 15.4927 6.24125 15.493C6.57996 15.4822 6.9167 15.4369 7.24625 15.358C7.7239 15.2386 8.2236 15.2386 8.70125 15.358C9.2476 15.5201 9.827 15.5356 10.3812 15.403C10.9211 15.1869 11.389 14.823 11.7312 14.353C11.8808 14.1732 12.0465 14.0075 12.2262 13.858C12.4275 13.7295 12.641 13.6214 12.8637 13.5355C13.4095 13.3483 13.8943 13.0165 14.2662 12.5755C14.5711 12.0894 14.7371 11.5292 14.7462 10.9555C14.7557 10.7144 14.7935 10.4752 14.8587 10.243C14.9428 10.0279 15.0483 9.82182 15.1737 9.62796C15.5186 9.15043 15.7261 8.58757 15.7738 8.00046C15.7314 7.41814 15.5318 6.85823 15.1962 6.38046ZM11.5287 7.03296L7.77875 10.783C7.70903 10.8533 7.62608 10.909 7.53468 10.9471C7.44329 10.9852 7.34526 11.0048 7.24625 11.0048C7.14724 11.0048 7.04921 10.9852 6.95782 10.9471C6.86642 10.909 6.78347 10.8533 6.71375 10.783L4.46375 8.53296C4.39382 8.46303 4.33835 8.38001 4.30051 8.28864C4.26266 8.19728 4.24318 8.09935 4.24318 8.00046C4.24318 7.80073 4.32252 7.60919 4.46375 7.46796C4.60498 7.32673 4.79652 7.24739 4.99625 7.24739C5.19598 7.24739 5.38752 7.32673 5.52875 7.46796L7.24625 9.19296L10.4637 5.96796C10.605 5.82673 10.7965 5.74739 10.9962 5.74739C11.196 5.74739 11.3875 5.82673 11.5287 5.96796C11.67 6.10919 11.7493 6.30073 11.7493 6.50046C11.7493 6.70018 11.67 6.89173 11.5287 7.03296Z" fill="#00038F"/>
</svg>
