<svg width="24" height="24" viewBox="0 0 24 24" fill="none" xmlns="http://www.w3.org/2000/svg">
<path d="M11.2878 23.8125C8.3875 23.6106 6.148 20.9856 6.95565 17.8283C9.39709 18.7461 11.3979 20.1412 11.2878 23.8125ZM11.8385 7.40166C9.26856 6.06159 8.25897 2.75747 10.2231 0.1875C12.0955 2.00484 13.3988 4.06078 11.8385 7.40166ZM12.7196 16.6717C15.6199 16.4514 17.8594 13.8448 17.0518 10.6875C14.6103 11.6053 12.6095 13.0004 12.7196 16.6717ZM12.7196 22.344C15.6199 22.1237 17.8594 19.5171 17.0518 16.3597C14.6103 17.2776 12.6095 18.6727 12.7196 22.344ZM12.7196 10.9996C15.6199 10.7977 17.8594 8.17266 17.0518 5.01534C14.6103 5.93316 12.6095 7.32825 12.7196 10.9996ZM11.2878 18.1586C8.3875 17.9383 6.148 15.3133 6.95565 12.1744C9.39709 13.0922 11.3979 14.4873 11.2878 18.1586ZM11.2878 12.4865C8.3875 12.2662 6.148 9.65953 6.95565 6.50222C9.39709 7.42003 11.3979 8.81512 11.2878 12.4865Z" fill="#00038F"/>
</svg>
