<svg width="14" height="15" viewBox="0 0 14 15" fill="none" xmlns="http://www.w3.org/2000/svg">
<path d="M6.06536 8.6987L4.63203 7.26536C4.50981 7.14314 4.35425 7.08203 4.16536 7.08203C3.97648 7.08203 3.82092 7.14314 3.6987 7.26536C3.57648 7.38759 3.51536 7.54314 3.51536 7.73203C3.51536 7.92092 3.57648 8.07648 3.6987 8.1987L5.5987 10.0987C5.73203 10.232 5.88759 10.2987 6.06536 10.2987C6.24314 10.2987 6.3987 10.232 6.53203 10.0987L10.2987 6.33203C10.4209 6.20981 10.482 6.05425 10.482 5.86536C10.482 5.67648 10.4209 5.52092 10.2987 5.3987C10.1765 5.27648 10.0209 5.21536 9.83203 5.21536C9.64314 5.21536 9.48759 5.27648 9.36536 5.3987L6.06536 8.6987ZM6.9987 14.1654C6.07648 14.1654 5.20981 13.9904 4.3987 13.6404C3.58759 13.2904 2.88203 12.8154 2.28203 12.2154C1.68203 11.6154 1.20703 10.9098 0.857031 10.0987C0.507031 9.28759 0.332031 8.42092 0.332031 7.4987C0.332031 6.57648 0.507031 5.70981 0.857031 4.8987C1.20703 4.08759 1.68203 3.38203 2.28203 2.78203C2.88203 2.18203 3.58759 1.70703 4.3987 1.35703C5.20981 1.00703 6.07648 0.832031 6.9987 0.832031C7.92092 0.832031 8.78759 1.00703 9.5987 1.35703C10.4098 1.70703 11.1154 2.18203 11.7154 2.78203C12.3154 3.38203 12.7904 4.08759 13.1404 4.8987C13.4904 5.70981 13.6654 6.57648 13.6654 7.4987C13.6654 8.42092 13.4904 9.28759 13.1404 10.0987C12.7904 10.9098 12.3154 11.6154 11.7154 12.2154C11.1154 12.8154 10.4098 13.2904 9.5987 13.6404C8.78759 13.9904 7.92092 14.1654 6.9987 14.1654Z" fill="#027A48"/>
</svg>
